<svg id="Layer_2" data-name="Layer 2" xmlns="http://www.w3.org/2000/svg" viewBox="0 0 600 600"><defs><style>.cls-1{fill:#333;}.cls-2{fill:#fff;}</style></defs><title>Artboard 1</title><path class="cls-1" d="M188.92,347.79,130.8,364.73c-8.65,2.52-17.72,5.3-24,12.44s-8.51,20.13-2.18,27.47c5.37,6.22,14.12,5.91,21.53,4.2s15.22-4.36,22.39-1.4c10.66,4.42,14.95,18.89,23.13,27.92,11.82,13.05,30.12,13.31,46.39,12.19,96.71-6.69,192.09-33.19,280.24-77.88,6.58-3.33,14.27-9.13,13-17.28-1-6.4-7.15-9.8-12.53-12-4.3-1.75-8.64-3.37-13-4.89-46.57,16-114.13,32.15-181,38.36C236.39,380.22,204.84,365,188.92,347.79Z"/><path class="cls-1" d="M540.49,244.5a2.93,2.93,0,0,0-2.69-2.37l-20.75-.89c3.75-.55,7.71-1.19,10.3-4.78a7.19,7.19,0,0,0,1.12-6.11c-1.3-4.36-6-4.72-9.66-4a34.52,34.52,0,0,1-5,.73c-2.26.07-3.38-3.08-1.69-4.78l10.27-10.31c3.07-3.08,6.47-7,4.42-12.08a8.66,8.66,0,0,0-3.13-3.88,21.94,21.94,0,0,0-21-2.32c-2.81,1.17-6.27,2.83-8.36,0a6.09,6.09,0,0,1-.6-5.53c3.64-10,11.93-16.49,16.34-25.9A36.64,36.64,0,0,0,512.85,141c-.73-4.42-2.57-9-6.15-10.89-2.51-1.3-5.41-1-8.13-.51-17.34,3.2-36.59,25.53-47.25,41.46,10.11,21.59,29.88,48.15,38,79.17a240.75,240.75,0,0,0,46.93-1.81C538.33,248.14,541,247,540.49,244.5Z"/><path class="cls-1" d="M142,225.32c2.07-.27,13.34,0,17.34-.14a49,49,0,0,1-5.87-13.83c-.56-2.2-.93-4.77.26-6.62s4.44-1.53,4.56.76c-.34-5.69-.65-11.62,1.31-16.85s6.93-9.48,11.76-8.08,8.13,8,13.19,8c3,0,5.75-2.48,7.31-5.48s2.23-6.49,3.1-9.83c4.64-17.73,15.93-33,30.42-41.25,3.06-1.73,13.35-3,16-.48,2,1.89,5,6.82,5.5,9.71,2.46,14.15,3,23.49,13,32.25S281,189.77,289,200.93c4.23,5.91,7.58,13.36,6.61,20.92-1,8.14-9-1.54-15.71,1.5s-8.18,6.45-15.37,6.56c-35.05.51-7,8.06-41.85,3.67-2.5-.32-28.94.13-31-1.58s-48.1-2.68-52.23-4.52S140,225.58,142,225.32Z"/><path class="cls-2" d="M533.52,284.44c-7.85-20.44-21.39-29.65-30.84-32.92-1.41-11.16-12.93-40.05-20.42-52.42-8.08-13.34-27.73-32.34-40.4-38.85a140.3,140.3,0,0,0-44.34-14.18c-17.81-2.73-58.39-3.88-66.1-3.36A455,455,0,0,0,282.76,148c-22.31,3.78-48.2,15.12-53.16,19s-7.89,8.29-13.49,16.17-22.22,45.36-22.22,45.36-15,3.26-22.31,4.62-39.11,10.19-49.85,16a73.63,73.63,0,0,0-18.22,14.21c-2.3.81-21.94,7.8-32.82,13.72-11.57,6.31-15.43,9.25-18.92,16.18s-4.22,23.94-.36,49.77c.06.43.13.85.2,1.27-4.2-1-6.68-1.63-6.68-1.63s-7.1-.77-7.66,12.53S38.77,369,58,373.6c1.94.47,4.41,1,7.3,1.61a35.44,35.44,0,0,0,10.94,7.59c9.43,4.24,60.53,8.86,68,9.56,6.66.63,31.74,2.6,51.68-3,15.7.52,23.6,1.53,24.55-4.68.4-2.69.53-2.78.94-5.83,2.82-2.13,12.56,4,15.31,1.55,12.23-10.93,101.39,3.82,108.37,0,0-.07-.06-.75-.19-1.92a9.69,9.69,0,0,1,.19,1.92L471.7,355.84,476,356l66.8-24.91S544.53,313.14,533.52,284.44Z"/><path class="cls-1" d="M464.22,346l-1-.09a418.64,418.64,0,0,1,7-44.25c5.38-25.72,16.82-51,23.55-52,6.52-1,29.06,5.57,40.2,34.62,10.94,28.48,9.35,46.66,9.34,46.84l-1-.09c0-.18,1.57-18.16-9.27-46.4-10.93-28.47-32.81-34.95-39.12-34-5.62.86-17,23.92-22.72,51.27A415.43,415.43,0,0,0,464.22,346Z"/><path class="cls-1" d="M345.1,380.44,471.67,355.8s.31-5.74-4.28-8.33-7-1.61-7-1.61L342.93,365.22S345.18,373.75,345.1,380.44Z"/><path class="cls-1" d="M344.59,381.05v-.62c.07-6.54-2.13-15-2.15-15.08l-.14-.53.54-.09,117.43-19.36c.43-.15,3-.82,7.35,1.66,4.81,2.71,4.55,8.55,4.54,8.79l0,.39-.38.08Zm-1-15.42a70.39,70.39,0,0,1,2.05,14.2l125.57-24.44c0-1.29-.44-5.46-4-7.49-4.27-2.41-6.52-1.59-6.55-1.58l-.1,0Z"/><path class="cls-2" d="M230.25,368.94c-.25,12.54,1.44,23,11.43,35a44,44,0,0,0,39.86,15.55c14.47-2.17,27.78-12,35.87-25.63a62.21,62.21,0,0,0,7.28-18.47c4.17-19.09-1.43-40.49-14.14-54-7.23-7.68-18.71-13-28.52-14.77"/><path class="cls-2" d="M229.72,368.94c-.13,7.51.49,15,3.36,22.05a49.63,49.63,0,0,0,14.7,19.62,44.11,44.11,0,0,0,42.58,7.11c15-5.55,26.38-18.33,32.07-33a63.28,63.28,0,0,0-.88-47.11,52.6,52.6,0,0,0-13-18.85,54.74,54.74,0,0,0-20.95-11.32,54,54,0,0,0-5.45-1.3c-.66-.12-.95.89-.28,1a56.6,56.6,0,0,1,21.2,8.67A47.65,47.65,0,0,1,318,332.58a62.29,62.29,0,0,1,5.69,44.82c-4,15.44-14,29.52-28.3,37A42.27,42.27,0,0,1,253,413a48.07,48.07,0,0,1-16.57-17.48,46,46,0,0,1-5.63-21.07c-.07-1.83-.07-3.66,0-5.5,0-.67-1-.67-1.05,0Z"/><path class="cls-1" d="M162.57,393.66c-8.16,0-14.92-.51-18.37-.84l-1.16-.11c-37.87-3.53-61-6.81-67-9.49C62.42,377.11,54,363.57,50.88,343c-3.6-24.14-3.45-42.39.42-50.07,3.57-7.09,7.7-10.16,19.12-16.38s32.91-13.77,33.12-13.85l.33.95c-.21.07-21.57,7.56-33,13.77s-15.23,9-18.71,16c-3.77,7.5-3.89,25.53-.32,49.47,3,20.23,11.29,33.5,24.58,39.47,5.78,2.59,29.47,5.93,66.68,9.41l1.16.11c8.67.82,38.5,2.85,58.38-5.27C223.7,378,249,353,259,331c9.45-20.85,24.05-30,40.05-25.22,14.16,4.26,30.3,32,31.41,54,.59,11.66,2.9,18.7,6.87,20.94,2,1.13,4.47,1,7.28-.48A211.15,211.15,0,0,0,334,333.21c-9-25-25.36-45.68-40.69-51.35l-1.51-.56c-17-6.33-45.46-16.93-83.84,5.42l-.51-.87c38.79-22.58,68.66-11.46,84.7-5.49l1.51.56c15.59,5.77,32.18,26.65,41.28,51.95a209,209,0,0,1,10.68,47.57v.3l-.26.14c-3.26,1.76-6.13,2-8.54.62-4.29-2.41-6.77-9.73-7.38-21.76-1.09-21.62-16.87-48.89-30.7-53.05-15.47-4.66-29.63,4.33-38.85,24.67-10.1,22.27-35.59,47.45-56.82,56.12C190.89,392.45,175.09,393.66,162.57,393.66Z"/><path class="cls-1" d="M252,355.72c-3,12.85.18,27.8,10.72,36.42a24.26,24.26,0,0,0,15.74,5.76,23.89,23.89,0,0,0,16.25-7.06c4.8-4.83,7.47-11.52,9.55-17.89,2.21-6.79,3.06-13.81,1.39-20.83-2.71-11.43-12.24-22.87-24.58-23.84a23.5,23.5,0,0,0-18.2,6.55c-5.7,5.7-8.49,13.35-10.87,20.89-.2.64.81.92,1,.28,2-6.42,4.31-13,8.66-18.29a22.07,22.07,0,0,1,6.87-5.81,25.11,25.11,0,0,1,8.46-2.54c12.09-1.23,22.51,8.37,26.47,19.15a33.86,33.86,0,0,1,1.14,19.27,56.32,56.32,0,0,1-7.4,18.27,23.63,23.63,0,0,1-14.49,10.28,22,22,0,0,1-16.37-2.89C253.91,385.8,249.83,369.59,253,356,253.18,355.34,252.16,355.06,252,355.72Z"/><path class="cls-1" d="M276,342c-4.49,1-8.68,6.18-11.07,11.24A24.79,24.79,0,0,0,263.34,370c1.51,5.49,5.23,10.19,10,12.17,5.6,2.35,12.21.66,16.75-3.77s7-11.34,7-18.16a20.8,20.8,0,0,0-2.09-9.56,16.4,16.4,0,0,0-7.44-7A17.26,17.26,0,0,0,276,342Z"/><path class="cls-1" d="M131.07,340.83a125,125,0,0,1-13.71-.8c-22.1-2.45-33.08-10.29-33.56-24-.64-17.84,6.12-33.21,10.2-40.78,5.48-10.18,16.26-20.64,27.47-26.67,11-5.89,42.75-14.66,50-16,6.74-1.25,20.07-4.13,22-4.56,1.53-3.46,16.77-37.63,22.16-45.22L217,181c4.8-6.77,7.69-10.85,12.32-14.48,4.86-3.81,30.73-15.26,53.38-19.1a436.41,436.41,0,0,1,46.12-5.09l2.58-.17c7.89-.54,48.73.69,66.22,3.37a141.17,141.17,0,0,1,44.49,14.22c12.65,6.5,32.38,25.47,40.6,39s20.91,45.95,20.63,55l0,1.22-.82-.89c-.1-.11-10.23-10.79-23.72-11.6-13.74-.84-33.13.11-42.8.94l-4.87.42c-17.82,1.51-65.14,5.55-105.11,9.57-47.55,4.79-75.77,11.7-104.12,25.52-26.25,12.8-35.65,26.19-45.6,40.36-1.33,1.89-2.66,3.78-4,5.69C163.21,337.39,146.67,340.83,131.07,340.83ZM337.22,143.05c-2.58,0-4.58,0-5.8.12l-2.59.17a431.29,431.29,0,0,0-46,5.08c-22.48,3.81-48.12,15.14-52.93,18.9-4.5,3.53-7.37,7.57-12.11,14.27l-1.28,1.8c-5.51,7.74-22,44.9-22.17,45.27l-.1.24-.25,0c-.15,0-15.06,3.27-22.33,4.62-7.53,1.4-39.27,10.3-49.7,15.91-11,5.94-21.67,16.25-27.06,26.26-4,7.49-10.71,22.67-10.09,40.28.47,13.1,11.16,20.63,32.68,23,18.3,2,42.5,1.13,53.89-14.62,1.38-1.9,2.71-3.79,4-5.67,10-14.29,19.5-27.78,46-40.69,28.46-13.87,56.78-20.82,104.46-25.62,40-4,87.31-8.05,105.12-9.57l4.87-.42c9.71-.83,29.16-1.78,42.95-.94,11.55.7,20.68,8.39,23.49,11-.76-10.13-12.78-40.54-20.46-53.22-8.14-13.44-27.68-32.24-40.2-38.67a140.29,140.29,0,0,0-44.19-14.12C382.68,144.27,351.31,143.05,337.22,143.05Z"/><path class="cls-2" d="M265.26,225.6c-23.9-.84-59.73,5.18-60.83,2.1s5.38-20.44,9.3-27.58,9.3-18.9,18-24.36,27.91-8.4,48.6-8.82,53,1.54,56.19,12.18.24,22.54-1,27.72-4.65,21.14-9.43,23.94S293.3,226.58,265.26,225.6Z"/><path class="cls-1" d="M321.92,231.93c-4.29,0-10.95-.91-19.15-2-10.77-1.48-24.18-3.32-37.52-3.79-11.6-.4-26.19.82-37.92,1.81-16.8,1.41-22.73,1.74-23.37,0-1.23-3.43,5.67-21.32,9.33-28,.51-.92,1-1.91,1.59-3,3.75-7.07,8.89-16.76,16.58-21.59,8.14-5.11,26.4-8.44,48.85-8.89,8.79-.18,52.8-.42,56.68,12.54,3.15,10.55.42,22.1-.9,27.65l-.34,1.45c-1.54,6.62-4.74,20.4-9.39,23.13A9.53,9.53,0,0,1,321.92,231.93Zm-56.64-6.83c13.39.47,26.83,2.32,37.63,3.8,11.5,1.58,20.59,2.83,22.94,1.45,4.28-2.51,7.66-17,8.93-22.5l.34-1.45c1.29-5.47,4-16.84.91-27.14-2.85-9.5-31.78-12.31-55.7-11.82-22.27.45-40.34,3.72-48.34,8.74-7.46,4.69-12.53,14.24-16.23,21.21-.55,1.05-1.09,2.05-1.59,3-4.27,7.77-10.23,24.49-9.27,27.17.69,1.2,12.19.23,22.35-.62C239,225.92,253.63,224.69,265.28,225.1Z"/><path class="cls-1" d="M57.33,305.44a37.43,37.43,0,0,0,4.52,3.82A34.54,34.54,0,0,1,66,313.18a57.14,57.14,0,0,1,7.16,9.52,1.13,1.13,0,0,0,2-1.14,61.94,61.94,0,0,0-7.31-9.74,34.69,34.69,0,0,0-4.17-4,42.32,42.32,0,0,1-4.75-4c-1-1.07-2.57.53-1.59,1.59Z"/><path class="cls-1" d="M74.64,301.81a21.47,21.47,0,0,0-5,3.4,41.91,41.91,0,0,0-5.08,4.42,66.81,66.81,0,0,0-4.47,5.06,18.74,18.74,0,0,0-2.63,5.39c-.48,1.38,1.7,2,2.17.6A16.24,16.24,0,0,1,61.9,316c1.29-1.66,2.77-3.2,4.21-4.73a36.76,36.76,0,0,1,4.49-4c1.46-1.13,2.9-2.59,4.64-3.28,1.33-.52.75-2.7-.6-2.17Z"/><path class="cls-1" d="M199.79,311.51a8.91,8.91,0,0,0,.7,4.4,50.73,50.73,0,0,0,1.95,4.77,74.65,74.65,0,0,0,4.57,8.73A79.77,79.77,0,0,0,219.09,344c1,1,2.63-.58,1.59-1.59A78.31,78.31,0,0,1,209.41,329a64.44,64.44,0,0,1-4.25-7.78c-.68-1.45-1.36-2.89-1.94-4.37-.51-1.3-1.51-3.3-1.26-4.73s-1.93-2-2.17-.6Z"/><path class="cls-1" d="M219.31,319.3c-2.51,1.86-4.54,4.27-7,6.22-2.69,2.15-5.53,4.09-8.33,6.08-5.07,3.62-9.76,8.1-15.57,10.54-1.32.55-.74,2.73.59,2.17,5.9-2.48,10.6-6.81,15.73-10.49,2.76-2,5.56-3.89,8.24-6a46.63,46.63,0,0,0,3.8-3.23,36.54,36.54,0,0,1,3.66-3.38c1.15-.85,0-2.81-1.14-1.94Z"/><path class="cls-2" d="M37.89,340.57s-7.81-.83-8.42,13.59,1.65,15,22.83,20S151,392.37,182.59,391.26s46.88,4.06,48.28-5,4.14-22.93-.14-23.44-83.65-3.94-117.25-7.81S37.89,340.57,37.89,340.57Z"/><path class="cls-1" d="M218.28,392.24c-2.71,0-5.84-.12-9.43-.25-7-.27-15.71-.6-26.24-.23-30.43,1.05-107.41-11.65-130.43-17.09-21.13-5-23.85-5.63-23.22-20.53.26-5.95,1.74-10.12,4.4-12.38a6.48,6.48,0,0,1,4.58-1.68H38c.42.1,42.36,10.58,75.53,14.4,24.51,2.83,73.43,5.41,99.71,6.8,9.86.53,16.37.87,17.54,1a2.37,2.37,0,0,1,1.62.95c2.2,2.88.73,12-.56,20.06-.17,1-.33,2.05-.48,3C230.62,391.18,226.39,392.24,218.28,392.24Zm-26.11-1.64c6.39,0,12,.21,16.72.39,13.73.52,20.62.78,21.48-4.83.15-1,.31-2,.48-3,1.13-7.08,2.69-16.77.75-19.31a1.38,1.38,0,0,0-.93-.56c-1.14-.13-8-.5-17.47-1-26.29-1.39-75.23-4-99.77-6.81-32.79-3.77-74.09-14-75.63-14.41a5.53,5.53,0,0,0-3.8,1.47c-2.4,2-3.79,6.08-4,11.64-.6,14.07,1.58,14.59,22.44,19.52,23,5.43,99.77,18.14,130.15,17.06Q187.66,390.6,192.17,390.6Z"/><path class="cls-1" d="M46.72,352.61c0,2.73,3.55,2.48,5.42,2.3a2.92,2.92,0,0,1,1.44,0c.62.27,1.05,1.28,1.23,1.87.48,1.55.24,3.39,1.38,4.69,1.87,2.13,5,.71,7.1-.29,1.07-.52,2.16-1,3.23-1.47a5.18,5.18,0,0,1,2.16-.81c.77.06,1.22,1,1.53,1.62,1.06,2.05,1.6,6,4.36,6.44,1.59.25,2.93-1.15,4.19-1.9.8-.47,1.62-.89,2.46-1.28.69-.31,2-1.19,2.7-.85s1,1.5,1.29,2.13a8.68,8.68,0,0,0,1.25,2.22,3.59,3.59,0,0,0,3.94,1.33,27.42,27.42,0,0,0,5.46-2.88c1.7-1,3.42-2,5.16-2.93,1.29-.71,3.1-1.74,4.42-.55s2.22,3.64,2.92,5.4c.81,2,1.45,6.43,4.26,6.53,1.5.06,2.85-.9,4.22-1.37,1.1-.38,2.2-.74,3.31-1.11.84-.28,2-1,2.95-.84s1.75,1.18,2.36,1.84,1.31,1.39,1.93,2.11a22.6,22.6,0,0,0,3.43,3.55c2.87,2.09,5.63-.3,7.85-2.16a15,15,0,0,1,5.07-2.83,2.22,2.22,0,0,1,2.23.16,9.46,9.46,0,0,1,1.71,1.91c1.72,2.24,3.56,7.69,7.34,5.7a11,11,0,0,0,3.5-3.63c.6-.85,2.34-4.11,3.61-3.68.73.25,1.43,1.3,2,1.81a6.18,6.18,0,0,0,2.05,1.25,6.62,6.62,0,0,0,5.22-.15c1.3-.59,2.52-1.36,3.79-2s2.84-1.47,4.18-1.13,1.93,1.9,3.12,2.47a3.44,3.44,0,0,0,4.08-.78c1.2-1.22,1.87-2.37,3.75-2.08a11,11,0,0,0,4.7.11c.86-.22,1.92-.75,2.67-.07a12.25,12.25,0,0,1,1.34,2c.83,1.18,2.78.05,1.94-1.13s-1.43-2.71-2.87-3.25c-1.82-.69-3.59.59-5.43.45-1.33-.1-2.6-.59-3.94-.37-1.75.3-2.57,1.61-3.75,2.75-1.41,1.36-2.51-.69-3.54-1.51a4.49,4.49,0,0,0-3.66-.78,15.39,15.39,0,0,0-4.32,1.68c-1.29.67-2.69,1.74-4.14,2-2,.36-3.47-1-4.84-2.21s-2.57-1.9-4.18-.9a12.14,12.14,0,0,0-3.19,3.61c-.71,1-2.31,3.91-3.79,3.67-.83-.13-1.5-1.44-1.9-2.1-.51-.83-1-1.7-1.54-2.5a10.59,10.59,0,0,0-3.16-3.33c-1.56-.86-3.25-.32-4.79.31a18.05,18.05,0,0,0-4.63,2.75c-1.08.9-2.44,2.43-3.93,2.56s-2.76-1.84-3.58-2.79c-2-2.36-4.64-6.42-8.23-5.32-2.09.64-4.26,1.3-6.27,2.14a19.9,19.9,0,0,1-1.84.78c-.8.25-1,.16-1.37-.57-.67-1.29-1-2.8-1.56-4.15a25.84,25.84,0,0,0-2.58-5.25,4.78,4.78,0,0,0-3.69-2.35,8.64,8.64,0,0,0-4.38,1.41c-1.73.95-3.46,1.91-5.16,2.92-.91.55-1.83,1.09-2.76,1.6-.72.4-1.84,1.24-2.71,1.16-1.53-.13-2.09-2.8-2.68-3.89-.8-1.47-2.1-2.42-3.82-2a22,22,0,0,0-5,2.33c-.8.47-1.54,1.09-2.36,1.53-.63.34-.88,0-1.24-.54-1.42-2.23-1.61-5.9-4.3-7.1-1.48-.67-3,.16-4.34.78-1,.48-2.11.91-3.15,1.42a7.91,7.91,0,0,1-3.71,1.21c-1.54-.1-1.34-2.49-1.58-3.6A5.72,5.72,0,0,0,54.77,353a5.12,5.12,0,0,0-3.17-.3,12.65,12.65,0,0,1-1.74.05c-.26,0-.49-.07-.74-.11s-.15-.06-.15,0a1.13,1.13,0,0,0-2.25,0Z"/><path class="cls-2" d="M532.58,300.41c4.65,20.14,2,55.23-9,65.29S485.38,376.6,480.84,353c0,0,1.36-1.76,1.9-6.53s1.3-13,1.3-13"/><path class="cls-2" d="M504.69,372.84a28.41,28.41,0,0,1-8.83-1.34c-5.83-1.93-13.25-6.69-15.51-18.45l0-.22.14-.18s1.28-1.75,1.79-6.29c.53-4.72,1.29-12.92,1.3-13l1,.1c0,.08-.77,8.3-1.3,13-.46,4-1.49,6-1.87,6.59,2.21,11.14,9.26,15.66,14.81,17.49,9,3,20.66.72,27.11-5.22,10.37-9.56,13.56-44.2,8.8-64.8l1-.23c4.92,21.3,1.68,55.83-9.1,65.76C519.26,370.4,511.89,372.84,504.69,372.84Z"/><path class="cls-1" d="M511.76,358.63a8.38,8.38,0,0,1-5.17-1.82c-5-3.82-8.55-13.91-9.44-27-1.09-16,5.37-24.18,6.11-25.06,1.42-1.68,5.72-6.78,12.56-4.05,6.58,2.62,10.48,18,10.82,25.86.36,8.52-2.88,29.8-13,31.88A9.06,9.06,0,0,1,511.76,358.63Zm.24-57.7c-4.21,0-6.94,3.23-8,4.46h0c-.72.85-6.94,8.72-5.88,24.35.87,12.81,4.25,22.63,9,26.27a7.41,7.41,0,0,0,6.21,1.45c9.44-1.93,12.58-22.86,12.24-30.86-.32-7.42-4.1-22.54-10.2-25A9.14,9.14,0,0,0,512,300.93Z"/><path class="cls-1" d="M502.28,325c0,5.73-.33,14.42,5.32,19.41s11.94-6.41,11.94-17.16-6.1-15.37-9.42-15.47S502.3,319.3,502.28,325Z"/><path class="cls-1" d="M510.45,346.15a4.82,4.82,0,0,1-3.18-1.33c-5.58-4.93-5.53-13.41-5.5-19V325A19,19,0,0,1,506.85,313a4.93,4.93,0,0,1,3.28-1.64c3.46.1,9.91,4.88,9.91,16,0,8.11-3.54,16.56-7.74,18.45A4.48,4.48,0,0,1,510.45,346.15Zm-.39-33.84a4,4,0,0,0-2.51,1.35A18.2,18.2,0,0,0,502.78,325v.77c0,5.76-.08,13.64,5.16,18.27a3.49,3.49,0,0,0,4,.75c3.88-1.75,7.15-9.78,7.15-17.54,0-10.4-5.82-14.88-8.94-15Z"/><path class="cls-1" d="M473,356.36a12.08,12.08,0,0,1-1.39-.07l.1-1c.08,0,7.38.74,9.41-3.77.95-2.12,1.52-8.35,2.12-14.94.77-8.53,1.64-18.19,3.62-23.8,8.13-23.09,17-34.7,26.55-34.5,12.47.27,19.17,17.72,21.17,28,1.47,7.59,7.34,22.6,8.61,24.45a1.38,1.38,0,0,1,.2,1.49c-.59,1.12-2.95,1.54-8.69,1.54v-1c4.83,0,7.45-.34,7.8-1,.07-.12,0-.31-.13-.45-1.48-2.14-7.36-17.54-8.77-24.83-1.94-10-8.38-26.93-20.21-27.18-6.19-.11-15.66,5.64-25.59,33.83-1.93,5.49-2.8,15.09-3.57,23.56-.63,7-1.17,13-2.2,15.26C480.29,355.85,475.43,356.36,473,356.36Z"/><path class="cls-1" d="M422.18,352.31l-1-.14c.06-.41,5.84-40.84,5.16-75.19-.53-27.19-2.29-30.08-3.23-31.64a3.84,3.84,0,0,1-.64-1.65c-.06-.48-.2-2-.41-4.25-1.26-13.87-5.11-56.08-11-66.16l.86-.51c6,10.28,9.89,52.65,11.16,66.58.21,2.26.34,3.75.4,4.2a2.85,2.85,0,0,0,.5,1.27c1,1.64,2.84,4.68,3.38,32.14C428,311.39,422.24,351.91,422.18,352.31Z"/><path class="cls-1" d="M370.21,239.93a134,134,0,0,1-20.12-1.25c-4.54-.75-7-1.78-7.62-3.14h0c-2.85-6.55,4.08-37.22,9.88-43.76,4.4-4.95,26.6-9.23,39.42-9.69,6.34-.23,10.28.36,11.73,1.76,5.19,5.05,10.77,45.07,5.51,50.85C406,238,387.12,239.93,370.21,239.93Zm-26.83-4.79c.25.57,1.48,1.66,6.87,2.55,17.34,2.86,54.22.53,58-3.66,5-5.46-.76-44.88-5.47-49.46-1.19-1.16-5.19-1.7-11-1.48-13.84.5-34.84,5-38.7,9.35-5.5,6.2-12.4,36.53-9.72,42.7Z"/><path class="cls-1" d="M438.63,233.63c-4.47,0-8.62-.29-9.84-1.28-3.06-2.48-5-21.78-5.39-25.62-.16-1.75-.82-5-1.51-8.38-1.79-8.86-3-15.26-1.89-17a2.69,2.69,0,0,1,1.86-1c5.51-1.13,23.39,2.15,37.93,12.46,16.51,11.71,18.29,28.44,15.55,34.39C472.9,232.48,453,233,452,233,450.75,233.14,444.42,233.63,438.63,233.63Zm-14.08-52.54a13.17,13.17,0,0,0-2.49.2c-.93.2-1.16.46-1.21.54-1,1.58.76,10.1,2,16.32.73,3.58,1.36,6.68,1.53,8.49,1,10.88,3,23.32,5,24.93s14.48,1.12,22.48.47h0c5.64-.13,20.68-1.33,22.5-5.3,2.29-5,1.15-21.55-15.21-33.15C446.66,184.68,431.66,181.09,424.55,181.09Z"/><path class="cls-1" d="M335,333.06l-1-.05c0-.45,2-46.22-2.44-80.62v-.14c.05-.31,5.28-30.9,7.47-39.54.4-1.58.77-3.16,1.14-4.73,1.71-7.24,3.32-14.08,7.4-20.37,4.93-7.61,16.63-11.38,25.94-12.37,8-.84,42.11-3.2,55-2.82,13.79.41,27.25,5.33,33.93,9.72,7.32,4.82,20.5,16.75,24.45,24.49l-.89.46c-3.88-7.6-16.87-19.36-24.11-24.12-6.56-4.31-19.82-9.15-33.41-9.55-12.9-.39-47,2-54.9,2.82-8.67.91-20.47,4.59-25.21,11.92-4,6.14-5.58,12.9-7.26,20.05-.38,1.57-.75,3.16-1.15,4.74-2.13,8.4-7.15,37.7-7.44,39.39C336.92,286.81,335,332.6,335,333.06Z"/><path class="cls-1" d="M132.71,307.69a125.53,125.53,0,0,1,21.57-31.13,113.8,113.8,0,0,1,28.69-22,99.67,99.67,0,0,1,18.41-7.63.5.5,0,0,0-.27-1,105,105,0,0,0-32,16.18A121.4,121.4,0,0,0,143,288.6a127.61,127.61,0,0,0-11.15,18.59c-.28.57.58,1.08.86.5Z"/><path class="cls-1" d="M404.14,272.4a14.62,14.62,0,0,0,18.39-2.75c.43-.48-.28-1.19-.71-.71a13.58,13.58,0,0,1-17.17,2.59c-.55-.34-1,.53-.51.87Z"/><path class="cls-1" d="M251.74,190.05a28.5,28.5,0,0,0,8.15,15.64c4.51,4.54,10.25,7.48,16.26,9.52,3.69,1.25,7.47,2.19,11.25,3.13a.5.5,0,0,0,.27-1c-6.52-1.61-13.12-3.25-19.06-6.47A32.14,32.14,0,0,1,256,199.1a25.85,25.85,0,0,1-3.33-9.32c-.1-.63-1.06-.36-1,.27Z"/><path class="cls-1" d="M286,206.37a18.13,18.13,0,0,0,9.66,7.2.5.5,0,0,0,.26-1,17,17,0,0,1-9.05-6.73c-.37-.53-1.23,0-.87.5Z"/><path class="cls-1" d="M398.37,213.93,388.3,199c-.36-.54-1.23,0-.87.5l10.08,15c.36.53,1.22,0,.86-.51Z"/><path class="cls-1" d="M461.48,212.83l-3.87-4.69a.49.49,0,0,0-.7,0,.51.51,0,0,0,0,.71l3.86,4.69a.5.5,0,0,0,.71,0,.52.52,0,0,0,0-.71Z"/><path class="cls-1" d="M291.91,153.53a307.25,307.25,0,0,1,77.42-4.63q11,.73,21.9,2.26c.63.09.9-.88.26-1a308,308,0,0,0-78-.94q-11,1.27-21.82,3.32c-.64.12-.37,1.08.26,1Z"/><path class="cls-1" d="M357.09,371.08,398,363.32,439,355.56l23-4.37c.63-.12.36-1.09-.27-1L420.79,358l-40.93,7.76-23,4.37c-.63.12-.36,1.09.27,1Z"/><path class="cls-1" d="M498.32,356c-2.6-.7-4.19-3.48-4.23-6.05a.5.5,0,0,0-1,0c0,3,1.93,6.2,5,7a.5.5,0,0,0,.27-1Z"/><path class="cls-1" d="M290,409.65A43.21,43.21,0,0,0,305.18,399a52.68,52.68,0,0,0,10.41-16.57,53.75,53.75,0,0,0,3.05-11.07c.1-.63-.86-.9-1-.26A53,53,0,0,1,311,389.58a48,48,0,0,1-12.4,14,40.15,40.15,0,0,1-8.89,5.07c-.59.24-.33,1.21.27,1Z"/><path class="cls-1" d="M520.83,273.41a20.75,20.75,0,0,0-18-1.61,23.72,23.72,0,0,0-12.32,11.68,28.56,28.56,0,0,0-2.84,9.52c-.07.64.93.63,1,0a26.73,26.73,0,0,1,6.9-15.07,20.11,20.11,0,0,1,15.13-6.48,19.79,19.79,0,0,1,9.62,2.82.5.5,0,0,0,.51-.86Z"/></svg>