<svg id="Layer_1" data-name="Layer 1" xmlns="http://www.w3.org/2000/svg" viewBox="0 0 1991.68 678.41"><defs><style>.cls-1{fill:#ffd0c2;}.cls-2{fill:#afdfff;}.cls-3{fill:#262322;}.cls-4{fill:#261b1b;}.cls-10,.cls-5,.cls-6{fill:none;}.cls-5,.cls-6{stroke:#262322;}.cls-10,.cls-11,.cls-5,.cls-6,.cls-9{stroke-miterlimit:10;}.cls-6{stroke-width:1.5px;}.cls-11,.cls-7,.cls-9{fill:#fff;}.cls-8{fill:#e6681f;}.cls-9{stroke:#ffd0c2;}.cls-11,.cls-9{stroke-width:2px;}.cls-10{stroke:#fff;stroke-linecap:round;}.cls-11{stroke:#afdfff;}</style></defs><title>kati</title><rect class="cls-1" x="933.11" y="404.64" width="1.48" height="121.61" transform="translate(-77.16 190.41) rotate(-12.18)"/><rect class="cls-1" x="957.34" y="405.97" width="1.48" height="117.6" transform="translate(-15.85 17.17) rotate(-2.03)"/><rect class="cls-1" x="950.8" y="465.06" width="121.99" height="1.48" transform="translate(354.72 1348.19) rotate(-78.57)"/><rect class="cls-1" x="969.01" y="466.17" width="129.49" height="1.48" transform="matrix(0.34, -0.94, 0.94, 0.34, 244.05, 1264.16)"/><rect class="cls-1" x="939.06" y="424.63" width="288.19" height="1.48" transform="translate(504.69 1418.07) rotate(-81.63)"/><rect class="cls-1" x="889.96" y="280.98" width="1.48" height="260.91" transform="translate(-38.7 80.03) rotate(-6.1)"/><path class="cls-2" d="M1147.24,624.2c-1-13.18-10.91-31.09-30.72-41.41-18.56-9.67-49-13.34-52.41-13.72-1.08-1.31-6.57-8-8.87-12.7-.8-1.63-1.63-3.5-2.5-5.49-2.19-5-4.44-10.09-6.64-11.94-3.26-2.74-27.85-13-58.49-15.54-29.62-2.5-52,.63-70.3,9.84a175.66,175.66,0,0,0-35.69,24.29,165.58,165.58,0,0,0-25.77,30.31c-4.49,6.86-7.27,11.49-9.29,14.45-2.38,3.49-3.1,4.54-2.84,5.48a1.27,1.27,0,0,0,.71.8c1.23.57,8.7,1.07,17.59-.19l7,.83,70.8,10.61,1,.27,0-.13,57.77,5.77,58.7,5.48,12.3,1.15h0l1.46.21s0-.05,0-.07l15.26,1.42,50.16,5.22a14.82,14.82,0,0,0,4.29,1.06l.41,0a4.38,4.38,0,0,0,3.08-1.34C1146.07,637.23,1148,633.35,1147.24,624.2Z" transform="translate(0 -17.02)"/><path class="cls-2" d="M876.35,388.14a71.78,71.78,0,0,1,49.53,1.64c14.45,5.86,26.61,16.57,35.16,29.51a87.8,87.8,0,0,1,11,23.84,1,1,0,0,0,1.93-.53,88.41,88.41,0,0,0-24.75-40.23,75.22,75.22,0,0,0-44.45-19.65,72.53,72.53,0,0,0-29,3.5c-1.22.4-.7,2.33.53,1.92Z" transform="translate(0 -17.02)"/><path class="cls-3" d="M834,362.84a32,32,0,0,1,12.61,17.42,1,1,0,0,0,1.93-.54A34.23,34.23,0,0,0,835,361.11c-1.07-.71-2.07,1-1,1.73Z" transform="translate(0 -17.02)"/><path class="cls-2" d="M691.14,434.52c-.24-13,3.06-26.4,11.06-36.83,7.13-9.29,18-15.93,29.95-15.63a31.33,31.33,0,0,1,19,7c1,.81,2.41-.59,1.41-1.41A34.08,34.08,0,0,0,717.35,383c-11.76,5.15-20.2,15.94-24.48,27.81a66.17,66.17,0,0,0-3.73,23.67,1,1,0,0,0,2,0Z" transform="translate(0 -17.02)"/><path class="cls-2" d="M692.05,437.57l108,2.13,107.43,2.13,60.61,1.2a1,1,0,0,0,0-2l-108-2.14-107.44-2.12-60.6-1.2a1,1,0,0,0,0,2Z" transform="translate(0 -17.02)"/><path class="cls-2" d="M750,381.06c4.05-8.76,11.37-15.31,19.78-19.81a96.24,96.24,0,0,1,14.61-6.09,129.31,129.31,0,0,1,15.44-4.27c10.29-2.12,21.08-2.64,31.33,0a59.15,59.15,0,0,1,22.41,11.54,66.51,66.51,0,0,1,18,23.24c.55,1.17,2.27.15,1.73-1-7.58-16.14-21.6-29.38-38.7-34.85-10-3.19-20.65-3.31-30.94-1.67a115.74,115.74,0,0,0-16.7,4,119,119,0,0,0-15,5.72c-10,4.71-19,11.94-23.7,22.13-.54,1.16,1.19,2.18,1.73,1Z" transform="translate(0 -17.02)"/><path class="cls-4" d="M1988.73,693l-2.09.66,4.55-.18C1992.26,693.35,1991.66,693,1988.73,693Z" transform="translate(0 -17.02)"/><path class="cls-4" d="M1971.26,692.74c-1.08-.15,0-.32.21-.44-3.44.32-7.42.88-5.18,1.49,3.41-.64,4.23-.37,7.91-1.13,2.93-.08,5.12.21,4.62.46,1-.17,4.56.14,6.14-.27A65.07,65.07,0,0,0,1971.26,692.74Z" transform="translate(0 -17.02)"/><path class="cls-4" d="M1686.77,691.34c-.51,0-1.14-.07-1.85-.08Z" transform="translate(0 -17.02)"/><path class="cls-4" d="M1507.37,690.9a7.84,7.84,0,0,0,2-.14C1508.1,690.8,1507.07,690.84,1507.37,690.9Z" transform="translate(0 -17.02)"/><path class="cls-4" d="M1477.06,690.17l1.79.05A9.39,9.39,0,0,0,1477.06,690.17Z" transform="translate(0 -17.02)"/><path class="cls-4" d="M1684.92,691.26l-4.74-.2C1679.84,691.27,1682.61,691.22,1684.92,691.26Z" transform="translate(0 -17.02)"/><path class="cls-4" d="M1932,693.89c1,0,1.82-.09,2.57-.17l-2.41.07Z" transform="translate(0 -17.02)"/><path class="cls-4" d="M1763.19,690.73h1.44q.63-.12,1.2-.27Z" transform="translate(0 -17.02)"/><path class="cls-4" d="M1823.25,690.62a3.84,3.84,0,0,0-2.35.79,12.66,12.66,0,0,1,3-.39C1823.89,690.92,1823.71,690.79,1823.25,690.62Z" transform="translate(0 -17.02)"/><path class="cls-4" d="M1918.5,691.61l1.17-.05Z" transform="translate(0 -17.02)"/><path class="cls-4" d="M1919.67,691.56l.52,0Z" transform="translate(0 -17.02)"/><path class="cls-4" d="M1720.2,690.6a1.63,1.63,0,0,0-.55-.2C1719.65,690.47,1719.86,690.54,1720.2,690.6Z" transform="translate(0 -17.02)"/><path class="cls-4" d="M1421.59,689.45h.24C1423.29,689.4,1422.46,689.41,1421.59,689.45Z" transform="translate(0 -17.02)"/><path class="cls-4" d="M912.3,689.86c5.77.51-9.39.65-.7,1.21C910.79,690.85,919.49,690.19,912.3,689.86Z" transform="translate(0 -17.02)"/><path class="cls-4" d="M1930.4,693.82h-2.46C1929.06,693.84,1929.82,693.84,1930.4,693.82Z" transform="translate(0 -17.02)"/><path class="cls-4" d="M1295.06,690a4.25,4.25,0,0,0-1.3-.24A7.27,7.27,0,0,0,1295.06,690Z" transform="translate(0 -17.02)"/><path class="cls-4" d="M1389,690.59l-2.36-.08C1387.56,690.56,1388.32,690.58,1389,690.59Z" transform="translate(0 -17.02)"/><path class="cls-4" d="M1243.27,690.54l1,0C1243.93,690.56,1243.58,690.54,1243.27,690.54Z" transform="translate(0 -17.02)"/><path class="cls-4" d="M1243.27,690.54a21.1,21.1,0,0,0-2.42,0l.53.06A12.68,12.68,0,0,1,1243.27,690.54Z" transform="translate(0 -17.02)"/><path class="cls-4" d="M1192.85,690.58c.28,0,.64.08,1,.12l1.63,0Z" transform="translate(0 -17.02)"/><path class="cls-4" d="M1931.93,693.58a4.15,4.15,0,0,1-1.53.24l1.72,0C1932.26,693.7,1932.3,693.63,1931.93,693.58Z" transform="translate(0 -17.02)"/><path class="cls-4" d="M1242.22,695l-8.17-.09C1236.33,695,1239.31,695,1242.22,695Z" transform="translate(0 -17.02)"/><path class="cls-4" d="M565.77,694.48l-1.87.07A14.75,14.75,0,0,0,565.77,694.48Z" transform="translate(0 -17.02)"/><path class="cls-4" d="M1209.78,695c-1.45-.2-3-.32-4.6-.39a8.18,8.18,0,0,0-1,.14Z" transform="translate(0 -17.02)"/><path class="cls-4" d="M590.67,694.77l-.53,0Z" transform="translate(0 -17.02)"/><path class="cls-4" d="M592,694.69l-1.36.08Z" transform="translate(0 -17.02)"/><path class="cls-4" d="M1393.79,694.1h0Z" transform="translate(0 -17.02)"/><path class="cls-4" d="M1396.81,694.07l-2.6.11-.43-.07a20.56,20.56,0,0,1-2.87.24C1393.58,694.32,1397.11,694.48,1396.81,694.07Z" transform="translate(0 -17.02)"/><path class="cls-4" d="M1172.48,695l-1.16,0Z" transform="translate(0 -17.02)"/><path class="cls-4" d="M318.54,693.73l3.43,0h0Z" transform="translate(0 -17.02)"/><path class="cls-4" d="M1442.93,693.93h0Z" transform="translate(0 -17.02)"/><path class="cls-4" d="M1235.45,691c.07,0,.13,0,.13,0Z" transform="translate(0 -17.02)"/><path class="cls-4" d="M1425,689.67c.72,0,1.42,0,2,0Z" transform="translate(0 -17.02)"/><path class="cls-4" d="M344.86,690.55h0C344.92,690.56,344.91,690.55,344.86,690.55Z" transform="translate(0 -17.02)"/><path class="cls-4" d="M1944.82,693.74c5.89-.16,15.25-.31,17.07-.85l-2.8-.14c.67.12-.22.43-1.46.51-5,.42-7.27-.19-7.56-.38l3.73-.13c-3.83-1.14-15,.18-22.48.12l3.12-.83-7.7.69c-1.63-.22-2.75-.68,1-.81-5.38-.41-4.76.3-9.39-.16-.51-.07-.28-.11.2-.15l-5.26.25c1-.17-.88-.59,2.35-.47-9.44-.48-15.22.63-18.77,0l.79,0c-13.1.28-1.27.61-11.09,1.32l-6.61-1.5-1.29.61c-1.35,0-4-.07-3.53-.31-5,.41.85.26-2.06.66-6.51-.56-17.94.26-19.4-.72-2.34.47,6.22.36-.73.68-2-1-8,.18-14-.3,1.82-.54,7.45-.25,1.5-.73-3.58.91-11.56-.2-16.58,0-.23.73-10.89.31-19.3.55.53-.25-15.83-.4-23.65-.66l.23-.13c-1.51.74-9.58.6-15.46.75.23-.44,1.29-.61,4.47-.81h-5.52a47,47,0,0,1-6.61.44l1.39-.55c-7.35,0-14.81.65-24.26.28-.54.51,7.52,1.43-2.48,1.77-.38-.28-.74-.75,1.87-.87a43.5,43.5,0,0,1-4.78.12l4-.47c-4.3-.2-2.25.39-5.69.35.07-.4-2.55-.29-2.06-.6.88,0,3,.16,4.33,0a90.07,90.07,0,0,1-10.13-.61c.33.23,0,.54-2.85.59-7.35,0-2.52-.48-6.8-.68-1.78.27-6.47,0-6.6.58a10.9,10.9,0,0,1-3.38-.44c-3.8.26-17.77.08-13.48.7l1,0-.62,0c-12.47.59-25.9-.33-38.28-.08l0-.2c-7.38.23-16.44.14-21.71.56-2.19,0-5.16-.36-4.22-.6a142.83,142.83,0,0,1-14.44,0c5.68-.35-2-.31,5.82-.25-7.34-.17-9-.49-16.88.05,2.68-.51-5.52-.64-9-.49l5.14.37c-3.92.07-7.35,0-10.83,0l1.88-.66c-15-.81-27.07,1.37-38.5,0-4,.46,8.15.33,4.6.87-6.9-.09-14.1-1-16.26-1-9.46-.36-8.83,1-18.73.72,1.27.24,2.46.87-4.94,1.1-6.91-.09-8.49-1-4.13-1.19a6.81,6.81,0,0,1,2.39.14c2.23-.09,5.16-.19,2.43-.45l-.9.24c-3.43-.24-12.94-.22-10.7-.61-4.48.2-2.92.35,0,.46-7.91-.25-12.82,0-21.39-.18,1.45.13,2.79.4,1.34.4-13.38-.29-5.89.45-15,.56-5.15-.37,1.85-.87-7.28-.56-5.57-.25-1.18-.63,1-.83-8.31.46-15.53-.3-20.28-.38l4.38-.19c-2.62.11-4.77.11-6.95.11l2.5.47c-2.57-.08-4.75-.08-4.7-.28-2.65.31,2,.79-3.23,1.21-3.43-.24-10.45.26-11.63-.37,9.77.2.86-.48,5.89-.69-1.32,0-2.78,0-4.44,0-.39-.07.36-.13,1.07-.17-10.32-.56-4.75.71-15.44.7,1.36-.36-2.48-.68-4.23-.6,4.31,0,2.07.59-1.89.86-6.86-.27-7.45.21-11,.18l4.1.13c-1.39.35-4.82.31-9.6.42-.41-.28,4.34-.19,2.63-.31-5.3.62-12-.65-19.39-.23-3.43-.24-.33-.67-3.34-.83-8.3.46-9-.49-17.71-.11,2.52.48,3,.36-3.18.83l14.33-.34-9.2.7c4.33,0,9.13-.3,11.72-.22-4.38.39-3.93.27-1.86.67-5.92-.72-11.73.41-18.58-.07l.21-1.18c-10.28-.53-18.27.6-31.63.31l4.29.2c-1.79.47-8.24.07-12.57.26.4-.4-2.3-.54-4.15-.79.23.3-9.77,0-11,.77l-6-.52c-10.78-.22-12.31,1.12-22.67,1,3.12-.43-1.59-.71,5.35-1-3.46,0-6.57-.08-6.63.2-2-.25-9.59.53-12.78.15a23.45,23.45,0,0,1-5.82.56c-.26,0-.2-.11-.11-.15-.82.16-5.68.25-2.56.66-10.66-1.24-29.8.09-39.09-1-7.55.13-16.65.26-23.51.29.44-.12,0-.2,1.32-.16-9.46-.37-5.82,1.13-16.58.72-5.5-.63,5.72-.34,2.29-.58-1.5-1.3-13,.17-20.24-.58l1.76-.08c-5.54-.44-13.51.49-22.56.4,0,0,.44-.12,0-.2-6.19.67-17.9.88-26.6,1.07,2.71-.51,4-.27,2.3-.79-3.9.08,1.14.83-6.64,1-2.54-.28-8.15-.52-8.9-1.08l7.35,0c-3.77-.71-9.51,0-13.38-.1l.49-.31c-11.26.1-11.41.89-23.51.83l1.25.24c-6.61.78-5.54-.44-12.14.14l-2-.79c-4.37.19-15.29.76-23.11.91,4.43-.58,13.59-.88,19.25-1.23-4.32,0-14.69.06-17,.45a53.7,53.7,0,0,1,5.66-.15,183.68,183.68,0,0,1-20.9.91c1.53-1.53-22.46-.38-28.71-1.57-15.25.56-30.25-.24-48-.15,6.3,1.19-5.18,0-4.09,1.25a56.53,56.53,0,0,1-6.08,0l.87.06-.89-.06h0l-12.52-.73c-3-.35,3.93-.27,3.55-.54-9.06-.1-3.8-.52-9.79-.84,1.23.43-3.15.62-8.31.45l7.27.57c-12.66.65-10.94-1-23.7-.38l4-.39c-6.55.23-24.15,0-30.57,1-1.16-.14-2.69-.48.2-.57-15.65-.15-34.83,1-47,.44l1.18-.3c-2.92.09-5.08.57-8.73.26.18-.12,1.17-.29-.18-.31-1.55.1-7.75.52-11.62.35l3.3-.34c-15.26-.39-23.42.82-36.22,1,0-.88-12-1.17-18-1.31l.21-.13c-17.77-.11-30.19.73-46.64,1.08-10.22-1-34.61-.4-51-.94,2.51.16-.41.69-3.32.78-3.86-.18-10.66.61-10-.2l1.37,0c-2.9-.8-10.82-.59-17-.61l-1,1.06c-16.17-1.54-42.37.56-51.19-.81-3.91.26-8.74.26-12.61.52l.21-.56c-10.81-.15-16.21-.22-29.58-.09l2.73-.4c-7.54,0-9.52,1.63-16.47,1.67L488,690c-13.15,0-26.46-.73-39.46,0,.22-.13.6-.37,2.73-.4-6,0-22.71-.54-21.86.47-1.51-.56-13.81.06-20.51.37l1.11-.55a102.09,102.09,0,0,1-14.56,1.1c-2-.07-1.74-.45.89-.3-6.61-.3-5.15.52-13.16.23l3-.36a51.25,51.25,0,0,0-10,.56c-4.28.23-12.91-.14-13.91-.64a35.33,35.33,0,0,1-8.65.57c-.54-.19.92-.31,1.65-.36-11.37-.38-16.91.64-24.73.1a2.47,2.47,0,0,0-1.33-.34c8.31,0,15.12,0,15.63.08-.09-.51-7.26-.6-1.49-1.3-5.86.38-15.87,1.22-23,1a8.94,8.94,0,0,1-.94-.17l.74-.06c-1.64,0-3.12,0-4.5.08l1.2.69c-3.54-.06-7.88-.08-9.79-.2a12.64,12.64,0,0,1-3.57.43c-.13-.59-5.07-.3-6.95-.58-4.52.21.58.71-7.18.68-3-.05-3.36-.36-3-.58a101,101,0,0,1-10.69.6c1.4.16,3.64,0,4.57,0,.52.32-2.24.2-2.17.6-3.64,0-1.47-.55-6-.35l4.21.47a48.93,48.93,0,0,1-5-.11c2.76.11,2.37.58,2,.86-10.56-.34-2.06-1.26-2.62-1.77-10,.37-17.84-.25-25.6-.28l1.47.55a50.41,50.41,0,0,1-7-.44h-5.83c3.36.2,4.47.38,4.72.81-6.2-.15-14.71,0-16.31-.74l.24.12c-8.25.26-25.5.42-24.94.66-8.87-.24-20.12.18-20.37-.54-5.29-.18-13.71.93-17.49,0-6.27.48-.33.2,1.59.74-6.27.48-12.64-.75-14.73.3-7.33-.33,1.7-.22-.77-.68-1.54,1-13.6.15-20.46.71-3.08-.4,3.13-.24-2.17-.66.52.24-2.3.29-3.73.31l-1.36-.61-7,1.51c-10.36-.72,2.12-1.05-11.7-1.33l.83,0c-3.75.63-9.85-.47-19.8,0,3.4-.12,1.39.29,2.48.46l-5.55-.24c.5,0,.74.07.21.14-4.88.46-4.23-.25-9.91.16,3.91.13,2.73.59,1,.81L60.38,692l3.3.83c-7.92.07-19.68-1.26-23.72-.12l3.93.13c-.3.19-2.65.8-8,.38-1.3-.08-2.25-.39-1.54-.51l-3,.14c1.92.54,11.79.7,18,.85-1.94-.22-6.74-.4-5.28-.74,5.53.18,10.8.54,16.13.72a34.67,34.67,0,0,1-4.52-.78c6-.29,4.47.37,9,.42,1.72-.22,2.9-.36,1.76-.53,5.64.22,10.14.27,16.13,0,0,0-6.75-.4-3-.71,11,.32,13.19,1,25,1.36,13.74.91,26.65-.56,36.2.1.52.25-7.14.43-.94.59-1.08-.49,3.72-.32,4-.51,6.73.71,9.92-.16,14.69.33-1.12-.17,2.8-.36,5.38-.53-.76-.6,7.43-.24-2.38-1.1,10.09.91,17.85-.23,25.34,1.16l-2.58.17,10.13-.28h-.43a89.86,89.86,0,0,0,11-.56c-2.54-.15-6.19-.16-8.73-.3,5.41-.54,11.24.45,17.22.48-.27-.44-6.24-.16-4.48-.69,4.26-.07,7.91.25,11.86.37l-.56-.24c10.55-.55,4.12,1.2,11.85.38-.24.14.74.3.26.44,2.87-.26,9.59-.7,2.93-1a86.48,86.48,0,0,1,9.72.48c-3.11.36-3.88.18-5.05.64l14.8.25c1.66,0-1.22-.23-3.3-.24,17.38-1.29,35.15,1.1,54.74-.46-2.21.4,1.42.36,3.31.63,3.38-.07,7.67-.07,11.83-.09l.5.28h0l.3.18c-.7.2-2.88.41.09.62,16-.34,34.22.08,49.69.49l5.91-.59c1.37,0,2.55.26,1.06.38,6,.22.31-.37,3.21-.6,3.43,0,4.53.33,2.35.51,10.64-.5,30.3-1.07,41.5-.44l-2.18.17c8.72.24,9.84-1.2,17.94-.66l-1.55.11c18.93.25,39.86-.29,54.31.6,2.75-.84,18.74.38,20-.8,10.81.58,7.72.79,23,1.19,4.06,0,6.06-.74,11.09-.86l.12.61,6.83-.64,3.63.73,4.72-.15c-1.88,0-4-.28-3.71-.46,7.36-.28,18,.43,18.14.75l17.43-.52a18.91,18.91,0,0,1-3.73.37c6.31-.32.47.72,8.33.19-1.14-.14.62-.37.81-.49,4.25.37,13.92.37,21.08.22l-1.37.42c12.93.11,27.25-.2,41.76-.19-5.2-.2-4-.94.25-1l1.7.65c2.75-.4-4.44-.24,1.2-.74,5.42.08,3.64.74.53,1l6.59-.23c.38.19-1.16.3-1.56.54,2.7-.4,11.37.66,15.27,0l.37.19c14.51,0,21.08-.22,32.9-.25.23-.56,4.85-.44,8.37-.89,8.68.18,18.32.62,28.78.57,7.36-.28,2.15-.48,5.46-.81.54.51,11,.46,5.57.83,12.55-.08,16-.1,31.91-.52-1.72-.21-3.66-.3-2.65-.47,2.88-.09,6.55.21,6.14.46l-.76,0c17.82-.77,41.14,1.5,55.33.43l-.79.05,14.71-.56c6.78.09-4.06.39.95.71,15.88-.86,25.09.12,38.17-.45,10.12,1.51,35.91-.11,49.57.86l-.79-.36c3.53-.35,4.27.21,6.88.29-.37-.28-3.83-.32-1.64-.52,29.91-.42,61.73.52,92.4.85,11.21.09,6.36-1.85,20.5-1l-4,.66c22.63-.79,46.28,0,68.44-.64a17.45,17.45,0,0,1-3.52.35c4.68.48,17.3,0,17.38-.37,3.45,0,.8.35,2.93.55,4.69.29,11.78-.61,14.27-.13.27,0-.32.1-1,.14,4-.13,12.79,0,10.16-.44,8.32.26,15.91-.25,22.54.08,4.33-.62,14.24.3,15.61-.58-.6.91,14.58.73,19.84.3-1.76.28,4.57.29,2.51.67,6,0,11.5-.18,10.45-.65,11.06,1.08,22.22-.87,28.44.52,17.83-.49,34.32-.82,50.36-1-.58.9-17.73.09-17,1,15.21-.37,24-1.15,39.07-.93,3.91.12-2.22.39-3.54.54,15.2-.37,29.38.09,42.9-.4-2.44-.55,9.84-1.13,11.35-1.44-3.92,1.11,13.41.27,6.31,1.74,1.76-.08,4-.28,3.56-.55,2.6.08,3.43.24.79.55,9.54-.22,6.15-.66,14.8-.65,0,.2-1.78.28-2.67.51a128.46,128.46,0,0,1,16.08-.61c-.38.11.21.24-1.07.27,12.18-.09,21-1,34.47-.65-4.07.86,4.68.28,5.41,1l7.4-.22-3-.36c6.49,0,12.22-.54,17.8-.29l-4.82.31,12.15-.15-6.88-.28c6.56-.38-.7-.94,7.93-.74-1.75.08,6.49,0,9.87.45h0a91.06,91.06,0,0,1,11.3-.31c1.25.24-1,.83-.19,1,3.17-.63,15.19-.18,19.2-.84-1.34.16-1.41.55-1,.63l2.66-.51c3,.16,3.44.24,3,.55,9,.1-2.87-.94,7.85-.54-.84,0-.44.12-2.19.2,10.77.21,20.81-.32,30.71-.07,2.92.75-8.65.18-5.3.81,14.27-.13,29.55-.9,43.36-.72l-2.57-.08c1.91-1.06,10.28.52,17.27,0-1.71.08-2.24.59-1.78.47,9.46.17,19.34-.26,33.67-.59l-1.78.27c5.58.24,14.68.14,20.71.26,1.78-.27,5.23-.22,3.13-.62,18.57,1.55,35.42-.83,51.89.46-2,0-4.69.24-3.13.24l14-.25c-1.11-.46-1.84-.28-4.78-.64a77.24,77.24,0,0,1,9.21-.49c-6.31.31.06.75,2.78,1-.46-.14.48-.29.25-.44,7.33.82,1.23-.93,11.23-.37l-.53.24c3.75-.13,7.2-.45,11.24-.38,1.67.54-4,.25-4.25.69,5.68,0,11.2-1,16.33-.48-2.41.15-5.87.15-8.28.3a79.34,79.34,0,0,0,10.39.57h-.41l9.61.28-2.45-.17c7.1-1.39,14.46-.25,24-1.17-9.29.87-1.54.5-2.25,1.11,2.44.17,6.16.35,5.1.52,4.52-.48,7.54.39,13.92-.32.29.19,4.84,0,3.82.5,5.87-.15-1.39-.34-.9-.58,9.06-.67,21.29.81,34.32-.11,11.24-.37,13.31-1,23.74-1.36,3.52.31-2.88.71-2.88.71a150.18,150.18,0,0,0,15.3,0c-1.09.17,0,.32,1.66.54,4.29-.05,2.87-.71,8.53-.43a30.48,30.48,0,0,1-4.29.79c5.06-.18,10.06-.55,15.3-.72C1951.22,693.34,1946.67,693.51,1944.82,693.74ZM331,693.66c-.54-.2,0-.4,1.58-.39-.83.13,2.77.25,5.05.41C335.72,693.66,333.4,693.65,331,693.66Z" transform="translate(0 -17.02)"/><path class="cls-4" d="M1959.09,692.75a4.73,4.73,0,0,0-1,0Z" transform="translate(0 -17.02)"/><path class="cls-4" d="M1686.77,691.34l.54.06-.22,0Z" transform="translate(0 -17.02)"/><path class="cls-4" d="M1687.44,691.42l-.13,0Z" transform="translate(0 -17.02)"/><polygon class="cls-4" points="548.74 677.74 548.72 677.59 547.38 677.72 548.74 677.74"/><path class="cls-4" d="M1771.31,693.28a6,6,0,0,0,1.11.15A7.17,7.17,0,0,0,1771.31,693.28Z" transform="translate(0 -17.02)"/><path class="cls-4" d="M1807.69,693.41l5.15.2C1810.61,693.5,1809,693.44,1807.69,693.41Z" transform="translate(0 -17.02)"/><path class="cls-4" d="M1835.66,693.69a1.35,1.35,0,0,0,.55-.24h0Z" transform="translate(0 -17.02)"/><path class="cls-4" d="M1390.91,694.35l-1.07,0C1387.3,694.48,1389,694.44,1390.91,694.35Z" transform="translate(0 -17.02)"/><path class="cls-4" d="M1523.27,693c-1.41.1-2.79.2-4.26.26C1521.37,693.34,1523.2,693.36,1523.27,693Z" transform="translate(0 -17.02)"/><path class="cls-4" d="M1243.12,695h0Z" transform="translate(0 -17.02)"/><path class="cls-4" d="M1512.86,693.29c2.35.11,4.32.09,6.15,0C1517.08,693.26,1514.81,693.21,1512.86,693.29Z" transform="translate(0 -17.02)"/><path class="cls-4" d="M1958.25,694s0-.07.16-.09l-1.51.06Z" transform="translate(0 -17.02)"/><path class="cls-4" d="M1959.9,693.81a7.64,7.64,0,0,0-1.49.07Z" transform="translate(0 -17.02)"/><path class="cls-4" d="M1963.05,693.67l-3.15.14A18.64,18.64,0,0,0,1963.05,693.67Z" transform="translate(0 -17.02)"/><path class="cls-4" d="M1919.87,693.68l-.42.21C1919.68,693.85,1919.83,693.78,1919.87,693.68Z" transform="translate(0 -17.02)"/><path class="cls-4" d="M1908.62,693.74c2.68,0,6.73.44,10.48.31l.35-.16C1917.69,694.19,1911.17,693.4,1908.62,693.74Z" transform="translate(0 -17.02)"/><path class="cls-4" d="M1871.55,690.82c-11.89-.64,2.45.49-9.9.4l9.43.17C1869.43,691.17,1867.26,690.88,1871.55,690.82Z" transform="translate(0 -17.02)"/><path class="cls-4" d="M1832.62,690.47c-3.21.2-4,.25-.21.44C1837.48,690.81,1832.35,690.59,1832.62,690.47Z" transform="translate(0 -17.02)"/><path class="cls-4" d="M1621.12,690.91l.51-.52C1617.72,690.47,1621.59,690.59,1621.12,690.91Z" transform="translate(0 -17.02)"/><polygon class="cls-4" points="1584.53 676.85 1586.34 676.38 1580.73 676.53 1584.53 676.85"/><polygon class="cls-4" points="1558.58 672.81 1552.06 673 1556.87 672.89 1558.58 672.81"/><path class="cls-4" d="M1202,690.09l1.18.63C1205.83,690.6,1206.38,689.9,1202,690.09Z" transform="translate(0 -17.02)"/><path class="cls-4" d="M1048.81,690.73a37.82,37.82,0,0,0-8.63-.21C1043.62,690.56,1047.06,690.81,1048.81,690.73Z" transform="translate(0 -17.02)"/><polygon class="cls-4" points="592.45 672.47 586.64 672.65 589.37 672.68 592.45 672.47"/><path class="cls-4" d="M.52,693.43l4.8.18L3.12,693C0,692.87-.6,693.26.52,693.43Z" transform="translate(0 -17.02)"/><path class="cls-4" d="M21.32,692.21c.26.12,1.37.29.22.44a73.91,73.91,0,0,0-14.45.11c1.67.41,5.38.1,6.47.27-.52-.24,1.79-.53,4.88-.46,3.88.76,4.75.5,8.35,1.13C29.15,693.09,25,692.53,21.32,692.21Z" transform="translate(0 -17.02)"/><path class="cls-4" d="M62.84,693.7l-2.56-.07c.8.08,1.67.14,2.72.17A.4.4,0,0,1,62.84,693.7Z" transform="translate(0 -17.02)"/><path class="cls-4" d="M238.25,690.37c.4.1.82.19,1.27.27H241Z" transform="translate(0 -17.02)"/><path class="cls-4" d="M177.68,690.54c-.48.16-.67.29-.65.4a13.55,13.55,0,0,1,3.13.38A4.22,4.22,0,0,0,177.68,690.54Z" transform="translate(0 -17.02)"/><path class="cls-4" d="M77.2,691.53,76,691.47Z" transform="translate(0 -17.02)"/><path class="cls-4" d="M76,691.47l-.55,0Z" transform="translate(0 -17.02)"/><path class="cls-4" d="M287,690.32a1.34,1.34,0,0,0-.58.2C286.74,690.45,287,690.39,287,690.32Z" transform="translate(0 -17.02)"/><path class="cls-4" d="M67.24,693.74h-2.6C65.26,693.75,66.06,693.76,67.24,693.74Z" transform="translate(0 -17.02)"/><path class="cls-4" d="M63,693.49c-.39,0-.35.13-.19.21l1.8,0A4.6,4.6,0,0,1,63,693.49Z" transform="translate(0 -17.02)"/><path class="cls-4" d="M34.38,692.66l1,0A6.21,6.21,0,0,0,34.38,692.66Z" transform="translate(0 -17.02)"/><path class="cls-4" d="M232.47,693.2a7.16,7.16,0,0,0-1.17.14A6,6,0,0,0,232.47,693.2Z" transform="translate(0 -17.02)"/><path class="cls-4" d="M194.09,693.32c-1.37,0-3.08.09-5.43.2Z" transform="translate(0 -17.02)"/><path class="cls-4" d="M164.06,693.36H164a1.42,1.42,0,0,0,.57.24Z" transform="translate(0 -17.02)"/><path class="cls-4" d="M35.27,693.88l1.42,0-1.59-.07C35.21,693.81,35.29,693.84,35.27,693.88Z" transform="translate(0 -17.02)"/><path class="cls-4" d="M35.1,693.79a9.54,9.54,0,0,0-1.58-.07Z" transform="translate(0 -17.02)"/><path class="cls-4" d="M33.52,693.72l-3.32-.14A20.7,20.7,0,0,0,33.52,693.72Z" transform="translate(0 -17.02)"/><path class="cls-4" d="M76.2,693.8l-.45-.2C75.8,693.69,76,693.76,76.2,693.8Z" transform="translate(0 -17.02)"/><path class="cls-4" d="M76.2,693.8l.37.16c4,.13,8.22-.26,11.05-.3C84.93,693.31,78.06,694.1,76.2,693.8Z" transform="translate(0 -17.02)"/><path class="cls-4" d="M127.22,691.3l9.95-.16c-13,.08,2.09-1-10.44-.4C131.25,690.79,129,691.08,127.22,691.3Z" transform="translate(0 -17.02)"/><path class="cls-4" d="M168,690.82c4-.19,3.17-.24-.22-.44C168.08,690.51,162.67,690.72,168,690.82Z" transform="translate(0 -17.02)"/><path class="cls-1" d="M636,546.1c-12.64-8-28.61-11.2-43-7.05A43.14,43.14,0,0,0,566.57,561a27.76,27.76,0,0,0-25.52,2.61c-8.51,5.8-11.42,19.4-9.65,29.54,36-1.27,98.14-4.39,134.16-5.67C663,571.68,648.62,554.1,636,546.1Z" transform="translate(0 -17.02)"/><path class="cls-5" d="M1143.88,639" transform="translate(0 -17.02)"/><path class="cls-1" d="M1124.61,55C1094.87,29.8,1049,17,988.23,17S881.59,29.8,851.85,55c-25.85,21.92-39,52.46-39,90.77,0,36.23,30.25,102.46,55.63,151.64,27.47,53.23,55.29,98.5,55.57,98.95l.22.36h127.84l.22-.36c.27-.45,28.1-45.72,55.57-98.95,25.38-49.18,55.63-115.41,55.63-151.64C1163.57,107.47,1150.46,76.93,1124.61,55Z" transform="translate(0 -17.02)"/><polygon class="cls-3" points="870.02 552.28 773.23 533.8 772.45 538.28 867.41 555.74 870.02 552.28"/><path class="cls-6" d="M783.89,492.7l12,62.74a1.83,1.83,0,0,0,3.28.72L837.64,502l-27.48-1.11Z" transform="translate(0 -17.02)"/><path class="cls-7" d="M1059.79,571c-2.34-.26-10.24-20.2-12.9-23.15-1.14-1.25-.19-3.42.83-5.82,2.2,3.82,4.63,10,7,14.49a88.47,88.47,0,0,0,7.47,11.41C1061.82,569.35,1061.05,571.14,1059.79,571Z" transform="translate(0 -17.02)"/><path class="cls-7" d="M895.33,547.07a204.56,204.56,0,0,1,22.32-13.17c2-1,4-1.9,6-2.75,0,0,2,3,1.77,4.6s-22.13,16.39-25,16.32S895.33,547.07,895.33,547.07Z" transform="translate(0 -17.02)"/><path class="cls-6" d="M810.18,623,798,559a1.3,1.3,0,0,0-2.33-.5l-39.2,55.16,27.49,1.11Z" transform="translate(0 -17.02)"/><path class="cls-3" d="M788.64,491l18.47,5.9c.62.2,1.06-.72.44-.92L789.08,490c-.62-.2-1.06.73-.44.92Z" transform="translate(0 -17.02)"/><path class="cls-3" d="M812.87,497.69l8.66.06c.65,0,.55-1-.1-1l-8.66-.05c-.65,0-.55,1,.1,1Z" transform="translate(0 -17.02)"/><path class="cls-3" d="M801.8,491.71l5.76,1.72a.51.51,0,0,0,.59-.41.52.52,0,0,0-.42-.59L802,490.7a.52.52,0,0,0-.59.42.53.53,0,0,0,.42.59Z" transform="translate(0 -17.02)"/><path class="cls-3" d="M767.11,620.82l10.15-1.06a.51.51,0,0,0-.1-1L767,619.8a.51.51,0,0,0,.1,1Z" transform="translate(0 -17.02)"/><path class="cls-3" d="M786.42,620.31l12.46,6.47c.59.3,1-.63.44-.93l-12.46-6.47c-.58-.3-1,.63-.44.93Z" transform="translate(0 -17.02)"/><path class="cls-8" d="M786.39,623.3l1.9,1A.54.54,0,0,0,789,624a.53.53,0,0,0-.25-.68l-1.9-.94a.51.51,0,0,0-.44.92Z" transform="translate(0 -17.02)"/><path class="cls-3" d="M1098,652.9c17.54,2,24.55-11.16,25.59-20.41s-6.75-22.57-19.11-24-24.19,7.52-25.56,19.67S1083.5,651.26,1098,652.9Z" transform="translate(0 -17.02)"/><path class="cls-3" d="M910,631.36c17.27,1.94,24.16-11,25.19-20.09s-6.64-22.21-18.81-23.58-23.81,7.4-25.16,19.36S895.74,629.75,910,631.36Z" transform="translate(0 -17.02)"/><polygon class="cls-3" points="1138.25 622.7 941.37 603.81 859.85 591.6 860.07 590.14 941.55 602.35 1138.39 621.23 1138.25 622.7"/><path class="cls-7" d="M1046.32,559.16s-3.78-8-7.88-10.76S1019.2,542.26,1013,541s-20.52-4.25-22.16-2.14-4.92,24.05-2.66,25.89,58.53,9,61.14,6.19S1046.32,559.16,1046.32,559.16Z" transform="translate(0 -17.02)"/><path class="cls-7" d="M978.5,563.69c-1.5.81-48.35-4.56-50.15-6.62a6.91,6.91,0,0,1-.54-8.44c2-3.31,17-10.35,26.56-11.12s26-1,27.26.78S980,562.89,978.5,563.69Z" transform="translate(0 -17.02)"/><path class="cls-7" d="M912,617c5.92.67,8.28-3.76,8.63-6.88s-2.27-7.61-6.45-8.08a7.8,7.8,0,0,0-8.62,6.63C905.05,612.76,907.06,616.44,912,617Z" transform="translate(0 -17.02)"/><path class="cls-3" d="M1142.67,642.21s7.22,1.74,7.85-6.26-.27-9.29-2.49-9.54S1141.11,637.27,1142.67,642.21Z" transform="translate(0 -17.02)"/><path class="cls-7" d="M1117.71,605.56a9.55,9.55,0,0,0-5.42-2.5.34.34,0,0,1,.07-.68,10.1,10.1,0,0,1,5.75,2.64c.32.29-.08.84-.4.54Z" transform="translate(0 -17.02)"/><polygon class="cls-3" points="1059.2 610.78 958.07 601.21 958.08 599.73 1059.34 609.31 1059.2 610.78"/><path class="cls-7" d="M912.44,624.38a15.53,15.53,0,0,1-10.34-3.88c-2.29-2.12-4.89-6-4.22-12.63,1.35-13.24,13.23-13.19,16.84-12.86h0c4.53.42,9.51,2,12.07,11a13.75,13.75,0,0,1-1.5,11.22,15.42,15.42,0,0,1-10.19,6.95A14.7,14.7,0,0,1,912.44,624.38Zm.2-28c-4.72,0-12.27,1.6-13.29,11.62-.48,4.75.82,8.69,3.75,11.39a13.83,13.83,0,0,0,20.94-3,12.27,12.27,0,0,0,1.34-10c-2.31-8-6.56-9.5-10.8-9.88C914,596.44,913.37,596.4,912.64,596.4Z" transform="translate(0 -17.02)"/><path class="cls-7" d="M1100.59,638.08c5.92.67,8.28-3.76,8.63-6.88s-2.27-7.61-6.45-8.08a7.81,7.81,0,0,0-8.62,6.63C1093.69,633.85,1095.7,637.53,1100.59,638.08Z" transform="translate(0 -17.02)"/><path class="cls-7" d="M1101.08,645.47a15.53,15.53,0,0,1-10.34-3.88c-2.29-2.12-4.89-6-4.22-12.63,1.35-13.24,13.24-13.19,16.84-12.85,4.53.41,9.51,2,12.08,10.95a13.8,13.8,0,0,1-1.51,11.22,15.42,15.42,0,0,1-10.19,7A14.7,14.7,0,0,1,1101.08,645.47Zm.2-28c-4.72,0-12.27,1.6-13.29,11.62-.48,4.75.82,8.69,3.75,11.39a13.83,13.83,0,0,0,20.94-3,12.27,12.27,0,0,0,1.34-10c-2.31-8-6.56-9.5-10.79-9.88h0C1102.67,617.53,1102,617.49,1101.28,617.49Z" transform="translate(0 -17.02)"/><path class="cls-3" d="M1114,596.72c-.19-.1-19.36-10.72-55.46-16.79-38.16-6.42-127.42-16.08-144.94-12.55a126.23,126.23,0,0,0-31.14,10.7l-.7-1.31a128.23,128.23,0,0,1,31.55-10.84c17.67-3.55,107.23,6.11,145.47,12.54,36.39,6.12,55.75,16.86,55.94,17Z" transform="translate(0 -17.02)"/><polygon class="cls-3" points="1055.31 608 1053.84 607.86 1058.53 563.67 1060 563.81 1055.31 608"/><polygon class="cls-3" points="978.01 600.04 976.54 599.89 985.76 518.88 987.23 519.03 978.01 600.04"/><path class="cls-3" d="M882.64,578l-1-1.07c.31-.29,30.94-29.63,52.51-38.79,21.08-9,53.81-5.14,76.6-1.49,17,2.72,29.09,6.45,32.42,10,2.58,2.74,7.61,11.3,9.06,15,2.21,5.66,6,12.61,7.23,12.65,1.6-.26,3.39-3,3.56-4.58l1.47.16c-.23,2-2.39,5.49-4.8,5.88l-.19,0c-3.29,0-8.42-13-8.64-13.59-1.42-3.63-6.28-11.91-8.77-14.55s-12-6.4-31.58-9.54c-22.6-3.62-55.06-7.41-75.79,1.39C913.39,548.52,883,577.67,882.64,578Z" transform="translate(0 -17.02)"/><path class="cls-3" d="M952.53,616.88l-1.45-.25c1.52-8.88-1.18-35.82-23.35-44-21.31-7.91-45,5.34-45.23,5.48l-.73-1.29c.24-.13,24.52-13.72,46.47-5.58C951.29,579.75,954.11,607.67,952.53,616.88Z" transform="translate(0 -17.02)"/><path class="cls-3" d="M1058.86,631.37l-1.47-.16c0-.31,3.6-30.8,27.2-36.79,23.39-5.93,50.06,8.8,50.33,9l-.73,1.29c-.26-.15-26.42-14.6-49.24-8.81C1062.33,601.59,1058.89,631.07,1058.86,631.37Z" transform="translate(0 -17.02)"/><path class="cls-7" d="M878.4,584.7c-1.75,1.95-5.82,7-7.73,6.4s-1.64-3.69-1.55-5.6,2-7.38,4-7.55,10.87-1.35,11.42-1S880.1,582.81,878.4,584.7Z" transform="translate(0 -17.02)"/><path class="cls-8" d="M871.18,588a11.11,11.11,0,0,0,2.1-7.52c0-.44.63-.55.67-.11a11.77,11.77,0,0,1-2.23,8,.34.34,0,0,1-.54-.4Z" transform="translate(0 -17.02)"/><path class="cls-7" d="M1133.72,602.27s4.15.1,5.08,2.15.13,10.24-1,11.83-3.12-1.48-3.12-1.48Z" transform="translate(0 -17.02)"/><path class="cls-8" d="M1136.19,613.42a11.26,11.26,0,0,0,.56-6.81c-.1-.43.58-.53.67-.11a11.93,11.93,0,0,1-.6,7.18.34.34,0,0,1-.63-.26Z" transform="translate(0 -17.02)"/><path class="cls-3" d="M796.3,609.25l-.82-20.9-.24-6a.37.37,0,0,0-.74,0l.83,20.89.24,6c0,.47.75.47.73,0Z" transform="translate(0 -17.02)"/><path class="cls-3" d="M778,605.59,788.71,588c.25-.41-.39-.78-.64-.38l-10.71,17.64c-.25.4.39.77.64.37Z" transform="translate(0 -17.02)"/><path class="cls-3" d="M800.22,534.51l-1.57-22.32c0-.47-.77-.48-.74,0l1.58,22.32c0,.47.77.47.73,0Z" transform="translate(0 -17.02)"/><path class="cls-3" d="M810.25,525.07,820,508a.37.37,0,0,0-.64-.37l-9.74,17.07a.37.37,0,0,0,.64.37Z" transform="translate(0 -17.02)"/><path class="cls-2" d="M904.1,362.53S945,383.22,1056.42,389.3l-4.27,6.93H924.31S911.19,376.39,904.1,362.53Z" transform="translate(0 -17.02)"/><rect class="cls-3" x="935.44" y="269.96" width="1.48" height="129.14" transform="translate(-57.49 286.39) rotate(-17.87)"/><rect class="cls-3" x="924.25" y="330.48" width="129.55" height="1.48" transform="translate(645.28 1298.94) rotate(-89.27)"/><rect class="cls-3" x="975.28" y="333.8" width="130.38" height="1.48" transform="translate(377.58 1186.47) rotate(-70.49)"/><path class="cls-3" d="M863.57,286.33l-.47-1.4c.58-.2,58.86-19.23,126.72-19.23s123,19,123.55,19.23l-.49,1.4c-.55-.2-55.45-19.15-123.06-19.15S864.14,286.14,863.57,286.33Z" transform="translate(0 -17.02)"/><path class="cls-7" d="M998.72,548.84a61.47,61.47,0,0,0,27.72,15.9,60.64,60.64,0,0,0,9.08,1.64c.94.1.93-1.37,0-1.47a60,60,0,0,1-28.94-11.25,58.45,58.45,0,0,1-6.81-5.86.74.74,0,0,0-1,1Z" transform="translate(0 -17.02)"/><path class="cls-7" d="M954.62,547.19a41,41,0,0,0,14.3,10.27c.87.37,1.62-.9.75-1.27a40.07,40.07,0,0,1-14-10c-.63-.71-1.67.34-1,1Z" transform="translate(0 -17.02)"/><path d="M987.45,583.85l.28.86a1.08,1.08,0,0,0,.46.59.63.63,0,0,0,.37.12.68.68,0,0,0,.4,0l.24-.1a1,1,0,0,0,.36-.36l.1-.23a1,1,0,0,0,0-.54l-.28-.86a.75.75,0,0,0-.18-.34.84.84,0,0,0-.28-.25.65.65,0,0,0-.37-.12.68.68,0,0,0-.4,0l-.24.1a1,1,0,0,0-.36.36l-.1.23a1,1,0,0,0,0,.54Z" transform="translate(0 -17.02)"/><path d="M988.78,585.74l8.43.59a1,1,0,0,0,1-1,1,1,0,0,0-1-1l-8.43-.59a1,1,0,0,0,0,2Z" transform="translate(0 -17.02)"/><path d="M998.1,586.09l1.29-1.34a1.06,1.06,0,0,0,.3-.71.79.79,0,0,0-.09-.38.72.72,0,0,0-.21-.33,1,1,0,0,0-1.41,0l-1.3,1.35a1.05,1.05,0,0,0-.29.71.63.63,0,0,0,.09.38.67.67,0,0,0,.2.32,1,1,0,0,0,.71.3,1,1,0,0,0,.71-.3Z" transform="translate(0 -17.02)"/><polygon class="cls-9" points="915.45 378.52 917.99 389.48 1058.79 389.48 1060.98 378.52 915.45 378.52"/><path class="cls-7" d="M587.88,555.7a19.64,19.64,0,0,1,19.87-7.18c1.25.3,1.79-1.63.53-1.93a21.72,21.72,0,0,0-22.13,8.1c-.77,1,1,2,1.73,1Z" transform="translate(0 -17.02)"/><path class="cls-4" d="M1280.88,459l74.71.32,74.71.31,42.09.18a1.05,1.05,0,0,0,0-2.1l-74.71-.32L1323,457.1l-42.09-.18a1.06,1.06,0,0,0,0,2.11Z" transform="translate(0 -17.02)"/><path class="cls-1" d="M1476.91,454a56.53,56.53,0,0,0-55.4-27.18,57.17,57.17,0,0,0-18.1,5.45c-1.22.6-.15,2.42,1.06,1.82a54.66,54.66,0,0,1,59.09,7.24A53.71,53.71,0,0,1,1475.09,455a1.05,1.05,0,0,0,1.82-1.06Z" transform="translate(0 -17.02)"/><path class="cls-4" d="M1280.82,449.08a40.31,40.31,0,0,1,10.55-37.59c9-8.94,22.7-13.73,35.25-10.83,6.63,1.54,12.82,5.2,16.31,11.19a1.05,1.05,0,0,0,1.82-1.06c-6.75-11.61-21.81-14.83-34.13-12.11a42,42,0,0,0-31.83,50.95c.32,1.32,2.35.76,2-.55Z" transform="translate(0 -17.02)"/><path class="cls-4" d="M1432.28,421.64c-9.07-9.73-19.65-18.31-31.77-23.95a68.43,68.43,0,0,0-38.47-6.18,53.74,53.74,0,0,0-20.76,7.48c-1.14.72-.09,2.54,1.07,1.82,10.93-6.83,24.17-8.95,36.85-7.3s24.82,7.32,35.2,14.9a115.66,115.66,0,0,1,16.39,14.72c.93,1,2.42-.5,1.49-1.49Z" transform="translate(0 -17.02)"/><path class="cls-1" d="M1328.8,438.68A43.25,43.25,0,0,1,1353.72,428c7.93-.65,17.78.69,22.51,7.91.74,1.13,2.57.07,1.82-1.06-3.82-5.83-10.69-8.35-17.38-8.95a44.36,44.36,0,0,0-22.29,4,44.83,44.83,0,0,0-11.06,7.24c-1,.9.47,2.38,1.48,1.49Z" transform="translate(0 -17.02)"/><path class="cls-4" d="M245,490.29l102.73.29,102.73.29,57.88.16c1.86,0,1.86-1.9,0-1.91l-102.73-.28-102.73-.29L245,488.39c-1.86,0-1.86,1.9,0,1.9Z" transform="translate(0 -17.02)"/><path class="cls-4" d="M514.52,485.71c-15.42-17.28-46-27.12-76.18-24.58a111.15,111.15,0,0,0-24.89,4.93c-1.67.54-.21,2.19,1.46,1.65,26.4-8.55,58.8-6,81.26,6.54A61,61,0,0,1,512,486.68c.94,1.05,3.44.1,2.5-1Z" transform="translate(0 -17.02)"/><path class="cls-4" d="M244.89,481.29c-4.37-12.05,1.09-25.25,14.5-34,12.41-8.08,31.21-12.41,48.47-9.79,9.12,1.39,17.64,4.7,22.43,10.12.93,1.06,3.44.1,2.5-1-9.28-10.5-30-13.42-46.93-11-19.18,2.79-35.26,12-41.91,24.14a26.26,26.26,0,0,0-1.85,21.95c.43,1.19,3.23.68,2.79-.51Z" transform="translate(0 -17.02)"/><path class="cls-4" d="M453.15,456.48a153.7,153.7,0,0,0-43.69-21.67,138.28,138.28,0,0,0-52.89-5.59A100.69,100.69,0,0,0,328,436c-1.58.65-.13,2.3,1.46,1.64,15-6.18,33.23-8.09,50.68-6.6a139.77,139.77,0,0,1,48.4,13.48,157.18,157.18,0,0,1,22.54,13.31c1.27.9,3.31-.45,2-1.34Z" transform="translate(0 -17.02)"/><path class="cls-4" d="M310.87,471.88c9.47-5.51,21.65-8.95,34.26-9.63,10.9-.59,24.44.63,30.95,7.16,1,1,3.53.06,2.5-1-5.26-5.27-14.69-7.55-23.89-8.1A89.5,89.5,0,0,0,324,464a70.69,70.69,0,0,0-15.21,6.55c-1.4.81.66,2.15,2.05,1.34Z" transform="translate(0 -17.02)"/><path class="cls-2" d="M20.05,544A151.13,151.13,0,0,1,167.5,563.37,150.9,150.9,0,0,1,196.57,592c.78,1,2.52,0,1.73-1a154.82,154.82,0,0,0-56.74-45.57,153.82,153.82,0,0,0-122-3.39c-1.18.48-.66,2.41.53,1.93Z" transform="translate(0 -17.02)"/><path class="cls-2" d="M40.11,659.71a133,133,0,0,1,49.26-17.78A138,138,0,0,1,141.69,644a129.88,129.88,0,0,1,27.92,10.07c1.15.58,2.17-1.15,1-1.72a134.89,134.89,0,0,0-51.35-13.7,140.15,140.15,0,0,0-52.94,6.72A131.62,131.62,0,0,0,39.1,658c-1.1.67-.09,2.4,1,1.73Z" transform="translate(0 -17.02)"/><path class="cls-2" d="M175.12,610a182.25,182.25,0,0,1,36.09-1.54,254.12,254.12,0,0,1,38.75,5,297.31,297.31,0,0,1,38.43,10.68,275.37,275.37,0,0,1,36.2,15.66,209.86,209.86,0,0,1,30.93,19.55q1.75,1.35,3.48,2.76c1,.81,2.42-.6,1.42-1.41a202.26,202.26,0,0,0-30.59-20.36A271.69,271.69,0,0,0,294,624.06a294.11,294.11,0,0,0-39-11.55,263.93,263.93,0,0,0-39-5.79,192.07,192.07,0,0,0-37.14.75c-1.42.17-2.83.37-4.25.58s-.73,2.11.53,1.93Z" transform="translate(0 -17.02)"/><path class="cls-2" d="M352.39,639.54a137,137,0,0,1,60.1-1.66,144.45,144.45,0,0,1,55.42,23.35A133.31,133.31,0,0,1,493,684.07c.83,1,2.24-.44,1.41-1.41a138.67,138.67,0,0,0-48.86-36.38,146.53,146.53,0,0,0-59.52-13,135.18,135.18,0,0,0-34.21,4.29,1,1,0,0,0,.53,1.93Z" transform="translate(0 -17.02)"/><path class="cls-1" d="M1460.33,667.35A255.13,255.13,0,0,1,1500,649.66a269,269,0,0,1,128.2-11.82,257.16,257.16,0,0,1,41.85,10q2.6.85,5.17,1.77c1.22.43,1.74-1.5.53-1.93a257.75,257.75,0,0,0-42.25-11,269.27,269.27,0,0,0-43.35-3.85A274.37,274.37,0,0,0,1546.7,636a268.26,268.26,0,0,0-42.49,10.12A259.14,259.14,0,0,0,1464.13,663c-1.61.84-3.21,1.71-4.81,2.59a1,1,0,0,0,1,1.73Z" transform="translate(0 -17.02)"/><path class="cls-1" d="M1662.09,625.09a230.84,230.84,0,0,1,37.64-30.8A269.54,269.54,0,0,1,1743,571.2a297.43,297.43,0,0,1,46.74-15.33,301.24,301.24,0,0,1,48-7.51,276.29,276.29,0,0,1,47,.41q2.82.29,5.64.61c1.28.15,1.27-1.85,0-2a272.23,272.23,0,0,0-47.08-1.38,304.5,304.5,0,0,0-95.71,21.18,276.46,276.46,0,0,0-44.07,22.3,238,238,0,0,0-38.56,30q-2.16,2.09-4.26,4.23c-.9.91.51,2.33,1.41,1.41Z" transform="translate(0 -17.02)"/><path class="cls-1" d="M1765.75,531.9a122.94,122.94,0,0,1,32.9-57.31,121.94,121.94,0,0,1,102.42-33.33c1.26.19,1.81-1.74.54-1.93a125.18,125.18,0,0,0-72,11.05,124,124,0,0,0-65.78,81,1,1,0,0,0,1.93.53Z" transform="translate(0 -17.02)"/><path class="cls-1" d="M1534.16,604.8c10.28-19.18,27.51-33.53,46.81-43.11,22.27-11,47.08-15.42,71.7-17.11,15-1,30.11-1.11,45.18-1.17a1,1,0,0,0,0-2c-27.1.12-54.48.26-81.1,6-22.13,4.75-43.61,13.71-61.1,28.3a95.59,95.59,0,0,0-23.21,28.1c-.61,1.14,1.11,2.15,1.72,1Z" transform="translate(0 -17.02)"/><path class="cls-1" d="M46.58,580a30.21,30.21,0,0,1,33-8.89c1.21.44,1.73-1.49.53-1.93a32.16,32.16,0,0,0-34.93,9.41c-.82,1,.59,2.4,1.42,1.41Z" transform="translate(0 -17.02)"/><path class="cls-1" d="M241.9,641.86a87.64,87.64,0,0,1,45.74,13c1.1.68,2.1-1.05,1-1.72a89.63,89.63,0,0,0-46.75-13.28,1,1,0,0,0,0,2Z" transform="translate(0 -17.02)"/><path class="cls-2" d="M1799,625.24a59.92,59.92,0,0,1,45.51,1.67,56.75,56.75,0,0,1,11.31,6.81c1,.78,2.43-.63,1.41-1.41A61.86,61.86,0,0,0,1811.75,620a59.49,59.49,0,0,0-13.33,3.29c-1.19.45-.67,2.38.54,1.93Z" transform="translate(0 -17.02)"/><path class="cls-2" d="M1843.06,482.44A56.71,56.71,0,0,0,1818,508.13c-.56,1.15,1.17,2.17,1.73,1a55,55,0,0,1,24.39-25c1.15-.59.14-2.31-1-1.73Z" transform="translate(0 -17.02)"/><path class="cls-2" d="M1592.54,604.43a39.08,39.08,0,0,1,31.66-10.93c1.27.14,1.26-1.86,0-2A41,41,0,0,0,1591.13,603c-.92.9.5,2.32,1.41,1.41Z" transform="translate(0 -17.02)"/><path class="cls-6" d="M836,225.53s-18.45-43.89-21.3-71.62S819,81.49,856.56,53.12" transform="translate(0 -17.02)"/><path class="cls-6" d="M912,219.08s-32.52-74.32-12.91-117.68" transform="translate(0 -17.02)"/><line class="cls-6" x1="989.03" y1="94.71" x2="989.03" y2="36.1"/><path class="cls-6" d="M1062.93,63.6s47.62,26.06,36.3,106.9" transform="translate(0 -17.02)"/><path class="cls-2" d="M1108.4,138.79c10.86-10.22,28.28-15.9,44-12.31a35.19,35.19,0,0,1,21.29,14.31,33.19,33.19,0,0,1,8-1.23c11.62-.46,23.38,3.06,32.06,9.6s14.17,16,15,25.8l.18,3-123.12-.48-13.15-.67C1092.74,163.07,1097.55,149,1108.4,138.79Z" transform="translate(0 -17.02)"/><path class="cls-7" d="M1124.85,152.17c6.36-8.25,18.22-10.36,27.7-7,1.21.44,1.73-1.49.53-1.93-10.41-3.72-23.06-1-30,7.91-.78,1,1,2,1.73,1Z" transform="translate(0 -17.02)"/><path class="cls-7" d="M1183.2,161.93c1.48-5.78,7.74-9.22,13.38-9.38a1,1,0,0,0,0-2c-6.52.19-13.6,4.2-15.3,10.84a1,1,0,0,0,1.92.54Z" transform="translate(0 -17.02)"/><path class="cls-10" d="M925.52,389.15s4-5.21,3.87-9.77" transform="translate(0 -17.02)"/><path class="cls-10" d="M928.61,391.08s2.45-1,2.58-3.23" transform="translate(0 -17.02)"/><path class="cls-6" d="M852.35,594.54s20.52-32.79,39.39-44.46" transform="translate(0 -17.02)"/><path class="cls-6" d="M937.3,526.76s12.9-4.43,45.4-3.23" transform="translate(0 -17.02)"/><path class="cls-2" d="M836.59,200.87c3.57-6.93,12.12-9.52,19.25-10.86a56.5,56.5,0,0,1,24.58.9,55.65,55.65,0,0,1,13,5.25c1.13.63,2.14-1.1,1-1.72a58.26,58.26,0,0,0-25-7.27c-8.38-.49-17.29.7-25,4.22-4,1.81-7.58,4.54-9.6,8.47-.59,1.14,1.13,2.15,1.72,1Z" transform="translate(0 -17.02)"/><path class="cls-2" d="M1124.5,191.63a29,29,0,0,1,12.66-8.84c4.58-1.59,11-2.82,15.14.52,1,.81,2.41-.6,1.41-1.41-4.55-3.69-11.1-3-16.33-1.29a30.82,30.82,0,0,0-14.29,9.6c-.82,1,.59,2.41,1.41,1.42Z" transform="translate(0 -17.02)"/><path class="cls-2" d="M968.22,26.37l50.59-.08a1,1,0,0,0,0-2l-50.59.08a1,1,0,0,0,0,2Z" transform="translate(0 -17.02)"/><path class="cls-2" d="M898.14,297.58A240.77,240.77,0,0,1,911,343.73c.22,1.27,2.14.73,1.92-.53a239.82,239.82,0,0,0-12.85-46.15c-.47-1.19-2.4-.67-1.93.53Z" transform="translate(0 -17.02)"/><path class="cls-2" d="M1039.49,291.07,1036.4,304c-.3,1.25,1.63,1.79,1.93.53l3.09-12.9c.3-1.25-1.63-1.79-1.93-.53Z" transform="translate(0 -17.02)"/><circle class="cls-11" cx="990.56" cy="143.22" r="52.15"/></svg>