<svg id="Layer_1" data-name="Layer 1" xmlns="http://www.w3.org/2000/svg" viewBox="0 0 1991.68 678.41"><defs><style>.cls-1{fill:#261b1b;}.cls-2{fill:#ffd0c2;}.cls-3,.cls-9{fill:none;stroke-miterlimit:10;}.cls-3{stroke:#262322;}.cls-4{fill:#262322;}.cls-5{fill:#e6681f;}.cls-6{fill:#afdfff;}.cls-7{fill:#fff;}.cls-8{fill:#f15a24;}.cls-9{stroke:#ffd0c2;stroke-width:2px;}</style></defs><title>kati</title><path class="cls-1" d="M1988.73,693l-2.09.66,4.55-.18C1992.26,693.35,1991.66,693,1988.73,693Z" transform="translate(0 -17.02)"/><path class="cls-1" d="M1971.26,692.74c-1.08-.15,0-.32.21-.44-3.44.32-7.42.88-5.18,1.49,3.41-.64,4.23-.37,7.91-1.13,2.93-.08,5.12.21,4.62.46,1-.17,4.56.14,6.14-.27A65.07,65.07,0,0,0,1971.26,692.74Z" transform="translate(0 -17.02)"/><path class="cls-1" d="M1686.77,691.34c-.51,0-1.14-.07-1.85-.08Z" transform="translate(0 -17.02)"/><path class="cls-1" d="M1507.37,690.9a7.84,7.84,0,0,0,2-.14C1508.1,690.8,1507.07,690.84,1507.37,690.9Z" transform="translate(0 -17.02)"/><path class="cls-1" d="M1477.06,690.17l1.79.05A9.39,9.39,0,0,0,1477.06,690.17Z" transform="translate(0 -17.02)"/><path class="cls-1" d="M1684.92,691.26l-4.74-.2C1679.84,691.27,1682.61,691.22,1684.92,691.26Z" transform="translate(0 -17.02)"/><path class="cls-1" d="M1932,693.89c1,0,1.82-.09,2.57-.17l-2.41.07Z" transform="translate(0 -17.02)"/><path class="cls-1" d="M1763.19,690.73h1.44q.63-.12,1.2-.27Z" transform="translate(0 -17.02)"/><path class="cls-1" d="M1823.25,690.62a3.84,3.84,0,0,0-2.35.79,12.66,12.66,0,0,1,3-.39C1823.89,690.92,1823.71,690.79,1823.25,690.62Z" transform="translate(0 -17.02)"/><path class="cls-1" d="M1918.5,691.61l1.17-.05Z" transform="translate(0 -17.02)"/><path class="cls-1" d="M1919.67,691.56l.52,0Z" transform="translate(0 -17.02)"/><path class="cls-1" d="M1720.2,690.6a1.63,1.63,0,0,0-.55-.2C1719.65,690.47,1719.86,690.54,1720.2,690.6Z" transform="translate(0 -17.02)"/><path class="cls-1" d="M1421.59,689.45h.24C1423.29,689.4,1422.46,689.41,1421.59,689.45Z" transform="translate(0 -17.02)"/><path class="cls-1" d="M912.3,689.86c5.77.51-9.39.65-.7,1.21C910.79,690.85,919.49,690.19,912.3,689.86Z" transform="translate(0 -17.02)"/><path class="cls-1" d="M1930.4,693.82h-2.46C1929.06,693.84,1929.82,693.84,1930.4,693.82Z" transform="translate(0 -17.02)"/><path class="cls-1" d="M1295.06,690a4.25,4.25,0,0,0-1.3-.24A7.27,7.27,0,0,0,1295.06,690Z" transform="translate(0 -17.02)"/><path class="cls-1" d="M1389,690.59l-2.36-.08C1387.56,690.56,1388.32,690.58,1389,690.59Z" transform="translate(0 -17.02)"/><path class="cls-1" d="M1243.27,690.54l1,0C1243.93,690.56,1243.58,690.54,1243.27,690.54Z" transform="translate(0 -17.02)"/><path class="cls-1" d="M1243.27,690.54a21.1,21.1,0,0,0-2.42,0l.53.06A12.68,12.68,0,0,1,1243.27,690.54Z" transform="translate(0 -17.02)"/><path class="cls-1" d="M1192.85,690.58c.28,0,.64.08,1,.12l1.63,0Z" transform="translate(0 -17.02)"/><path class="cls-1" d="M1931.93,693.58a4.15,4.15,0,0,1-1.53.24l1.72,0C1932.26,693.7,1932.3,693.63,1931.93,693.58Z" transform="translate(0 -17.02)"/><path class="cls-1" d="M1242.22,695l-8.17-.09C1236.33,695,1239.31,695,1242.22,695Z" transform="translate(0 -17.02)"/><path class="cls-1" d="M565.77,694.48l-1.87.07A14.75,14.75,0,0,0,565.77,694.48Z" transform="translate(0 -17.02)"/><path class="cls-1" d="M1209.78,695c-1.45-.2-3-.32-4.6-.39a8.18,8.18,0,0,0-1,.14Z" transform="translate(0 -17.02)"/><path class="cls-1" d="M590.67,694.77l-.53,0Z" transform="translate(0 -17.02)"/><path class="cls-1" d="M592,694.69l-1.36.08Z" transform="translate(0 -17.02)"/><path class="cls-1" d="M1393.79,694.1h0Z" transform="translate(0 -17.02)"/><path class="cls-1" d="M1396.81,694.07l-2.6.11-.43-.07a20.56,20.56,0,0,1-2.87.24C1393.58,694.32,1397.11,694.48,1396.81,694.07Z" transform="translate(0 -17.02)"/><path class="cls-1" d="M1172.48,695l-1.16,0Z" transform="translate(0 -17.02)"/><path class="cls-1" d="M318.54,693.73l3.43,0h0Z" transform="translate(0 -17.02)"/><path class="cls-1" d="M1442.93,693.93h0Z" transform="translate(0 -17.02)"/><path class="cls-1" d="M1235.45,691c.07,0,.13,0,.13,0Z" transform="translate(0 -17.02)"/><path class="cls-1" d="M1425,689.67c.72,0,1.42,0,2,0Z" transform="translate(0 -17.02)"/><path class="cls-1" d="M344.86,690.55h0C344.92,690.56,344.91,690.55,344.86,690.55Z" transform="translate(0 -17.02)"/><path class="cls-1" d="M1944.82,693.74c5.89-.16,15.25-.31,17.07-.85l-2.8-.14c.67.12-.22.43-1.46.51-5,.42-7.27-.19-7.56-.38l3.73-.13c-3.83-1.14-15,.18-22.48.12l3.12-.83-7.7.69c-1.63-.22-2.75-.68,1-.81-5.38-.41-4.76.3-9.39-.16-.51-.07-.28-.11.2-.15l-5.26.25c1-.17-.88-.59,2.35-.47-9.44-.48-15.22.63-18.77,0l.79,0c-13.1.28-1.27.61-11.09,1.32l-6.61-1.5-1.29.61c-1.35,0-4-.07-3.53-.31-5,.41.85.26-2.06.66-6.51-.56-17.94.26-19.4-.72-2.34.47,6.22.36-.73.68-2-1-8,.18-14-.3,1.82-.54,7.45-.25,1.5-.73-3.58.91-11.56-.2-16.58,0-.23.73-10.89.31-19.3.55.53-.25-15.83-.4-23.65-.66l.23-.13c-1.51.74-9.58.6-15.46.75.23-.44,1.29-.61,4.47-.81h-5.52a47,47,0,0,1-6.61.44l1.39-.55c-7.35,0-14.81.65-24.26.28-.54.51,7.52,1.43-2.48,1.77-.38-.28-.74-.75,1.87-.87a43.5,43.5,0,0,1-4.78.12l4-.47c-4.3-.2-2.25.39-5.69.35.07-.4-2.55-.29-2.06-.6.88,0,3,.16,4.33,0a90.07,90.07,0,0,1-10.13-.61c.33.23,0,.54-2.85.59-7.35,0-2.52-.48-6.8-.68-1.78.27-6.47,0-6.6.58a10.9,10.9,0,0,1-3.38-.44c-3.8.26-17.77.08-13.48.7l1,0-.62,0c-12.47.59-25.9-.33-38.28-.08l0-.2c-7.38.23-16.44.14-21.71.56-2.19,0-5.16-.36-4.22-.6a142.83,142.83,0,0,1-14.44,0c5.68-.35-2-.31,5.82-.25-7.34-.17-9-.49-16.88.05,2.68-.51-5.52-.64-9-.49l5.14.37c-3.92.07-7.35,0-10.83,0l1.88-.66c-15-.81-27.07,1.37-38.5,0-4,.46,8.15.33,4.6.87-6.9-.09-14.1-1-16.26-1-9.46-.36-8.83,1-18.73.72,1.27.24,2.46.87-4.94,1.1-6.91-.09-8.49-1-4.13-1.19a6.81,6.81,0,0,1,2.39.14c2.23-.09,5.16-.19,2.43-.45l-.9.24c-3.43-.24-12.94-.22-10.7-.61-4.48.2-2.92.35,0,.46-7.91-.25-12.82,0-21.39-.18,1.45.13,2.79.4,1.34.4-13.38-.29-5.89.45-15,.56-5.15-.37,1.85-.87-7.28-.56-5.57-.25-1.18-.63,1-.83-8.31.46-15.53-.3-20.28-.38l4.38-.19c-2.62.11-4.77.11-6.95.11l2.5.47c-2.57-.08-4.75-.08-4.7-.28-2.65.31,2,.79-3.23,1.21-3.43-.24-10.45.26-11.63-.37,9.77.2.86-.48,5.89-.69-1.32,0-2.78,0-4.44,0-.39-.07.36-.13,1.07-.17-10.32-.56-4.75.71-15.44.7,1.36-.36-2.48-.68-4.23-.6,4.31,0,2.07.59-1.89.86-6.86-.27-7.45.21-11,.18l4.1.13c-1.39.35-4.82.31-9.6.42-.41-.28,4.34-.19,2.63-.31-5.3.62-12-.65-19.39-.23-3.43-.24-.33-.67-3.34-.83-8.3.46-9-.49-17.71-.11,2.52.48,3,.36-3.18.83l14.33-.34-9.2.7c4.33,0,9.13-.3,11.72-.22-4.38.39-3.93.27-1.86.67-5.92-.72-11.73.41-18.58-.07l.21-1.18c-10.28-.53-18.27.6-31.63.31l4.29.2c-1.79.47-8.24.07-12.57.26.4-.4-2.3-.54-4.15-.79.23.3-9.77,0-11,.77l-6-.52c-10.78-.22-12.31,1.12-22.67,1,3.12-.43-1.59-.71,5.35-1-3.46,0-6.57-.08-6.63.2-2-.25-9.59.53-12.78.15a23.45,23.45,0,0,1-5.82.56c-.26,0-.2-.11-.11-.15-.82.16-5.68.25-2.56.66-10.66-1.24-29.8.09-39.09-1-7.55.13-16.65.26-23.51.29.44-.12,0-.2,1.32-.16-9.46-.37-5.82,1.13-16.58.72-5.5-.63,5.72-.34,2.29-.58-1.5-1.3-13,.17-20.24-.58l1.76-.08c-5.54-.44-13.51.49-22.56.4,0,0,.44-.12,0-.2-6.19.67-17.9.88-26.6,1.07,2.71-.51,4-.27,2.3-.79-3.9.08,1.14.83-6.64,1-2.54-.28-8.15-.52-8.9-1.08l7.35,0c-3.77-.71-9.51,0-13.38-.1l.49-.31c-11.26.1-11.41.89-23.51.83l1.25.24c-6.61.78-5.54-.44-12.14.14l-2-.79c-4.37.19-15.29.76-23.11.91,4.43-.58,13.59-.88,19.25-1.23-4.32,0-14.69.06-17,.45a53.7,53.7,0,0,1,5.66-.15,183.68,183.68,0,0,1-20.9.91c1.53-1.53-22.46-.38-28.71-1.57-15.25.56-30.25-.24-48-.15,6.3,1.19-5.18,0-4.09,1.25a56.53,56.53,0,0,1-6.08,0l.87.06-.89-.06h0l-12.52-.73c-3-.35,3.93-.27,3.55-.54-9.06-.1-3.8-.52-9.79-.84,1.23.43-3.15.62-8.31.45l7.27.57c-12.66.65-10.94-1-23.7-.38l4-.39c-6.55.23-24.15,0-30.57,1-1.16-.14-2.69-.48.2-.57-15.65-.15-34.83,1-47,.44l1.18-.3c-2.92.09-5.08.57-8.73.26.18-.12,1.17-.29-.18-.31-1.55.1-7.75.52-11.62.35l3.3-.34c-15.26-.39-23.42.82-36.22,1,0-.88-12-1.17-18-1.31l.21-.13c-17.77-.11-30.19.73-46.64,1.08-10.22-1-34.61-.4-51-.94,2.51.16-.41.69-3.32.78-3.86-.18-10.66.61-10-.2l1.37,0c-2.9-.8-10.82-.59-17-.61l-1,1.06c-16.17-1.54-42.37.56-51.19-.81-3.91.26-8.74.26-12.61.52l.21-.56c-10.81-.15-16.21-.22-29.58-.09l2.73-.4c-7.54,0-9.52,1.63-16.47,1.67L488,690c-13.15,0-26.46-.73-39.46,0,.22-.13.6-.37,2.73-.4-6,0-22.71-.54-21.86.47-1.51-.56-13.81.06-20.51.37l1.11-.55a102.09,102.09,0,0,1-14.56,1.1c-2-.07-1.74-.45.89-.3-6.61-.3-5.15.52-13.16.23l3-.36a51.25,51.25,0,0,0-10,.56c-4.28.23-12.91-.14-13.91-.64a35.33,35.33,0,0,1-8.65.57c-.54-.19.92-.31,1.65-.36-11.37-.38-16.91.64-24.73.1a2.47,2.47,0,0,0-1.33-.34c8.31,0,15.12,0,15.63.08-.09-.51-7.26-.6-1.49-1.3-5.86.38-15.87,1.22-23,1a8.94,8.94,0,0,1-.94-.17l.74-.06c-1.64,0-3.12,0-4.5.08l1.2.69c-3.54-.06-7.88-.08-9.79-.2a12.64,12.64,0,0,1-3.57.43c-.13-.59-5.07-.3-6.95-.58-4.52.21.58.71-7.18.68-3-.05-3.36-.36-3-.58a101,101,0,0,1-10.69.6c1.4.16,3.64,0,4.57,0,.52.32-2.24.2-2.17.6-3.64,0-1.47-.55-6-.35l4.21.47a48.93,48.93,0,0,1-5-.11c2.76.11,2.37.58,2,.86-10.56-.34-2.06-1.26-2.62-1.77-10,.37-17.84-.25-25.6-.28l1.47.55a50.41,50.41,0,0,1-7-.44h-5.83c3.36.2,4.47.38,4.72.81-6.2-.15-14.71,0-16.31-.74l.24.12c-8.25.26-25.5.42-24.94.66-8.87-.24-20.12.18-20.37-.54-5.29-.18-13.71.93-17.49,0-6.27.48-.33.2,1.59.74-6.27.48-12.64-.75-14.73.3-7.33-.33,1.7-.22-.77-.68-1.54,1-13.6.15-20.46.71-3.08-.4,3.13-.24-2.17-.66.52.24-2.3.29-3.73.31l-1.36-.61-7,1.51c-10.36-.72,2.12-1.05-11.7-1.33l.83,0c-3.75.63-9.85-.47-19.8,0,3.4-.12,1.39.29,2.48.46l-5.55-.24c.5,0,.74.07.21.14-4.88.46-4.23-.25-9.91.16,3.91.13,2.73.59,1,.81L60.38,692l3.3.83c-7.92.07-19.68-1.26-23.72-.12l3.93.13c-.3.19-2.65.8-8,.38-1.3-.08-2.25-.39-1.54-.51l-3,.14c1.92.54,11.79.7,18,.85-1.94-.22-6.74-.4-5.28-.74,5.53.18,10.8.54,16.13.72a34.67,34.67,0,0,1-4.52-.78c6-.29,4.47.37,9,.42,1.72-.22,2.9-.36,1.76-.53,5.64.22,10.14.27,16.13,0,0,0-6.75-.4-3-.71,11,.32,13.19,1,25,1.36,13.74.91,26.65-.56,36.2.1.52.25-7.14.43-.94.59-1.08-.49,3.72-.32,4-.51,6.73.71,9.92-.16,14.69.33-1.12-.17,2.8-.36,5.38-.53-.76-.6,7.43-.24-2.38-1.1,10.09.91,17.85-.23,25.34,1.16l-2.58.17,10.13-.28h-.43a89.86,89.86,0,0,0,11-.56c-2.54-.15-6.19-.16-8.73-.3,5.41-.54,11.24.45,17.22.48-.27-.44-6.24-.16-4.48-.69,4.26-.07,7.91.25,11.86.37l-.56-.24c10.55-.55,4.12,1.2,11.85.38-.24.14.74.3.26.44,2.87-.26,9.59-.7,2.93-1a86.48,86.48,0,0,1,9.72.48c-3.11.36-3.88.18-5.05.64l14.8.25c1.66,0-1.22-.23-3.3-.24,17.38-1.29,35.15,1.1,54.74-.46-2.21.4,1.42.36,3.31.63,3.38-.07,7.67-.07,11.83-.09l.5.28h0l.3.18c-.7.2-2.88.41.09.62,16-.34,34.22.08,49.69.49l5.91-.59c1.37,0,2.55.26,1.06.38,6,.22.31-.37,3.21-.6,3.43,0,4.53.33,2.35.51,10.64-.5,30.3-1.07,41.5-.44l-2.18.17c8.72.24,9.84-1.2,17.94-.66l-1.55.11c18.93.25,39.86-.29,54.31.6,2.75-.84,18.74.38,20-.8,10.81.58,7.72.79,23,1.19,4.06,0,6.06-.74,11.09-.86l.12.61,6.83-.64,3.63.73,4.72-.15c-1.88,0-4-.28-3.71-.46,7.36-.28,18,.43,18.14.75l17.43-.52a18.91,18.91,0,0,1-3.73.37c6.31-.32.47.72,8.33.19-1.14-.14.62-.37.81-.49,4.25.37,13.92.37,21.08.22l-1.37.42c12.93.11,27.25-.2,41.76-.19-5.2-.2-4-.94.25-1l1.7.65c2.75-.4-4.44-.24,1.2-.74,5.42.08,3.64.74.53,1l6.59-.23c.38.19-1.16.3-1.56.54,2.7-.4,11.37.66,15.27,0l.37.19c14.51,0,21.08-.22,32.9-.25.23-.56,4.85-.44,8.37-.89,8.68.18,18.32.62,28.78.57,7.36-.28,2.15-.48,5.46-.81.54.51,11,.46,5.57.83,12.55-.08,16-.1,31.91-.52-1.72-.21-3.66-.3-2.65-.47,2.88-.09,6.55.21,6.14.46l-.76,0c17.82-.77,41.14,1.5,55.33.43l-.79.05,14.71-.56c6.78.09-4.06.39.95.71,15.88-.86,25.09.12,38.17-.45,10.12,1.51,35.91-.11,49.57.86l-.79-.36c3.53-.35,4.27.21,6.88.29-.37-.28-3.83-.32-1.64-.52,29.91-.42,61.73.52,92.4.85,11.21.09,6.36-1.85,20.5-1l-4,.66c22.63-.79,46.28,0,68.44-.64a17.45,17.45,0,0,1-3.52.35c4.68.48,17.3,0,17.38-.37,3.45,0,.8.35,2.93.55,4.69.29,11.78-.61,14.27-.13.27,0-.32.1-1,.14,4-.13,12.79,0,10.16-.44,8.32.26,15.91-.25,22.54.08,4.33-.62,14.24.3,15.61-.58-.6.91,14.58.73,19.84.3-1.76.28,4.57.29,2.51.67,6,0,11.5-.18,10.45-.65,11.06,1.08,22.22-.87,28.44.52,17.83-.49,34.32-.82,50.36-1-.58.9-17.73.09-17,1,15.21-.37,24-1.15,39.07-.93,3.91.12-2.22.39-3.54.54,15.2-.37,29.38.09,42.9-.4-2.44-.55,9.84-1.13,11.35-1.44-3.92,1.11,13.41.27,6.31,1.74,1.76-.08,4-.28,3.56-.55,2.6.08,3.43.24.79.55,9.54-.22,6.15-.66,14.8-.65,0,.2-1.78.28-2.67.51a128.46,128.46,0,0,1,16.08-.61c-.38.11.21.24-1.07.27,12.18-.09,21-1,34.47-.65-4.07.86,4.68.28,5.41,1l7.4-.22-3-.36c6.49,0,12.22-.54,17.8-.29l-4.82.31,12.15-.15-6.88-.28c6.56-.38-.7-.94,7.93-.74-1.75.08,6.49,0,9.87.45h0a91.06,91.06,0,0,1,11.3-.31c1.25.24-1,.83-.19,1,3.17-.63,15.19-.18,19.2-.84-1.34.16-1.41.55-1,.63l2.66-.51c3,.16,3.44.24,3,.55,9,.1-2.87-.94,7.85-.54-.84,0-.44.12-2.19.2,10.77.21,20.81-.32,30.71-.07,2.92.75-8.65.18-5.3.81,14.27-.13,29.55-.9,43.36-.72l-2.57-.08c1.91-1.06,10.28.52,17.27,0-1.71.08-2.24.59-1.78.47,9.46.17,19.34-.26,33.67-.59l-1.78.27c5.58.24,14.68.14,20.71.26,1.78-.27,5.23-.22,3.13-.62,18.57,1.55,35.42-.83,51.89.46-2,0-4.69.24-3.13.24l14-.25c-1.11-.46-1.84-.28-4.78-.64a77.24,77.24,0,0,1,9.21-.49c-6.31.31.06.75,2.78,1-.46-.14.48-.29.25-.44,7.33.82,1.23-.93,11.23-.37l-.53.24c3.75-.13,7.2-.45,11.24-.38,1.67.54-4,.25-4.25.69,5.68,0,11.2-1,16.33-.48-2.41.15-5.87.15-8.28.3a79.34,79.34,0,0,0,10.39.57h-.41l9.61.28-2.45-.17c7.1-1.39,14.46-.25,24-1.17-9.29.87-1.54.5-2.25,1.11,2.44.17,6.16.35,5.1.52,4.52-.48,7.54.39,13.92-.32.29.19,4.84,0,3.82.5,5.87-.15-1.39-.34-.9-.58,9.06-.67,21.29.81,34.32-.11,11.24-.37,13.31-1,23.74-1.36,3.52.31-2.88.71-2.88.71a150.18,150.18,0,0,0,15.3,0c-1.09.17,0,.32,1.66.54,4.29-.05,2.87-.71,8.53-.43a30.48,30.48,0,0,1-4.29.79c5.06-.18,10.06-.55,15.3-.72C1951.22,693.34,1946.67,693.51,1944.82,693.74ZM331,693.66c-.54-.2,0-.4,1.58-.39-.83.13,2.77.25,5.05.41C335.72,693.66,333.4,693.65,331,693.66Z" transform="translate(0 -17.02)"/><path class="cls-1" d="M1959.09,692.75a4.73,4.73,0,0,0-1,0Z" transform="translate(0 -17.02)"/><path class="cls-1" d="M1686.77,691.34l.54.06-.22,0Z" transform="translate(0 -17.02)"/><path class="cls-1" d="M1687.44,691.42l-.13,0Z" transform="translate(0 -17.02)"/><polygon class="cls-1" points="548.74 677.74 548.72 677.59 547.38 677.72 548.74 677.74"/><path class="cls-1" d="M1771.31,693.28a6,6,0,0,0,1.11.15A7.17,7.17,0,0,0,1771.31,693.28Z" transform="translate(0 -17.02)"/><path class="cls-1" d="M1807.69,693.41l5.15.2C1810.61,693.5,1809,693.44,1807.69,693.41Z" transform="translate(0 -17.02)"/><path class="cls-1" d="M1835.66,693.69a1.35,1.35,0,0,0,.55-.24h0Z" transform="translate(0 -17.02)"/><path class="cls-1" d="M1390.91,694.35l-1.07,0C1387.3,694.48,1389,694.44,1390.91,694.35Z" transform="translate(0 -17.02)"/><path class="cls-1" d="M1523.27,693c-1.41.1-2.79.2-4.26.26C1521.37,693.34,1523.2,693.36,1523.27,693Z" transform="translate(0 -17.02)"/><path class="cls-1" d="M1243.12,695h0Z" transform="translate(0 -17.02)"/><path class="cls-1" d="M1512.86,693.29c2.35.11,4.32.09,6.15,0C1517.08,693.26,1514.81,693.21,1512.86,693.29Z" transform="translate(0 -17.02)"/><path class="cls-1" d="M1958.25,694s0-.07.16-.09l-1.51.06Z" transform="translate(0 -17.02)"/><path class="cls-1" d="M1959.9,693.81a7.64,7.64,0,0,0-1.49.07Z" transform="translate(0 -17.02)"/><path class="cls-1" d="M1963.05,693.67l-3.15.14A18.64,18.64,0,0,0,1963.05,693.67Z" transform="translate(0 -17.02)"/><path class="cls-1" d="M1919.87,693.68l-.42.21C1919.68,693.85,1919.83,693.78,1919.87,693.68Z" transform="translate(0 -17.02)"/><path class="cls-1" d="M1908.62,693.74c2.68,0,6.73.44,10.48.31l.35-.16C1917.69,694.19,1911.17,693.4,1908.62,693.74Z" transform="translate(0 -17.02)"/><path class="cls-1" d="M1871.55,690.82c-11.89-.64,2.45.49-9.9.4l9.43.17C1869.43,691.17,1867.26,690.88,1871.55,690.82Z" transform="translate(0 -17.02)"/><path class="cls-1" d="M1832.62,690.47c-3.21.2-4,.25-.21.44C1837.48,690.81,1832.35,690.59,1832.62,690.47Z" transform="translate(0 -17.02)"/><path class="cls-1" d="M1621.12,690.91l.51-.52C1617.72,690.47,1621.59,690.59,1621.12,690.91Z" transform="translate(0 -17.02)"/><polygon class="cls-1" points="1584.53 676.85 1586.34 676.38 1580.73 676.53 1584.53 676.85"/><polygon class="cls-1" points="1558.58 672.81 1552.06 673 1556.87 672.89 1558.58 672.81"/><path class="cls-1" d="M1202,690.09l1.18.63C1205.83,690.6,1206.38,689.9,1202,690.09Z" transform="translate(0 -17.02)"/><path class="cls-1" d="M1048.81,690.73a37.82,37.82,0,0,0-8.63-.21C1043.62,690.56,1047.06,690.81,1048.81,690.73Z" transform="translate(0 -17.02)"/><polygon class="cls-1" points="592.45 672.47 586.64 672.65 589.37 672.68 592.45 672.47"/><path class="cls-1" d="M.52,693.43l4.8.18L3.12,693C0,692.87-.6,693.26.52,693.43Z" transform="translate(0 -17.02)"/><path class="cls-1" d="M21.32,692.21c.26.12,1.37.29.22.44a73.91,73.91,0,0,0-14.45.11c1.67.41,5.38.1,6.47.27-.52-.24,1.79-.53,4.88-.46,3.88.76,4.75.5,8.35,1.13C29.15,693.09,25,692.53,21.32,692.21Z" transform="translate(0 -17.02)"/><path class="cls-1" d="M62.84,693.7l-2.56-.07c.8.08,1.67.14,2.72.17A.4.4,0,0,1,62.84,693.7Z" transform="translate(0 -17.02)"/><path class="cls-1" d="M238.25,690.37c.4.1.82.19,1.27.27H241Z" transform="translate(0 -17.02)"/><path class="cls-1" d="M177.68,690.54c-.48.16-.67.29-.65.4a13.55,13.55,0,0,1,3.13.38A4.22,4.22,0,0,0,177.68,690.54Z" transform="translate(0 -17.02)"/><path class="cls-1" d="M77.2,691.53,76,691.47Z" transform="translate(0 -17.02)"/><path class="cls-1" d="M76,691.47l-.55,0Z" transform="translate(0 -17.02)"/><path class="cls-1" d="M287,690.32a1.34,1.34,0,0,0-.58.2C286.74,690.45,287,690.39,287,690.32Z" transform="translate(0 -17.02)"/><path class="cls-1" d="M67.24,693.74h-2.6C65.26,693.75,66.06,693.76,67.24,693.74Z" transform="translate(0 -17.02)"/><path class="cls-1" d="M63,693.49c-.39,0-.35.13-.19.21l1.8,0A4.6,4.6,0,0,1,63,693.49Z" transform="translate(0 -17.02)"/><path class="cls-1" d="M34.38,692.66l1,0A6.21,6.21,0,0,0,34.38,692.66Z" transform="translate(0 -17.02)"/><path class="cls-1" d="M232.47,693.2a7.16,7.16,0,0,0-1.17.14A6,6,0,0,0,232.47,693.2Z" transform="translate(0 -17.02)"/><path class="cls-1" d="M194.09,693.32c-1.37,0-3.08.09-5.43.2Z" transform="translate(0 -17.02)"/><path class="cls-1" d="M164.06,693.36H164a1.42,1.42,0,0,0,.57.24Z" transform="translate(0 -17.02)"/><path class="cls-1" d="M35.27,693.88l1.42,0-1.59-.07C35.21,693.81,35.29,693.84,35.27,693.88Z" transform="translate(0 -17.02)"/><path class="cls-1" d="M35.1,693.79a9.54,9.54,0,0,0-1.58-.07Z" transform="translate(0 -17.02)"/><path class="cls-1" d="M33.52,693.72l-3.32-.14A20.7,20.7,0,0,0,33.52,693.72Z" transform="translate(0 -17.02)"/><path class="cls-1" d="M76.2,693.8l-.45-.2C75.8,693.69,76,693.76,76.2,693.8Z" transform="translate(0 -17.02)"/><path class="cls-1" d="M76.2,693.8l.37.16c4,.13,8.22-.26,11.05-.3C84.93,693.31,78.06,694.1,76.2,693.8Z" transform="translate(0 -17.02)"/><path class="cls-1" d="M127.22,691.3l9.95-.16c-13,.08,2.09-1-10.44-.4C131.25,690.79,129,691.08,127.22,691.3Z" transform="translate(0 -17.02)"/><path class="cls-1" d="M168,690.82c4-.19,3.17-.24-.22-.44C168.08,690.51,162.67,690.72,168,690.82Z" transform="translate(0 -17.02)"/><path class="cls-2" d="M683.26,455c-12.64-8-28.61-11.2-43-7.05a43.17,43.17,0,0,0-26.43,21.9,27.76,27.76,0,0,0-25.52,2.61c-8.5,5.8-11.42,19.4-9.65,29.54,36-1.27,98.15-4.4,134.16-5.67C710.25,480.62,695.9,463,683.26,455Z" transform="translate(0 -17.02)"/><path class="cls-3" d="M1143.88,639" transform="translate(0 -17.02)"/><path class="cls-2" d="M1124.61,55C1094.87,29.8,1049,17,988.23,17S881.59,29.8,851.85,55c-25.85,21.92-39,52.46-39,90.77,0,36.23,30.25,102.46,55.63,151.64,27.47,53.23,55.29,98.5,55.57,98.95l.22.36h127.84l.22-.36c.27-.45,28.1-45.72,55.57-98.95,25.38-49.18,55.63-115.41,55.63-151.64C1163.57,107.47,1150.46,76.93,1124.61,55Z" transform="translate(0 -17.02)"/><polygon class="cls-4" points="870.02 552.28 773.23 533.8 772.45 538.28 867.41 555.74 870.02 552.28"/><path class="cls-3" d="M783.89,492.7l12,62.74a1.83,1.83,0,0,0,3.28.72L837.64,502l-27.48-1.11Z" transform="translate(0 -17.02)"/><path class="cls-3" d="M810.18,623,798,559a1.3,1.3,0,0,0-2.33-.5l-39.2,55.16,27.49,1.11Z" transform="translate(0 -17.02)"/><path class="cls-4" d="M788.64,491l18.47,5.9c.62.2,1.06-.72.44-.92L789.08,490c-.62-.2-1.06.73-.44.92Z" transform="translate(0 -17.02)"/><path class="cls-4" d="M812.87,497.69l8.66.06c.65,0,.55-1-.1-1l-8.66-.05c-.65,0-.55,1,.1,1Z" transform="translate(0 -17.02)"/><path class="cls-4" d="M801.8,491.71l5.76,1.72a.51.51,0,0,0,.59-.41.52.52,0,0,0-.42-.59L802,490.7a.52.52,0,0,0-.59.42.53.53,0,0,0,.42.59Z" transform="translate(0 -17.02)"/><path class="cls-4" d="M767.11,620.82l10.15-1.06a.51.51,0,0,0-.1-1L767,619.8a.51.51,0,0,0,.1,1Z" transform="translate(0 -17.02)"/><path class="cls-4" d="M786.42,620.31l12.46,6.47c.59.3,1-.63.44-.93l-12.46-6.47c-.58-.3-1,.63-.44.93Z" transform="translate(0 -17.02)"/><path class="cls-5" d="M786.39,623.3l1.9,1A.54.54,0,0,0,789,624a.53.53,0,0,0-.25-.68l-1.9-.94a.51.51,0,0,0-.44.92Z" transform="translate(0 -17.02)"/><path class="cls-4" d="M1141.28,640.22l-.41,0c-2.26-.26-9.13-1-12.47-10.78l-.39-1.18c-3.19-9.39-7.54-22.26-25.58-24.78-18.78-2.63-29.64,17.66-31.28,29.11l-1.46-.21c1.71-12,13.14-33.15,33-30.37,18.93,2.66,23.65,16.57,26.76,25.78l.4,1.17c3,8.87,9,9.54,11.24,9.79a2.85,2.85,0,0,0,2.3-.91c1.2-1.17,3.13-4.48,2.43-13.5-1-12.77-10.63-30.16-29.94-40.22s-51.85-13.56-52.17-13.59l-.3,0-.19-.22c-.27-.32-6.63-7.88-9.26-13.23-.81-1.65-1.64-3.54-2.52-5.54-2-4.59-4.31-9.78-6.24-11.41-2.31-2-25.62-12.49-57.66-15.2-29.34-2.47-51.43.6-69.51,9.69-17.68,8.89-32,19.88-35.24,22.88-4.7,4.38-16.6,16.19-25.62,31.17-4.25,7-7.31,11.54-9.34,14.51a28.44,28.44,0,0,0-2.6,4.15c1.84.54,14.79,1.13,27-2.61,8.48-2.61,11.48-6,15.27-10.39a68.82,68.82,0,0,1,6.32-6.58c8.85-7.88,25.21-7.64,33.94-2.17,7.05,4.43,18.16,14.81,13.21,34.57l-1.43-.36c4.71-18.85-5.85-28.74-12.57-33-8.11-5.08-23.93-5.31-32.17,2a66.76,66.76,0,0,0-6.19,6.44c-3.79,4.35-7.06,8.1-15.94,10.83-12.83,3.94-26.45,3.29-28.16,2.5a1.27,1.27,0,0,1-.71-.8c-.26-.94.46-2,2.84-5.48,2-3,5.07-7.43,9.29-14.45C865,572.7,877,560.78,881.74,556.36c3.26-3,17.75-14.16,35.57-23.12,18.34-9.21,40.68-12.34,70.3-9.84,30.64,2.59,55.23,12.8,58.49,15.54,2.2,1.85,4.45,7,6.64,11.94.87,2,1.7,3.86,2.5,5.49,2.3,4.68,7.79,11.39,8.87,12.7,3.36.38,33.85,4,52.41,13.72,19.81,10.32,29.7,28.23,30.72,41.41.71,9.15-1.17,13-2.88,14.68A4.38,4.38,0,0,1,1141.28,640.22Z" transform="translate(0 -17.02)"/><path class="cls-4" d="M1098,652.9c17.54,2,24.55-11.16,25.59-20.41s-6.75-22.57-19.11-24-24.19,7.52-25.56,19.67S1083.5,651.26,1098,652.9Z" transform="translate(0 -17.02)"/><path class="cls-4" d="M910,631.36c17.27,1.94,24.16-11,25.19-20.09s-6.64-22.21-18.81-23.58-23.81,7.4-25.16,19.36S895.74,629.75,910,631.36Z" transform="translate(0 -17.02)"/><polygon class="cls-4" points="1138.25 622.7 941.37 603.81 859.85 591.6 860.07 590.14 941.55 602.35 1138.39 621.23 1138.25 622.7"/><path class="cls-6" d="M895.33,547.07a204.56,204.56,0,0,1,22.32-13.17c2-1,4-1.9,6-2.75,0,0,2,3,1.77,4.6s-22.13,16.39-25,16.32S895.33,547.07,895.33,547.07Z" transform="translate(0 -17.02)"/><path class="cls-6" d="M1046.32,559.16s-3.78-8-7.88-10.76S1019.2,542.26,1013,541s-20.52-4.25-22.16-2.14-4.92,24.05-2.66,25.89,58.53,9,61.14,6.19S1046.32,559.16,1046.32,559.16Z" transform="translate(0 -17.02)"/><path class="cls-6" d="M978.5,563.69c-1.5.81-48.35-4.56-50.15-6.62a6.91,6.91,0,0,1-.54-8.44c2-3.31,17-10.35,26.56-11.12s26-1,27.26.78S980,562.89,978.5,563.69Z" transform="translate(0 -17.02)"/><path class="cls-6" d="M1059.79,571c-2.34-.26-10.24-20.2-12.9-23.15-1.14-1.25-.19-3.42.83-5.82,2.2,3.82,4.81,9,7.22,13.43,2.16,4,5,9.52,7.29,12.47C1061.82,569.35,1061.05,571.14,1059.79,571Z" transform="translate(0 -17.02)"/><path class="cls-7" d="M912,617c5.92.67,8.28-3.76,8.63-6.88s-2.27-7.61-6.45-8.08a7.8,7.8,0,0,0-8.62,6.63C905.05,612.76,907.06,616.44,912,617Z" transform="translate(0 -17.02)"/><path class="cls-4" d="M1142.67,642.21s7.22,1.74,7.85-6.26-.27-9.29-2.49-9.54S1141.11,637.27,1142.67,642.21Z" transform="translate(0 -17.02)"/><path class="cls-7" d="M1117.71,605.56a9.55,9.55,0,0,0-5.42-2.5.34.34,0,0,1,.07-.68,10.1,10.1,0,0,1,5.75,2.64c.32.29-.08.84-.4.54Z" transform="translate(0 -17.02)"/><polygon class="cls-4" points="1059.2 610.78 951.87 600.48 940.37 603.6 939.98 602.17 951.74 598.98 951.88 599 1059.34 609.31 1059.2 610.78"/><path class="cls-7" d="M912.44,624.38a15.53,15.53,0,0,1-10.34-3.88c-2.29-2.12-4.89-6-4.22-12.63,1.35-13.24,13.23-13.19,16.84-12.86h0c4.53.42,9.51,2,12.07,11a13.75,13.75,0,0,1-1.5,11.22,15.42,15.42,0,0,1-10.19,6.95A14.7,14.7,0,0,1,912.44,624.38Zm.2-28c-4.72,0-12.27,1.6-13.29,11.62-.48,4.75.82,8.69,3.75,11.39a13.83,13.83,0,0,0,20.94-3,12.27,12.27,0,0,0,1.34-10c-2.31-8-6.56-9.5-10.8-9.88C914,596.44,913.37,596.4,912.64,596.4Z" transform="translate(0 -17.02)"/><path class="cls-7" d="M1100.59,638.08c5.92.67,8.28-3.76,8.63-6.88s-2.27-7.61-6.45-8.08a7.81,7.81,0,0,0-8.62,6.63C1093.69,633.85,1095.7,637.53,1100.59,638.08Z" transform="translate(0 -17.02)"/><path class="cls-7" d="M1101.08,645.47a15.53,15.53,0,0,1-10.34-3.88c-2.29-2.12-4.89-6-4.22-12.63,1.35-13.24,13.24-13.19,16.84-12.85,4.53.41,9.51,2,12.08,10.95a13.8,13.8,0,0,1-1.51,11.22,15.42,15.42,0,0,1-10.19,7A14.7,14.7,0,0,1,1101.08,645.47Zm.2-28c-4.72,0-12.27,1.6-13.29,11.62-.48,4.75.82,8.69,3.75,11.39a13.83,13.83,0,0,0,20.94-3,12.27,12.27,0,0,0,1.34-10c-2.31-8-6.56-9.5-10.79-9.88h0C1102.67,617.53,1102,617.49,1101.28,617.49Z" transform="translate(0 -17.02)"/><path class="cls-4" d="M1114,596.72c-.19-.1-19.36-10.72-55.46-16.79-38.16-6.42-127.42-16.08-144.94-12.55a126.23,126.23,0,0,0-31.14,10.7l-.7-1.31a128.23,128.23,0,0,1,31.55-10.84c17.67-3.55,107.23,6.11,145.47,12.54,36.39,6.12,55.75,16.86,55.94,17Z" transform="translate(0 -17.02)"/><rect class="cls-4" x="1033.25" y="602.11" width="47.34" height="1.48" transform="translate(351.8 1577.46) rotate(-84.28)"/><rect class="cls-4" x="938.92" y="575.74" width="85.93" height="1.48" transform="translate(303.26 1473.73) rotate(-83.83)"/><path class="cls-4" d="M882.64,578l-1-1.07c.31-.29,30.94-29.63,52.51-38.79,21.08-9,53.81-5.14,76.6-1.49,17,2.72,29.09,6.45,32.42,10,2.58,2.74,7.61,11.3,9.06,15,2.21,5.66,6,12.61,7.23,12.65,1.6-.26,3.39-3,3.56-4.58l1.47.16c-.23,2-2.39,5.49-4.8,5.88l-.19,0c-3.29,0-8.42-13-8.64-13.59-1.42-3.63-6.28-11.91-8.77-14.55s-12-6.4-31.58-9.54c-22.6-3.62-55.06-7.41-75.79,1.39C913.39,548.52,883,577.67,882.64,578Z" transform="translate(0 -17.02)"/><path class="cls-4" d="M952.53,616.88l-1.45-.25c1.52-8.88-1.18-35.82-23.35-44-21.31-7.91-45,5.34-45.23,5.48l-.73-1.29c.24-.13,24.52-13.72,46.47-5.58C951.29,579.75,954.11,607.67,952.53,616.88Z" transform="translate(0 -17.02)"/><path class="cls-4" d="M1058.86,631.37l-1.47-.16c0-.31,3.6-30.8,27.2-36.79,23.39-5.93,50.06,8.8,50.33,9l-.73,1.29c-.26-.15-26.42-14.6-49.24-8.81C1062.33,601.59,1058.89,631.07,1058.86,631.37Z" transform="translate(0 -17.02)"/><path class="cls-8" d="M878.4,584.7c-1.75,1.95-5.82,7-7.73,6.4s-1.64-3.69-1.55-5.6,2-7.38,4-7.55,10.87-1.35,11.42-1S880.1,582.81,878.4,584.7Z" transform="translate(0 -17.02)"/><path class="cls-7" d="M871.18,588a11.11,11.11,0,0,0,2.1-7.52c0-.44.63-.55.67-.11a11.77,11.77,0,0,1-2.23,8,.34.34,0,0,1-.54-.4Z" transform="translate(0 -17.02)"/><path class="cls-8" d="M1133.72,602.27s4.15.1,5.08,2.15.13,10.24-1,11.83-3.12-1.48-3.12-1.48Z" transform="translate(0 -17.02)"/><path class="cls-7" d="M1136.19,613.42a11.26,11.26,0,0,0,.56-6.81c-.1-.43.58-.53.67-.11a11.93,11.93,0,0,1-.6,7.18.34.34,0,0,1-.63-.26Z" transform="translate(0 -17.02)"/><path class="cls-4" d="M796.3,609.25l-.82-20.9-.24-6a.37.37,0,0,0-.74,0l.83,20.89.24,6c0,.47.75.47.73,0Z" transform="translate(0 -17.02)"/><path class="cls-4" d="M778,605.59,788.71,588c.25-.41-.39-.78-.64-.38l-10.71,17.64c-.25.4.39.77.64.37Z" transform="translate(0 -17.02)"/><path class="cls-4" d="M800.22,534.51l-1.57-22.32c0-.47-.77-.48-.74,0l1.58,22.32c0,.47.77.47.73,0Z" transform="translate(0 -17.02)"/><path class="cls-4" d="M810.25,525.07,820,508a.37.37,0,0,0-.64-.37l-9.74,17.07a.37.37,0,0,0,.64.37Z" transform="translate(0 -17.02)"/><rect class="cls-4" x="933.11" y="404.64" width="1.48" height="121.61" transform="translate(-77.16 190.41) rotate(-12.18)"/><rect class="cls-4" x="957.34" y="405.97" width="1.48" height="117.6" transform="translate(-15.85 17.17) rotate(-2.03)"/><rect class="cls-4" x="950.8" y="465.06" width="121.99" height="1.48" transform="translate(354.72 1348.19) rotate(-78.57)"/><rect class="cls-4" x="969.01" y="466.17" width="129.49" height="1.48" transform="translate(244.05 1264.16) rotate(-70.18)"/><rect class="cls-4" x="939.06" y="424.63" width="288.19" height="1.48" transform="matrix(0.15, -0.99, 0.99, 0.15, 504.69, 1418.07)"/><rect class="cls-4" x="889.96" y="280.98" width="1.48" height="260.91" transform="translate(-38.7 80.03) rotate(-6.1)"/><rect class="cls-4" x="935.44" y="269.96" width="1.48" height="129.14" transform="translate(-57.49 286.39) rotate(-17.87)"/><rect class="cls-4" x="924.25" y="330.48" width="129.55" height="1.48" transform="translate(645.28 1298.94) rotate(-89.27)"/><rect class="cls-4" x="975.28" y="333.8" width="130.38" height="1.48" transform="translate(377.58 1186.47) rotate(-70.49)"/><path class="cls-4" d="M863.57,286.33l-.47-1.4c.58-.2,58.86-19.23,126.72-19.23s123,19,123.55,19.23l-.49,1.4c-.55-.2-55.45-19.15-123.06-19.15S864.14,286.14,863.57,286.33Z" transform="translate(0 -17.02)"/><path class="cls-7" d="M998.72,548.84a61.47,61.47,0,0,0,27.72,15.9,60.64,60.64,0,0,0,9.08,1.64c.94.1.93-1.37,0-1.47a60,60,0,0,1-28.94-11.25,58.45,58.45,0,0,1-6.81-5.86.74.74,0,0,0-1,1Z" transform="translate(0 -17.02)"/><path class="cls-7" d="M954.62,547.19a41,41,0,0,0,14.3,10.27c.87.37,1.62-.9.75-1.27a40.07,40.07,0,0,1-14-10c-.63-.71-1.67.34-1,1Z" transform="translate(0 -17.02)"/><path d="M987.45,583.85l.28.86a1.08,1.08,0,0,0,.46.59.63.63,0,0,0,.37.12.68.68,0,0,0,.4,0l.24-.1a1,1,0,0,0,.36-.36l.1-.23a1,1,0,0,0,0-.54l-.28-.86a.75.75,0,0,0-.18-.34.84.84,0,0,0-.28-.25.65.65,0,0,0-.37-.12.68.68,0,0,0-.4,0l-.24.1a1,1,0,0,0-.36.36l-.1.23a1,1,0,0,0,0,.54Z" transform="translate(0 -17.02)"/><path d="M988.78,585.74l8.43.59a1,1,0,0,0,1-1,1,1,0,0,0-1-1l-8.43-.59a1,1,0,0,0,0,2Z" transform="translate(0 -17.02)"/><path d="M998.1,586.09l1.29-1.34a1.06,1.06,0,0,0,.3-.71.79.79,0,0,0-.09-.38.72.72,0,0,0-.21-.33,1,1,0,0,0-1.41,0l-1.3,1.35a1.05,1.05,0,0,0-.29.71.63.63,0,0,0,.09.38.67.67,0,0,0,.2.32,1,1,0,0,0,.71.3,1,1,0,0,0,.71-.3Z" transform="translate(0 -17.02)"/><polygon class="cls-9" points="915.45 378.52 917.99 389.48 1058.79 389.48 1060.98 378.52 915.45 378.52"/><path class="cls-4" d="M693.93,280.3a19.49,19.49,0,0,1,8.37,10.48c.4,1.21,2.34.69,1.93-.53a21.66,21.66,0,0,0-9.29-11.68c-1.1-.67-2.11,1.06-1,1.73Z" transform="translate(0 -17.02)"/><path class="cls-7" d="M635.16,464.64A19.65,19.65,0,0,1,655,457.46c1.26.29,1.79-1.63.54-1.93a21.7,21.7,0,0,0-22.13,8.1c-.77,1,1,2,1.72,1Z" transform="translate(0 -17.02)"/><path class="cls-6" d="M598,324c-.16-8.19,2.24-16.57,7.73-22.8a25.74,25.74,0,0,1,20.12-9.06,22.27,22.27,0,0,1,12.34,4.34c1,.77,2-1,1-1.73a24.94,24.94,0,0,0-23.63-2.89,30.69,30.69,0,0,0-16.95,17.23A37.82,37.82,0,0,0,596,324a1,1,0,0,0,2,0Z" transform="translate(0 -17.02)"/><path class="cls-6" d="M722.77,295.9a52.51,52.51,0,0,1,32.6.76,51.27,51.27,0,0,1,24,17.93A52,52,0,0,1,787,329.44c.39,1.22,2.32.7,1.92-.53a54.31,54.31,0,0,0-17.33-25.35A53.83,53.83,0,0,0,722.23,294a1,1,0,0,0,.54,1.93Z" transform="translate(0 -17.02)"/><path class="cls-6" d="M598.23,326.31l73,1.31,72.45,1.3,41,.74a1,1,0,0,0,0-2l-73-1.31L639.21,325l-41-.73a1,1,0,0,0,0,2Z" transform="translate(0 -17.02)"/><path class="cls-6" d="M637.66,291.36c3-5.76,8.23-9.72,14-12.4a82.22,82.22,0,0,1,19.7-6A50.56,50.56,0,0,1,692,273a41.56,41.56,0,0,1,27.23,21.24c.59,1.14,2.32.13,1.73-1a43.72,43.72,0,0,0-26.45-21.64,49.59,49.59,0,0,0-20.86-1,86.66,86.66,0,0,0-21.07,5.84c-6.79,2.86-13.19,7.26-16.63,14-.58,1.15,1.14,2.16,1.73,1Z" transform="translate(0 -17.02)"/><path class="cls-6" d="M1251.69,479.18c9.17-10.22,23.88-15.89,37.13-12.31a30.16,30.16,0,0,1,18,14.31,24.28,24.28,0,0,1,6.77-1.22,38,38,0,0,1,39.7,35.39l.14,3-104-.48-11.1-.67C1238.47,503.47,1242.53,489.4,1251.69,479.18Z" transform="translate(0 -17.02)"/><path class="cls-1" d="M1233.64,350.83l74.71.32,74.71.32,42.09.18a1.06,1.06,0,0,0,0-2.11l-74.71-.32-74.71-.32-42.09-.18a1.06,1.06,0,0,0,0,2.11Z" transform="translate(0 -17.02)"/><path class="cls-2" d="M1429.66,345.77a56.55,56.55,0,0,0-55.4-27.18,57.69,57.69,0,0,0-18.1,5.45c-1.21.6-.15,2.42,1.06,1.82a54.7,54.7,0,0,1,59.1,7.24,53.48,53.48,0,0,1,11.52,13.73,1.05,1.05,0,0,0,1.82-1.06Z" transform="translate(0 -17.02)"/><path class="cls-1" d="M1233.58,340.88a40.33,40.33,0,0,1,10.54-37.59c9-8.94,22.7-13.72,35.25-10.82,6.64,1.53,12.83,5.19,16.31,11.18a1.05,1.05,0,0,0,1.82-1.06c-6.75-11.61-21.81-14.83-34.13-12.1a42.24,42.24,0,0,0-30.48,26.69,42.77,42.77,0,0,0-1.34,24.26c.31,1.31,2.34.76,2-.56Z" transform="translate(0 -17.02)"/><path class="cls-1" d="M1385,313.45c-9.08-9.74-19.66-18.32-31.78-24a68.32,68.32,0,0,0-38.46-6.17A53.36,53.36,0,0,0,1294,290.8c-1.15.71-.09,2.54,1.06,1.82,10.93-6.84,24.17-9,36.86-7.31s24.81,7.33,35.19,14.9a116.91,116.91,0,0,1,16.4,14.72c.92,1,2.41-.49,1.49-1.48Z" transform="translate(0 -17.02)"/><path class="cls-2" d="M1281.56,330.48a43.29,43.29,0,0,1,24.92-10.65c7.92-.65,17.77.69,22.51,7.91.74,1.13,2.56.08,1.82-1.06-3.83-5.83-10.69-8.34-17.38-8.95a44.49,44.49,0,0,0-22.3,4,45.31,45.31,0,0,0-11.06,7.24c-1,.9.48,2.38,1.49,1.49Z" transform="translate(0 -17.02)"/><path class="cls-6" d="M152.75,668.55c6.39-14.6,16.66-27.12,28.93-37.18,13.3-10.91,28.9-18.76,45-24.55a245.21,245.21,0,0,1,25.44-7.59A141.23,141.23,0,0,1,279,595.06c16.26-.75,32.56,2.85,45.47,13.17A62.74,62.74,0,0,1,346.74,644q.54,2.56.84,5.16c.21,1.89,3.21,1.91,3,0a65,65,0,0,0-19.36-38.94,63.12,63.12,0,0,0-18.35-12.48A70.72,70.72,0,0,0,287.35,592c-18.36-.8-36.85,3.85-54.21,9.42-17.12,5.51-33.83,13-48.35,23.72-13.1,9.67-24.5,21.91-32,36.43q-1.38,2.67-2.59,5.43c-.76,1.75,1.82,3.28,2.59,1.51Z" transform="translate(0 -17.02)"/><path class="cls-6" d="M350.85,624.82a378,378,0,0,1,63.76-10.6,393.76,393.76,0,0,1,64.52.23,398.27,398.27,0,0,1,63.78,10.72,393,393,0,0,1,61.18,20.91,380.55,380.55,0,0,1,56.71,30.74c2.26,1.49,4.5,3,6.72,4.54,1.6,1.1,3.1-1.5,1.52-2.59a379.87,379.87,0,0,0-56.76-32.28,395.61,395.61,0,0,0-61-22.21,403.3,403.3,0,0,0-63.83-12,396.57,396.57,0,0,0-65.29-1.54A383.51,383.51,0,0,0,357.93,620q-3.94.93-7.88,1.93c-1.86.48-1.07,3.38.8,2.9Z" transform="translate(0 -17.02)"/><path class="cls-2" d="M1274.31,656.25A201.59,201.59,0,0,1,1334.72,627a207.27,207.27,0,0,1,66.44-8.2,196.89,196.89,0,0,1,37.5,5.14c1.87.44,2.67-2.45.79-2.9a204.18,204.18,0,0,0-68-4.29,210.88,210.88,0,0,0-65.36,17.69,199.43,199.43,0,0,0-33.32,19.21c-1.56,1.11-.07,3.71,1.51,2.59Z" transform="translate(0 -17.02)"/><path class="cls-2" d="M1417.75,659.36a162.49,162.49,0,0,1,84.86-67.68c18.68-6.43,39.19-10,58.88-7a74.64,74.64,0,0,1,28.1,10.08,84.24,84.24,0,0,1,19.85,17.48c11.71,13.87,19.81,30.46,27.23,46.91.94,2.07,1.86,4.15,2.78,6.23.78,1.76,3.37.23,2.59-1.52-7.54-17-15.4-34.2-26.75-49.07a95.68,95.68,0,0,0-19-19.1,74.88,74.88,0,0,0-26.86-12.5c-20.07-4.86-41.45-2.36-61,3.44A166.09,166.09,0,0,0,1418.92,652q-2,2.87-3.76,5.82c-1,1.64,1.58,3.15,2.59,1.51Z" transform="translate(0 -17.02)"/><path class="cls-2" d="M1642,636.69c25.27-1.3,50.89-2.66,76,1.68,20.46,3.54,40.59,11.16,56.75,24.45a82.47,82.47,0,0,1,21.08,25.64c.88,1.71,3.47.2,2.59-1.52-9.46-18.27-25.94-31.88-44.34-40.56-21.32-10.06-44.91-13.38-68.3-13.87-14.59-.31-29.17.43-43.74,1.18-1.92.1-1.93,3.1,0,3Z" transform="translate(0 -17.02)"/></svg>