<svg xmlns="http://www.w3.org/2000/svg" viewBox="0 0 600 600"><defs><style>.cls-1{fill:#fee7de;}.cls-2{fill:#e6681f;}.cls-3{fill:#262322;}.cls-4{fill:#ebebeb;}.cls-5{fill:#bf541f;}.cls-6{fill:#f4b89a;}.cls-7{fill:#fff;}.cls-8{fill:#ffe8de;}</style></defs><title>v</title><g id="Layer_1" data-name="Layer 1"><path class="cls-1" d="M419.1,412.69c-30.2-8.14-92.11.56-116.57,24.66-4.46,4.39-8.15,10.93-3.53,15.22s13.51,2.53,20.53,1a114.12,114.12,0,0,1,61.93,4c15.28,5.56,28.24,14.38,43.09,20.61,21.72,9.12,47.35,12.43,71.68,9.26,12.71-1.67,25.4-5.22,34.8-12.1s14.92-17.52,11.66-27.24c-4-11.94-19.27-19.26-33.92-23.95C480.51,415.13,449.3,420.84,419.1,412.69Z"/><path class="cls-2" d="M410.33,90.06a17.74,17.74,0,0,0-15.42,24l15,32.42a1.82,1.82,0,0,0,3.3,0l15-32.42a17.75,17.75,0,0,0-17.8-24Zm1.19,25.46a7.76,7.76,0,1,1,7.75-7.75A7.75,7.75,0,0,1,411.52,115.52Z"/><path class="cls-3" d="M345.44,397.05a9.72,9.72,0,0,0,.76-5.17c-.19-2.57.26-4.21,2-5.69,1.31-1.12,3.23-1,4.95-.9,10.05.82,17.41,1.27,27.41,2.57,2.38.31,3,.07,5,1.41a10.64,10.64,0,0,1,4.17,7.21,31.6,31.6,0,0,1-.16,8.52c-.38,3.41-1,7.25-3.83,9.17-2.26,1.53-3.34,1.93-6.05,1.69-4.67-.43-6.72-.25-11.24-1.49-2.83-.77-5.58-1.86-8.46-2.41A106.84,106.84,0,0,0,345.38,410a4.31,4.31,0,0,1-3.59-2.7c-.66-1.55-.13-2.95.56-4.49C343.5,400.27,344.93,398.08,345.44,397.05Z"/><path class="cls-4" d="M352.32,390.83a1.12,1.12,0,0,0,.79,1.09,5.31,5.31,0,0,0,1.78,0,6.43,6.43,0,0,1,.88,0,6.56,6.56,0,0,1,.88.19.9.9,0,0,0,1.16-.69.36.36,0,0,0-.72-.08c0,.23-.76-.06-.88-.09a5.3,5.3,0,0,0-1.26,0c-.4,0-.82.07-1.22.06-.23,0-.71-.06-.69-.39s-.69-.53-.72-.07Z"/><path class="cls-4" d="M374.82,394.78a1.69,1.69,0,0,0,3,.78h-.57c.6.94,2.39,1.83,3.23.67l-.5.07a1.66,1.66,0,0,0,1.62.47.88.88,0,0,0,.42-1.32c-.26-.39-.82.07-.56.45.13.2-.3.24-.4.22a1.78,1.78,0,0,1-.66-.39.36.36,0,0,0-.5.07c-.24.34-.74.27-1.08.14a2,2,0,0,1-1-.83.36.36,0,0,0-.57,0,1,1,0,0,1-1.71-.46.36.36,0,0,0-.71.11Z"/><path class="cls-4" d="M370.23,410.52a14.88,14.88,0,0,0,6.43.44.36.36,0,0,0-.12-.71,14.06,14.06,0,0,1-6.05-.39c-.44-.13-.71.53-.26.66Z"/><path class="cls-4" d="M362.32,399.81a2.34,2.34,0,0,0,2.28.84,3.8,3.8,0,0,1,1.37-.2,4.66,4.66,0,0,1,1.3.65,5.7,5.7,0,0,0,5.15,0c.41-.22.12-.87-.29-.66a5,5,0,0,1-4.69-.06,4.6,4.6,0,0,0-1.15-.58,2.3,2.3,0,0,0-1.22,0,2.87,2.87,0,0,1-1.23.14,1.59,1.59,0,0,1-1-.59.36.36,0,0,0-.56.45Z"/><path class="cls-4" d="M347.31,404.71a2,2,0,0,0,1.05.54,7.37,7.37,0,0,0,1.48.24,4.63,4.63,0,0,0,1.48-.15,1.76,1.76,0,0,1,1,0,5.15,5.15,0,0,1,1,.51c.39.23.82-.35.42-.58a3.58,3.58,0,0,0-1.88-.7c-.55,0-1.09.27-1.63.26a7.31,7.31,0,0,1-1.32-.15,1.9,1.9,0,0,1-1-.39.36.36,0,0,0-.56.46Z"/><path class="cls-1" d="M114.7,311.07a96.54,96.54,0,0,0-32.29,1.77c-2.31.52-5,1.5-5.49,3.7s1.62,4.19,3.85,4.93,4.69.7,6.93,1.42c6.13,2,8.62,10.31,4.5,15-3.25,3.71-9.7,5.65-9.83,10.45-.06,2.53,1.94,4.79,4.34,5.93a22.47,22.47,0,0,0,7.83,1.61l39.18,3.32c14.67,1.25,29.4,2.49,44.1,1.73s29.5-3.58,42.52-10.07c4.86-2.43,10-6.37,9.59-11.53-.33-4-4.08-7.6-3.19-11.55,1.4-6.21,12.47-6.67,14-12.86.58-2.41-.66-5-2.6-6.64a16.63,16.63,0,0,0-7-3.15c-8.52-2-17.46-1.32-26.21-.58L136,310.31"/><path class="cls-2" d="M129.36,320.75a18.52,18.52,0,0,0-8.3,16.56c.27,3.81,1.58,7.44,2.15,11.2a18.34,18.34,0,0,1-7.89,18c-.93.61-.06,2.13.88,1.5a20.25,20.25,0,0,0,9-16.18c.09-3.75-1.07-7.35-1.83-11a18.58,18.58,0,0,1,.37-10.19,16.63,16.63,0,0,1,6.53-8.38c.94-.61.07-2.13-.88-1.51Z"/><path class="cls-2" d="M193.6,320.05c-4.54,15.64,8.49,29.31,7.61,44.75a18.7,18.7,0,0,1-3.62,10.49c-.68.88.55,2.12,1.24,1.23,4.32-5.55,4.83-12.92,3.53-19.61-1.56-8-5.43-15.23-7.14-23.14a27.17,27.17,0,0,1,.06-13.26.87.87,0,0,0-1.68-.46Z"/><path class="cls-3" d="M160.86,350.38a19.17,19.17,0,0,1-.3,10.38c-.34,1.08,1.35,1.54,1.69.47a20.93,20.93,0,0,0,.29-11.32c-.27-1.09-2-.62-1.68.47Z"/><path class="cls-3" d="M120.07,311s-.84,10.78.66,11.82,11.36,1.23,12.84-.26.37-11.56.37-11.56Z"/><path class="cls-3" d="M185.29,311s-.83,10.78.67,11.82,11.35,1.23,12.84-.26.36-11.56.36-11.56Z"/><path class="cls-2" d="M192.31,280.46s-.39-5.2-.65-16.53-9.52-18.43-15.79-19.82-12.74-1.39-26.24-.5-21.58,9.11-21.58,21.27l-.26,15.58C121,281,116.18,285,115.38,291a54,54,0,0,0,.62,15.93c.6,2.64,2.45,5.15,5.8,5.15l38.25,2.87L198.31,312c3.34,0,5.39-3,5.85-5.29A53.1,53.1,0,0,0,205.58,291C205,282.78,199.06,281,192.31,280.46Z"/><path class="cls-5" d="M174,308.94c2.59-3,3.32-16.77,8.44-21.95,2.71-2.74,6.88-5.08,9.84-6.65,0-.18,0-.56-.07-1.17-4.38,1.42-11.15,4.27-13.54,8.83-3.66,6.95-4.65,19.4-9.9,19.75s-19.66,1.48-21.34-1.79-3.21-15.11-9.48-21.5c-2.67-2.72-6.56-4.46-10.16-5.57l0,1.57-.16,0c3.12,1.12,10,4.36,12.51,11.71,3.27,9.63,3,15.08,6.57,17.18S171.43,311.9,174,308.94Z"/><path class="cls-6" d="M190.44,277v-2.63l2.19-2.2a1.17,1.17,0,0,1-.18-.58v-1.35c0-1.14,1.21-2.81,3.82-2.81s4,1.33,4,2.56c0,.15-.22,2.8-1.93,3.57a6.46,6.46,0,0,1-3.54.27,2.28,2.28,0,0,1-1-.25Zm3.56-4.77.18.16a1.08,1.08,0,0,0,.7.27l.13,0a5.38,5.38,0,0,0,2.87-.19c.9-.4,1.21-2,1.24-2.54s-1-1.36-2.85-1.36-2.65,1.09-2.65,1.65v1.3l.09.15a2.08,2.08,0,0,1,.2.33Zm-.39-.7Z"/><path class="cls-6" d="M129.66,277l-3.42-3.42a2.28,2.28,0,0,1-1,.25,6.46,6.46,0,0,1-3.54-.27c-1.71-.77-1.92-3.42-1.92-3.53,0-1.27,1.53-2.6,4-2.6s3.82,1.67,3.82,2.81v1.35a1.17,1.17,0,0,1-.18.58l2.19,2.2Zm-5.83-8.41c-1.9,0-2.85.9-2.85,1.4s.34,2.1,1.24,2.5a5.26,5.26,0,0,0,2.87.19l.13,0a1.06,1.06,0,0,0,.7-.27l.18-.16.09-.21a3.24,3.24,0,0,1,.2-.33l.09-.15v-1.3C126.48,269.72,125.68,268.63,123.83,268.63Zm2.66,2.94Z"/><path class="cls-7" d="M124.53,280h.81a2.59,2.59,0,0,1,2.59,2.59v.88a.85.85,0,0,1-.85.85h-4.3a.85.85,0,0,1-.85-.85v-.88a2.59,2.59,0,0,1,2.59-2.59Z"/><path class="cls-6" d="M127.11,284.89h-4.35a1.4,1.4,0,0,1-1.4-1.4v-1a3.09,3.09,0,0,1,3.09-3.09h1a3.09,3.09,0,0,1,3.09,3.09v1A1.4,1.4,0,0,1,127.11,284.89Zm-2.66-4.32a1.93,1.93,0,0,0-1.93,1.92v1a.23.23,0,0,0,.24.23h4.35a.23.23,0,0,0,.24-.23v-1a1.93,1.93,0,0,0-1.93-1.92Z"/><circle class="cls-8" cx="124.94" cy="298.11" r="5.55"/><path class="cls-7" d="M194.76,280h.81a2.59,2.59,0,0,1,2.59,2.59v.88a.85.85,0,0,1-.85.85H193a.85.85,0,0,1-.85-.85v-.88a2.59,2.59,0,0,1,2.59-2.59Z"/><path class="cls-6" d="M197.34,284.89H193a1.4,1.4,0,0,1-1.4-1.4v-1a3.09,3.09,0,0,1,3.09-3.09h1a3.09,3.09,0,0,1,3.09,3.09v1A1.4,1.4,0,0,1,197.34,284.89Zm-2.66-4.32a1.93,1.93,0,0,0-1.93,1.92v1a.23.23,0,0,0,.24.23h4.35a.23.23,0,0,0,.24-.23v-1a1.93,1.93,0,0,0-1.93-1.92Z"/><circle class="cls-8" cx="195.16" cy="298.11" r="5.55"/><path class="cls-6" d="M160.05,313.35c10.93,0,43.61-4.38,44.32-4s1.38,4.6.71,5.12-31.59,4.05-45.41,4.05-43.18-3.19-44.65-4.14-1-4.77-.3-5S149.12,313.35,160.05,313.35Z"/><rect class="cls-8" x="148.69" y="309.39" width="22.72" height="8.36" rx="1.77"/><circle class="cls-3" cx="150.24" cy="311.06" r="0.42"/><circle class="cls-3" cx="169.89" cy="311.06" r="0.42"/><circle class="cls-3" cx="150.24" cy="316.12" r="0.42"/><circle class="cls-3" cx="169.89" cy="316.12" r="0.42"/><rect class="cls-3" x="153.05" y="312.08" width="1.08" height="2.99"/><rect class="cls-3" x="155.32" y="312.08" width="1.08" height="2.99"/><rect class="cls-3" x="157.58" y="312.08" width="1.08" height="2.99"/><rect class="cls-3" x="161.44" y="312.08" width="1.08" height="2.99"/><rect class="cls-3" x="163.71" y="312.08" width="1.08" height="2.99"/><rect class="cls-3" x="165.97" y="312.08" width="1.08" height="2.99"/><path class="cls-6" d="M177.6,251.79c7.54,4.09,11.06,15.09,8.46,18.32s-49.36,3-51.72,1-.12-14.36,7.12-18.88S170.06,247.7,177.6,251.79Z"/><path class="cls-3" d="M156.42,256.39a7.37,7.37,0,0,0-2.77,2.2,3.05,3.05,0,0,0-.32,2.81c1.07,2.49,4.17.9,5.82.09l1.9-.95,1-.5a2.64,2.64,0,0,1,1.08-.41c.71,0,.3,1,.1,1.31-.33.56-.77,1-1.08,1.62a2.88,2.88,0,0,0-.15,2.85,2.18,2.18,0,0,0,2.6.75c.57-.13,1.31-.42,1.82,0s.58,1,.88,1.47c.53.79,1.78,1.28,2.41.35.3-.43-.41-.84-.7-.41s-.84-.12-1-.35c-.28-.38-.41-.85-.68-1.24a2,2,0,0,0-2.25-.77c-.87.17-2.09.68-2.49-.48s.41-2.05,1-2.87a2.56,2.56,0,0,0,.66-2.34c-.41-1-1.49-.72-2.24-.36-1.22.58-2.42,1.2-3.63,1.8a6,6,0,0,1-3.07,1,1.66,1.66,0,0,1-1.21-2.42c.44-1.18,1.7-1.84,2.74-2.42.46-.25,0-.95-.41-.7Z"/><path class="cls-5" d="M131.29,260.36a8.07,8.07,0,0,1,1.3-3.41c.29-.44-.42-.85-.71-.41a9,9,0,0,0-1.4,3.82c0,.22.21.41.41.41a.41.41,0,0,0,.4-.41Z"/><path class="cls-2" d="M124.7,296.05h.23l.17,0a2.37,2.37,0,0,1,.46.11,1.8,1.8,0,0,1,.38.16,3.34,3.34,0,0,1,.4.25,2.76,2.76,0,0,1,1,1.36.41.41,0,0,0,.5.28.4.4,0,0,0,.28-.5,3.6,3.6,0,0,0-3.41-2.5.41.41,0,0,0,0,.82Z"/><path class="cls-2" d="M193.34,298.13a2.07,2.07,0,0,1,4.07-.5.41.41,0,0,0,.79-.22,2.89,2.89,0,0,0-5.68.72c0,.53.8.53.82,0Z"/><path class="cls-5" d="M135,278.21c-.24,1.1,8.12,4.35,10.37,10,2.36,5.91,2.41,13.11,4.33,14.66s7.2,1.51,7.76-1-1.53-21.08-4-23.8S135.26,277.11,135,278.21Z"/><path class="cls-5" d="M185.71,278.21c.25,1.1-8.12,4.35-10.37,10-2.36,5.91-2.41,13.11-4.33,14.66s-7.19,1.51-7.76-1,1.53-21.08,4-23.8S185.47,277.11,185.71,278.21Z"/><path class="cls-4" d="M160.58,278.65a123.81,123.81,0,0,0-.52,22.94c0,.52.85.52.82,0a123,123,0,0,1,.52-22.94c.06-.52-.76-.51-.82,0Z"/><path class="cls-2" d="M140.63,265.89A12.62,12.62,0,0,1,146,255.43c.43-.3,0-1-.41-.71a13.47,13.47,0,0,0-5.81,11.17.41.41,0,0,0,.81,0Z"/><path class="cls-5" d="M123.05,287c.09,1,.19,2.25,1.15,2.86a1.52,1.52,0,0,0,1.28.19c.51-.17.77-.63,1.15-1,.1-.08.29-.25.41-.15s.1.36.11.48a2,2,0,0,0,.33,1.13,1.1,1.1,0,0,0,1.24.26,2.69,2.69,0,0,0,1.14-1.15l-.74-.1c.11.71.23,1.41.36,2.12.1.51.88.29.79-.22-.14-.7-.26-1.41-.37-2.11-.06-.37-.57-.37-.74-.1s-.49.85-.89.83-.28-.44-.3-.66a2.07,2.07,0,0,0-.26-.94.89.89,0,0,0-1-.36,2.11,2.11,0,0,0-1,.72c-.25.28-.52.58-.93.43-.85-.3-.89-1.52-.95-2.26,0-.52-.86-.53-.82,0Z"/><path class="cls-5" d="M187,293.27a7.69,7.69,0,0,0-3.3-.3c-.86.12-2.07.48-2,1.59a1.33,1.33,0,0,0,.71,1c.19.12,1,.4.86.73s-.86.26-1.11.3a1.46,1.46,0,0,0-1.1.61c-.66,1,0,2,.62,2.83l.18-.68-2,.45c-.52.12-.3.9.21.79l2-.46a.41.41,0,0,0,.18-.68,2.18,2.18,0,0,1-.65-1.45c.07-.55.51-.6,1-.63a1.87,1.87,0,0,0,1.23-.47,1,1,0,0,0,.08-1.25c-.28-.42-.73-.55-1.12-.82s-.1-.77.36-.9a6.4,6.4,0,0,1,3.6.16c.5.16.71-.63.22-.79Z"/><path class="cls-4" d="M136.11,273.37q16.71,1.08,33.46.58c3.18-.09,6.35-.23,9.53-.41.52,0,.52-.84,0-.82q-16.72.94-33.47.32c-3.17-.12-6.35-.28-9.52-.48-.53,0-.52.78,0,.81Z"/><path class="cls-3" d="M120.5,304a15.2,15.2,0,0,0,10.67.32c.49-.16.28-.95-.22-.78a14.48,14.48,0,0,1-10.23-.33c-.49-.2-.7.59-.22.79Z"/><path class="cls-3" d="M190.13,304.79a15,15,0,0,0,6.05.65,5.82,5.82,0,0,0,4-2.55.41.41,0,0,0-.71-.41c-1.94,3.15-6.22,2.26-9.17,1.52a.41.41,0,0,0-.22.79Z"/><path class="cls-4" d="M145.77,249.15a32.29,32.29,0,0,1,10.7-1.35c.53,0,.52-.79,0-.81a32.82,32.82,0,0,0-10.92,1.38.41.41,0,0,0,.22.78Z"/><path class="cls-4" d="M195.72,322a5.28,5.28,0,0,0,2.49-4.51.62.62,0,0,0-.61-.61.61.61,0,0,0-.61.61A4,4,0,0,1,195.1,321a.61.61,0,1,0,.62,1.06Z"/><path class="cls-4" d="M128.21,322.31l2.37-.15a.63.63,0,0,0,.61-.61.63.63,0,0,0-.61-.61l-2.37.15a.61.61,0,0,0-.61.61.62.62,0,0,0,.61.61Z"/><path class="cls-4" d="M201.11,314.25a3.68,3.68,0,0,0,2.5-.39.61.61,0,0,0,.22-.83.62.62,0,0,0-.83-.22c-.09.06-.19.1-.28.15l.14-.06a2.74,2.74,0,0,1-.71.18l.16,0a3.72,3.72,0,0,1-1,0l.16,0h0a.64.64,0,0,0-.47.06.63.63,0,0,0-.28.36.66.66,0,0,0,.06.48.65.65,0,0,0,.37.28Z"/><polygon class="cls-6" points="418.2 438.42 420.08 427.81 428.6 428.26 428.03 438.42 418.2 438.42"/><polygon class="cls-6" points="472.54 427.79 473.24 433.6 480.45 431.98 479.31 424.07 472.54 427.79"/><path class="cls-3" d="M447.06,375.63s-11.34,22.63-13.88,28.61-2.43,28.7-2.43,28.7-4.76,1-7.3,1.17-7-1.35-7-1.35.34-26.7,2.06-34S429,357.93,429,357.93l32.68-3.81s2.26,19.59,3.72,24.4,5.44,18.5,7.52,22.67,1.92,9.25,4.82,13.17,5.85,9.63,4.67,10.9-13.92,5-13.92,5-1.58-10.73-5.35-16.47S456.82,397,456.82,397Z"/><path class="cls-6" d="M416.76,323.41,422,319l6.89,5.63s-5.82,5.33-8.43,7.3-7.23,5.64-9,6.12-21.83-1.24-21.83-1.24l-.54-6.32,7.77.33s10.83-.15,11.59-.45S416.76,323.41,416.76,323.41Z"/><path class="cls-6" d="M391,334.45s-.34,3.68-5.1,3.67c-4.22,0-6-2.76-6-5.54s3.78-5.52,6.73-4.84S391,334.45,391,334.45Z"/><path class="cls-2" d="M463.54,367.74s2.57,9.48,7.3,16.3,6.69,9.66,7.82,9.33,6.76-3.38,8-5.17,8-10.55,5.86-14.27-8.39-16.81-17.16-16.44S463.78,366,463.54,367.74Z"/><path class="cls-3" d="M474.36,389.07c2.29,3.19,3.5,4.53,4.3,4.3,1.13-.33,6.76-3.38,8-5.17s8-10.55,5.86-14.27c-.51-.89-1.26-2.33-2.22-4,.38,2.81-8.93,15-8.93,15Z"/><path class="cls-3" d="M476,374.44s2.18,4.37,4.22,4.75S487.77,372,488,370s-2.94-5.5-4.22-5.07C482,365.49,475.69,372.72,476,374.44Z"/><path class="cls-3" d="M465.41,368.12l3.3-.76a.42.42,0,0,0-.22-.81l-3.31.77a.43.43,0,0,0-.29.51.42.42,0,0,0,.52.29Z"/><path class="cls-3" d="M469.89,369.55A41.61,41.61,0,0,0,479,384.26c.37.4,1-.2.59-.59a40.55,40.55,0,0,1-8.86-14.34c-.18-.5-1-.29-.81.22Z"/><path class="cls-8" d="M484.93,373.08a3.83,3.83,0,0,0,.53-3.12.43.43,0,0,0-.52-.3.43.43,0,0,0-.29.52,3,3,0,0,1,.06,1.25,3.69,3.69,0,0,1-.18.65c0,.05,0,.06,0,0l0,.08a1.19,1.19,0,0,1-.08.16,3.21,3.21,0,0,1-.19.31.42.42,0,0,0,.15.57.43.43,0,0,0,.57-.15Z"/><path class="cls-3" d="M471.72,365.41a10.46,10.46,0,0,0,5.57-5.78.43.43,0,0,0-.29-.52.44.44,0,0,0-.52.3,9.65,9.65,0,0,1-5.18,5.28.42.42,0,0,0,.42.72Z"/><path class="cls-3" d="M467.85,364.62s-2.17-1.19-1.88-3.18a4.8,4.8,0,0,1,2.13-3.61c1-.77,3-1.16,3.59-.32a8.52,8.52,0,0,1,1,2.74l-1.18.34s-.16-2.19-1.23-2.36-2.66,1.37-2.82,2.08-.57,2.09.65,2.89S467.85,364.62,467.85,364.62Z"/><path class="cls-3" d="M478.6,370.19a8.64,8.64,0,0,0-4-4.44l-1.57,1.33a7.56,7.56,0,0,1,3.9,5.26Z"/><path class="cls-3" d="M482.63,366.29a9.77,9.77,0,0,0-3.83-4.72l-1.7,1.33a8.75,8.75,0,0,1,3.8,4.44Z"/><path class="cls-8" d="M477.86,368.33a11.27,11.27,0,0,0-1.58-1.94,2.87,2.87,0,0,1-2.11,1.87h0a10,10,0,0,1,1.47,2.08A10.86,10.86,0,0,0,477.86,368.33Z"/><path class="cls-8" d="M481.81,364.46a8.77,8.77,0,0,0-1.22-1.82,3.15,3.15,0,0,1-2.25,1.56h0a11.06,11.06,0,0,1,1.59,2.07A8.13,8.13,0,0,0,481.81,364.46Z"/><path class="cls-6" d="M390.71,333.24s.18-9.13-.36-9.81-4.94,7.44-4.94,7.44Z"/><path class="cls-3" d="M446.05,283.9a5.42,5.42,0,0,0-.05-3.34c-.66-1.33,1.93.84.8,3.84S446.05,283.9,446.05,283.9Z"/><path class="cls-3" d="M445,284.22a8.19,8.19,0,0,1,1.57-1.34c.79-.47,2.09-.59,2.14-.35s-2.18.72-2.73,1.74S445,284.22,445,284.22Z"/><path class="cls-6" d="M437.79,300.39a40.39,40.39,0,0,1,.71,8c-.17,4.51,11.79-2.17,11.79-2.17s-5.12-4.85-3.87-14.74c.76-5.89-5.18-2.54-5.18-2.54Z"/><path class="cls-6" d="M463,352.51l4.07-1.71L465.71,336l-1-9.25s-6.78-15.28-10.59-18.63.62,8.06.62,8.06l5.57,26Z"/><path class="cls-6" d="M462.69,354.88a41.58,41.58,0,0,0-.1,4.19c.05,1,.33,2.6.71,2.62s.69-.6.94-1.33a14.58,14.58,0,0,1,.44-1.65c.12,0,.5,2.43,1.54,3.52s3.75,0,4.54-.79,1.3-3.22-.17-6.35c-1.38-2.94-4-5.89-6.4-4.44C462.32,351.78,462.78,354,462.69,354.88Z"/><path class="cls-5" d="M451.56,304.24,453.7,318l.69,3,.13,5.15s8.06-3.2,9.62-4.23C460.91,316,458.09,306.1,451.56,304.24Z"/><path class="cls-2" d="M430.14,325.66c-.18.36-2.94,2.9-2.94,2.9s-2.67-4.28-4.93-5.54a20.68,20.68,0,0,0-5.65-1.73.29.29,0,0,1-.14-.52c1.45-1.11,5.85-3.88,7.24-5.19,1.72-1.63,4.71-6,6.35-7.08s7.25-2,11.42-2.53,8.62-2.18,9.43-2.18,4.69,2.65,7.14,9.38,2.12,13.38,1.84,24,1.73,17,1.73,17a126.85,126.85,0,0,1-14.24,4.35c-7.35,1.73-19.1.67-19.48.3s1.17-15.15,1.48-20.16S430.14,325.66,430.14,325.66Z"/><path class="cls-3" d="M406.62,440.89s8.43-3.63,9.88-4.08,4.72.91,7.44.72a29.76,29.76,0,0,0,5.08-.81,16.3,16.3,0,0,1,1.81,4.81,31.32,31.32,0,0,1,0,4.35H399.54a1.85,1.85,0,0,1-.72-1.18C398.82,444.06,406.62,440.89,406.62,440.89Z"/><path class="cls-3" d="M463.81,433.73s6.55-2.45,7.67-2.74,3.18.51,5.25.48a15.07,15.07,0,0,0,4.32-.89,23.52,23.52,0,0,1,1.16,4.53,25.19,25.19,0,0,1-.16,3.31l-23.8-1.16a1.4,1.4,0,0,1-.51-.92C457.76,435.85,463.81,433.73,463.81,433.73Z"/><path class="cls-2" d="M428.6,405.18a13.49,13.49,0,0,0,5.62-4.75c.3-.44-.42-.86-.72-.42a12.68,12.68,0,0,1-5.33,4.45.43.43,0,0,0-.15.57.44.44,0,0,0,.58.15Z"/><path class="cls-2" d="M468.47,419.27a10.5,10.5,0,0,1,2.26,7.47c-.05.53.79.53.84,0a11.37,11.37,0,0,0-2.51-8.06c-.33-.42-.92.18-.59.59Z"/><path class="cls-2" d="M460.56,384.22a2.13,2.13,0,0,0-.64,2.44c.38.91,1.17,1.16,2,1.46.41.14.73.36.71.83a5.9,5.9,0,0,1-.4,1.36,1.7,1.7,0,0,0,.63,2.08c.49.23.91-.49.42-.72-.65-.3-.18-1.31,0-1.78a1.87,1.87,0,0,0-.33-2.17c-.54-.45-1.31-.42-1.86-.85a1.3,1.3,0,0,1,.06-2.06c.42-.33-.17-.92-.59-.59Z"/><path class="cls-6" d="M435.48,287.63c-.59,0-1.62.28-3.12.32a18.18,18.18,0,0,1-.34,3.26,13.71,13.71,0,0,1-1.33,3.1.69.69,0,0,0,.76,1,2,2,0,0,1,1.18,0c.72.51-.07,1.84-.07,1.84a9.38,9.38,0,0,0,5.71-3.52C440.72,290,436.51,287.58,435.48,287.63Z"/><path class="cls-3" d="M432.26,288.72c-.32,0-.63,0-.94,0a4.58,4.58,0,0,1-4.44-4.06c0-1.21,1.43-1.51,3-1.06s4.06-.37,2.76-.78,2.54-3,3.24-2,2.51,1,5.29.48,5.72-.8,8.24,5.39.45,9.14-.17,11.17S447,301,445.05,300s-1.49-5.83-1.49-5.83-.12-4.23-1.91-3.54-.62,3.45-1.28,7.16-2.47,4.72-4.65,4.72a3.38,3.38,0,0,1-3.61-3.15c-.35-1.92.39-3.5.79-3.7s3.46.07,4.86-2.38c2-3.53-1.51-4.61-2.54-4.56C434.62,288.78,433.76,288.68,432.26,288.72Z"/><path class="cls-2" d="M428.28,407.25l2.36-.73a.41.41,0,1,0-.22-.8l-2.36.72a.43.43,0,0,0-.29.52.42.42,0,0,0,.51.29Z"/><path class="cls-5" d="M431.69,311.93a3.2,3.2,0,0,1,3.19-1.57.43.43,0,0,0,.51-.29.43.43,0,0,0-.29-.52,4.08,4.08,0,0,0-4.13,2,.42.42,0,0,0,.72.42Z"/><path class="cls-3" d="M433.32,324.8a14.33,14.33,0,0,0,5.19-6.86c.18-.5-.63-.72-.81-.22a13.37,13.37,0,0,1-4.8,6.36c-.44.31,0,1,.42.72Z"/><path class="cls-3" d="M450.7,329.66a8.52,8.52,0,0,0-4.69,3,8.61,8.61,0,0,0-1.36,2.42,2.9,2.9,0,0,0,.09,2.76,2.58,2.58,0,0,0,2.14.84,21.49,21.49,0,0,0,3.29-.44l1.81-.28c.58-.08,1.38-.11,1.21.73a3.62,3.62,0,0,1-.91,1.36,3.82,3.82,0,0,0-.73,1.36,1.88,1.88,0,0,0,1.1,2.3c.43.16,1.23.17,1.42.69s-.28,1.2-.55,1.61.42.86.72.42a2.62,2.62,0,0,0,.57-2.43,1.52,1.52,0,0,0-.77-.73,8.55,8.55,0,0,1-1.32-.45c-1.07-.71.1-2.11.61-2.75a2.05,2.05,0,0,0,.49-2.4c-.57-.87-1.72-.57-2.57-.44-1.18.19-2.37.4-3.55.56-.75.1-1.94.21-2.38-.57s.2-2.22.63-3a7.77,7.77,0,0,1,5-3.74c.52-.12.3-.92-.23-.8Z"/><path class="cls-3" d="M381.43,333.13a3.72,3.72,0,0,0,3.84,3.4c.53,0,.53-.85,0-.84a2.91,2.91,0,0,1-2-.73,3,3,0,0,1-1-1.83.43.43,0,0,0-.42-.42.41.41,0,0,0-.41.42Z"/><path class="cls-2" d="M410.27,336.94a6.41,6.41,0,0,0,3.11-1,.42.42,0,1,0-.42-.72,5.61,5.61,0,0,1-2.69.91.42.42,0,0,0-.42.42.41.41,0,0,0,.42.41Z"/><path class="cls-3" d="M386,330.54l.76-1.14A.42.42,0,1,0,386,329l-.76,1.15a.42.42,0,0,0,.15.57.41.41,0,0,0,.57-.15Z"/><path class="cls-3" d="M462.92,329.39l.41,4a.44.44,0,0,0,.42.42.42.42,0,0,0,.42-.42l-.42-4a.42.42,0,0,0-.42-.42.41.41,0,0,0-.41.42Z"/><path class="cls-2" d="M408,442.84a11.21,11.21,0,0,1,3.82-1.12.42.42,0,0,0,.42-.42.41.41,0,0,0-.42-.41,12.37,12.37,0,0,0-4.24,1.22.42.42,0,0,0,.42.73Z"/><path class="cls-2" d="M465.25,436.68l4.27,0a.42.42,0,0,0,0-.84l-4.27,0a.42.42,0,0,0,0,.83Z"/><path class="cls-3" d="M467.16,360a4.32,4.32,0,0,1,2.9-1.78.44.44,0,0,0,.42-.42.42.42,0,0,0-.42-.42,5.17,5.17,0,0,0-3.62,2.2.43.43,0,0,0,.15.57.42.42,0,0,0,.57-.15Z"/><path class="cls-4" d="M428.8,393.86l5.12-14.48c.2-.55-.67-.78-.86-.24l-5.12,14.48c-.19.55.67.78.86.24Z"/><path class="cls-4" d="M424.47,426.5l.33-11.1a.45.45,0,0,0-.9,0l-.33,11.1c0,.58.88.58.9,0Z"/><path class="cls-4" d="M475.41,426l3.58-1.39a.45.45,0,1,0-.23-.87l-3.59,1.39a.46.46,0,0,0-.31.55.45.45,0,0,0,.55.32Z"/><path class="cls-3" d="M45.16,353.79a27.07,27.07,0,0,1-12.06,1.12,6.58,6.58,0,0,1-4.2-1.6c-1-1.11-1.11-3.23.24-4,1.11-.59,2.56,0,3.72-.5s1.63-2,1.74-3.32.06-2.73.83-3.8c1.16-1.59,3.61-1.59,5.39-.76s3.2,2.29,4.91,3.26c4.47,2.52,10.07,1.36,15.07,2.51a8.07,8.07,0,0,1,3.4,1.52,4,4,0,0,1,1.53,3.29c-.16,1.84-2,3.19-3.77,3.54a15.77,15.77,0,0,1-5.5-.39C50.84,353.75,50.75,352.65,45.16,353.79Z"/><path class="cls-3" d="M28.12,365.8c7.47,0,8.57,1.87,0,1.54S20.65,365.81,28.12,365.8Z"/><path class="cls-3" d="M40.09,344.42a6.25,6.25,0,0,0,4.9-5.33.27.27,0,0,1,.29-.24.28.28,0,0,1,.24.28,7.08,7.08,0,0,1-5.17,6.4h0a.57.57,0,0,1-.69-.4.58.58,0,0,1,.4-.7Z"/><path class="cls-3" d="M46.33,344.72l.94-2.69a.26.26,0,0,1,.33-.16.25.25,0,0,1,.17.28L47.44,345a.57.57,0,0,1-1.14-.13Z"/><path class="cls-3" d="M51.67,347.81a7.11,7.11,0,0,0,1.11-7.08.19.19,0,0,1,.1-.23.18.18,0,0,1,.23.08,7.91,7.91,0,0,1-.53,7.92h0a.57.57,0,1,1-.94-.64Z"/><path class="cls-3" d="M58.88,347.34a20.46,20.46,0,0,1,1.5-6.35.29.29,0,0,1,.38-.16.29.29,0,0,1,.17.36,20.09,20.09,0,0,0-.92,6.18.57.57,0,1,1-1.13,0Z"/><path class="cls-3" d="M59.51,349.93a31.07,31.07,0,0,1-5.84-13.74.27.27,0,0,1,.54-.09,30.16,30.16,0,0,0,6.2,13.13.57.57,0,1,1-.88.72Z"/><path class="cls-3" d="M39.72,344.11c.2-1.28.28-2.61.43-3.94a18.79,18.79,0,0,1,.77-4,.24.24,0,0,1,.46.13c-.62,2.56-.35,5.2-.53,7.92a.57.57,0,0,1-.61.53.56.56,0,0,1-.52-.61Z"/><path class="cls-3" d="M46.56,347.63a14.31,14.31,0,0,0,3.52-6.75,43.3,43.3,0,0,0,.94-7.83.19.19,0,0,1,.21-.18.19.19,0,0,1,.18.19,44.85,44.85,0,0,1-.59,8,18.52,18.52,0,0,1-1.2,3.88,13.26,13.26,0,0,1-2.24,3.48.57.57,0,0,1-.84-.76Z"/><path class="cls-4" d="M39.61,346.06a2.13,2.13,0,0,0-1.28,1.36,1.2,1.2,0,0,0,.68,1.33,4.78,4.78,0,0,0,2,.22l2.62,0c.13,0,.91-.06.91.14s-.49.46-.59.62a.83.83,0,0,0,.32,1.3,2.13,2.13,0,0,0,.94,0l1.43-.16,2.66-.29c.54-.06.54-.91,0-.85l-4.29.47s-.33.06-.35,0,.24-.27.26-.29a1.63,1.63,0,0,0,.42-.52.85.85,0,0,0-.3-1.07,2.6,2.6,0,0,0-1.41-.23l-2.2,0a7.91,7.91,0,0,1-1.82-.08c-.33-.08-.55-.28-.37-.63a1.76,1.76,0,0,1,.81-.63c.48-.26.05-1-.43-.73Z"/><path class="cls-3" d="M252.77,466.54c9.31,0,10.68,2.33,0,1.92S243.45,466.55,252.77,466.54Z"/><path class="cls-3" d="M530.61,474.09c18.48,0,21.2,2.31,0,1.91S512.13,474.1,530.61,474.09Z"/><path class="cls-3" d="M277.4,476.05c5.49,0,6.29,1.37,0,1.12S271.92,476.05,277.4,476.05Z"/><path class="cls-3" d="M273.68,327.8a5,5,0,0,1-3.65-4.52.19.19,0,0,1,.18-.19.18.18,0,0,1,.19.16,4.42,4.42,0,0,0,3.46,3.77.4.4,0,0,1-.15.79Z"/><path class="cls-3" d="M252.84,332.18l-.23-2a.2.2,0,0,1,.16-.21.18.18,0,0,1,.19.12l.66,1.9a.39.39,0,0,1-.24.51.41.41,0,0,1-.52-.25S252.85,332.21,252.84,332.18Z"/><path class="cls-3" d="M261.13,330.3a5.59,5.59,0,0,1-.38-5.59.12.12,0,0,1,.17,0,.12.12,0,0,1,.06.15,5,5,0,0,0,.79,5,.4.4,0,1,1-.62.52l0,0Z"/><path class="cls-3" d="M269.39,329.06a13.85,13.85,0,0,0-.65-4.36.22.22,0,0,1,.14-.26.21.21,0,0,1,.25.12,14.31,14.31,0,0,1,1.06,4.48.4.4,0,0,1-.8.06Z"/><path class="cls-3" d="M265.65,329.63a14.14,14.14,0,0,0-.65-4.36.21.21,0,0,1,.14-.26.21.21,0,0,1,.25.12,14.81,14.81,0,0,1,1.06,4.48.4.4,0,0,1-.37.43.41.41,0,0,1-.43-.37Z"/><path class="cls-3" d="M263.77,330.84a21.27,21.27,0,0,0,4.37-9.26.19.19,0,0,1,.23-.15.19.19,0,0,1,.15.22,21.82,21.82,0,0,1-4.12,9.69.4.4,0,0,1-.64-.48Z"/><path class="cls-3" d="M273.32,326.88a34.05,34.05,0,0,0-.37-5.58.16.16,0,0,1,.12-.2.17.17,0,0,1,.2.11,13.47,13.47,0,0,1,.55,2.8c.1.95.16,1.88.3,2.79a.4.4,0,0,1-.34.45.39.39,0,0,1-.45-.33Z"/><path class="cls-3" d="M265.92,331.47a9.51,9.51,0,0,1-1.58-2.45,13.37,13.37,0,0,1-.85-2.74,31.56,31.56,0,0,1-.41-5.64.15.15,0,0,1,.13-.14.13.13,0,0,1,.14.13,30.73,30.73,0,0,0,.67,5.53,10.06,10.06,0,0,0,2.48,4.76.39.39,0,0,1,0,.56.4.4,0,0,1-.57,0Z"/><path class="cls-3" d="M259.53,327.7c-1.32-.14-2-.81-3-.76a2.21,2.21,0,0,0-2.16,1.65,14.11,14.11,0,0,1,0,1.6,1.92,1.92,0,0,1-2,1.13,22.28,22.28,0,0,1-2.41-.47,3.2,3.2,0,0,0-2,.29,1.88,1.88,0,0,0-1,1.69c.1,1.18,1.46,1.77,2.62,2a27.86,27.86,0,0,0,10,.44,34.42,34.42,0,0,1,6.61-.75,32.52,32.52,0,0,1,6.13,1.38,10.3,10.3,0,0,0,6.19.07,7.29,7.29,0,0,0,3.79-3.51,10.76,10.76,0,0,0,1.08-5.12,5.8,5.8,0,0,0-1.77-4.53c-1.29-1-3.09-1-4.74-1-1.06,0-2.29.14-2.91,1s-.32,2.05-.74,3a2.93,2.93,0,0,1-2,1.54,8.46,8.46,0,0,1-2.61.13C264.41,327.35,260.84,327.85,259.53,327.7Z"/><path class="cls-4" d="M278.75,326.05a2,2,0,0,0-2.92.65,2.15,2.15,0,0,0-.17,1.63c.17.72.47,1.42-.24,1.95a4,4,0,0,1-1.67.58,20.72,20.72,0,0,1-2.48.3,22,22,0,0,1-5.06-.3c-.38-.07-.54.51-.16.58a22.56,22.56,0,0,0,4.64.34,13.89,13.89,0,0,0,4.26-.6,1.93,1.93,0,0,0,1.5-2.23c-.14-.7-.48-1.33-.06-2a1.42,1.42,0,0,1,2.06-.37c.32.22.62-.3.3-.52Z"/><path class="cls-3" d="M527.28,450.83a7.82,7.82,0,0,0,6.1-6.65.34.34,0,0,1,.36-.3.34.34,0,0,1,.3.34,8.83,8.83,0,0,1-6.45,8h0a.71.71,0,1,1-.37-1.37Z"/><path class="cls-3" d="M556.06,442.61a7.77,7.77,0,0,0,6.1-6.64.33.33,0,0,1,.66,0,8.84,8.84,0,0,1-6.44,8h0a.71.71,0,0,1-.36-1.37Z"/><path class="cls-3" d="M555.4,444a8.85,8.85,0,0,1-6.44-8,.33.33,0,0,1,.32-.34.34.34,0,0,1,.34.3,7.77,7.77,0,0,0,6.1,6.64.71.71,0,0,1-.25,1.4h-.07Z"/><path class="cls-3" d="M554.91,449.35a8.85,8.85,0,0,1-6.44-8,.33.33,0,0,1,.32-.34.34.34,0,0,1,.34.3,7.77,7.77,0,0,0,6.1,6.64.71.71,0,1,1-.26,1.4h-.06Z"/><path class="cls-3" d="M566,443.08a8.82,8.82,0,0,1-6.44-8,.32.32,0,0,1,.31-.34.34.34,0,0,1,.35.3,7.77,7.77,0,0,0,6.1,6.64.71.71,0,0,1-.26,1.4H566Z"/><path class="cls-3" d="M518.49,455.86l1.17-3.35a.33.33,0,0,1,.63.15l-.42,3.51a.72.72,0,0,1-.79.63.71.71,0,0,1-.62-.79Q518.48,455.92,518.49,455.86Z"/><path class="cls-3" d="M528.8,454.57a8.88,8.88,0,0,0,1.39-8.83.23.23,0,0,1,.12-.29.24.24,0,0,1,.29.1,9.86,9.86,0,0,1-.66,9.87h0a.71.71,0,0,1-1.17-.8Z"/><path class="cls-3" d="M533.35,455a25.75,25.75,0,0,1,1.87-7.91.37.37,0,0,1,.69.25,24.72,24.72,0,0,0-1.14,7.71.7.7,0,0,1-.7.71.69.69,0,0,1-.72-.7Z"/><path class="cls-3" d="M533.76,458.48a38.67,38.67,0,0,1-7.28-17.12.34.34,0,0,1,.29-.39.34.34,0,0,1,.39.27,37.5,37.5,0,0,0,7.72,16.37.71.71,0,0,1-.1,1,.72.72,0,0,1-1-.1Z"/><path class="cls-3" d="M556.09,443.18c.24-1.6.35-3.25.53-4.91a23.41,23.41,0,0,1,1-5,.29.29,0,0,1,.37-.19.31.31,0,0,1,.2.35c-.77,3.19-.44,6.48-.66,9.87a.71.71,0,0,1-1.42-.1S556.09,443.2,556.09,443.18Z"/><path class="cls-3" d="M548.78,446.7a17.88,17.88,0,0,0,4.38-8.41,54.58,54.58,0,0,0,1.18-9.76.24.24,0,0,1,.25-.23.25.25,0,0,1,.23.24,54.76,54.76,0,0,1-.73,10,22.62,22.62,0,0,1-1.51,4.84,15.92,15.92,0,0,1-2.78,4.33.7.7,0,0,1-1,.05.71.71,0,0,1,0-1Z"/><path class="cls-3" d="M514.69,456.52c.63-.24,6.6-1.33,9.24-3.32,1.46-1.11,2.69-2.62,4.41-3.26,2.4-.9,5,.1,7.46.92s5.33,1.37,7.36-.18a11.52,11.52,0,0,0,2.28-3A18.3,18.3,0,0,1,563.82,440c4.33.84,8.17,3.25,11.91,5.61,1.09.7,2.33,1.68,2.16,3s-1.52,1.88-2.73,1.88-2.37-.43-3.57-.5-2.61.4-3,1.54c-.46,1.38.79,2.7,1.95,3.59a9.29,9.29,0,0,1,2.12,2,2.88,2.88,0,0,1,.41,2.76c-.74,1.64-3,1.64-4.81,1.39l-16.71-2.36a16.83,16.83,0,0,0-4.31-.23c-3.72.46-6.63,3.3-9.88,5.17A20.56,20.56,0,0,1,515,462.08c-1.08-.85-2.07-2.24-1.85-3.42A2.69,2.69,0,0,1,514.69,456.52Z"/><path class="cls-4" d="M563.71,445c-1.27-.05-3.48.4-3.62,2a1.42,1.42,0,0,0,1.1,1.42c.25.08.5.1.75.16l-4.44,1.71a.53.53,0,1,0,.28,1l5.38-2.06a.55.55,0,0,0,.37-.66,1.59,1.59,0,0,0-1.11-1c-.34-.11-1-.07-1.21-.36s.44-.75.67-.85a4.24,4.24,0,0,1,1.83-.32C564.39,446.06,564.39,445,563.71,445Z"/><path class="cls-4" d="M534.76,456.88a1.33,1.33,0,0,1,.84-1.17,3.82,3.82,0,0,1,2-.21c1.32.1,2.71.2,3.78-.74.52-.45-.24-1.2-.75-.75-1.1,1-2.88.31-4.18.41s-2.83.94-2.79,2.46a.53.53,0,0,0,1.06,0Z"/><path class="cls-2" d="M306,409.92a208.58,208.58,0,0,1,21.76,8.7c7,3.32,14,7.17,19.54,12.59s9.89,12.37,14.07,19.09c2.09,3.35,4.18,6.71,6.49,9.92a131.39,131.39,0,0,0,8.26,10.26,218.34,218.34,0,0,0,19,18.63l2.57,2.25c.85.74,2.09-.49,1.24-1.23a245.51,245.51,0,0,1-19.47-18.56c-3.06-3.31-6-6.75-8.7-10.35-2.41-3.19-4.59-6.54-6.71-9.92-4.24-6.77-8.33-13.73-13.81-19.59s-12.14-9.89-19.12-13.39a191.73,191.73,0,0,0-22.08-9.19l-2.57-.89c-1.07-.37-1.53,1.32-.47,1.68Z"/><path class="cls-2" d="M264.38,435.51a42.54,42.54,0,0,1,34.73,20.71c8.35,14.24,5.84,32.94,17,45.84,5.2,6,14.05,9.86,21.84,6.89,1.05-.39.59-2.08-.46-1.68-6.92,2.63-14.69-.54-19.52-5.74-5.47-5.89-7.8-13.92-9.54-21.57-1.87-8.2-3.28-16.66-7.46-24.07a44,44,0,0,0-14.34-15.08,43.37,43.37,0,0,0-22.22-7c-1.12,0-1.12,1.71,0,1.74Z"/><path class="cls-3" d="M293.42,425.84l6,2.76a.9.9,0,0,0,1.2-.31.87.87,0,0,0-.32-1.19l-6-2.77a.9.9,0,0,0-1.19.32.88.88,0,0,0,.31,1.19Z"/><path class="cls-3" d="M327.07,450.88l6.27,14c.46,1,2,.13,1.51-.88l-6.27-14c-.46-1-2-.14-1.51.88Z"/><path class="cls-3" d="M351.67,492.17l16.44,16c.8.78,2-.45,1.23-1.24l-16.44-16c-.81-.78-2,.45-1.23,1.24Z"/><path class="cls-3" d="M162.18,324.23a7.15,7.15,0,0,0-2.49,5.4.88.88,0,0,0,1.75,0q0-.31,0-.63c0-.09,0-.16,0,0a.77.77,0,0,1,0-.15c0-.11,0-.22.07-.33a4.63,4.63,0,0,1,.17-.61c0-.1.08-.21.11-.31s-.05.12,0,0l.08-.17a6,6,0,0,1,.66-1.08c-.08.09,0,0,0,0l.1-.12.22-.24a4.33,4.33,0,0,1,.5-.46.89.89,0,0,0,0-1.24.91.91,0,0,0-1.24,0Z"/><path class="cls-1" d="M355.93,218.29a16.83,16.83,0,0,0-19.16-5.53c-6.62,2.62-11.25,10-10.92,17.45.27,6,3.15,13.09-.82,17.46-2.86,3.13-8,3-10.73,6.23-2.55,3-1.81,8.07.74,11.12s6.39,4.5,10.16,5.39c12.85,3,27.27,3.45,38.57-3.68,6-3.81,11.39-9,17.94-11.7,14.71-6.18,31,1,46.7,3.39,20.19,3.12,41-4.89,57.73-17.12S507,210,511.33,189c.74-3.62,1.18-7.72-.83-10.77-2.63-4-8-4.26-12.62-3.91-23.16,1.75-45,4.6-67.48,10.81-30.07,8.32-43.47,30.52-74.47,33.14"/><polygon class="cls-5" points="358.94 163.31 393.91 162.4 393.75 231.97 358.94 230.48 358.94 163.31"/><polygon class="cls-5" points="371.6 166.25 371.6 155.33 378.24 155.33 378.24 167.72 371.6 166.25"/><polygon class="cls-5" points="373.83 158.22 373.98 136.8 374.51 136.8 375.64 158.22 373.83 158.22"/><polyline class="cls-3" points="401.95 215.72 402.35 199.9 418.6 199.9 418.38 219.04"/><polyline class="cls-3" points="438.4 228.35 436.7 203.83 416.11 204.88 413.23 230.58"/><polygon class="cls-5" points="435.34 233.2 434.05 176.86 439.01 167.72 452.13 167.72 456.85 176.91 456.85 233.2 435.34 233.2"/><polygon class="cls-5" points="439.01 167.72 439.01 156.1 452.43 156.1 452.13 167.72 439.01 167.72"/><polygon class="cls-5" points="439.01 156.1 445.72 145.62 452.43 156.1 439.01 156.1"/><rect class="cls-2" x="335.52" y="198.08" width="59.44" height="2.76" transform="translate(161.51 562.34) rotate(-89.33)"/><rect class="cls-2" x="345.92" y="198.08" width="59.44" height="2.76" transform="translate(171.79 572.74) rotate(-89.33)"/><rect class="cls-2" x="354.84" y="199.75" width="64.16" height="2.76" transform="translate(181.27 585.66) rotate(-89.33)"/><polyline class="cls-3" points="375.35 232.03 376.51 213.4 414.8 211.31 416.11 237.4"/><polyline class="cls-5" points="358.11 239.03 358.11 224.7 390.7 223.48 391.36 245.77"/><polyline class="cls-6" points="343.83 243.52 342.96 204.01 368.31 202.96 368.31 247.54"/><circle class="cls-1" cx="445.72" cy="161.74" r="3.63"/><polyline class="cls-6" points="453.43 233.98 453.51 194.78 473.44 194.78 473.28 223.36"/><polyline class="cls-6" points="403.56 243.05 403.63 223.36 426.78 223.36 428.67 242.26"/><polyline class="cls-6" points="440.59 234.62 440.24 217.82 462.3 217.21 462.96 236.11"/><path class="cls-3" d="M361.17,223.73a1.79,1.79,0,0,0-2.35.47c-.69.94-.09,2.15.58,2.92a13.25,13.25,0,0,1,1.37,1.53,1.63,1.63,0,0,1,.11,1.86c-.54.69-1.61.78-2,1.6a1.53,1.53,0,0,0,.27,1.57,8.27,8.27,0,0,1,.61.85.75.75,0,0,1,.11.66.41.41,0,0,1-.5.31c-.31-.11-.44.38-.13.49a.9.9,0,0,0,1-.47,1.34,1.34,0,0,0-.16-1.37c-.31-.49-1.05-1.07-.83-1.72.14-.43.64-.65,1-.85.85-.49,1.49-1.11,1.31-2.18-.21-1.3-1.4-2-2.1-3a1.65,1.65,0,0,1-.21-2,1.27,1.27,0,0,1,1.63-.26c.28.17.53-.27.25-.44Z"/><path class="cls-3" d="M386.66,229.72a24.23,24.23,0,0,1,0,8.66c-.06.32.43.46.49.13a25,25,0,0,0,0-8.92c-.06-.32-.55-.19-.49.13Z"/><path class="cls-3" d="M411.6,227.58l5.63-.91c.33-.06.19-.55-.13-.49l-5.64.91c-.32.06-.18.55.14.49Z"/><path class="cls-3" d="M456.75,211.17v-9.44a.26.26,0,0,0-.51,0v9.44a.26.26,0,0,0,.51,0Z"/><path class="cls-3" d="M466.72,198.05h1.84a.25.25,0,0,0,0-.5h-1.84a.25.25,0,0,0,0,.5Z"/><path class="cls-2" d="M371.87,239.17l1.7.41a.25.25,0,0,0,.13-.49l-1.7-.41a.25.25,0,1,0-.13.49Z"/><path class="cls-2" d="M346.87,207.28l2.89-.35a.26.26,0,0,0,.26-.25.26.26,0,0,0-.26-.26l-2.89.35a.27.27,0,0,0-.25.26c0,.12.11.27.25.25Z"/><path class="cls-2" d="M444,221.31c-.77.13-2,.6-1.64,1.63a1.17,1.17,0,0,0,1,.71c.62.15,1.24.29,1.85.45s1.2.34,1.79.54a12.2,12.2,0,0,1,1.78.65c.28.14.51.36.35.68a1.66,1.66,0,0,1-.75.58c-.35.19-.74.5-.71.95s.48.67.88.78a2.94,2.94,0,0,1,1.6,1.07c.19.27.63,0,.44-.25a3.32,3.32,0,0,0-1.37-1.12c-.22-.1-.45-.15-.68-.23s-.39-.12-.36-.34.27-.32.4-.4c.46-.27,1-.5,1.11-1.09a1,1,0,0,0-.7-1.09,21.42,21.42,0,0,0-4-1.31c-.37-.1-.75-.19-1.12-.27A2.41,2.41,0,0,1,443,223c-.37-.25-.16-.71.15-.91a2.67,2.67,0,0,1,1-.29c.32-.05.18-.54-.14-.49Z"/><path class="cls-4" d="M449.83,170.27l2.49,5.51c.14.3.57,0,.44-.26L450.27,170c-.13-.29-.57,0-.44.26Z"/><path class="cls-4" d="M444,152.9l1.49-3.92c.11-.3-.38-.44-.49-.13l-1.49,3.91c-.11.31.38.44.49.14Z"/><path class="cls-4" d="M382.94,165.07l8.78-.38a.26.26,0,0,0,0-.51l-8.78.39c-.33,0-.33.52,0,.5Z"/><path class="cls-5" d="M412.09,203.23a6.78,6.78,0,0,0-2.32.32.25.25,0,0,0-.11.42c.43.34.88.67,1.29,1s-.09.51-.35.57a4.81,4.81,0,0,0-.73.17.9.9,0,0,0-.37,1.55c.19.17.6.32.68.58.14.45-.9.76-1.14,1a.84.84,0,0,0-.14.93c.13.25.4.45.14.75a1.37,1.37,0,0,1-.7.32.25.25,0,0,0,.14.49,1.55,1.55,0,0,0,1.12-.76.83.83,0,0,0,0-.6c-.09-.25-.4-.43-.25-.73s.58-.39.83-.56a1.21,1.21,0,0,0,.41-.46.8.8,0,0,0-.22-1c-.23-.21-.9-.46-.66-.86s1.15-.31,1.58-.64a.71.71,0,0,0,.18-1,3.41,3.41,0,0,0-.67-.58l-.8-.63-.11.43a6.43,6.43,0,0,1,2.18-.31.25.25,0,0,0,0-.5Z"/><path class="cls-2" d="M423.54,207.44a13.64,13.64,0,0,0,5.66-.83c.31-.11.17-.61-.13-.49a13.2,13.2,0,0,1-5.53.81c-.33,0-.33.49,0,.51Z"/><path class="cls-2" d="M442.58,181.13c-.65,1.65,1.6,2.39,1.9,3.78.36,1.67-1.15,3.12-2.06,4.33a4,4,0,0,0-.81,4.14c.62,1.5,2,2.54,2.69,4a2.85,2.85,0,0,1,.08,2.8,7.07,7.07,0,0,1-1.82,1.88c-.26.2.1.56.35.36,1.13-.91,2.37-2,2.32-3.6s-1.36-2.94-2.31-4.2a4.92,4.92,0,0,1-1.09-2.29,3.45,3.45,0,0,1,.68-2.3c.88-1.35,2.2-2.47,2.47-4.13a2.59,2.59,0,0,0-.57-2.19c-.56-.67-1.75-1.38-1.34-2.41.11-.31-.38-.44-.49-.14Z"/><rect class="cls-2" x="348.91" y="210.52" width="2.21" height="7.74"/><rect class="cls-2" x="377.81" y="229.75" width="4.41" height="3.43"/><rect class="cls-3" x="348.91" y="225.88" width="2.21" height="7.74"/><rect class="cls-3" x="466.54" y="200.46" width="2.21" height="7.74"/><rect class="cls-2" x="458.6" y="200.46" width="2.21" height="7.74"/><rect class="cls-2" x="420.25" y="228.1" width="2.21" height="5.08"/><rect class="cls-3" x="455.39" y="220.82" width="2.21" height="5.08"/><path class="cls-3" d="M528.54,430.66c-4.53.16-8.92,1.6-14.07,1s-10.34-2.81-13.35-7a14.37,14.37,0,0,1,1.54-17.95,59.33,59.33,0,0,0,5.66-6.7c3.41-4.74,2-9.56,6-14.16,3.21-3.68,10.56-5.62,15.35-6.51s9.72-.7,14.59-.51a9.09,9.09,0,0,1,3.07.48,3.07,3.07,0,0,1,2,2.22c.13.83-.2,1.7.08,2.48.57,1.59,2.79,1.45,4.46,1.72,2.58.41,4.63,2.53,5.68,4.92a23.61,23.61,0,0,1,1.51,7.66c.36,4.32,2,9.26.12,13.17a23.62,23.62,0,0,1-4,5.45c-3.76,4.12-7.7,8.2-12.52,11S533.07,430.5,528.54,430.66Z"/><path class="cls-4" d="M530.07,423.07a45.3,45.3,0,0,0,2.72-24.18,44.7,44.7,0,0,0-1.66-6.85c-.32-1-1.86-.55-1.54.43a43.9,43.9,0,0,1,1,23.7,44.49,44.49,0,0,1-2.09,6.48c-.38,1,1.16,1.36,1.54.42Z"/><path class="cls-4" d="M533.28,406.6a31.19,31.19,0,0,1,13.2-14.88.8.8,0,0,0-.81-1.37A32.64,32.64,0,0,0,531.9,405.8a.84.84,0,0,0,.29,1.09.8.8,0,0,0,1.09-.29Z"/><path class="cls-4" d="M531.28,417a30,30,0,0,0-13.14-7.49.8.8,0,0,0-.42,1.54,28.3,28.3,0,0,1,12.43,7.08c.74.71,1.86-.41,1.13-1.13Z"/><path class="cls-2" d="M307.61,266.88a42.48,42.48,0,0,1,31.63-17.57,46,46,0,0,1,13.82,1.44c9.53,2.33,18.73,6.57,28.65,7.05,8.53.41,16.55-2.59,24.34-5.67,7.59-3,15.5-6.35,23.82-6.1,1,0,2,.12,3.06.25.52.08.61-.75.08-.82-8.26-1.12-16.28,1.6-23.87,4.56-7.87,3.07-15.86,6.68-24.44,7-10.19.36-19.75-3.92-29.41-6.52a51.64,51.64,0,0,0-13.91-2.07,42.17,42.17,0,0,0-12.21,2,43.06,43.06,0,0,0-20.35,13.57c-.66.8-1.29,1.62-1.88,2.47a.41.41,0,0,0,.67.48Z"/><path class="cls-2" d="M318.61,275.25A32.26,32.26,0,0,1,338,263c8.67-1.75,17.58-.22,26.21,1.05a171.27,171.27,0,0,0,27,2.14,99.06,99.06,0,0,0,26.51-3.83,196.37,196.37,0,0,0,25-9.69l3-1.36a.41.41,0,0,0-.35-.75,240.92,240.92,0,0,1-25.08,10.16,97.9,97.9,0,0,1-27.05,4.6,158.75,158.75,0,0,1-27.37-1.86c-8.61-1.24-17.4-2.89-26.1-1.61a33.34,33.34,0,0,0-20.09,10.71c-.63.7-1.22,1.43-1.78,2.18a.42.42,0,0,0,.67.49Z"/><path class="cls-3" d="M319.78,264.7l2.52-1.43a.43.43,0,0,0,.21-.55.42.42,0,0,0-.55-.21L319.44,264a.42.42,0,0,0-.21.55.42.42,0,0,0,.55.2Z"/><path class="cls-3" d="M333,258.86l3.33-1.31a.41.41,0,0,0,.2-.55.41.41,0,0,0-.54-.2l-3.34,1.31a.41.41,0,0,0-.2.54.42.42,0,0,0,.55.21Z"/><path class="cls-3" d="M347.6,256.94l3.39.34a.41.41,0,0,0,.09-.82l-3.4-.34a.41.41,0,0,0-.08.82Z"/><path class="cls-3" d="M358.78,257.74l2.33.24a.42.42,0,1,0,.09-.83l-2.34-.23a.41.41,0,0,0-.08.82Z"/><path class="cls-3" d="M370.09,259.29l1.47.36a.44.44,0,0,0,.32,0,.47.47,0,0,0,.21-.23.36.36,0,0,0,0-.32.4.4,0,0,0-.22-.22l-1.47-.36a.44.44,0,0,0-.32,0,.42.42,0,0,0-.2.55.35.35,0,0,0,.22.21Z"/><path class="cls-3" d="M381.12,260.63l3.82.38a.41.41,0,0,0,.08-.82l-3.82-.38a.41.41,0,0,0-.08.82Z"/><path class="cls-3" d="M395.55,260.16l4.32-.32a.42.42,0,0,0,.34-.47.42.42,0,0,0-.48-.34l-4.32.32a.4.4,0,0,0-.34.47.42.42,0,0,0,.48.34Z"/><path class="cls-3" d="M406.72,257.66l2.61-.37a.41.41,0,0,0,.34-.48.42.42,0,0,0-.48-.33l-2.61.36a.42.42,0,1,0,.14.82Z"/><path class="cls-3" d="M418.42,255.53l1.57-.7a.42.42,0,0,0,.2-.55.43.43,0,0,0-.55-.21l-1.57.7a.42.42,0,0,0-.2.55.43.43,0,0,0,.55.21Z"/><path class="cls-3" d="M427.1,253.24l3.36-1.21a.42.42,0,0,0,.21-.55.42.42,0,0,0-.55-.2l-3.37,1.21a.4.4,0,0,0-.2.54.43.43,0,0,0,.55.21Z"/><path class="cls-2" d="M538.54,407.18a6.73,6.73,0,0,1,.27-.87.42.42,0,0,0,0-.1c0-.11,0,0,0,.06a2.14,2.14,0,0,1,.1-.22,3.17,3.17,0,0,1,.21-.41,7.25,7.25,0,0,1,.47-.75.76.76,0,0,0,.08-.11s-.11.14,0,.05l.13-.17.33-.36a.88.88,0,0,0-1.24-1.24,8.14,8.14,0,0,0-2,3.66.88.88,0,0,0,1.69.46Z"/><path class="cls-2" d="M551.07,446.71l0-.09s0-.11,0,0,0,0,0,0a.59.59,0,0,0,0-.08,2.08,2.08,0,0,1,.19-.29c0-.08-.07.08,0,0l.05-.06.12-.13.12-.11.06-.05c.1-.08-.07.05,0,0l.28-.18.15-.07.07,0c-.15.08-.07,0,0,0a2.07,2.07,0,0,1,.33-.1l.15,0c-.2,0,0,0,.07,0a.59.59,0,0,0,.58-.58.59.59,0,0,0-.58-.58,3,3,0,0,0-2.72,2,.6.6,0,0,0,.41.72.61.61,0,0,0,.72-.41Z"/><path class="cls-2" d="M369.7,403a2.82,2.82,0,0,0,2.66-.07c.32-.19,0-.7-.29-.51a2.22,2.22,0,0,1-2.08.08.29.29,0,1,0-.29.5Z"/></g></svg>