<svg xmlns="http://www.w3.org/2000/svg" viewBox="0 0 800 600"><defs><style>.cls-1{fill:#fee7de;}.cls-2{fill:#e6681f;}.cls-3{fill:#262322;}.cls-4{fill:#bf541f;}.cls-5{fill:#f4b89a;}.cls-6{fill:#fff;}.cls-7{fill:#ffe8de;}.cls-8{fill:#ebebeb;}</style></defs><title>Artboard 6</title><g id="Layer_1" data-name="Layer 1"><path class="cls-1" d="M147.63,386.22a107.56,107.56,0,0,0-35.87,2c-2.57.59-5.55,1.68-6.1,4.11s1.8,4.66,4.28,5.48,5.21.78,7.7,1.58c6.8,2.19,9.57,11.45,5,16.68-3.6,4.11-10.77,6.27-10.91,11.6-.08,2.82,2.15,5.33,4.82,6.59s5.72,1.54,8.7,1.8l43.52,3.68c16.3,1.38,32.66,2.76,49,1.92s32.77-4,47.23-11.19c5.4-2.69,11.13-7.07,10.66-12.81-.37-4.47-4.53-8.44-3.55-12.82,1.56-6.9,13.86-7.42,15.52-14.3.65-2.68-.73-5.53-2.89-7.37a18.5,18.5,0,0,0-7.82-3.51c-9.46-2.25-19.39-1.45-29.11-.64l-76.53,6.4"/><path class="cls-2" d="M163.92,397a20.57,20.57,0,0,0-9.22,18.4c.3,4.23,1.76,8.26,2.38,12.44a20.31,20.31,0,0,1-8.76,20c-1,.69-.06,2.37,1,1.68a22.52,22.52,0,0,0,10-18c.1-4.16-1.2-8.17-2-12.21a20.65,20.65,0,0,1,.41-11.32,18.5,18.5,0,0,1,7.26-9.31c1-.68.07-2.36-1-1.68Z"/><path class="cls-2" d="M235.28,396.2c-5,17.38,9.44,32.56,8.46,49.71a20.79,20.79,0,0,1-4,11.66c-.75,1,.61,2.36,1.38,1.37,4.8-6.16,5.37-14.35,3.92-21.79-1.73-8.84-6-16.91-7.93-25.71a30.06,30.06,0,0,1,.06-14.72,1,1,0,0,0-1.87-.52Z"/><path class="cls-3" d="M198.91,429.9a21.21,21.21,0,0,1-.33,11.53c-.37,1.2,1.5,1.71,1.87.52a23.15,23.15,0,0,0,.33-12.57,1,1,0,0,0-1.87.52Z"/><path class="cls-3" d="M153.6,386.17s-.94,12,.73,13.13,12.62,1.37,14.26-.28.41-12.85.41-12.85Z"/><path class="cls-3" d="M226.06,386.17s-.93,12,.74,13.13,12.61,1.37,14.26-.28.41-12.85.41-12.85Z"/><path class="cls-2" d="M233.86,352.22s-.44-5.77-.73-18.36-10.58-20.48-17.54-22-14.16-1.55-29.15-.56-24,10.12-24,23.63l-.29,17.31c-7.5.63-12.9,5-13.78,11.66a60.37,60.37,0,0,0,.68,17.71c.67,2.93,2.73,5.71,6.45,5.71L198,390.5l42.5-3.2c3.72,0,6-3.3,6.51-5.87a58.72,58.72,0,0,0,1.57-17.55C248,354.8,241.36,352.85,233.86,352.22Z"/><path class="cls-4" d="M213.53,383.86c2.88-3.29,3.69-18.63,9.38-24.39,3-3,7.64-5.64,10.94-7.38,0-.2,0-.63-.09-1.3-4.86,1.58-12.38,4.74-15,9.81-4.06,7.72-5.16,21.56-11,21.94s-21.83,1.64-23.71-2-3.56-16.79-10.52-23.88c-3-3-7.29-5-11.29-6.19l0,1.74-.18,0c3.47,1.25,11.14,4.85,13.91,13,3.62,10.69,3.37,16.74,7.3,19.08S210.66,387.15,213.53,383.86Z"/><path class="cls-5" d="M231.78,348.42V345.5l2.43-2.44a1.31,1.31,0,0,1-.2-.65v-1.5c0-1.26,1.35-3.12,4.24-3.12s4.47,1.47,4.47,2.84c0,.17-.24,3.11-2.14,4a7.19,7.19,0,0,1-3.94.3,2.46,2.46,0,0,1-1.06-.28Zm3.95-5.3.2.18a1.17,1.17,0,0,0,.78.3l.14,0a6.08,6.08,0,0,0,3.2-.2c1-.45,1.33-2.24,1.37-2.83s-1.06-1.51-3.17-1.51-2.95,1.21-2.95,1.83v1.45a1.26,1.26,0,0,1,.11.17,2.05,2.05,0,0,1,.22.36Zm-.44-.78Z"/><path class="cls-5" d="M164.25,348.42l-3.8-3.8a2.46,2.46,0,0,1-1.06.28,7.19,7.19,0,0,1-3.94-.3c-1.9-.86-2.13-3.8-2.13-3.92,0-1.42,1.7-2.89,4.46-2.89s4.24,1.86,4.24,3.12v1.5a1.31,1.31,0,0,1-.2.65l2.43,2.44Zm-6.47-9.34c-2.11,0-3.17,1-3.17,1.55S155,343,156,343.42a5.88,5.88,0,0,0,3.2.2l.14,0a1.17,1.17,0,0,0,.78-.3l.2-.18.1-.23a2.05,2.05,0,0,1,.22-.36l.1-.17v-1.45C160.72,340.29,159.83,339.08,157.78,339.08Zm2.95,3.26Z"/><path class="cls-6" d="M158.26,351.69h1.48a2.59,2.59,0,0,1,2.59,2.59v1.36a.85.85,0,0,1-.85.85h-5a.85.85,0,0,1-.85-.85v-1.36a2.59,2.59,0,0,1,2.59-2.59Z"/><path class="cls-5" d="M161.42,357.14h-4.83a1.56,1.56,0,0,1-1.56-1.56v-1.1a3.44,3.44,0,0,1,3.43-3.43h1.08a3.44,3.44,0,0,1,3.44,3.43v1.1A1.56,1.56,0,0,1,161.42,357.14Zm-3-4.8a2.14,2.14,0,0,0-2.14,2.14v1.1a.27.27,0,0,0,.27.27h4.83a.26.26,0,0,0,.26-.27v-1.1a2.14,2.14,0,0,0-2.14-2.14Z"/><circle class="cls-7" cx="159" cy="371.83" r="6.17"/><path class="cls-6" d="M236.29,351.69h1.48a2.59,2.59,0,0,1,2.59,2.59v1.36a.85.85,0,0,1-.85.85h-5a.85.85,0,0,1-.85-.85v-1.36a2.59,2.59,0,0,1,2.59-2.59Z"/><path class="cls-5" d="M239.44,357.14h-4.83a1.56,1.56,0,0,1-1.56-1.56v-1.1a3.44,3.44,0,0,1,3.43-3.43h1.09a3.44,3.44,0,0,1,3.43,3.43v1.1A1.56,1.56,0,0,1,239.44,357.14Zm-3-4.8a2.14,2.14,0,0,0-2.14,2.14v1.1a.27.27,0,0,0,.27.27h4.83a.27.27,0,0,0,.27-.27v-1.1a2.14,2.14,0,0,0-2.14-2.14Z"/><circle class="cls-7" cx="237.02" cy="371.83" r="6.17"/><path class="cls-5" d="M198,388.76c12.15,0,48.45-4.86,49.24-4.4s1.54,5.12.79,5.69-35.09,4.5-50.45,4.5-48-3.54-49.6-4.6-1.07-5.3-.33-5.59S185.87,388.76,198,388.76Z"/><rect class="cls-7" x="185.39" y="384.36" width="25.24" height="9.29" rx="1.77"/><circle class="cls-3" cx="187.12" cy="386.22" r="0.46"/><circle class="cls-3" cx="208.95" cy="386.22" r="0.46"/><circle class="cls-3" cx="187.12" cy="391.83" r="0.46"/><circle class="cls-3" cx="208.95" cy="391.83" r="0.46"/><rect class="cls-3" x="190.24" y="387.35" width="1.2" height="3.32"/><rect class="cls-3" x="192.75" y="387.35" width="1.2" height="3.32"/><rect class="cls-3" x="195.27" y="387.35" width="1.2" height="3.32"/><rect class="cls-3" x="199.56" y="387.35" width="1.2" height="3.32"/><rect class="cls-3" x="202.08" y="387.35" width="1.2" height="3.32"/><rect class="cls-3" x="204.59" y="387.35" width="1.2" height="3.32"/><path class="cls-5" d="M217.51,320.37c8.37,4.54,12.28,16.76,9.4,20.35s-54.84,3.35-57.46,1.1-.13-16,7.91-21S209.13,315.82,217.51,320.37Z"/><path class="cls-3" d="M194,325.48a8.26,8.26,0,0,0-3.08,2.44,3.43,3.43,0,0,0-.36,3.12c1.2,2.77,4.65,1,6.47.1l2.12-1.05,1.11-.55a2.65,2.65,0,0,1,1.19-.46c.79,0,.34,1.09.12,1.45-.37.62-.86,1.16-1.21,1.8a3.26,3.26,0,0,0-.16,3.17c.63,1.07,1.8,1.09,2.89.84.63-.15,1.45-.47,2,0s.64,1.12,1,1.63c.58.87,2,1.42,2.68.39.33-.49-.46-.94-.78-.46s-.94-.14-1.12-.39c-.3-.42-.45-.95-.75-1.38a2.27,2.27,0,0,0-2.5-.85c-1,.19-2.32.76-2.76-.53s.45-2.28,1.1-3.19c.51-.72,1.11-1.69.73-2.6-.45-1.08-1.66-.8-2.49-.41-1.35.65-2.69,1.34-4,2a6.59,6.59,0,0,1-3.41,1.07c-1.38-.13-1.77-1.54-1.35-2.68.49-1.32,1.89-2.05,3.05-2.69.51-.28.05-1.06-.46-.78Z"/><path class="cls-4" d="M166.07,329.89a9,9,0,0,1,1.43-3.79c.33-.49-.46-.94-.78-.46a10.12,10.12,0,0,0-1.56,4.25.45.45,0,0,0,.45.45.46.46,0,0,0,.46-.45Z"/><path class="cls-2" d="M158.74,369.54a2.26,2.26,0,0,1,.26,0l.19,0a4.7,4.7,0,0,1,.51.12,3.12,3.12,0,0,1,.42.18c.15.08.3.18.45.28a3,3,0,0,1,1.09,1.51.48.48,0,0,0,.56.32.45.45,0,0,0,.31-.56,4,4,0,0,0-3.79-2.78.46.46,0,0,0,0,.91Z"/><path class="cls-2" d="M235,371.85a2.3,2.3,0,0,1,4.52-.55.46.46,0,0,0,.88-.24,3.21,3.21,0,0,0-6.31.79c0,.59.89.59.91,0Z"/><path class="cls-4" d="M170.21,349.72c-.27,1.22,9,4.83,11.51,11.07,2.63,6.57,2.69,14.56,4.82,16.28s8,1.68,8.62-1.09-1.7-23.42-4.44-26.44S170.48,348.5,170.21,349.72Z"/><path class="cls-4" d="M226.52,349.72c.27,1.22-9,4.83-11.51,11.07-2.63,6.57-2.69,14.56-4.82,16.28s-8,1.68-8.62-1.09,1.7-23.42,4.44-26.44S226.25,348.5,226.52,349.72Z"/><path class="cls-8" d="M198.61,350.21a136.45,136.45,0,0,0-.58,25.48c0,.58.94.59.9,0a137.31,137.31,0,0,1,.58-25.48c.07-.58-.84-.57-.9,0Z"/><path class="cls-2" d="M176.44,336a14.07,14.07,0,0,1,6-11.62c.48-.33,0-1.11-.46-.78a15,15,0,0,0-6.45,12.4.45.45,0,0,0,.9,0Z"/><path class="cls-4" d="M156.91,359.47c.09,1.14.22,2.51,1.28,3.18a1.66,1.66,0,0,0,1.42.21c.57-.19.85-.7,1.28-1.07.11-.1.32-.28.46-.17s.1.4.11.53a2.26,2.26,0,0,0,.37,1.25,1.19,1.19,0,0,0,1.38.29,2.87,2.87,0,0,0,1.26-1.27l-.82-.11c.12.79.26,1.57.4,2.35.11.57,1,.33.88-.24-.15-.78-.29-1.56-.41-2.35-.06-.41-.64-.4-.83-.11s-.54,1-1,.93-.31-.5-.33-.74a2.22,2.22,0,0,0-.28-1,1,1,0,0,0-1.09-.4,2.29,2.29,0,0,0-1.09.8c-.28.31-.58.64-1,.48-.95-.33-1-1.69-1.06-2.52,0-.58-.95-.58-.91,0Z"/><path class="cls-4" d="M228,366.45a8.56,8.56,0,0,0-3.66-.33c-.95.13-2.3.53-2.18,1.76a1.47,1.47,0,0,0,.79,1.08c.22.14,1.08.45,1,.81s-1,.3-1.23.33a1.67,1.67,0,0,0-1.22.68c-.74,1.08,0,2.28.69,3.15l.2-.76-2.27.51c-.57.12-.33,1,.24.87l2.27-.51a.45.45,0,0,0,.2-.75,2.46,2.46,0,0,1-.72-1.61c.08-.62.57-.67,1.09-.71a2.08,2.08,0,0,0,1.37-.51,1.12,1.12,0,0,0,.09-1.4c-.31-.46-.81-.61-1.25-.91s-.11-.85.4-1a7.08,7.08,0,0,1,4,.18c.56.18.8-.7.24-.88Z"/><path class="cls-8" d="M171.42,344.35q18.56,1.18,37.17.64c3.53-.1,7.06-.26,10.58-.46.58,0,.59-.94,0-.9q-18.57,1-37.17.35-5.3-.19-10.58-.54c-.59,0-.58.87,0,.91Z"/><path class="cls-3" d="M154.08,378.38a16.85,16.85,0,0,0,11.85.36c.55-.18.31-1.06-.24-.87a16.14,16.14,0,0,1-11.37-.36c-.54-.23-.77.65-.24.87Z"/><path class="cls-3" d="M231.43,379.25a16.51,16.51,0,0,0,6.72.72,6.41,6.41,0,0,0,4.5-2.83c.31-.5-.48-.95-.78-.45-2.16,3.5-6.91,2.51-10.19,1.69-.57-.15-.81.73-.25.87Z"/><path class="cls-8" d="M182.15,317.44a36,36,0,0,1,11.89-1.5c.58,0,.58-.88,0-.91a36.62,36.62,0,0,0-12.13,1.54.45.45,0,0,0,.24.87Z"/><path class="cls-8" d="M237.64,398.38a5.87,5.87,0,0,0,2.77-5,.68.68,0,0,0-1.36,0,4.51,4.51,0,0,1-2.1,3.84.68.68,0,1,0,.69,1.17Z"/><path class="cls-8" d="M162.64,398.71l2.63-.16a.68.68,0,0,0,0-1.36l-2.63.16a.71.71,0,0,0-.68.68.69.69,0,0,0,.68.68Z"/><path class="cls-8" d="M243.63,389.76a4.13,4.13,0,0,0,2.78-.43.68.68,0,1,0-.68-1.17,1.91,1.91,0,0,1-.32.16l.17-.07a2.8,2.8,0,0,1-.79.21l.18,0a4.66,4.66,0,0,1-1.12,0l.18,0h0a.68.68,0,0,0-.84.47.68.68,0,0,0,.07.52.69.69,0,0,0,.41.32Z"/><path class="cls-3" d="M70.37,433.68A29.91,29.91,0,0,1,57,434.93c-1.69-.18-3.5-.54-4.67-1.77s-1.23-3.6.27-4.4c1.24-.66,2.84,0,4.13-.56s1.81-2.23,1.93-3.69.07-3,.93-4.22c1.28-1.77,4-1.77,6-.84S69.11,422,71,423.07c5,2.8,11.18,1.51,16.73,2.78a8.9,8.9,0,0,1,3.78,1.7,4.43,4.43,0,0,1,1.7,3.65c-.18,2.05-2.16,3.55-4.18,3.93a17.62,17.62,0,0,1-6.12-.43C76.68,433.64,76.58,432.42,70.37,433.68Z"/><path class="cls-3" d="M51.45,447c8.3,0,9.52,2.08,0,1.71S43.14,447,51.45,447Z"/><path class="cls-3" d="M64.75,423.28a6.92,6.92,0,0,0,5.43-5.92.32.32,0,0,1,.33-.27.3.3,0,0,1,.26.31A7.85,7.85,0,0,1,65,424.51h0a.63.63,0,1,1-.33-1.22Z"/><path class="cls-3" d="M71.68,423.61l1-3a.29.29,0,0,1,.56.12l-.37,3.14a.64.64,0,1,1-1.23-.28Z"/><path class="cls-3" d="M77.61,427.05a8,8,0,0,0,1.24-7.87.2.2,0,0,1,.11-.26.21.21,0,0,1,.25.09,8.78,8.78,0,0,1-.59,8.8h0a.63.63,0,1,1-1.05-.71Z"/><path class="cls-3" d="M85.62,426.52a22.84,22.84,0,0,1,1.67-7,.31.31,0,0,1,.42-.18.32.32,0,0,1,.19.4,21.76,21.76,0,0,0-1,6.87.63.63,0,1,1-1.26,0Z"/><path class="cls-3" d="M86.32,429.4a34.39,34.39,0,0,1-6.49-15.26.31.31,0,0,1,.26-.35.29.29,0,0,1,.34.24,33.44,33.44,0,0,0,6.89,14.59.63.63,0,1,1-1,.8Z"/><path class="cls-3" d="M64.33,422.94c.22-1.43.32-2.9.48-4.39a20.85,20.85,0,0,1,.86-4.41A.25.25,0,0,1,66,414a.27.27,0,0,1,.18.31c-.69,2.84-.39,5.78-.59,8.79a.63.63,0,0,1-.67.59.62.62,0,0,1-.59-.67Z"/><path class="cls-3" d="M71.93,426.84a15.87,15.87,0,0,0,3.91-7.49,49.37,49.37,0,0,0,1-8.7.23.23,0,0,1,.23-.21.23.23,0,0,1,.2.22,50,50,0,0,1-.65,8.87,20.19,20.19,0,0,1-1.34,4.32,14.62,14.62,0,0,1-2.48,3.86.62.62,0,0,1-.89,0,.63.63,0,0,1,0-.89Z"/><path class="cls-8" d="M64.21,425.1a2.39,2.39,0,0,0-1.42,1.51,1.33,1.33,0,0,0,.76,1.48,5.32,5.32,0,0,0,2.21.25l2.9,0c.16,0,1-.06,1,.15s-.54.51-.66.69a.93.93,0,0,0,.36,1.45,2.28,2.28,0,0,0,1,0l1.59-.17,2.95-.33c.6-.06.61-1,0-.94l-4.76.52a1.84,1.84,0,0,1-.39,0c0-.08.26-.3.29-.33a1.7,1.7,0,0,0,.46-.57.94.94,0,0,0-.33-1.19,2.91,2.91,0,0,0-1.57-.26l-2.44,0a8.53,8.53,0,0,1-2-.09c-.37-.09-.61-.31-.41-.7a2,2,0,0,1,.89-.7c.54-.29.06-1.1-.47-.81Z"/><path class="cls-3" d="M324.25,404.81a5.54,5.54,0,0,1-4.05-5,.2.2,0,0,1,.2-.21.2.2,0,0,1,.21.18,4.9,4.9,0,0,0,3.84,4.18.46.46,0,0,1,.36.52.45.45,0,0,1-.52.36Z"/><path class="cls-3" d="M301.1,409.68l-.26-2.21a.21.21,0,0,1,.18-.23.21.21,0,0,1,.22.13l.73,2.11a.45.45,0,0,1-.27.57.44.44,0,0,1-.57-.28A.32.32,0,0,1,301.1,409.68Z"/><path class="cls-3" d="M310.3,407.59a6.21,6.21,0,0,1-.41-6.21.14.14,0,0,1,.19-.06.14.14,0,0,1,.06.18,5.61,5.61,0,0,0,.88,5.55.45.45,0,0,1-.69.58l0,0Z"/><path class="cls-3" d="M319.49,406.22a15.75,15.75,0,0,0-.72-4.85.23.23,0,0,1,.15-.29.25.25,0,0,1,.28.13,16.32,16.32,0,0,1,1.18,5,.45.45,0,1,1-.89.07Z"/><path class="cls-3" d="M315.33,406.85a15.46,15.46,0,0,0-.72-4.85.23.23,0,0,1,.15-.29.24.24,0,0,1,.28.13,16.32,16.32,0,0,1,1.18,5,.45.45,0,0,1-.41.48.45.45,0,0,1-.48-.41Z"/><path class="cls-3" d="M313.24,408.2a23.54,23.54,0,0,0,4.86-10.3.21.21,0,0,1,.25-.17.22.22,0,0,1,.17.25,24.24,24.24,0,0,1-4.58,10.77.44.44,0,0,1-.62.08.44.44,0,0,1-.09-.62Z"/><path class="cls-3" d="M323.86,403.8c-.15-2.13.06-4.2-.42-6.21a.18.18,0,0,1,.14-.22.19.19,0,0,1,.22.12,15.8,15.8,0,0,1,.61,3.12c.11,1,.18,2.08.33,3.09a.44.44,0,1,1-.88.13Z"/><path class="cls-3" d="M315.63,408.89a10.19,10.19,0,0,1-1.75-2.72,14.37,14.37,0,0,1-.95-3.05,35.66,35.66,0,0,1-.46-6.26.15.15,0,0,1,.15-.15.16.16,0,0,1,.16.14,33.89,33.89,0,0,0,.74,6.14,11.18,11.18,0,0,0,2.75,5.29.43.43,0,0,1,0,.63.45.45,0,0,1-.63,0Z"/><path class="cls-3" d="M308.53,404.71c-1.46-.16-2.23-.9-3.32-.85a2.45,2.45,0,0,0-2.4,1.83,15,15,0,0,1-.06,1.78,2.15,2.15,0,0,1-2.2,1.26,24.71,24.71,0,0,1-2.67-.53,3.47,3.47,0,0,0-2.22.33,2.06,2.06,0,0,0-1.09,1.87c.11,1.31,1.62,2,2.91,2.26a30.87,30.87,0,0,0,11.17.5c2.44-.34,4.87-1,7.34-.84a36.63,36.63,0,0,1,6.81,1.54,11.62,11.62,0,0,0,6.88.08,8.05,8.05,0,0,0,4.2-3.91,11.86,11.86,0,0,0,1.2-5.69c0-1.86-.5-3.87-2-5s-3.44-1.14-5.27-1.09c-1.18,0-2.55.15-3.23,1.12s-.35,2.29-.82,3.34a3.29,3.29,0,0,1-2.24,1.72,9.79,9.79,0,0,1-2.91.14C314,404.31,310,404.87,308.53,404.71Z"/><path class="cls-8" d="M329.88,402.87a2.25,2.25,0,0,0-3.24.72,2.45,2.45,0,0,0-.19,1.82c.2.79.52,1.57-.26,2.16a4.39,4.39,0,0,1-1.87.64,21.27,21.27,0,0,1-2.75.33,24,24,0,0,1-5.62-.33c-.42-.07-.6.57-.18.65a24.82,24.82,0,0,0,5.16.38,15.79,15.79,0,0,0,4.74-.67,2.15,2.15,0,0,0,1.66-2.48c-.15-.77-.53-1.48-.07-2.23a1.59,1.59,0,0,1,2.29-.41c.35.24.69-.34.33-.58Z"/><path class="cls-3" d="M200.38,400.85a7.91,7.91,0,0,0-2.77,6,1,1,0,1,0,1.94,0,5.63,5.63,0,0,1,0-.71c0-.1,0-.17,0,0a.88.88,0,0,0,0-.16c0-.12,0-.25.08-.37a5.76,5.76,0,0,1,.19-.68c0-.11.09-.23.13-.35s-.07.14,0,0a1.08,1.08,0,0,1,.08-.19,7.07,7.07,0,0,1,.73-1.21c-.08.11,0,0,0,0l.1-.12.26-.28a6.51,6.51,0,0,1,.54-.51,1,1,0,0,0,0-1.37,1,1,0,0,0-1.37,0Z"/><path class="cls-2" d="M607.53,52A19.71,19.71,0,0,0,590.4,78.61l16.62,36a2,2,0,0,0,3.66,0l16.62-36A19.71,19.71,0,0,0,607.53,52Zm1.32,28.29a8.62,8.62,0,1,1,8.61-8.62A8.62,8.62,0,0,1,608.85,80.27Z"/><path class="cls-1" d="M547.1,194.44a18.72,18.72,0,0,0-21.29-6.15c-7.36,2.92-12.5,11.13-12.13,19.39.29,6.71,3.49,14.54-.92,19.39-3.17,3.49-8.88,3.31-11.92,6.93-2.83,3.38-2,9,.82,12.35s7.11,5,11.29,6c14.28,3.37,30.3,3.84,42.85-4.08,6.72-4.24,12.66-9.95,19.94-13,16.33-6.87,34.47,1.06,51.87,3.76,22.43,3.47,45.51-5.44,64.14-19s23.2-34.79,28-58.09c.82-4,1.31-8.58-.93-12-2.92-4.41-8.92-4.73-14-4.35-25.72,1.95-50,5.11-75,12-33.41,9.24-48.3,33.91-82.73,36.82"/><polygon class="cls-4" points="550.44 133.35 589.29 132.34 589.11 209.63 550.44 207.97 550.44 133.35"/><polygon class="cls-4" points="564.5 136.62 564.5 124.49 571.88 124.49 571.88 138.26 564.5 136.62"/><polygon class="cls-4" points="566.98 127.7 567.15 103.9 567.73 103.9 568.99 127.7 566.98 127.7"/><polyline class="cls-3" points="598.22 191.58 598.66 174 616.72 174 616.48 195.27"/><polyline class="cls-3" points="638.72 205.62 636.82 178.38 613.95 179.54 610.75 208.09"/><polygon class="cls-4" points="635.32 211 633.88 148.41 639.4 138.26 653.96 138.26 659.21 148.47 659.21 211 635.32 211"/><polygon class="cls-4" points="639.4 138.26 639.4 125.35 654.3 125.35 653.96 138.26 639.4 138.26"/><polygon class="cls-4" points="639.4 125.35 646.85 113.7 654.3 125.35 639.4 125.35"/><rect class="cls-2" x="524.42" y="171.99" width="66.04" height="3.06" transform="translate(377.39 728.88) rotate(-89.33)"/><rect class="cls-2" x="535.97" y="171.99" width="66.04" height="3.06" transform="translate(388.82 740.44) rotate(-89.33)"/><rect class="cls-2" x="545.88" y="173.84" width="71.28" height="3.06" transform="translate(399.35 754.79) rotate(-89.33)"/><polyline class="cls-3" points="568.67 209.7 569.96 189.01 612.5 186.68 613.95 215.67"/><polyline class="cls-4" points="549.52 217.48 549.52 201.56 585.72 200.2 586.45 224.96"/><polyline class="cls-5" points="533.65 222.46 532.68 178.57 560.84 177.4 560.84 226.93"/><circle class="cls-1" cx="646.85" cy="131.62" r="4.03"/><polyline class="cls-5" points="655.41 211.87 655.5 168.32 677.64 168.32 677.46 200.07"/><polyline class="cls-5" points="600 221.94 600.09 200.07 625.8 200.07 627.9 221.07"/><polyline class="cls-5" points="641.14 212.58 640.75 193.91 665.27 193.23 666 214.23"/><path class="cls-3" d="M552.92,200.48a2,2,0,0,0-2.61.52c-.77,1.05-.11,2.4.64,3.24a15.26,15.26,0,0,1,1.52,1.7,1.83,1.83,0,0,1,.12,2.08c-.6.76-1.78.86-2.24,1.78a1.71,1.71,0,0,0,.29,1.74,7.1,7.1,0,0,1,.69.94.86.86,0,0,1,.12.73.44.44,0,0,1-.55.34c-.35-.11-.5.43-.15.55a1,1,0,0,0,1.16-.52,1.47,1.47,0,0,0-.17-1.52c-.34-.55-1.16-1.19-.92-1.91.15-.48.71-.72,1.11-1a2.28,2.28,0,0,0,1.47-2.42c-.24-1.45-1.56-2.18-2.34-3.3a1.86,1.86,0,0,1-.24-2.23,1.44,1.44,0,0,1,1.82-.28c.3.19.59-.3.28-.49Z"/><path class="cls-3" d="M581.23,207.14a26.59,26.59,0,0,1,0,9.62c-.06.35.48.5.55.15a27.79,27.79,0,0,0,0-9.92c-.07-.36-.61-.21-.55.15Z"/><path class="cls-3" d="M608.94,204.76l6.26-1c.36-.06.21-.6-.15-.54l-6.26,1c-.36.06-.21.6.15.54Z"/><path class="cls-3" d="M659.1,186.53V176a.28.28,0,0,0-.56,0v10.49a.28.28,0,0,0,.56,0Z"/><path class="cls-3" d="M670.18,172h2a.29.29,0,0,0,0-.57h-2a.29.29,0,0,0,0,.57Z"/><path class="cls-2" d="M564.8,217.64l1.89.45a.29.29,0,0,0,.35-.2.29.29,0,0,0-.2-.34l-1.89-.46a.3.3,0,0,0-.35.2.3.3,0,0,0,.2.35Z"/><path class="cls-2" d="M537,182.21l3.21-.39a.29.29,0,0,0,.28-.28.28.28,0,0,0-.28-.28l-3.21.38a.3.3,0,0,0-.28.29c0,.13.13.3.28.28Z"/><path class="cls-2" d="M644.92,197.79c-.85.15-2.19.67-1.82,1.81a1.34,1.34,0,0,0,1.09.8c.68.16,1.37.31,2.06.49s1.33.38,2,.6a14.94,14.94,0,0,1,2,.72c.31.16.57.4.39.76a1.83,1.83,0,0,1-.83.64,1.23,1.23,0,0,0-.79,1.06c0,.53.54.74,1,.87a3.29,3.29,0,0,1,1.78,1.19c.21.29.7,0,.48-.29a3.68,3.68,0,0,0-1.52-1.24c-.24-.11-.5-.16-.75-.25s-.44-.14-.41-.38.31-.35.46-.44c.51-.31,1.09-.56,1.22-1.21a1.16,1.16,0,0,0-.77-1.22,24.78,24.78,0,0,0-4.44-1.45c-.41-.11-.83-.21-1.24-.3a2.77,2.77,0,0,1-.94-.28c-.4-.28-.17-.78.17-1a2.66,2.66,0,0,1,1.08-.32c.35-.06.2-.61-.16-.55Z"/><path class="cls-8" d="M651.42,141.09l2.76,6.12c.15.33.64,0,.49-.28l-2.77-6.12c-.15-.33-.63-.05-.48.28Z"/><path class="cls-8" d="M645,121.79l1.65-4.35c.13-.34-.41-.49-.54-.15l-1.65,4.35c-.13.34.41.49.54.15Z"/><path class="cls-8" d="M577.1,135.32l9.76-.43c.36,0,.36-.58,0-.56l-9.76.42a.29.29,0,0,0,0,.57Z"/><path class="cls-4" d="M609.49,177.7a7.53,7.53,0,0,0-2.58.36.28.28,0,0,0-.12.47c.47.38,1,.74,1.43,1.14s-.1.56-.39.62a5.6,5.6,0,0,0-.81.19,1,1,0,0,0-.42,1.73c.22.18.67.35.76.64.15.5-1,.84-1.26,1.16a.9.9,0,0,0-.16,1c.15.29.44.51.16.84a1.56,1.56,0,0,1-.78.36c-.34.1-.2.65.15.55a1.69,1.69,0,0,0,1.24-.85.91.91,0,0,0,0-.67c-.1-.28-.45-.48-.27-.81s.64-.43.92-.62a1.33,1.33,0,0,0,.46-.51.9.9,0,0,0-.26-1.08c-.25-.24-1-.51-.73-1s1.28-.34,1.76-.7a.79.79,0,0,0,.2-1.11,3.57,3.57,0,0,0-.75-.64l-.88-.7-.13.47a7.11,7.11,0,0,1,2.43-.33c.36,0,.36-.56,0-.57Z"/><path class="cls-2" d="M622.2,182.39a15.36,15.36,0,0,0,6.3-.93c.33-.13.19-.67-.15-.54a14.8,14.8,0,0,1-6.15.9c-.36,0-.36.54,0,.57Z"/><path class="cls-2" d="M643.35,153.16c-.71,1.83,1.79,2.65,2.12,4.19.4,1.86-1.28,3.47-2.29,4.81a4.5,4.5,0,0,0-.9,4.61c.69,1.66,2.17,2.81,3,4.4a3.19,3.19,0,0,1,.09,3.11,7.91,7.91,0,0,1-2,2.09c-.28.23.12.63.4.4,1.25-1,2.63-2.24,2.57-4s-1.51-3.27-2.57-4.68a5.41,5.41,0,0,1-1.21-2.54,3.85,3.85,0,0,1,.76-2.55c1-1.5,2.44-2.74,2.75-4.59a2.92,2.92,0,0,0-.64-2.43c-.62-.75-1.94-1.54-1.49-2.68.13-.34-.42-.49-.55-.15Z"/><rect class="cls-2" x="539.3" y="185.8" width="2.45" height="8.59"/><rect class="cls-2" x="571.4" y="207.17" width="4.9" height="3.82"/><rect class="cls-3" x="539.3" y="202.87" width="2.45" height="8.59"/><rect class="cls-3" x="669.97" y="174.63" width="2.45" height="8.59"/><rect class="cls-2" x="661.16" y="174.63" width="2.45" height="8.59"/><rect class="cls-2" x="618.55" y="205.34" width="2.45" height="5.65"/><rect class="cls-3" x="657.59" y="197.24" width="2.45" height="5.65"/><path class="cls-2" d="M493.41,248.42a47.09,47.09,0,0,1,35.14-19.52,50.92,50.92,0,0,1,15.35,1.6c10.6,2.59,20.81,7.3,31.84,7.83,9.47.46,18.38-2.87,27-6.3,8.43-3.34,17.21-7.05,26.46-6.78,1.14,0,2.27.14,3.39.29.59.08.68-.84.1-.92-9.18-1.24-18.09,1.78-26.52,5.07-8.74,3.41-17.62,7.42-27.15,7.75-11.33.4-21.95-4.36-32.68-7.24a57.38,57.38,0,0,0-15.45-2.3,47.27,47.27,0,0,0-13.56,2.16,47.93,47.93,0,0,0-22.62,15.08c-.73.89-1.42,1.8-2.08,2.74-.34.49.4,1,.74.54Z"/><path class="cls-2" d="M505.63,257.72a35.83,35.83,0,0,1,21.55-13.59c9.64-1.94,19.54-.25,29.13,1.17a188.73,188.73,0,0,0,30,2.37,110,110,0,0,0,29.46-4.25c9.53-2.78,18.67-6.72,27.72-10.77l3.37-1.51a.46.46,0,0,0-.38-.84c-9.14,4.12-18.31,8.24-27.87,11.3a108.8,108.8,0,0,1-30,5.11,176.87,176.87,0,0,1-30.41-2.06c-9.56-1.38-19.33-3.21-29-1.8a37.09,37.09,0,0,0-22.31,11.9q-1,1.17-2,2.43c-.36.47.39,1,.74.54Z"/><path class="cls-3" d="M506.93,246l2.8-1.6a.46.46,0,1,0-.38-.83l-2.8,1.59a.47.47,0,0,0-.23.61.46.46,0,0,0,.61.23Z"/><path class="cls-3" d="M521.65,239.51l3.7-1.46a.46.46,0,1,0-.38-.83l-3.7,1.45a.46.46,0,1,0,.38.84Z"/><path class="cls-3" d="M537.83,237.38l3.78.37a.46.46,0,0,0,.09-.91l-3.77-.38a.46.46,0,0,0-.1.92Z"/><path class="cls-3" d="M550.26,238.27l2.59.26a.46.46,0,0,0,.09-.92l-2.59-.26a.46.46,0,0,0-.09.92Z"/><path class="cls-3" d="M562.83,240l1.63.4a.47.47,0,0,0,.35,0,.42.42,0,0,0,.24-.25.47.47,0,0,0-.26-.6l-1.63-.4a.56.56,0,0,0-.36,0,.45.45,0,0,0-.23.26.43.43,0,0,0,0,.35.45.45,0,0,0,.25.24Z"/><path class="cls-3" d="M575.08,241.48l4.24.42a.46.46,0,0,0,.1-.91l-4.25-.43a.46.46,0,0,0-.09.92Z"/><path class="cls-3" d="M591.1,241l4.81-.36a.46.46,0,0,0,.37-.53.48.48,0,0,0-.53-.38l-4.8.36a.47.47,0,0,0-.38.53.49.49,0,0,0,.53.38Z"/><path class="cls-3" d="M603.52,238.17l2.9-.4a.46.46,0,1,0-.15-.91l-2.91.41a.46.46,0,1,0,.16.9Z"/><path class="cls-3" d="M616.51,235.81l1.75-.78a.47.47,0,0,0,.23-.61.48.48,0,0,0-.61-.23l-1.75.78a.47.47,0,0,0-.23.61.48.48,0,0,0,.61.23Z"/><path class="cls-3" d="M626.16,233.26l3.74-1.34a.46.46,0,0,0,.22-.61.47.47,0,0,0-.6-.23l-3.75,1.35a.46.46,0,0,0,.39.83Z"/><path class="cls-1" d="M578.82,440c-33.55-9-102.32.63-129.5,27.39-4.95,4.88-9.06,12.15-3.92,16.91s15,2.82,22.8,1.13A126.88,126.88,0,0,1,537,489.87c17,6.19,31.37,16,47.87,22.91,24.12,10.13,52.61,13.8,79.63,10.27,14.12-1.84,28.22-5.79,38.66-13.43s16.58-19.47,13-30.27c-4.45-13.27-21.42-21.39-37.68-26.61C647.05,442.69,612.38,449,578.82,440Z"/><path class="cls-3" d="M497,422.61a10.74,10.74,0,0,0,.84-5.75c-.21-2.85.29-4.68,2.21-6.32,1.46-1.24,3.6-1.16,5.51-1,11.16.91,19.34,1.41,30.44,2.85,2.65.34,3.32.09,5.53,1.58a11.79,11.79,0,0,1,4.63,8,35.37,35.37,0,0,1-.18,9.47c-.42,3.78-1.11,8.05-4.26,10.18-2.5,1.7-3.71,2.15-6.72,1.88-5.19-.47-7.46-.28-12.48-1.65-3.14-.86-6.2-2.06-9.4-2.68A119.21,119.21,0,0,0,496.92,437a4.75,4.75,0,0,1-4-3c-.73-1.72-.15-3.29.61-5C494.83,426.18,496.43,423.75,497,422.61Z"/><path class="cls-8" d="M504.64,415.69a1.21,1.21,0,0,0,.88,1.21,5.6,5.6,0,0,0,2,0,8.08,8.08,0,0,1,1,0,8.33,8.33,0,0,1,1,.22,1,1,0,0,0,1.28-.77.4.4,0,0,0-.79-.08c0,.25-.85-.08-1-.11a5.47,5.47,0,0,0-1.4,0c-.45,0-.91.07-1.36.06-.25,0-.79-.06-.77-.42s-.77-.6-.79-.09Z"/><path class="cls-8" d="M529.63,420.09A1.88,1.88,0,0,0,533,421h-.63c.67,1,2.66,2,3.59.74l-.56.09a1.88,1.88,0,0,0,1.8.52,1,1,0,0,0,.46-1.47c-.28-.43-.9.07-.62.5.15.22-.33.26-.43.24a1.87,1.87,0,0,1-.74-.44.4.4,0,0,0-.55.09c-.27.37-.83.3-1.21.16a2.27,2.27,0,0,1-1.12-.93.41.41,0,0,0-.63,0,1.08,1.08,0,0,1-1.9-.51.4.4,0,0,0-.79.13Z"/><path class="cls-8" d="M524.53,437.57a16.42,16.42,0,0,0,7.14.48.39.39,0,0,0-.12-.78,15.62,15.62,0,0,1-6.73-.44c-.49-.14-.78.6-.29.74Z"/><path class="cls-8" d="M515.74,425.67a2.63,2.63,0,0,0,2.53.94,4.44,4.44,0,0,1,1.53-.23,5.46,5.46,0,0,1,1.45.72,6.28,6.28,0,0,0,5.71,0c.46-.24.14-1-.32-.73a5.51,5.51,0,0,1-5.2-.07,6.24,6.24,0,0,0-1.29-.65,2.62,2.62,0,0,0-1.36,0,3.33,3.33,0,0,1-1.36.16,1.78,1.78,0,0,1-1.07-.66.4.4,0,0,0-.62.5Z"/><path class="cls-8" d="M499.07,431.11a2.25,2.25,0,0,0,1.17.61,8.93,8.93,0,0,0,1.63.26,5.1,5.1,0,0,0,1.65-.17,2,2,0,0,1,1.11,0,6,6,0,0,1,1.09.57c.44.25.92-.39.47-.64a3.92,3.92,0,0,0-2.09-.79c-.61,0-1.22.31-1.81.29a9.06,9.06,0,0,1-1.47-.16,2.16,2.16,0,0,1-1.13-.43.4.4,0,0,0-.62.5Z"/><polygon class="cls-5" points="577.82 468.57 579.92 456.78 589.38 457.28 588.74 468.57 577.82 468.57"/><polygon class="cls-5" points="638.2 456.75 638.97 463.21 646.98 461.41 645.71 452.62 638.2 456.75"/><path class="cls-3" d="M609.89,398.81S597.29,424,594.47,430.6s-2.71,31.88-2.71,31.88-5.29,1.09-8.11,1.3-7.72-1.5-7.72-1.5.37-29.67,2.28-37.73,11.55-45.41,11.55-45.41l36.31-4.23s2.52,21.77,4.13,27.11,6,20.55,8.36,25.18,2.13,10.28,5.35,14.63,6.5,10.71,5.19,12.12-15.46,5.57-15.46,5.57-1.76-11.93-5.94-18.31-7-18.64-7-18.64Z"/><path class="cls-5" d="M576.22,340.79l5.82-4.9,7.66,6.25s-6.47,5.92-9.37,8.11-8,6.26-10,6.8-24.24-1.38-24.24-1.38l-.61-7,8.63.36s12-.16,12.89-.49S576.22,340.79,576.22,340.79Z"/><path class="cls-5" d="M547.56,353.06s-.38,4.08-5.67,4.08c-4.69,0-6.69-3.07-6.67-6.16s4.2-6.13,7.48-5.37S547.56,353.06,547.56,353.06Z"/><path class="cls-2" d="M628.2,390s2.85,10.53,8.11,18.12,7.42,10.72,8.68,10.36,7.51-3.76,8.93-5.75,8.86-11.71,6.5-15.85-9.32-18.68-19.06-18.26S628.46,388.07,628.2,390Z"/><path class="cls-3" d="M640.21,413.74c2.55,3.54,3.9,5,4.78,4.78,1.26-.37,7.51-3.76,8.93-5.75s8.86-11.71,6.5-15.85c-.56-1-1.4-2.59-2.47-4.43.43,3.13-9.91,16.72-9.91,16.72Z"/><path class="cls-3" d="M642.07,397.49s2.42,4.85,4.69,5.27,8.35-8,8.58-10.22-3.27-6.1-4.69-5.63C648.75,387.55,641.69,395.58,642.07,397.49Z"/><path class="cls-3" d="M630.27,390.47l3.67-.85a.47.47,0,0,0-.25-.9l-3.67.86a.46.46,0,1,0,.25.89Z"/><path class="cls-3" d="M635.25,392.06a46.34,46.34,0,0,0,10.08,16.34c.42.44,1.07-.22.66-.65a45.18,45.18,0,0,1-9.84-15.94c-.2-.56-1.1-.32-.9.25Z"/><path class="cls-7" d="M652,396a4.22,4.22,0,0,0,.58-3.47.46.46,0,0,0-.89.25,3.46,3.46,0,0,1,.07,1.39,4.68,4.68,0,0,1-.21.73c0,.05,0,.06,0,0l0,.1-.09.17-.21.34a.47.47,0,0,0,.16.64A.48.48,0,0,0,652,396Z"/><path class="cls-3" d="M637.28,387.46a11.68,11.68,0,0,0,6.19-6.43.47.47,0,0,0-.9-.25,10.79,10.79,0,0,1-5.75,5.88.46.46,0,0,0-.17.63.47.47,0,0,0,.63.17Z"/><path class="cls-3" d="M633,386.58s-2.4-1.33-2.09-3.53a5.33,5.33,0,0,1,2.37-4c1.15-.85,3.3-1.28,4-.36a9.82,9.82,0,0,1,1.07,3.05l-1.32.38s-.17-2.43-1.36-2.62-2.95,1.52-3.14,2.31-.63,2.32.73,3.21S633,386.58,633,386.58Z"/><path class="cls-3" d="M644.92,392.76a9.55,9.55,0,0,0-4.42-4.93l-1.74,1.48a8.37,8.37,0,0,1,4.33,5.84Z"/><path class="cls-3" d="M649.4,388.43a10.84,10.84,0,0,0-4.25-5.24l-1.9,1.47a9.66,9.66,0,0,1,4.23,4.94Z"/><path class="cls-7" d="M644.11,390.7a13.51,13.51,0,0,0-1.76-2.16,3.19,3.19,0,0,1-2.35,2.08h0a11.67,11.67,0,0,1,1.64,2.31A12.48,12.48,0,0,0,644.11,390.7Z"/><path class="cls-7" d="M648.49,386.39a10.24,10.24,0,0,0-1.35-2,3.5,3.5,0,0,1-2.51,1.72h0a11.94,11.94,0,0,1,1.77,2.3A9,9,0,0,0,648.49,386.39Z"/><path class="cls-5" d="M547.29,351.71s.2-10.13-.41-10.89-5.49,8.26-5.49,8.26Z"/><path class="cls-3" d="M608.76,296.9a6,6,0,0,0,0-3.71c-.73-1.48,2.14.94.88,4.26S608.76,296.9,608.76,296.9Z"/><path class="cls-3" d="M607.55,297.26a8.93,8.93,0,0,1,1.75-1.5c.87-.52,2.32-.65,2.38-.38s-2.43.8-3,1.93S607.55,297.26,607.55,297.26Z"/><path class="cls-5" d="M599.58,315.22a45,45,0,0,1,.8,8.84c-.19,5,13.09-2.41,13.09-2.41s-5.69-5.39-4.29-16.37c.83-6.55-5.76-2.83-5.76-2.83Z"/><path class="cls-5" d="M627.57,373.12l4.52-1.89-1.49-16.4-1.15-10.28s-7.53-17-11.76-20.7.68,8.95.68,8.95l6.19,28.92Z"/><path class="cls-5" d="M627.25,375.76a44.78,44.78,0,0,0-.11,4.65c.06,1.08.36,2.89.79,2.91s.77-.66,1-1.48a17.31,17.31,0,0,1,.49-1.83c.14,0,.55,2.7,1.71,3.91s4.17,0,5-.87,1.44-3.58-.19-7.06c-1.53-3.27-4.42-6.55-7.1-4.93C626.83,372.31,627.35,374.73,627.25,375.76Z"/><path class="cls-4" d="M614.88,319.5l2.38,15.31.77,3.29.15,5.71s8.94-3.55,10.68-4.7C625.27,332.6,622.14,321.57,614.88,319.5Z"/><path class="cls-2" d="M591.09,343.29c-.2.4-3.27,3.23-3.27,3.23s-3-4.75-5.48-6.16a22.7,22.7,0,0,0-6.27-1.92.33.33,0,0,1-.16-.58c1.61-1.23,6.5-4.31,8-5.77,1.92-1.81,5.24-6.65,7.06-7.85s8.06-2.22,12.69-2.83,9.57-2.41,10.48-2.41,5.2,2.94,7.93,10.42,2.35,14.86,2,26.65,1.92,18.84,1.92,18.84a139.44,139.44,0,0,1-15.82,4.84c-8.16,1.91-21.22.74-21.64.33s1.3-16.84,1.64-22.4S591.09,343.29,591.09,343.29Z"/><path class="cls-3" d="M565,471.31s9.37-4,11-4.53,5.24,1,8.27.8a32.43,32.43,0,0,0,5.64-.91,18.22,18.22,0,0,1,2,5.34,33.22,33.22,0,0,1,0,4.84H557.09a2,2,0,0,1-.8-1.31C556.29,474.84,565,471.31,565,471.31Z"/><path class="cls-3" d="M628.5,463.35s7.27-2.72,8.52-3,3.52.57,5.83.53a16.67,16.67,0,0,0,4.8-1,25.88,25.88,0,0,1,1.28,5,25.53,25.53,0,0,1-.18,3.68l-26.44-1.29a1.54,1.54,0,0,1-.56-1C621.78,465.71,628.5,463.35,628.5,463.35Z"/><path class="cls-2" d="M589.37,431.64a14.91,14.91,0,0,0,6.25-5.28c.34-.49-.47-1-.8-.47a14.05,14.05,0,0,1-5.92,4.95.46.46,0,0,0-.16.63.47.47,0,0,0,.63.17Z"/><path class="cls-2" d="M633.67,447.29a11.66,11.66,0,0,1,2.51,8.29c0,.6.88.6.93,0a12.59,12.59,0,0,0-2.78-8.94c-.37-.47-1,.19-.66.65Z"/><path class="cls-2" d="M624.88,408.35a2.35,2.35,0,0,0-.7,2.72c.42,1,1.29,1.28,2.24,1.61.45.16.8.4.78.93a6.69,6.69,0,0,1-.44,1.51,1.9,1.9,0,0,0,.7,2.31c.54.25,1-.55.47-.8-.73-.34-.2-1.45,0-2a2.1,2.1,0,0,0-.37-2.41c-.6-.5-1.46-.47-2.07-.94a1.44,1.44,0,0,1,.07-2.29c.47-.37-.19-1-.66-.66Z"/><path class="cls-5" d="M597,301.05c-.67,0-1.81.3-3.48.35a20.21,20.21,0,0,1-.38,3.63,14.81,14.81,0,0,1-1.47,3.44.77.77,0,0,0,.84,1.11,2.19,2.19,0,0,1,1.31-.05c.8.57-.08,2.05-.08,2.05a10.52,10.52,0,0,0,6.35-3.91C602.84,303.69,598.17,301,597,301.05Z"/><path class="cls-3" d="M593.44,302.26c-.35,0-.7,0-1,0a5.1,5.1,0,0,1-4.94-4.51c0-1.35,1.59-1.68,3.31-1.18s4.51-.41,3.07-.87,2.83-3.37,3.6-2.21,2.8,1.06,5.88.53,6.36-.9,9.15,6,.5,10.15-.18,12.4-2.5,3.43-4.64,2.37-1.65-6.47-1.65-6.47-.14-4.71-2.13-3.94-.69,3.83-1.41,7.95-2.76,5.24-5.17,5.24-3.63-1.36-4-3.49.44-3.89.89-4.11,3.84.07,5.39-2.64c2.25-3.93-1.68-5.13-2.82-5.07C596.07,302.32,595.11,302.21,593.44,302.26Z"/><path class="cls-2" d="M589,433.94l2.62-.81a.47.47,0,0,0,.32-.57.48.48,0,0,0-.57-.33l-2.62.81a.47.47,0,0,0-.32.57.48.48,0,0,0,.57.33Z"/><path class="cls-4" d="M592.81,328a3.55,3.55,0,0,1,3.54-1.74.49.49,0,0,0,.57-.33.46.46,0,0,0-.32-.57,4.5,4.5,0,0,0-4.59,2.17.46.46,0,0,0,.8.47Z"/><path class="cls-3" d="M594.62,342.34a15.92,15.92,0,0,0,5.76-7.62c.2-.56-.69-.8-.89-.24a14.91,14.91,0,0,1-5.34,7.06c-.48.34,0,1.15.47.8Z"/><path class="cls-3" d="M613.93,347.73a9.53,9.53,0,0,0-6.72,6,3.24,3.24,0,0,0,.09,3.07,2.89,2.89,0,0,0,2.39.94,25,25,0,0,0,3.65-.49l2-.31c.64-.1,1.53-.13,1.35.8a4.16,4.16,0,0,1-1,1.52,4.17,4.17,0,0,0-.81,1.51,2.09,2.09,0,0,0,1.22,2.55c.49.19,1.38.19,1.58.77s-.3,1.33-.61,1.79.46,1,.8.47a2.9,2.9,0,0,0,.63-2.7,1.66,1.66,0,0,0-.85-.82,10.56,10.56,0,0,1-1.47-.49c-1.19-.79.12-2.35.69-3.06a2.28,2.28,0,0,0,.53-2.66c-.62-1-1.91-.64-2.85-.49-1.31.2-2.63.44-3.95.61-.83.11-2.15.24-2.64-.62s.23-2.48.7-3.33a8.59,8.59,0,0,1,5.53-4.15c.58-.14.33-1-.25-.9Z"/><path class="cls-3" d="M537,351.59a4.15,4.15,0,0,0,4.26,3.78.47.47,0,0,0,0-.93,3.22,3.22,0,0,1-3.33-2.85.48.48,0,0,0-.47-.46.46.46,0,0,0-.46.46Z"/><path class="cls-2" d="M569,355.83a7.24,7.24,0,0,0,3.46-1.13.47.47,0,0,0-.47-.81,6.24,6.24,0,0,1-3,1,.47.47,0,1,0,0,.93Z"/><path class="cls-3" d="M542,348.72l.84-1.28a.46.46,0,0,0-.17-.63.47.47,0,0,0-.63.17l-.84,1.27a.46.46,0,1,0,.8.47Z"/><path class="cls-3" d="M627.5,347.44l.46,4.43a.48.48,0,0,0,.47.46.46.46,0,0,0,.46-.46l-.46-4.43A.49.49,0,0,0,628,347a.47.47,0,0,0-.46.47Z"/><path class="cls-2" d="M566.52,473.47a12.34,12.34,0,0,1,4.24-1.24.47.47,0,0,0,.46-.46.47.47,0,0,0-.46-.47,13.6,13.6,0,0,0-4.71,1.37.47.47,0,0,0-.17.63.48.48,0,0,0,.64.17Z"/><path class="cls-2" d="M630.1,466.63l4.73,0a.46.46,0,0,0,0-.92l-4.73,0a.46.46,0,0,0,0,.92Z"/><path class="cls-3" d="M632.22,381.42a4.78,4.78,0,0,1,3.22-2,.48.48,0,0,0,.47-.46.48.48,0,0,0-.47-.47,5.73,5.73,0,0,0-4,2.44.46.46,0,1,0,.8.47Z"/><path class="cls-8" d="M589.6,419.06,595.29,403c.21-.6-.75-.86-1-.26l-5.69,16.09c-.21.6.75.86,1,.26Z"/><path class="cls-8" d="M584.79,455.33l.36-12.34a.5.5,0,0,0-1,0l-.37,12.34c0,.64,1,.64,1,0Z"/><path class="cls-8" d="M641.38,454.78l4-1.55a.5.5,0,1,0-.26-1l-4,1.54a.51.51,0,0,0-.34.62.5.5,0,0,0,.61.35Z"/><path class="cls-3" d="M394,499.81c10.35,0,11.88,2.59,0,2.13S383.68,499.82,394,499.81Z"/><path class="cls-3" d="M702.7,508.2c20.53,0,23.55,2.56,0,2.11S682.17,508.2,702.7,508.2Z"/><path class="cls-3" d="M421.4,510.36c6.1,0,7,1.53,0,1.26S415.31,510.37,421.4,510.36Z"/><path class="cls-3" d="M699,482.35a8.66,8.66,0,0,0,6.78-7.39.37.37,0,0,1,.73.05,9.78,9.78,0,0,1-7.16,8.87h0a.79.79,0,0,1-1-.55.8.8,0,0,1,.56-1Z"/><path class="cls-3" d="M731,473.22a8.63,8.63,0,0,0,6.78-7.38.37.37,0,0,1,.73.05,9.79,9.79,0,0,1-7.16,8.87h0a.8.8,0,0,1-1-.56.79.79,0,0,1,.56-1Z"/><path class="cls-3" d="M730.25,474.76a9.82,9.82,0,0,1-7.16-8.87.38.38,0,0,1,.36-.38.36.36,0,0,1,.37.33,8.66,8.66,0,0,0,6.78,7.38.79.79,0,0,1,.63.92.77.77,0,0,1-.91.63h-.07Z"/><path class="cls-3" d="M729.71,480.7a9.78,9.78,0,0,1-7.16-8.87.37.37,0,0,1,.35-.38.38.38,0,0,1,.38.33,8.66,8.66,0,0,0,6.77,7.39.79.79,0,1,1-.28,1.55l-.06,0Z"/><path class="cls-3" d="M742.07,473.75a9.79,9.79,0,0,1-7.16-8.87.37.37,0,0,1,.73-.05,8.64,8.64,0,0,0,6.78,7.38.79.79,0,1,1-.29,1.55Z"/><path class="cls-3" d="M689.25,487.93l1.29-3.71A.36.36,0,0,1,691,484a.35.35,0,0,1,.24.38l-.46,3.91a.79.79,0,1,1-1.57-.19A.59.59,0,0,1,689.25,487.93Z"/><path class="cls-3" d="M700.7,486.5a9.88,9.88,0,0,0,1.54-9.81.25.25,0,0,1,.14-.32.26.26,0,0,1,.31.12,10.93,10.93,0,0,1-.73,11h0a.78.78,0,0,1-1.09.2.79.79,0,0,1-.21-1.09Z"/><path class="cls-3" d="M705.75,487a28.72,28.72,0,0,1,2.08-8.79.41.41,0,0,1,.53-.22.41.41,0,0,1,.23.5,27.8,27.8,0,0,0-1.27,8.56.79.79,0,1,1-1.57,0Z"/><path class="cls-3" d="M706.21,490.85a43,43,0,0,1-8.09-19,.38.38,0,0,1,.75-.14,41.65,41.65,0,0,0,8.58,18.19.8.8,0,0,1-.11,1.11.78.78,0,0,1-1.11-.11Z"/><path class="cls-3" d="M731,473.86c.27-1.78.39-3.62.59-5.47a26.74,26.74,0,0,1,1.07-5.5.34.34,0,0,1,.42-.21.33.33,0,0,1,.22.39c-.86,3.54-.48,7.2-.74,11a.78.78,0,0,1-.83.73.79.79,0,0,1-.74-.84A.13.13,0,0,0,731,473.86Z"/><path class="cls-3" d="M722.89,477.76a19.87,19.87,0,0,0,4.87-9.34,60.94,60.94,0,0,0,1.31-10.85.27.27,0,0,1,.28-.25.27.27,0,0,1,.25.27,61.47,61.47,0,0,1-.81,11.06,25,25,0,0,1-1.67,5.38,18,18,0,0,1-3.09,4.81.79.79,0,0,1-1.17-1Z"/><path class="cls-3" d="M685,488.67c.7-.26,7.34-1.47,10.27-3.69,1.63-1.23,3-2.9,4.9-3.62,2.67-1,5.6.12,8.29,1s5.92,1.53,8.17-.2a12.43,12.43,0,0,0,2.54-3.29,20.33,20.33,0,0,1,20.42-8.62c4.81.94,9.08,3.62,13.23,6.24,1.21.77,2.59,1.86,2.4,3.29s-1.69,2.08-3,2.09-2.63-.49-4-.57-2.89.45-3.32,1.72c-.51,1.54.88,3,2.17,4a10.47,10.47,0,0,1,2.35,2.2,3.2,3.2,0,0,1,.46,3.06c-.83,1.82-3.37,1.83-5.35,1.55L726,491.22a18.32,18.32,0,0,0-4.79-.25c-4.13.5-7.36,3.66-11,5.73a22.82,22.82,0,0,1-24.86-1.85c-1.19-1-2.29-2.49-2.06-3.8A3,3,0,0,1,685,488.67Z"/><path class="cls-8" d="M739.47,475.84c-1.4-.06-3.86.45-4,2.2a1.57,1.57,0,0,0,1.22,1.58c.27.08.55.12.83.18l-4.94,1.89a.62.62,0,0,0-.41.73.6.6,0,0,0,.73.41l6-2.29a.6.6,0,0,0,.42-.73,1.77,1.77,0,0,0-1.24-1.09c-.38-.12-1.06-.08-1.34-.4s.49-.83.75-.94a4.39,4.39,0,0,1,2-.36C740.23,477.06,740.23,475.88,739.47,475.84Z"/><path class="cls-8" d="M707.32,489.07a1.48,1.48,0,0,1,.92-1.3,4.38,4.38,0,0,1,2.27-.23c1.48.11,3,.22,4.21-.82.57-.5-.27-1.33-.84-.84-1.22,1.08-3.2.35-4.64.46s-3.14,1.05-3.1,2.73a.59.59,0,0,0,1.18,0Z"/><path class="cls-2" d="M453.19,436.91a228.79,228.79,0,0,1,24.17,9.66c7.75,3.69,15.51,8,21.7,14,6.35,6.16,11,13.75,15.64,21.21,2.32,3.73,4.64,7.46,7.21,11a143.59,143.59,0,0,0,9.18,11.41,242.51,242.51,0,0,0,21.11,20.69l2.85,2.5c.94.82,2.32-.55,1.38-1.37a273.7,273.7,0,0,1-21.64-20.62c-3.39-3.68-6.64-7.5-9.66-11.5-2.67-3.54-5.1-7.26-7.45-11-4.71-7.52-9.26-15.25-15.35-21.76s-13.49-11-21.24-14.87A210.32,210.32,0,0,0,456.56,436l-2.86-1c-1.18-.4-1.69,1.47-.51,1.88Z"/><path class="cls-2" d="M406.94,465.34a47.2,47.2,0,0,1,38.57,23c9.29,15.82,6.49,36.59,18.86,50.93,5.78,6.7,15.61,11,24.27,7.65,1.16-.44.66-2.31-.52-1.87-7.68,2.93-16.32-.59-21.68-6.37-6.07-6.55-8.67-15.46-10.6-24-2.07-9.1-3.64-18.5-8.29-26.73a48.87,48.87,0,0,0-15.93-16.76,48.17,48.17,0,0,0-24.68-7.82c-1.25,0-1.25,1.9,0,1.94Z"/><path class="cls-3" d="M439.2,454.59l6.69,3.07a1,1,0,0,0,1-1.68l-6.69-3.07a1,1,0,0,0-1.33.35,1,1,0,0,0,.35,1.33Z"/><path class="cls-3" d="M476.59,482.4l7,15.56c.51,1.14,2.18.15,1.68-1l-7-15.56c-.51-1.13-2.18-.15-1.67,1Z"/><path class="cls-3" d="M503.91,528.28l18.26,17.77c.9.87,2.27-.5,1.38-1.37L505.28,526.9c-.9-.87-2.27.5-1.37,1.38Z"/><path class="cls-3" d="M700.41,459.94c-5,.18-9.92,1.78-15.64,1.13s-11.48-3.13-14.82-7.82a16,16,0,0,1,1.7-19.93,66.79,66.79,0,0,0,6.29-7.45c3.79-5.27,2.22-10.62,6.68-15.73,3.57-4.09,11.73-6.24,17-7.23s10.8-.78,16.21-.57a10.27,10.27,0,0,1,3.41.53,3.43,3.43,0,0,1,2.21,2.47c.14.92-.23,1.89.08,2.76.63,1.77,3.1,1.6,5,1.9,2.86.46,5.14,2.82,6.31,5.47a26.38,26.38,0,0,1,1.67,8.51c.4,4.8,2.23,10.29.13,14.63a26,26,0,0,1-4.5,6.05c-4.17,4.58-8.55,9.12-13.9,12.24S705.44,459.76,700.41,459.94Z"/><path class="cls-8" d="M702.11,451.52a50.45,50.45,0,0,0,3-26.87,48.52,48.52,0,0,0-1.85-7.61c-.36-1.07-2.06-.61-1.71.47a48.7,48.7,0,0,1,1.14,26.33,49.19,49.19,0,0,1-2.31,7.21c-.43,1.05,1.28,1.51,1.71.47Z"/><path class="cls-8" d="M705.67,433.22a34.75,34.75,0,0,1,14.66-16.54.88.88,0,0,0-.89-1.52,36.24,36.24,0,0,0-15.3,17.17.91.91,0,0,0,.32,1.2.88.88,0,0,0,1.21-.31Z"/><path class="cls-8" d="M703.45,444.76a33.38,33.38,0,0,0-14.6-8.32.89.89,0,0,0-.47,1.71A31.46,31.46,0,0,1,702.2,446c.81.79,2.06-.46,1.25-1.25Z"/><path class="cls-2" d="M711.51,433.86a8.41,8.41,0,0,1,.31-1s0-.07,0-.11l0,.07.12-.25a3.81,3.81,0,0,1,.23-.45,7.4,7.4,0,0,1,.53-.84l.09-.12s-.13.16,0,.05l.16-.18a4.48,4.48,0,0,1,.36-.4,1,1,0,0,0-1.38-1.37,9.06,9.06,0,0,0-2.25,4.06,1,1,0,0,0,1.87.51Z"/><path class="cls-2" d="M725.43,477.77l0-.1s0-.12,0,0,0,0,0,0l0-.09a3.45,3.45,0,0,1,.2-.32c.07-.09-.08.09,0,0l.06-.06a2.58,2.58,0,0,1,.27-.27l.06-.06c.11-.09-.07.06,0,0l.3-.2.17-.09.08,0c-.16.09-.07,0,0,0l.36-.11.17,0c-.22.05,0,0,.07,0a.65.65,0,0,0,0-1.29,3.38,3.38,0,0,0-3,2.28.65.65,0,0,0,1.25.34Z"/><path class="cls-2" d="M523.94,429.26a3.14,3.14,0,0,0,3-.08.33.33,0,0,0-.33-.56,2.44,2.44,0,0,1-2.3.08.34.34,0,0,0-.45.12.33.33,0,0,0,.12.44Z"/></g></svg>