<svg id="Layer_2" data-name="Layer 2" xmlns="http://www.w3.org/2000/svg" viewBox="0 0 200 100"><defs><style>.cls-1{fill:#e2631a;}.cls-2{fill:#713d1f;}.cls-3{fill:#bc561c;}.cls-4{fill:#97491d;}.cls-5{font-size:27.25px;font-family:Square721BT-Bold, Square721 BT;font-weight:700;}.cls-6{font-size:23.06px;font-family:Square721BT-Roman, Square721 BT;}.cls-7{letter-spacing:-0.07em;}</style></defs><title>Artboard 2</title><path class="cls-1" d="M47.15,22.21c-.88,0-1.76,0-2.63.12L74,65.33a31,31,0,0,0,2.74-12.77C76.71,35.8,63.48,22.21,47.15,22.21Z"/><path class="cls-2" d="M49.79,82.79l-32.19-47V52.56c0,16.77,13.23,30.35,29.55,30.35Q48.49,82.91,49.79,82.79Z"/><path class="cls-3" d="M44.53,22.33a29,29,0,0,0-14.38,5.4l34,49.65A30.33,30.33,0,0,0,74,65.32Z"/><path class="cls-4" d="M64.16,77.37a28.88,28.88,0,0,1-14.38,5.41l-32.18-47V9.34Z"/><text class="cls-5" transform="translate(89.36 51.55)">Fellow</text><text class="cls-6" transform="translate(89.62 76.84)"><tspan class="cls-7">T</tspan><tspan x="10.47" y="0">raveller</tspan></text></svg>