<svg id="Badges" xmlns="http://www.w3.org/2000/svg" xmlns:xlink="http://www.w3.org/1999/xlink" viewBox="0 0 128 40"><defs><style>.cls-1,.cls-2,.cls-3,.cls-4,.cls-5{fill-rule:evenodd;}.cls-1{fill:url(#GradientFill_1);}.cls-2{fill:url(#GradientFill_2);}.cls-3{fill:url(#GradientFill_3);}.cls-4{fill:url(#GradientFill_4);}.cls-5,.cls-6{fill:#fff;}</style><linearGradient id="GradientFill_1" x1="16.27" y1="6.57" x2="21.87" y2="29.56" gradientUnits="userSpaceOnUse"><stop offset="0" stop-color="#006884"/><stop offset="1" stop-color="#8ad1d0"/></linearGradient><linearGradient id="GradientFill_2" x1="9.44" y1="9.84" x2="24.7" y2="18.09" gradientUnits="userSpaceOnUse"><stop offset="0" stop-color="#24bbb6"/><stop offset="1" stop-color="#dbe692"/></linearGradient><linearGradient id="GradientFill_3" x1="26.99" y1="23.62" x2="26.99" y2="15.67" gradientUnits="userSpaceOnUse"><stop offset="0" stop-color="#fcc072"/><stop offset="1" stop-color="#f58a5b"/></linearGradient><linearGradient id="GradientFill_4" x1="12.39" y1="33.27" x2="24.45" y2="21" gradientUnits="userSpaceOnUse"><stop offset="0" stop-color="#712b8f"/><stop offset="1" stop-color="#ea1d27"/></linearGradient></defs><title>2google-play-badge</title><rect width="128" height="40" rx="4"/><path class="cls-1" d="M9.77,19.6V9.08a1.13,1.13,0,0,1,1-1.12,1.79,1.79,0,0,1,.95.27l19.3,10.55a1,1,0,0,1,.62.82,1,1,0,0,1-.62.82L11.76,31a1.79,1.79,0,0,1-.95.27,1.13,1.13,0,0,1-1-1.11Z"/><path class="cls-2" d="M22.31,19.67,10.63,8l.18,0a1.79,1.79,0,0,1,.95.27L26,16Z"/><path class="cls-3" d="M25.89,23.25l-3.58-3.58L26,16l5.08,2.78a1,1,0,0,1,.62.82,1,1,0,0,1-.62.82Z"/><path class="cls-4" d="M10.75,31.23h0L22.31,19.67l3.58,3.58L11.76,31a1.79,1.79,0,0,1-.95.27Z"/><path class="cls-5" d="M71.11,33.86A5.83,5.83,0,0,1,70,32.34l1.61-.69a3.63,3.63,0,0,0,.5.76,2.18,2.18,0,0,0,3.34,0,2.87,2.87,0,0,0,.46-1.68v-.63c-1.15,1.48-3.67,1.27-5.07-.26a4.44,4.44,0,0,1,0-5.93,3.48,3.48,0,0,1,5-.26h0V22.9h1.75v7.59a3.8,3.8,0,0,1-3.94,4.33,3.86,3.86,0,0,1-2.61-1Zm41.85.41h0l1.69-4-3-6.92h1.69l2.13,4.93,2.08-4.93h1.7l-4.61,10.91Zm-8.07-3.81h0a2.7,2.7,0,0,1-.75-1.85,2.37,2.37,0,0,1,.62-1.63,3.75,3.75,0,0,1,2.8-1.05,3.66,3.66,0,0,1,1.8.41,1.63,1.63,0,0,0-1.76-1.68,1.7,1.7,0,0,0-1.66,1.07l-1.53-.62a3.16,3.16,0,0,1,3.15-2A3.25,3.25,0,0,1,111,26.78V31h-1.67v-.75a2.88,2.88,0,0,1-.91.72,3.2,3.2,0,0,1-1.39.28,3.16,3.16,0,0,1-2.15-.77ZM51.62,26.85h0a4.16,4.16,0,1,1,4.16,4.2,4.16,4.16,0,0,1-4.16-4.2Zm9,0h0a4.16,4.16,0,1,1,4.16,4.2,4.16,4.16,0,0,1-4.16-4.2Zm-20.3,2.21h0a6.5,6.5,0,0,1,9.09-9.28l-1.25,1.3a4.54,4.54,0,0,0-6.44.08,4.83,4.83,0,0,0,0,6.68,4.6,4.6,0,0,0,6.58.11,3.88,3.88,0,0,0,.94-2.24H45V23.93h5.93A7.6,7.6,0,0,1,51,25.28a6,6,0,0,1-1.61,4A5.91,5.91,0,0,1,45.08,31a6.76,6.76,0,0,1-4.73-2Zm42.23.75h0a4.54,4.54,0,0,1,0-5.95,3.65,3.65,0,0,1,5.45,0,6.45,6.45,0,0,1,1.07,1.93l-5.55,2.33a2.16,2.16,0,0,0,2,1.28,2.3,2.3,0,0,0,2.08-1.16l1.45,1h0c-.17.22-.37.44-.53.61a4.2,4.2,0,0,1-5.94,0ZM93,31h0v-11h3.56a3.53,3.53,0,0,1,3.76,3.35,3.39,3.39,0,0,1-3.43,3.34h-2.2V31Zm8.42,0h0v-11h1.69V31ZM78.84,30.8h0V18.43h1.85V30.8Zm30.51-3.06h0a3,3,0,0,0-1.59-.4c-1.2,0-1.88.6-1.88,1.27a1.22,1.22,0,0,0,1.37,1.1,2.11,2.11,0,0,0,2.1-2ZM58.1,26.85h0a2.33,2.33,0,1,0-2.32,2.54,2.43,2.43,0,0,0,2.32-2.54Zm9,0h0a2.33,2.33,0,1,0-2.32,2.54,2.43,2.43,0,0,0,2.32-2.54Zm8.82.77h0a2.28,2.28,0,0,0,.07-.3v0a2.22,2.22,0,0,0,0-.45,3,3,0,0,0,0-.42.2.2,0,0,0,0-.05,2.22,2.22,0,0,0-.09-.37,2.29,2.29,0,0,0-2.13-1.67,2.55,2.55,0,0,0,0,5.06A2.32,2.32,0,0,0,76,27.62Zm7.32-.92h0L87,25.14a1.69,1.69,0,0,0-1.53-.87,2.32,2.32,0,0,0-2.17,2.43ZM98.6,23.31h0a1.77,1.77,0,0,0-1.89-1.74h-2v3.49h2.12A1.76,1.76,0,0,0,98.6,23.31Z"/><polygon class="cls-5" points="114.25 32.26 114.25 32.25 114.25 32.25 114.25 32.25 114.25 32.24 114.25 32.24 114.25 32.24 114.25 32.24 114.25 32.24 114.24 32.24 114.24 32.25 114.25 32.26 114.25 32.26"/><path class="cls-5" d="M114.27,32.26h0v0h0Zm0,0Z"/><polygon class="cls-5" points="114.28 32.25 114.27 32.25 114.27 32.25 114.28 32.25 114.28 32.25 114.27 32.25 114.27 32.24 114.28 32.24 114.28 32.24 114.27 32.24 114.27 32.26 114.28 32.26 114.28 32.25"/><path class="cls-5" d="M114.3,32.26v0h0v0h0Zm0,0Z"/><polygon class="cls-5" points="114.31 32.24 114.3 32.24 114.3 32.24 114.3 32.24 114.3 32.26 114.3 32.26 114.3 32.24 114.31 32.24 114.31 32.24"/><polygon class="cls-5" points="114.32 32.25 114.31 32.25 114.31 32.25 114.32 32.25 114.32 32.25 114.31 32.25 114.31 32.24 114.32 32.24 114.32 32.24 114.31 32.24 114.31 32.26 114.32 32.26 114.32 32.25"/><path class="cls-5" d="M114.34,32.25h0v0h0Zm0,0Z"/><path class="cls-5" d="M114.36,32.25h0v0h0Zm0,0Zm0,0Z"/><polygon class="cls-5" points="114.37 32.24 114.37 32.24 114.37 32.24 114.37 32.25 114.36 32.24 114.36 32.24 114.36 32.24 114.36 32.25 114.36 32.26 114.37 32.26 114.37 32.25 114.37 32.24"/><polygon class="cls-5" points="114.4 32.25 114.39 32.25 114.39 32.23 114.38 32.23 114.38 32.26 114.4 32.26 114.4 32.25"/><path class="cls-5" d="M114.42,32.25h0a0,0,0,0,0,0,0,0,0,0,0,0,0,0h0Zm0,0Z"/><path class="cls-5" d="M114.44,32.26v0h0a0,0,0,0,0,0,0h0Z"/><path class="cls-5" d="M114.46,32.25h0s0,0,0,0a0,0,0,0,0,0,0h0Zm0,0Z"/><polygon class="cls-5" points="114.5 32.26 114.5 32.23 114.5 32.23 114.49 32.25 114.48 32.23 114.48 32.23 114.48 32.26 114.48 32.26 114.48 32.24 114.48 32.24 114.49 32.26 114.49 32.26 114.5 32.24 114.5 32.24 114.5 32.26 114.5 32.26"/><path class="cls-5" d="M114.53,32.26v0h0v0h0Zm0,0Z"/><path class="cls-5" d="M114.55,32.25h0s0,0,0,0h0Z"/><polygon class="cls-5" points="114.57 32.23 114.55 32.23 114.55 32.23 114.56 32.23 114.56 32.26 114.56 32.26 114.56 32.23 114.57 32.23 114.57 32.23"/><polygon class="cls-5" points="114.59 32.25 114.58 32.25 114.58 32.24 114.58 32.24 114.58 32.24 114.58 32.24 114.58 32.23 114.58 32.23 114.59 32.23 114.57 32.23 114.57 32.26 114.59 32.26 114.59 32.25"/><path class="cls-5" d="M114.61,32.26h0a0,0,0,0,0,0,0h0v0h0Zm0,0Z"/><path class="cls-6" d="M38.92,10.06a2.83,2.83,0,0,1,2.95-2.91,2.65,2.65,0,0,1,2.26,1.17l-.8.46A1.84,1.84,0,0,0,41.87,8a1.92,1.92,0,0,0-1.94,2,1.93,1.93,0,0,0,1.94,2,2,2,0,0,0,1.33-.51v-.86H41.52V9.85h2.66V12a3.05,3.05,0,0,1-2.31,1A2.84,2.84,0,0,1,38.92,10.06Z"/><path class="cls-6" d="M45.4,12.86V7.25h3.84v.86H46.38V9.56h2.8v.87h-2.8V12h2.86v.86Z"/><path class="cls-6" d="M52,12.86V8.11h-1.7V7.25h4.39v.86H53v4.75Z"/><path class="cls-6" d="M58.08,12.86V7.25h1v5.61Z"/><path class="cls-6" d="M61.81,12.86V8.11h-1.7V7.25h4.38v.86h-1.7v4.75Z"/><path class="cls-6" d="M67.67,10.06a2.88,2.88,0,1,1,5.75,0,2.88,2.88,0,1,1-5.75,0Zm4.74,0a1.87,1.87,0,1,0-3.72,0,1.87,1.87,0,1,0,3.72,0Z"/><path class="cls-6" d="M78.48,12.86l-2.93-4v4h-1V7.25h1l2.87,3.89V7.25h1v5.61Z"/></svg>