<svg id="Badges" xmlns="http://www.w3.org/2000/svg" xmlns:xlink="http://www.w3.org/1999/xlink" viewBox="0 0 128 40"><defs><style>.cls-1,.cls-2,.cls-3,.cls-4,.cls-5{fill-rule:evenodd;}.cls-1{fill:url(#GradientFill_1);}.cls-2{fill:url(#GradientFill_2);}.cls-3{fill:url(#GradientFill_3);}.cls-4{fill:url(#GradientFill_4);}.cls-5,.cls-6{fill:#fff;}</style><linearGradient id="GradientFill_1" x1="16.27" y1="50.57" x2="21.87" y2="73.56" gradientUnits="userSpaceOnUse"><stop offset="0" stop-color="#006884"/><stop offset="1" stop-color="#8ad1d0"/></linearGradient><linearGradient id="GradientFill_2" x1="9.44" y1="53.84" x2="24.7" y2="62.09" gradientUnits="userSpaceOnUse"><stop offset="0" stop-color="#24bbb6"/><stop offset="1" stop-color="#dbe692"/></linearGradient><linearGradient id="GradientFill_3" x1="26.99" y1="67.62" x2="26.99" y2="59.67" gradientUnits="userSpaceOnUse"><stop offset="0" stop-color="#fcc072"/><stop offset="1" stop-color="#f58a5b"/></linearGradient><linearGradient id="GradientFill_4" x1="12.39" y1="77.27" x2="24.45" y2="65" gradientUnits="userSpaceOnUse"><stop offset="0" stop-color="#712b8f"/><stop offset="1" stop-color="#ea1d27"/></linearGradient></defs><title>google-play-badge</title><rect width="128" height="40" rx="4"/><path class="cls-1" d="M9.77,63.6V53.08a1.13,1.13,0,0,1,1-1.12,1.79,1.79,0,0,1,.95.27l19.3,10.55a.85.85,0,0,1,0,1.64L11.76,75a1.79,1.79,0,0,1-.95.27,1.13,1.13,0,0,1-1-1.11Z" transform="translate(0 -44)"/><path class="cls-2" d="M22.31,63.67,10.63,52l.18,0a1.79,1.79,0,0,1,.95.27L26,60Z" transform="translate(0 -44)"/><path class="cls-3" d="M25.89,67.25l-3.58-3.58L26,60l5.08,2.78a.85.85,0,0,1,0,1.64Z" transform="translate(0 -44)"/><path class="cls-4" d="M10.75,75.23h0L22.31,63.67l3.58,3.58L11.76,75a1.79,1.79,0,0,1-.95.27Z" transform="translate(0 -44)"/><path class="cls-5" d="M71.11,77.86A5.83,5.83,0,0,1,70,76.34l1.61-.69a3.63,3.63,0,0,0,.5.76,2.18,2.18,0,0,0,3.34,0,2.87,2.87,0,0,0,.46-1.68v-.63c-1.15,1.48-3.67,1.27-5.07-.26a4.44,4.44,0,0,1,0-5.93,3.48,3.48,0,0,1,5-.26h0V66.9h1.75v7.59a3.8,3.8,0,0,1-3.94,4.33,3.86,3.86,0,0,1-2.61-1Zm41.85.41h0l1.69-4-3-6.92h1.69l2.13,4.93,2.08-4.93h1.7l-4.61,10.91Zm-8.07-3.81h0a2.7,2.7,0,0,1-.75-1.85,2.37,2.37,0,0,1,.62-1.63,3.75,3.75,0,0,1,2.8-1,3.66,3.66,0,0,1,1.8.41,1.63,1.63,0,0,0-1.76-1.68,1.7,1.7,0,0,0-1.66,1.07l-1.53-.62a3.16,3.16,0,0,1,3.15-2A3.25,3.25,0,0,1,111,70.78V75h-1.67v-.75a2.88,2.88,0,0,1-.91.72,3.2,3.2,0,0,1-1.39.28,3.16,3.16,0,0,1-2.15-.77ZM51.62,70.85h0a4.16,4.16,0,1,1,4.16,4.2,4.16,4.16,0,0,1-4.16-4.2Zm9,0h0a4.16,4.16,0,1,1,4.16,4.2,4.16,4.16,0,0,1-4.16-4.2Zm-20.3,2.21h0a6.5,6.5,0,0,1,9.09-9.28l-1.25,1.3a4.54,4.54,0,0,0-6.44.08,4.83,4.83,0,0,0,0,6.68,4.6,4.6,0,0,0,6.58.11,3.88,3.88,0,0,0,.94-2.24H45V67.93h5.93A7.6,7.6,0,0,1,51,69.28a6,6,0,0,1-1.61,4A5.91,5.91,0,0,1,45.08,75a6.76,6.76,0,0,1-4.73-2Zm42.23.75h0a4.54,4.54,0,0,1,0-6,3.65,3.65,0,0,1,5.45,0,6.45,6.45,0,0,1,1.07,1.93l-5.55,2.33a2.16,2.16,0,0,0,2,1.28,2.3,2.3,0,0,0,2.08-1.16l1.45,1h0c-.17.22-.37.44-.53.61a4.2,4.2,0,0,1-5.94,0ZM93,75h0V63.93h3.56a3.53,3.53,0,0,1,3.76,3.35,3.39,3.39,0,0,1-3.43,3.34h-2.2V75Zm8.42,0h0V63.93h1.69V75ZM78.84,74.8h0V62.43h1.85V74.8Zm30.51-3.06h0a3,3,0,0,0-1.59-.4c-1.2,0-1.88.6-1.88,1.27a1.22,1.22,0,0,0,1.37,1.1,2.11,2.11,0,0,0,2.1-2ZM58.1,70.85h0a2.33,2.33,0,1,0-2.32,2.54,2.43,2.43,0,0,0,2.32-2.54Zm9,0h0a2.33,2.33,0,1,0-2.32,2.54,2.43,2.43,0,0,0,2.32-2.54Zm8.82.77h0a2.28,2.28,0,0,0,.07-.3v0a2.22,2.22,0,0,0,0-.45,3,3,0,0,0,0-.42.2.2,0,0,0,0,0,2.22,2.22,0,0,0-.09-.37,2.29,2.29,0,0,0-2.13-1.67,2.55,2.55,0,0,0,0,5.06A2.32,2.32,0,0,0,76,71.62Zm7.32-.92h0L87,69.14a1.69,1.69,0,0,0-1.53-.87,2.32,2.32,0,0,0-2.17,2.43ZM98.6,67.31h0a1.77,1.77,0,0,0-1.89-1.74h-2v3.49h2.12A1.76,1.76,0,0,0,98.6,67.31Z" transform="translate(0 -44)"/><polygon class="cls-5" points="114.25 32.26 114.25 32.25 114.25 32.25 114.25 32.25 114.25 32.24 114.25 32.24 114.25 32.24 114.25 32.24 114.25 32.24 114.24 32.24 114.24 32.25 114.25 32.26 114.25 32.26"/><path class="cls-5" d="M114.27,76.26h0v0h0Zm0,0Z" transform="translate(0 -44)"/><polygon class="cls-5" points="114.28 32.25 114.27 32.25 114.27 32.25 114.28 32.25 114.28 32.25 114.27 32.25 114.27 32.24 114.28 32.24 114.28 32.24 114.27 32.24 114.27 32.26 114.28 32.26 114.28 32.25"/><path class="cls-5" d="M114.3,76.26v0h0v0h0Zm0,0Z" transform="translate(0 -44)"/><polygon class="cls-5" points="114.31 32.24 114.3 32.24 114.3 32.24 114.3 32.24 114.3 32.26 114.3 32.26 114.3 32.24 114.31 32.24 114.31 32.24"/><polygon class="cls-5" points="114.32 32.25 114.31 32.25 114.31 32.25 114.32 32.25 114.32 32.25 114.31 32.25 114.31 32.24 114.32 32.24 114.32 32.24 114.31 32.24 114.31 32.26 114.32 32.26 114.32 32.25"/><path class="cls-5" d="M114.34,76.25h0v0h0Zm0,0Z" transform="translate(0 -44)"/><path class="cls-5" d="M114.36,76.25h0v0h0Zm0,0Zm0,0Z" transform="translate(0 -44)"/><polygon class="cls-5" points="114.37 32.24 114.37 32.24 114.37 32.24 114.37 32.25 114.36 32.24 114.36 32.24 114.36 32.24 114.36 32.25 114.36 32.26 114.37 32.26 114.37 32.25 114.37 32.24"/><polygon class="cls-5" points="114.4 32.25 114.39 32.25 114.39 32.23 114.38 32.23 114.38 32.26 114.4 32.26 114.4 32.25"/><path class="cls-5" d="M114.42,76.25h0Zm0,0Z" transform="translate(0 -44)"/><path class="cls-5" d="M114.44,76.26v0h0Z" transform="translate(0 -44)"/><path class="cls-5" d="M114.46,76.25h0a0,0,0,0,0,0,0Zm0,0Z" transform="translate(0 -44)"/><polygon class="cls-5" points="114.5 32.26 114.5 32.23 114.5 32.23 114.49 32.25 114.48 32.23 114.48 32.23 114.48 32.26 114.48 32.26 114.48 32.24 114.48 32.24 114.49 32.26 114.49 32.26 114.5 32.24 114.5 32.24 114.5 32.26 114.5 32.26"/><path class="cls-5" d="M114.53,76.26v0h0v0h0Zm0,0Z" transform="translate(0 -44)"/><path class="cls-5" d="M114.55,76.25h0Z" transform="translate(0 -44)"/><polygon class="cls-5" points="114.57 32.23 114.55 32.23 114.55 32.23 114.56 32.23 114.56 32.26 114.56 32.26 114.56 32.23 114.57 32.23 114.57 32.23"/><polygon class="cls-5" points="114.59 32.25 114.58 32.25 114.58 32.24 114.58 32.24 114.58 32.24 114.58 32.24 114.58 32.23 114.58 32.23 114.59 32.23 114.57 32.23 114.57 32.26 114.59 32.26 114.59 32.25"/><path class="cls-5" d="M114.61,76.26h0v0h0Zm0,0Z" transform="translate(0 -44)"/><path class="cls-6" d="M41.77,56.82A2.89,2.89,0,0,1,39.64,56a3,3,0,0,1-.85-2.14,2.93,2.93,0,0,1,.85-2.13,2.9,2.9,0,0,1,2.13-.86,2.65,2.65,0,0,1,2.1.93l-.52.52a2,2,0,0,0-1.58-.75,2.14,2.14,0,0,0-1.59.64,2.48,2.48,0,0,0,0,3.3,2.18,2.18,0,0,0,1.59.64,2.24,2.24,0,0,0,1.74-.84l.53.52a2.78,2.78,0,0,1-1,.75A3,3,0,0,1,41.77,56.82Z" transform="translate(0 -44)"/><path class="cls-6" d="M50.43,53.83A2.92,2.92,0,0,1,49.59,56a3,3,0,0,1-4.2,0,3.12,3.12,0,0,1,0-4.26,2.86,2.86,0,0,1,2.1-.86,2.83,2.83,0,0,1,2.1.87A2.91,2.91,0,0,1,50.43,53.83Zm-5.13,0a2.29,2.29,0,0,0,.62,1.64,2.12,2.12,0,0,0,1.57.65,2.1,2.1,0,0,0,1.56-.65,2.45,2.45,0,0,0,0-3.28,2.1,2.1,0,0,0-1.56-.65,2.12,2.12,0,0,0-1.57.65A2.29,2.29,0,0,0,45.3,53.83Z" transform="translate(0 -44)"/><path class="cls-6" d="M52,56.69h-.73V51H52l2,3.48h0l2-3.48h.73v5.72h-.73v-3.4l0-1h0l-1.79,3.15h-.44L52,52.33h0l0,1Z" transform="translate(0 -44)"/><path class="cls-6" d="M58.68,56.69H58V51h.73Z" transform="translate(0 -44)"/><path class="cls-6" d="M60.57,56.69h-.74V51h.9l2.78,4.45h0l0-1.1V51h.74v5.72h-.77L60.57,52h0l0,1.11Z" transform="translate(0 -44)"/><path class="cls-6" d="M70.83,54.06A2.55,2.55,0,0,1,70.12,56a2.73,2.73,0,0,1-2.1.85,3,3,0,1,1,0-6,3.15,3.15,0,0,1,1.19.22,2.43,2.43,0,0,1,.92.63l-.53.53a1.75,1.75,0,0,0-.68-.5,2.26,2.26,0,0,0-.9-.18,2.18,2.18,0,0,0-1.59.65,2.42,2.42,0,0,0,0,3.28,2.18,2.18,0,0,0,1.59.65,2.12,2.12,0,0,0,1.42-.48,1.92,1.92,0,0,0,.66-1.32H68v-.69h2.77A2.15,2.15,0,0,1,70.83,54.06Z" transform="translate(0 -44)"/><path class="cls-6" d="M76.79,55.17a1.47,1.47,0,0,1-.56,1.2,2.08,2.08,0,0,1-1.36.45,2,2,0,0,1-2-1.55l.7-.29a1.8,1.8,0,0,0,.2.47,2,2,0,0,0,.3.35,1.14,1.14,0,0,0,.38.23,1.12,1.12,0,0,0,.44.09,1.26,1.26,0,0,0,.82-.26.84.84,0,0,0,.32-.69.82.82,0,0,0-.26-.62,2.45,2.45,0,0,0-.93-.48,9.13,9.13,0,0,1-.85-.34,1.47,1.47,0,0,1-.92-1.36,1.36,1.36,0,0,1,.51-1.08,1.83,1.83,0,0,1,1.25-.45,2,2,0,0,1,1.14.33,1.61,1.61,0,0,1,.64.83l-.69.29a1,1,0,0,0-.38-.54,1.23,1.23,0,0,0-1.42,0,.7.7,0,0,0-.29.59.67.67,0,0,0,.23.51,4.19,4.19,0,0,0,1.11.51,2.85,2.85,0,0,1,1.24.72A1.57,1.57,0,0,1,76.79,55.17Z" transform="translate(0 -44)"/><path class="cls-6" d="M83.28,53.83A2.89,2.89,0,0,1,82.43,56a3,3,0,0,1-4.19,0,3.09,3.09,0,0,1,0-4.26,2.86,2.86,0,0,1,2.1-.86,2.79,2.79,0,0,1,2.09.87A2.88,2.88,0,0,1,83.28,53.83Zm-5.13,0a2.25,2.25,0,0,0,.62,1.64,2.21,2.21,0,0,0,3.13,0,2.45,2.45,0,0,0,0-3.28,2.21,2.21,0,0,0-3.13,0A2.25,2.25,0,0,0,78.15,53.83Z" transform="translate(0 -44)"/><path class="cls-6" d="M89.68,53.83A2.89,2.89,0,0,1,88.83,56a3,3,0,0,1-4.19,0,3.09,3.09,0,0,1,0-4.26,2.86,2.86,0,0,1,2.1-.86,2.79,2.79,0,0,1,2.09.87A2.88,2.88,0,0,1,89.68,53.83Zm-5.13,0a2.25,2.25,0,0,0,.62,1.64,2.21,2.21,0,0,0,3.13,0,2.45,2.45,0,0,0,0-3.28,2.21,2.21,0,0,0-3.13,0A2.25,2.25,0,0,0,84.55,53.83Z" transform="translate(0 -44)"/><path class="cls-6" d="M91.29,56.69h-.74V51h.9l2.78,4.45h0l0-1.1V51H95v5.72H94.2L91.29,52h0l0,1.11Z" transform="translate(0 -44)"/></svg>