<svg xmlns="http://www.w3.org/2000/svg" viewBox="0 0 1158.13 763.97"><defs><style>.cls-1{fill:#fee7de;}.cls-2{fill:#262322;}.cls-3{fill:#e6681f;}.cls-4{fill:#bf541f;}.cls-5{fill:#f4b89a;}.cls-6{fill:#302e2d;}.cls-7{fill:#ebebeb;}.cls-8{fill:#ffe8de;}</style></defs><title>Artboard 4</title><g id="Layer_2" data-name="Layer 2"><path class="cls-1" d="M47.83,567.26c-35.85-58.07-36.54-128.71,13.4-167,24.49-18.77,55.84-26.94,80.16-45.93,32.17-25.11,47.9-65.77,57.42-105.46s14.46-81,31.58-118c25.26-54.65,77.4-96.07,136.35-108.31C408.36,13.9,459.82,24.34,477.59,63c8.22,17.87,17.82,24.38,29.49,40.21,18.54,25.13,54.26,22.2,85.27,18.48,50.89-6.11,94.55,5.41,145,14.27S837.61,169,867.21,210.84c47.38,67,38.31,169,102.56,220.07,40.57,32.21,100.54,34.17,137.14,70.83,34.24,34.29,37.08,92.17,14.4,135S1055,708.3,1008.85,723s-95.27,17.06-143.71,18.55c-210,6.48-529.06,1.93-629.53-21S61.76,612.94,47.83,567.26"/><polygon class="cls-2" points="533.72 537.7 532.75 537.47 513.75 417.38 514.73 417.61 533.72 537.7"/><polygon class="cls-2" points="600.45 534.66 618.53 417.4 619.51 417.18 601.43 534.44 600.45 534.66"/><polygon class="cls-2" points="543.93 534.01 542.94 533.86 534.71 414.6 535.7 414.76 543.93 534.01"/><polygon class="cls-2" points="591.1 531.7 599.95 413.27 600.94 413.16 592.1 531.59 591.1 531.7"/><path class="cls-3" d="M514.79,408.31s-89.71-181.79-89.71-236.65S461.16,30.05,566.73,30.05s142.09,79.1,142.09,136-90.5,242.25-90.5,242.25Z"/><path class="cls-4" d="M566.73,30.05c75.41,0,101.56,80.19,101.56,136.81s-64.76,241.45-64.76,241.45h14.79s90.5-185.34,90.5-242.25-36.51-136-142.09-136"/><path class="cls-4" d="M566.73,30.05c15.09,0,20.49,82.38,20.49,138.41S574,408.31,574,408.31h14.79s39-184.33,39-240.65S612,30.05,566.73,30.05"/><path class="cls-4" d="M566.73,30.05c-45.24,0-60.58,84.56-60.58,140s38.22,238.25,38.22,238.25h14.79s-12.48-183.31-12.48-239,5-139.21,20.05-139.21"/><path class="cls-4" d="M566.73,30.05c-105.57,0-141.65,86.75-141.65,141.61s89.71,236.65,89.71,236.65h14.79s-64-182.29-64-237.45S491.32,30.05,566.73,30.05"/><path class="cls-2" d="M683.49,261.11a2.3,2.3,0,0,1-.45-.05c-71.35-16.75-131.12-16.16-168.7-12.72-40.74,3.73-64.9,11.52-65.14,11.6a2,2,0,0,1-1.25-3.8c.25-.08,24.74-8,65.87-11.77,37.91-3.48,98.19-4.09,170.13,12.79a2,2,0,0,1-.46,3.95Z"/><circle class="cls-1" cx="566.95" cy="152.83" r="51.64"/><polygon class="cls-5" points="511.73 408.31 513.42 418.12 619.85 418.12 621.32 408.31 511.73 408.31"/><polygon class="cls-2" points="495.21 548.39 462.68 254.25 463.68 254.16 496.2 548.3 495.21 548.39"/><polygon class="cls-2" points="632.61 562.6 631.62 562.49 669.71 256.1 670.7 256.21 632.61 562.6"/><rect class="cls-2" x="521.3" y="245.73" width="1" height="163.9" transform="translate(-50.11 98.4) rotate(-10.28)"/><rect class="cls-2" x="484.26" y="325.87" width="163.9" height="1" transform="translate(236.53 890.65) rotate(-89.66)"/><rect class="cls-2" x="531.99" y="328.57" width="163.7" height="1" transform="translate(141.7 841.1) rotate(-75.52)"/><polygon class="cls-2" points="483.76 579.37 357.56 553.61 356.73 557.98 483.04 583.11 483.76 579.37"/><polygon class="cls-2" points="368.98 496.94 380.36 562.63 421.41 506.95 394.54 505.4 368.98 496.94"/><polygon class="cls-6" points="383.11 501.53 380.36 562.63 406.59 506.01 394.55 505.32 383.11 501.53"/><polygon class="cls-2" points="392.49 624.84 381.11 559.14 340.06 614.82 366.94 616.38 392.49 624.84"/><polygon class="cls-6" points="378.36 620.25 381.11 559.14 354.88 615.76 366.92 616.45 378.36 620.25"/><path class="cls-2" d="M640,569.55c7.72.24,15.57-1.6,21.78-6.36,6.88-5.28,10.87-13.69,13.66-21.7,3.21-9.18,5.15-18.83,6.94-28.36,1.89-10,8.28-49.54,9.36-59.64A488.67,488.67,0,0,0,694.13,392c-.4-20.75-1.85-41.46-3.85-62.11s-4.54-41.14-7.17-61.67l-1-7.71c-.08-.63-1.08-.63-1,0,2.59,20.16,5.16,40.33,7.27,60.55s3.75,40.47,4.46,60.78a526.23,526.23,0,0,1-1.08,60.23c-1.6,20-9.43,69.59-14.36,89.09-2.26,8.91-5.24,17.86-10.65,25.39a29.47,29.47,0,0,1-20.83,11.73,40.92,40.92,0,0,1-6,.23.5.5,0,0,0,0,1Z"/><path class="cls-2" d="M491.65,549.75c-6.33,4-14.72,2.63-20.83-1.13a20.61,20.61,0,0,1-7.83-8.54c-2.05-4.19-6.38-14.13-7.06-18.7-3.12-20.69-6.77-48.46-8.34-69.33s-1.22-43-1.29-63.95,2.28-38.75,3.7-59.52q2.14-31.49,6.59-62.77.54-3.81,1.11-7.62c.1-.63-.87-.9-1-.27q-4.8,31.75-7.25,63.8c-1.63,21.4-4.15,40-4.2,61.43s-.48,44.4,1.07,65.89c1.54,21.26,5.2,49.41,8.29,70.5,1.25,8.49,6.23,22.75,13.41,28.37,5.36,4.21,12.89,6.43,19.6,4.67a15.82,15.82,0,0,0,4.5-2c.54-.35,0-1.21-.51-.87Z"/><path class="cls-6" d="M644.33,91.81a33.23,33.23,0,0,0,15.89,13.29c.59.24.85-.73.26-1A32.13,32.13,0,0,1,645.19,91.3c-.33-.54-1.2,0-.86.51Z"/><path class="cls-6" d="M644.13,95.48l4.6-3.33a.5.5,0,1,0-.51-.87l-4.6,3.33a.54.54,0,0,0-.18.69.52.52,0,0,0,.69.18Z"/><path class="cls-6" d="M645.86,98.1A18.57,18.57,0,0,0,652,92.75a.51.51,0,0,0-.18-.68.51.51,0,0,0-.69.18,17.22,17.22,0,0,1-5.78,5c-.57.31-.06,1.17.51.87Z"/><path class="cls-6" d="M648.34,101.41l4.43-3.74a.51.51,0,0,0,0-.71.5.5,0,0,0-.71,0l-4.43,3.74a.5.5,0,0,0,0,.71.52.52,0,0,0,.71,0Z"/><path class="cls-6" d="M651.92,103.9l4.75-5.05c.44-.47-.26-1.18-.71-.71l-4.75,5c-.44.47.27,1.18.71.71Z"/><path class="cls-6" d="M656,106.08a14.56,14.56,0,0,0,5.83-6.21c.28-.58-.58-1.09-.86-.51a13.76,13.76,0,0,1-5.47,5.86.5.5,0,0,0,.5.86Z"/><path class="cls-5" d="M484.75,93.93c2.89-2.06,9-4.15,10.88-2.72s.31,11.41-2.18,14.34-13.36,6.62-14.91,6.64S482.68,95.4,484.75,93.93Z"/><path class="cls-5" d="M666.1,214.78c-2.47-2.55-12.18-9.69-14.28-8.63s-2.39,11.17-.48,14.5S664,232,665.47,232.31,667.87,216.61,666.1,214.78Z"/><path class="cls-4" d="M487.36,118.58s1.28-12.27,3.29-14.29,8.7-2.18,10-1.25,0,9.48-1.09,10.41S488.73,118.89,487.36,118.58Z"/><path class="cls-2" d="M435.68,156.93a66.48,66.48,0,0,0,1.38,20.62,67.83,67.83,0,0,0,7.53,19.15,65.7,65.7,0,0,0,6.78,9.54c.42.49,1.12-.22.7-.71a66.33,66.33,0,0,1-15.43-37.13,65.58,65.58,0,0,1,0-11.47c.06-.65-.94-.64-1,0Z"/><path class="cls-2" d="M617,402a10.32,10.32,0,0,0-1.11,4.32.5.5,0,1,0,1,0,9.28,9.28,0,0,1,1-3.82.5.5,0,0,0-.87-.5Z"/><path class="cls-2" d="M513.72,401.82l2.86,3.41a.5.5,0,0,0,.71,0,.52.52,0,0,0,0-.71l-2.87-3.41a.49.49,0,0,0-.7,0,.5.5,0,0,0,0,.71Z"/><path class="cls-2" d="M515,396.78a19,19,0,0,1,3.66,9.59c.06.64,1.06.64,1,0a20,20,0,0,0-3.79-10.1c-.38-.51-1.25,0-.87.51Z"/><path class="cls-2" d="M621.1,399.09l1.21-5c.15-.63-.81-.89-1-.27l-1.22,5c-.15.63.82.89,1,.27Z"/><path class="cls-2" d="M546.79,403.29a90.69,90.69,0,0,0,30.26,2.43c.64-.05.64-1.06,0-1a89.88,89.88,0,0,1-30-2.4.5.5,0,0,0-.27,1Z"/><path class="cls-7" d="M522.8,416.33h16.14a.5.5,0,0,0,0-1H522.8a.5.5,0,0,0,0,1Z"/><path class="cls-7" d="M377.85,574.87l-1.7,21.64c0,.64.93.83,1,.19l1.7-21.65c.05-.63-.93-.83-1-.18Z"/><path class="cls-7" d="M363.46,600.06l-1.24,3.86a.51.51,0,0,0,.4.59.5.5,0,0,0,.58-.4l1.24-3.86a.5.5,0,1,0-1-.19Z"/><path class="cls-7" d="M373.19,503.87a21.57,21.57,0,0,0,1,8.52.5.5,0,0,0,.94-.33,20.46,20.46,0,0,1-1-8c.05-.63-.93-.83-1-.19Z"/><path class="cls-7" d="M394.44,509.35l.26-1.37a.5.5,0,0,0-1-.19l-.27,1.37a.52.52,0,0,0,.4.59.53.53,0,0,0,.59-.4Z"/><path class="cls-2" d="M373.66,495.31l18,6.08c.6.2,1.05-.69.44-.9l-18-6.08c-.6-.2-1.05.69-.44.9Z"/><path class="cls-2" d="M397.25,502.31l8.46.2c.64,0,.56-1-.08-1l-8.46-.2c-.64,0-.56,1,.08,1Z"/><path class="cls-2" d="M386.51,496.27l5.61,1.78a.5.5,0,0,0,.59-.39.52.52,0,0,0-.4-.59l-5.61-1.79a.5.5,0,0,0-.58.4.52.52,0,0,0,.39.59Z"/><path class="cls-2" d="M350.4,622l9.93-.86a.5.5,0,0,0-.08-1l-9.94.86a.5.5,0,0,0,.09,1Z"/><path class="cls-2" d="M369.29,621.81l12.08,6.54c.57.31,1-.59.44-.9l-12.07-6.54c-.57-.3-1,.6-.45.9Z"/><path class="cls-7" d="M484.05,67A44.89,44.89,0,0,1,501.92,49.5c.57-.3.06-1.16-.5-.86a45.86,45.86,0,0,0-18.24,17.82.5.5,0,0,0,.87.51Z"/><path class="cls-7" d="M651.43,58.32l6.16,4.11c.54.36,1-.51.51-.86l-6.17-4.11c-.54-.36-1,.51-.5.86Z"/><path class="cls-7" d="M538,46.15a139.51,139.51,0,0,1,64.88,1.39.5.5,0,0,0,.26-1A141,141,0,0,0,552,42.85a138.5,138.5,0,0,0-14.31,2.34c-.63.13-.37,1.1.26,1Z"/><path class="cls-3" d="M404.74,527.27a28.84,28.84,0,0,1,4.43-5.47c.46-.45-.3-1.11-.75-.66a29.11,29.11,0,0,0-4.57,5.69.5.5,0,1,0,.89.44Z"/><path class="cls-3" d="M360.73,607l-.64,2.57a.5.5,0,1,0,1,.19l.64-2.57a.5.5,0,0,0-1-.19Z"/><path class="cls-3" d="M369.21,624.74l1.85,1a.5.5,0,1,0,.44-.89l-1.85-1a.5.5,0,0,0-.67.23.51.51,0,0,0,.23.67Z"/><path class="cls-3" d="M677.89,553.53c4.9-9.73,8.37-20.38,9.1-31.31a60.36,60.36,0,0,0-.06-9c-.06-.64-1-.49-1,.15.89,10.75-1.37,21.56-5.28,31.54-1.1,2.82-2.34,5.57-3.7,8.27-.29.58.64.94.93.37Z"/><path class="cls-2" d="M689.42,535.09A21.44,21.44,0,0,0,691,525.4c0-.65-1-.49-1,.15a20.3,20.3,0,0,1-1.53,9.17c-.25.59.68,1,.93.37Z"/><path class="cls-3" d="M461.4,517.76c1.09,7.28,3.32,15.14,8.61,20.53.45.46,1.16-.25.71-.71-5.16-5.27-7.29-13-8.36-20.09-.1-.63-1.06-.36-1,.27Z"/><path class="cls-2" d="M649.05,222.78l18.36,10.31c.56.32,1.07-.55.5-.86l-18.35-10.32a.5.5,0,0,0-.51.87Z"/><path class="cls-2" d="M665.89,232.44l1.42-17c.06-.64-.94-.63-1,0l-1.42,17c-.06.64.94.63,1,0Z"/><path class="cls-2" d="M488.48,104l-1.21,15.66c0,.64,1,.64,1,0L489.48,104c0-.64-1-.64-1,0Z"/><path class="cls-2" d="M489.2,103.18l14.59,1.66c.63.08.63-.92,0-1l-14.59-1.66c-.64-.07-.63.93,0,1Z"/><path class="cls-2" d="M501,103.86l-1,5.43a.51.51,0,0,0,.35.61.5.5,0,0,0,.61-.35l1.05-5.42a.52.52,0,0,0-.35-.62.51.51,0,0,0-.62.35Z"/><path class="cls-2" d="M498,115.13a21.71,21.71,0,0,0-14.31,4.62c-.51.39.2,1.1.71.71a20.68,20.68,0,0,1,13.6-4.33c.64,0,.64-1,0-1Z"/><path class="cls-2" d="M479.62,108.17,483,98.43c.21-.61-.76-.87-1-.26l-3.34,9.74c-.21.61.76.87,1,.26Z"/><path class="cls-2" d="M477.81,112.6l10.79-4.4c.59-.24.33-1.21-.26-1l-10.8,4.4c-.58.24-.33,1.21.27,1Z"/><path class="cls-2" d="M495.69,92.6l-1.29,10.84c-.08.64.92.64,1,0l1.29-10.84c.07-.64-.93-.64-1,0Z"/><path class="cls-2" d="M494.8,89.33l-9.6,2.23c-.62.15-.36,1.11.27,1l9.6-2.24c.63-.15.36-1.11-.27-1Z"/><path class="cls-3" d="M852,612.91l72.94.53,72.94.53,41,.3a1.5,1.5,0,0,0,0-3l-72.94-.53L893,610.21l-41-.3a1.5,1.5,0,0,0,0,3Z"/><path class="cls-3" d="M851.36,606.17c-2.9-15,5.52-30.36,18.11-38.31,14.15-9,31.93-9.49,47.69-5.06A108.61,108.61,0,0,1,944,574.92c1.65,1,3.16-1.59,1.51-2.59-15.37-9.33-33-16.32-51.33-15.16-16.7,1.07-33,9-41.31,24.05A38.47,38.47,0,0,0,848.47,607c.37,1.89,3.26,1.09,2.89-.8Z"/><path class="cls-3" d="M943.58,572.23a32.15,32.15,0,0,1,38.3-27.61c9.25,1.89,17.16,7.57,24.16,13.64a140,140,0,0,1,19.09,20.16,141.77,141.77,0,0,1,16.4,27c.81,1.75,3.4.23,2.59-1.52a143.67,143.67,0,0,0-35-46.91c-7.28-6.42-15.43-12.52-25-14.92a35.16,35.16,0,0,0-43.44,29.38,1.57,1.57,0,0,0,1.05,1.85,1.52,1.52,0,0,0,1.85-1Z"/><path class="cls-3" d="M77.32,410.17q25.43-1,50.89-1.39,26.19-.4,52.39-.21,26.63.19,53.25,1,26.39.76,52.74,2.12,25.44,1.3,50.84,3.22l6.24.49c1.93.15,1.92-2.85,0-3q-25.38-2-50.79-3.38-26.16-1.42-52.35-2.25-26.62-.84-53.25-1.11-26.39-.25-52.78.06Q109,406,83.57,406.93l-6.25.24c-1.93.08-1.94,3.08,0,3Z"/><path class="cls-3" d="M348.55,415.58A66.09,66.09,0,0,0,338,376.35,65.58,65.58,0,0,0,284.05,347a1.5,1.5,0,0,0,0,3,63.25,63.25,0,0,1,36.39,12.17,61.75,61.75,0,0,1,22.34,31.47,62.76,62.76,0,0,1,2.77,22c-.1,1.93,2.9,1.92,3,0Z"/><path class="cls-3" d="M285.51,362.93a159.66,159.66,0,0,0-21.46-35.32,158,158,0,0,0-29.88-28.69c-11.49-8.42-24.65-15.22-38.95-17a52.79,52.79,0,0,0-35.64,8.57,55.19,55.19,0,0,0-21.88,27.91c-.48,1.41-.89,2.85-1.23,4.29-.45,1.88,2.44,2.68,2.89.8,5.51-22.95,28.07-40,51.66-38.93,14,.64,27.12,6.89,38.49,14.7a151.37,151.37,0,0,1,29.55,27,157.62,157.62,0,0,1,23.86,38.2c.77,1.77,3.36.24,2.59-1.51Z"/><path class="cls-3" d="M71.85,404.11c1.15-19.44,2.4-40,12.85-57a49.89,49.89,0,0,1,17.49-17.54,35.41,35.41,0,0,1,22.19-4.37c8.22,1.1,16.12,5.23,20.67,12.32,1,1.62,3.64.12,2.59-1.52-8.9-13.87-28.22-17.31-42.76-11.1-17.25,7.38-27.34,25.1-31.62,42.6-2.94,12-3.68,24.34-4.41,36.6-.12,1.92,2.88,1.92,3,0Z"/><path class="cls-5" d="M260.21,466.09c-12.37-7.83-28-11-42-6.9a42.25,42.25,0,0,0-25.86,21.43,27.16,27.16,0,0,0-25,2.55c-8.32,5.68-11.17,19-9.44,28.91,35.24-1.25,96-4.3,131.26-5.55C286.61,491.12,272.58,473.92,260.21,466.09Z"/><path class="cls-5" d="M905.47,328.33a61.54,61.54,0,0,0-41.44-3.6,30.47,30.47,0,0,0-15.7-20.08c-11.3-5.77-24.91-5.07-37.19-1.84-7.28,1.92-14.49,4.77-20.16,9.72a28,28,0,0,0-7.44,10.21c-8.76-4-22.8-2.58-29.94,3.87A25.47,25.47,0,0,0,746.69,353c43.06-.83,141.89,3.12,188.32,4.83A61.51,61.51,0,0,0,905.47,328.33Z"/><path class="cls-1" d="M842,311.69l.38,0s.42.06.18,0l.23,0,.32.07c.21.05.41.11.62.18l.3.11c.32.11-.23-.11,0,0a10,10,0,0,1,1.24.68,2.48,2.48,0,0,1,.26.19c.31.21-.24-.21.05,0s.36.3.53.46.33.33.49.51l.21.25.07.08,0,0a3.68,3.68,0,0,0,.37.53c.12.2.24.41.35.62s.09.19.14.29c.16.35-.06-.2,0,.09s.15.4.21.61.11.42.16.63.08.24.06.32c0-.22,0-.25,0-.08l0,.22a1.5,1.5,0,0,0,3,0,9.8,9.8,0,0,0-9.23-8.85,1.5,1.5,0,0,0,0,3Z"/><path class="cls-1" d="M211.39,481.59a20.75,20.75,0,0,1,20.75-12.28c1.92.18,1.91-2.82,0-3a23.75,23.75,0,0,0-23.64,14.48,1.49,1.49,0,0,0,1,1.84,1.54,1.54,0,0,0,1.85-1Z"/><path class="cls-2" d="M876,584.87a28.71,28.71,0,0,1,29.14-6.36c1.82.65,2.61-2.25.79-2.89a31.67,31.67,0,0,0-32.05,7.13c-1.39,1.35.73,3.47,2.12,2.12Z"/><path class="cls-2" d="M184.17,311.05a51.39,51.39,0,0,1,36,16.22,48.84,48.84,0,0,1,6.87,9.35,1.5,1.5,0,0,0,2.59-1.52,54.43,54.43,0,0,0-33.34-25.39,52.56,52.56,0,0,0-12.09-1.66c-1.93,0-1.93,3,0,3Z"/><path class="cls-7" d="M592.78,293.73a143.73,143.73,0,0,1-1.28,31.43c-.45,2.92-1,5.82-1.61,8.71-.13.63.83.89,1,.26a145,145,0,0,0,3.26-31.43c0-3-.14-6-.34-9,0-.64-1-.64-1,0Z"/><polygon class="cls-4" points="716.35 637.59 454.56 608.09 451.1 603.75 493.39 575.96 692.1 600.77 716.35 637.59"/><path class="cls-3" d="M717.22,641c2.28.25,6.41-2.17,5.43-14.88S712.21,596.21,693,586.19s-51.31-13.37-51.31-13.37-6.4-7.59-9-12.79c-2.76-5.6-5.93-14.44-8.76-16.83s-26.22-12.45-56.82-15-51.56,1.09-68.4,9.55S467.57,557,464.09,560.23s-15.85,15.12-25.2,30.64-13,18.56-11.49,19.25,14.7,1.31,27-2.48,16.6-9.52,21.39-16.75,23.95-7.31,32.33-2,13.73,17.6,12.38,28S530.2,620,530.2,620l114.7,14.48s3.54.74,5.5-4.39,10.37-27.66,29.23-25,22.88,16.78,26,25.88S714.94,640.75,717.22,641Z"/><path class="cls-4" d="M692.13,599.47l.73-1.11c-.21-.14-21-13.41-81-20.43-8.45-1-16.4-1.94-23.9-2.84-47.09-5.67-75.5-9.09-96.93-5l.25,1.31c21.22-4,49.57-.61,96.52,5,7.5.9,15.45,1.86,23.9,2.84C671.32,586.23,691.93,599.34,692.13,599.47Z"/><path class="cls-2" d="M460.63,583.53c.21-.18,21.41-18.46,25.5-21.84s18.66-13.13,27.75-18.06c8.89-4.81,32.21-7.17,43-6.36,10,.76,42.17,5.33,53,8.43,10.48,3,12.67,6.53,17,13.57a72.34,72.34,0,0,1,4.65,9.75c2.2,5.25,3.93,9.39,6,8.92,3.22-.73,4.37-4.86,4.42-5l-.64-.17s-1.1,3.92-3.92,4.56c-1.57.35-3.37-4-5.28-8.52a72.62,72.62,0,0,0-4.71-9.85c-4.32-6.95-6.69-10.79-17.41-13.86s-43.06-7.69-53.1-8.45c-10.87-.82-34.38,1.57-43.37,6.44-9.28,5-23.71,14.71-27.85,18.13s-25.3,21.66-25.52,21.85Z"/><rect class="cls-4" x="519.78" y="579.6" width="84.4" height="0.66" transform="translate(-77.23 1073.43) rotate(-83.57)"/><path class="cls-2" d="M675.2,654.15c17.17,1.93,24-10.92,25-20s-6.6-22.09-18.7-23.45-23.67,7.36-25,19.24S661,652.55,675.2,654.15Z"/><path class="cls-7" d="M677.82,636.08a3.62,3.62,0,0,0,4.19-3.35,3.68,3.68,0,0,0-7.32-.7A3.39,3.39,0,0,0,677.82,636.08Z"/><path class="cls-2" d="M491.27,633.07c16.89,1.91,23.63-10.74,24.64-19.65s-6.5-21.73-18.41-23.07-23.29,7.24-24.61,18.94S477.3,631.5,491.27,633.07Z"/><rect class="cls-4" x="611.62" y="604.84" width="47.02" height="1.33" transform="translate(-28.82 1179.27) rotate(-84.47)"/><path class="cls-5" d="M476.9,550.6a200.35,200.35,0,0,1,21.83-12.88q2.88-1.44,5.92-2.69s1.92,2.89,1.73,4.5-21.65,16-24.49,16S476.9,550.61,476.9,550.6Z"/><path class="cls-5" d="M624.63,562.44s-3.69-7.84-7.71-10.54-18.82-6-24.9-7.2-20.07-4.16-21.69-2.1-4.81,23.53-2.59,25.34,57.26,8.78,59.81,6S624.63,562.44,624.63,562.44Z"/><path class="cls-5" d="M558.28,566.87c-1.47.78-47.31-4.47-49.07-6.48a6.75,6.75,0,0,1-.53-8.26c1.91-3.23,16.58-10.12,26-10.88s25.4-1,26.67.77S559.75,566.09,558.28,566.87Z"/><path class="cls-5" d="M637.81,574c-2.29-.26-10-19.77-12.63-22.65-1.11-1.23-.18-3.34.82-5.69,2.15,3.73,4.71,8.76,7.06,13.13,2.12,4,4.89,9.32,7.14,12.21C639.8,572.4,639,574.16,637.81,574Z"/><path class="cls-7" d="M679.47,623.58a.34.34,0,0,0,.37-.29l.9-8a.34.34,0,0,0-.67-.07l-.89,8A.33.33,0,0,0,679.47,623.58Z"/><path class="cls-7" d="M685.59,627a.37.37,0,0,0,.25-.07l6.27-5a.34.34,0,0,0,0-.47.33.33,0,0,0-.47,0l-6.27,5a.33.33,0,0,0,0,.46A.32.32,0,0,0,685.59,627Z"/><path class="cls-7" d="M687.53,633.69l8,.9a.34.34,0,0,0,.37-.3.33.33,0,0,0-.3-.36l-8-.9a.33.33,0,0,0-.36.29A.34.34,0,0,0,687.53,633.69Z"/><path class="cls-7" d="M689.14,646.08a.32.32,0,0,0,.25-.07.33.33,0,0,0,.05-.47l-5-6.27a.33.33,0,0,0-.46,0,.34.34,0,0,0-.06.47l5,6.27A.35.35,0,0,0,689.14,646.08Z"/><path class="cls-7" d="M676.52,649.72a.33.33,0,0,0,.37-.3l.9-8a.33.33,0,1,0-.66-.08l-.9,8A.34.34,0,0,0,676.52,649.72Z"/><path class="cls-7" d="M665,643.36a.31.31,0,0,0,.24-.07l6.27-5a.32.32,0,0,0,.06-.46.34.34,0,0,0-.47-.06l-6.27,5a.33.33,0,0,0-.05.47A.32.32,0,0,0,665,643.36Z"/><path class="cls-7" d="M661.39,630.74l8,.9a.33.33,0,0,0,.37-.29.34.34,0,0,0-.29-.37l-8-.9a.34.34,0,0,0-.37.3A.33.33,0,0,0,661.39,630.74Z"/><path class="cls-7" d="M672.75,625.52a.31.31,0,0,0,.24-.07.33.33,0,0,0,0-.47l-5-6.27a.33.33,0,1,0-.51.42l5,6.27A.35.35,0,0,0,672.75,625.52Z"/><path class="cls-7" d="M493.71,615.33A3.62,3.62,0,0,0,497.9,612a3.68,3.68,0,0,0-7.32-.7A3.39,3.39,0,0,0,493.71,615.33Z"/><path class="cls-7" d="M495.36,602.83a.34.34,0,0,0,.37-.29l.89-8a.33.33,0,0,0-.29-.37.34.34,0,0,0-.37.3l-.89,8A.33.33,0,0,0,495.36,602.83Z"/><path class="cls-7" d="M501.48,606.22a.37.37,0,0,0,.25-.07l6.27-5a.34.34,0,0,0,.05-.47.33.33,0,0,0-.47,0l-6.27,5a.33.33,0,0,0-.05.46A.32.32,0,0,0,501.48,606.22Z"/><path class="cls-7" d="M503.42,612.94l8,.9a.33.33,0,0,0,.07-.66l-8-.9a.33.33,0,0,0-.36.29A.33.33,0,0,0,503.42,612.94Z"/><path class="cls-7" d="M505,625.33a.33.33,0,0,0,.3-.53l-5-6.27a.33.33,0,0,0-.47-.06.34.34,0,0,0-.05.47l5,6.27A.35.35,0,0,0,505,625.33Z"/><path class="cls-7" d="M492.41,629a.33.33,0,0,0,.37-.29l.9-8a.33.33,0,1,0-.66-.08l-.9,8A.34.34,0,0,0,492.41,629Z"/><path class="cls-7" d="M480.92,622.62a.42.42,0,0,0,.24-.07l6.27-5a.34.34,0,0,0,.06-.47A.33.33,0,0,0,487,617l-6.27,5a.32.32,0,0,0-.05.46A.32.32,0,0,0,480.92,622.62Z"/><path class="cls-7" d="M477.28,610l8,.9a.33.33,0,0,0,.08-.66l-8-.9a.34.34,0,0,0-.37.3A.33.33,0,0,0,477.28,610Z"/><path class="cls-7" d="M488.64,604.77a.31.31,0,0,0,.24-.07.33.33,0,0,0,.05-.47l-5-6.27a.33.33,0,0,0-.52.42l5,6.27A.35.35,0,0,0,488.64,604.77Z"/><path class="cls-4" d="M529.18,617.88s3.91-14-4.86-29.24-20.85-19.4-34-19.08-25.37,9.16-28.3,12.19S474.25,572.11,492,572s27.14,11.41,30.2,17.58a60.69,60.69,0,0,1,5.52,29.1Z"/><path class="cls-8" d="M460.34,587.42c-1.72,1.91-5.69,6.87-7.57,6.27s-1.6-3.61-1.52-5.48,1.92-7.23,3.94-7.39,10.64-1.33,11.18-.94S462,585.57,460.34,587.42Z"/><path class="cls-4" d="M711.35,607.62s-23.5-9.9-39.42-9.88-29,14.2-30.92,18.13-6.61,16.22-6.61,16.22-2.12-.76-1.84-4.35,7.59-22.58,21.31-28.28,26.41-4.66,39.59-1,17,6.32,17,6.32Z"/><path class="cls-8" d="M710.15,604.61s4.05.1,5,2.11.13,10-1,11.58-3-1.46-3-1.46Z"/><path class="cls-2" d="M652.22,622.29a26.4,26.4,0,0,1,6.49-10.49,28,28,0,0,1,10.48-6.63A25.28,25.28,0,0,1,681.54,604a27.76,27.76,0,0,1,11.66,4.79,27,27,0,0,1,8.29,9.38c.24.47.47.94.68,1.41a.33.33,0,0,1-.61.27,25.86,25.86,0,0,0-7.56-9.63A27.34,27.34,0,0,0,682.94,605a24.79,24.79,0,0,0-12.1.38,27.08,27.08,0,0,0-10.55,5.87,26.12,26.12,0,0,0-6.94,9.87c-.19.48-.36,1-.52,1.46s-.75.16-.61-.25Z"/><path class="cls-2" d="M520.53,606.13a25.28,25.28,0,0,0-15.47-19.47,29,29,0,0,0-9-2,40.43,40.43,0,0,0-10.81.69c-.42.08-.52-.58-.1-.66A42.1,42.1,0,0,1,495,584a31.07,31.07,0,0,1,9.36,1.7A26.06,26.06,0,0,1,521.19,606a.33.33,0,0,1-.66.1Z"/><path class="cls-3" d="M453.27,590.66a10.88,10.88,0,0,0,2.06-7.36c0-.42.62-.53.65-.1a11.52,11.52,0,0,1-2.18,7.86c-.25.34-.78-.06-.53-.4Z"/><path class="cls-3" d="M461.83,581.79l-2.85.5c-.42.08-.52-.58-.1-.65l2.84-.51a.33.33,0,0,1,.11.66Z"/><path class="cls-3" d="M712.56,615.53a11.12,11.12,0,0,0,.55-6.67c-.1-.42.56-.52.65-.11a11.63,11.63,0,0,1-.58,7,.33.33,0,0,1-.62-.24Z"/><path class="cls-2" d="M714.21,629.17A22.3,22.3,0,0,1,710,619a.33.33,0,0,1,.66-.1,21.58,21.58,0,0,0,4.12,9.89c.26.34-.26.76-.52.41Z"/><path class="cls-7" d="M592.29,550.39a16,16,0,0,1,3.28,6.73c.49,2.2.59,5.61-2.13,6.4s-4.51-2.21-6.6-3.37a2.58,2.58,0,0,0-2-.35,1.54,1.54,0,0,0-1.13,1.21c-.05.61.43,1.13.71,1.63a2,2,0,0,1,.24,1.52,1.21,1.21,0,0,1-1.26.83,3.48,3.48,0,0,1-1.63-.75,1.29,1.29,0,0,0-1.11-.28,1.12,1.12,0,0,0-.63.65,3.07,3.07,0,0,0,.31,2.27c.16.4-.44.67-.6.27-.42-1.06-.83-2.35,0-3.33a1.55,1.55,0,0,1,1.26-.57,3.57,3.57,0,0,1,1.63.77c.43.27,1.32.58,1.42-.19.08-.58-.36-1.1-.64-1.57a2,2,0,0,1,.54-2.76c2.42-1.67,4.7,1.43,6.44,2.66,1,.74,2.51,1.2,3.62.33a4.06,4.06,0,0,0,1.16-3.7,15,15,0,0,0-3.4-8,.33.33,0,0,1,.52-.42Z"/><path class="cls-7" d="M557.06,550.17a16,16,0,0,1-8.47,11.19c-.38.19-.65-.42-.27-.61a15.33,15.33,0,0,0,8.08-10.65c.08-.42.74-.35.66.07Z"/><path class="cls-2" d="M610.41,570.15a47.3,47.3,0,0,0,.45-16.44.33.33,0,0,1,.66-.11,47.9,47.9,0,0,1-.45,16.63c-.08.41-.74.34-.66-.08Z"/><path class="cls-3" d="M554.31,548.13a3.3,3.3,0,0,1-1.8,3.28c-.39.19-.65-.42-.27-.61a2.6,2.6,0,0,0,1.41-2.57c0-.42.61-.53.66-.1Z"/><path class="cls-2" d="M499.08,542.34a1.72,1.72,0,0,1-.38-1.69.34.34,0,0,1,.43-.18.34.34,0,0,1,.19.43l0,0c0,.06,0-.06,0,0l0,.08c0,.06,0,.11,0,.17v0a.25.25,0,0,0,0,.08.57.57,0,0,0,0,.18v0s0-.06,0,0l0,.08.07.16,0,0s0-.06,0,0l0,.06.12.14a.34.34,0,0,1-.05.47.37.37,0,0,1-.25.07.48.48,0,0,1-.22-.12Z"/><path class="cls-2" d="M496.81,544.1a3.14,3.14,0,0,1-1.06-3.35.33.33,0,0,1,.43-.18.34.34,0,0,1,.19.43,2.46,2.46,0,0,0,.83,2.57c.34.26-.05.79-.39.53Z"/><path class="cls-2" d="M494.32,547.14a6,6,0,0,1-1.31-5.57.33.33,0,0,1,.43-.19.34.34,0,0,1,.18.43,5.42,5.42,0,0,0,1.22,4.92c.28.31-.24.73-.52.41Z"/><path class="cls-2" d="M492,549.38a9.92,9.92,0,0,1-2.46-6.4c0-.42.65-.34.66.08a9.24,9.24,0,0,0,2.32,5.91c.29.32-.23.73-.52.41Z"/><path class="cls-7" d="M541.81,529.56A117.91,117.91,0,0,1,576,531.09c3.17.61,6.31,1.36,9.42,2.22.41.12.16.74-.25.62a117.85,117.85,0,0,0-33.56-4.29c-3.22.06-6.44.25-9.64.58-.43,0-.53-.62-.11-.66Z"/><path class="cls-2" d="M583.16,584.91l-1,1a.49.49,0,0,1-.23.11.57.57,0,0,1-.26,0,.64.64,0,0,1-.44-.25.62.62,0,0,1-.14-.49l0-.17a.6.6,0,0,1,.2-.27l1-1a.45.45,0,0,1,.23-.11.57.57,0,0,1,.26,0,.67.67,0,0,1,.58.74l0,.17a.6.6,0,0,1-.2.27Z"/><path class="cls-2" d="M581.56,586.12l-8.47-.93a.66.66,0,0,1,.14-1.32l8.48.93a.66.66,0,0,1-.15,1.32Z"/><path class="cls-2" d="M572.91,585.14a10.85,10.85,0,0,1-2.17-1c-.65-.36-1.29-.74-1.93-1.11a.66.66,0,0,1-.13-.93.69.69,0,0,1,.93-.13l.73.43.51.29h0l.12.06.3.17a10.67,10.67,0,0,0,2.12,1,.67.67,0,0,1,.37.86.69.69,0,0,1-.87.37Z"/><path class="cls-5" d="M524.69,622.32c1.29-2.14,3-4.67,4-5,1.79-.59,104.26,10.87,104.26,10.87s3.26,2.57,2.75,5.1C634.32,635,530.48,623.63,524.69,622.32Z"/><path class="cls-7" d="M687.32,589.49a21.7,21.7,0,0,0-9.57-3.79.33.33,0,0,1,.08-.66,22.38,22.38,0,0,1,9.89,3.92c.35.24-.05.78-.4.53Z"/><path class="cls-7" d="M621.32,547.09a1.83,1.83,0,0,0,1.29-.68,1.94,1.94,0,0,0,.36-.66A1.79,1.79,0,0,0,623,545a.33.33,0,0,1,.65-.1,2.55,2.55,0,0,1-2.26,2.82.34.34,0,0,1-.38-.27.32.32,0,0,1,.27-.38Z"/><path class="cls-7" d="M634.69,565.93a18.5,18.5,0,0,1-1.92-2.88.35.35,0,0,1,.17-.44.33.33,0,0,1,.44.17,17.35,17.35,0,0,0,1.83,2.73.33.33,0,0,1-.52.42Z"/><path class="cls-3" d="M677.11,635a2.88,2.88,0,0,1-1.07-2.5.34.34,0,0,1,.37-.3.34.34,0,0,1,.29.37.86.86,0,0,0,0,.16v.06c0,.07,0,0,0,0a1.43,1.43,0,0,0,0,.29,1.67,1.67,0,0,0,.06.29s0,0,0,0l0,.06s0,.1.05.15.08.17.13.25,0,.06,0,0l0,.06.09.13a1.68,1.68,0,0,0,.18.21l0,0s0,0,0,0l.12.1a.33.33,0,0,1-.39.53Z"/><path class="cls-3" d="M661.07,645.84a16.5,16.5,0,0,1-2.47-5.53c-.1-.41.56-.51.66-.1a15.52,15.52,0,0,0,2.33,5.22c.24.35-.28.76-.52.41Z"/><path class="cls-3" d="M495.53,621.61l-.13,1.74a.34.34,0,0,1-.37.29.33.33,0,0,1-.29-.37l.13-1.73a.33.33,0,0,1,.36-.29.33.33,0,0,1,.3.36Z"/><path class="cls-3" d="M492.27,606.31a5,5,0,0,1,3.47-.46.34.34,0,0,1,.29.37.34.34,0,0,1-.37.29,4.45,4.45,0,0,0-3.12.4.33.33,0,1,1-.27-.6Z"/><path class="cls-5" d="M718.9,643.69s7.06,1.7,7.68-6.12-.26-9.09-2.44-9.34S717.37,638.86,718.9,643.69Z"/><path class="cls-5" d="M432.65,608.15s-7-2-3.67-9.11,4.71-7.78,6.72-6.93S436.36,604.7,432.65,608.15Z"/><path class="cls-7" d="M722.6,640.28a2.85,2.85,0,0,0,1.89-3.21.33.33,0,0,1,.66-.11,3.53,3.53,0,0,1-2.45,4c-.17,0-.35-.12-.38-.28a.34.34,0,0,1,.28-.38Z"/><path class="cls-7" d="M434.34,594.77a31.65,31.65,0,0,0-2.39,6.45c-.1.41-.76.34-.66-.07a32.43,32.43,0,0,1,2.43-6.62c.19-.38.81-.14.62.24Z"/><path class="cls-5" d="M577.44,587.7l-4.7-.78c-.42-.07-.35-.73.07-.66l4.71.78c.42.07.34.73-.08.66Z"/><path class="cls-4" d="M580.22,583.66l-1.66-.19a.34.34,0,0,1-.29-.37.34.34,0,0,1,.37-.29l1.66.19a.34.34,0,0,1,.29.37.34.34,0,0,1-.37.29Z"/><path class="cls-4" d="M643.19,573.91a5.81,5.81,0,0,1-3.09,4.77c-.38.2-.65-.41-.27-.61a5.14,5.14,0,0,0,2.7-4.23c0-.43.68-.35.66.07Z"/><path class="cls-4" d="M630.77,572.86a33.62,33.62,0,0,0-4.38-9.85c-.23-.36.29-.78.52-.42a34.89,34.89,0,0,1,4.52,10.17c.11.41-.55.51-.66.1Z"/><path class="cls-4" d="M480.59,562.71a8.25,8.25,0,0,0-1.17-5.65c-.23-.36.29-.78.52-.41a9,9,0,0,1,1.31,6.14.33.33,0,0,1-.66-.08Z"/><path class="cls-4" d="M435.62,606.16a9.29,9.29,0,0,0,1.73-7.75c-.09-.41.57-.51.66-.1a10,10,0,0,1-1.85,8.25c-.27.33-.8-.06-.54-.4Z"/><path class="cls-4" d="M719.82,631.37a16,16,0,0,0-2.65,6.35c-.08.42-.74.35-.66-.08a16.93,16.93,0,0,1,2.78-6.67c.24-.35.78,0,.53.4Z"/><path class="cls-4" d="M713,623.59a3.74,3.74,0,0,1-.74-2.06.33.33,0,0,1,.66-.1,2.72,2.72,0,0,0,0,.49,2,2,0,0,0,0,.24s0,0,0,.06,0-.05,0,0l0,.13a3.43,3.43,0,0,0,.19.44l.06.11s0,.07,0,0,0,0,0,0l.15.21a.33.33,0,0,1-.06.46.32.32,0,0,1-.46,0Z"/><path class="cls-4" d="M643.87,627.15a3.85,3.85,0,0,1-2.18,2.24A9.67,9.67,0,0,1,638,630a.33.33,0,0,1-.11-.66c1.94-.06,4.64-.23,5.36-2.43.13-.41.75-.16.62.24Z"/><path class="cls-2" d="M593.51,628.12l-20.1-2.36a.33.33,0,0,1,.07-.66l20.1,2.36a.33.33,0,0,1-.07.66Z"/><path class="cls-4" d="M482.2,567.77A85.92,85.92,0,0,1,500.28,564c.43,0,.53.62.11.66a85.48,85.48,0,0,0-17.92,3.73c-.41.13-.68-.47-.27-.6Z"/><path class="cls-4" d="M512.08,537.72a4.43,4.43,0,0,0-.23-4,.33.33,0,1,1,.61-.27,5,5,0,0,1,.23,4.46c-.17.39-.78.15-.61-.24Z"/><path class="cls-4" d="M585.29,603.87a7.44,7.44,0,0,1,14.19-1.22c.74,1.78.57,3.71.52,5.59s.12,3.75,1.45,5.18a2.91,2.91,0,0,0,2.14,1,4.49,4.49,0,0,0,2.15-.86,6.16,6.16,0,0,1,2-.92,2.61,2.61,0,0,1,2.1.55c.74.59,1.23,1.42,1.91,2.07a6.89,6.89,0,0,0,2.39,1.44,7,7,0,0,0,5.52-.33c.38-.2.64.41.26.6a7.67,7.67,0,0,1-8.83-1.44,15.64,15.64,0,0,0-1.7-1.84,2,2,0,0,0-2.16-.19c-1.34.59-2.48,1.76-4.06,1.56a4.51,4.51,0,0,1-3.3-3c-.73-1.75-.5-3.68-.46-5.52a8,8,0,0,0-1.3-5.08,7.22,7.22,0,0,0-3.83-2.67A6.9,6.9,0,0,0,586,604c-.09.41-.76.34-.66-.08Z"/><path class="cls-4" d="M511.81,583.21a17.73,17.73,0,0,0-7.47-2.84,55.84,55.84,0,0,0-9-.92c-1.73,0-3.46,0-5.18.15-.42,0-.53-.63-.1-.66a56.87,56.87,0,0,1,9.32.07,40.66,40.66,0,0,1,8.7,1.59,14.31,14.31,0,0,1,4.15,2.08.33.33,0,0,1-.4.53Z"/><path class="cls-7" d="M558.92,575.17l-15.62-1.56a.33.33,0,0,1,.07-.66L559,574.51a.33.33,0,0,1-.07.66Z"/><path class="cls-7" d="M694.47,607.84a9.29,9.29,0,0,0-5.3-2.46.33.33,0,0,1,.08-.66,9.9,9.9,0,0,1,5.62,2.58c.31.29-.08.83-.4.54Z"/><path class="cls-5" d="M520.12,598.21a16.66,16.66,0,0,0-2.92-5.54c-.27-.34.25-.75.51-.42a17.06,17.06,0,0,1,3,5.69.34.34,0,0,1-.17.44.33.33,0,0,1-.44-.17Z"/><path class="cls-5" d="M576.06,534.46l-5.31-.72c-.42-.06-.35-.72.07-.66l5.32.72a.33.33,0,0,1-.08.66Z"/><path class="cls-7" d="M453.78,575.69a73.72,73.72,0,0,1,9.58-10c.36-.32-.17-.84-.53-.53a73.72,73.72,0,0,0-9.58,10c-.3.38.23.91.53.53Z"/></g></svg>