<svg xmlns="http://www.w3.org/2000/svg" viewBox="0 0 1573.42 397.94"><defs><style>.cls-1{fill:#fee7de;}.cls-2{fill:#262322;}.cls-3{fill:#bf541f;}.cls-4{fill:#f4b89a;}.cls-5{fill:#ebebeb;}.cls-6{fill:#e6681f;}.cls-7{fill:#ffe8de;}</style></defs><title>Artboard 5</title><g id="Layer_4" data-name="Layer 4"><path class="cls-1" d="M142.91,181.63c-20.82,1.11-42.45,2.4-60.51,10S51,214.94,57.31,229.33c7.12,16.32,52.27-.31,52.92,16.79.5,13.3-17,26.94-7.65,38.39,4.25,5.2,13.06,7.69,21.42,7.8s16.47-1.77,24.5-3.44c35.24-7.38,55.6,14.65,92.28,14.12,59.67-.87,119.55,7.43,178.81,2.27,72.67-6.33,103.67-27.91,167.79-53.43,7.84-3.12,16.44-7,18.47-13.25,2.53-7.88-6.58-15.15-15.82-19.71-38.1-18.81-52.46-23.28-98.59-22.53s-95.57.92-133.95-17.59c-15.11-7.29-28.15-17.34-45.4-21.43-16.54-3.91-34.54-1.75-51.56.88A962.48,962.48,0,0,0,131,187.37"/><path class="cls-2" d="M224.77,194.1s-1.11,3.92,1.08,5,14.82.73,17.32-.2,3.8-6.8,3.8-6.8Z"/><path class="cls-3" d="M138.71,116.82c7.63-5.88,106.61-5.87,119.75-2.26s13.7,69,5.71,76.89-119.87,9.37-125,2.18S131.07,122.71,138.71,116.82Z"/><path class="cls-4" d="M253.78,119.91a8,8,0,0,1,.85.19l.41.13.19.07.1,0a7,7,0,0,1,.77.4c.13.08.25.15.37.24l.16.11c.21.14-.1-.09.09.07a7.09,7.09,0,0,1,.65.58l.27.28.15.18c.11.12,0,0,.08.09a8.27,8.27,0,0,1,.46.69c.07.12.14.25.2.38l.11.21c.06.15,0-.06,0,.11a.83.83,0,0,0,1,.54.8.8,0,0,0,.54-1,7.9,7.9,0,0,0-6-4.85.81.81,0,0,0-1,.56.79.79,0,0,0,.56,1Z"/><path class="cls-5" d="M253,179.63l.28-42a.79.79,0,0,0-1.58,0l-.28,42a.79.79,0,0,0,1.58,0Z"/><path class="cls-5" d="M186.81,125.54A324.14,324.14,0,0,1,239,127c1,.11,1-1.47,0-1.58A324.14,324.14,0,0,0,186.79,124c-1,.06-1,1.64,0,1.58Z"/><path class="cls-2" d="M260.82,149.37l.09,11.21a.79.79,0,0,0,1.58,0l-.09-11.21a.79.79,0,0,0-1.58,0Z"/><path class="cls-2" d="M191.2,118.55l22.22-.26a.79.79,0,0,0,0-1.58l-22.22.26a.79.79,0,0,0,0,1.58Z"/><path class="cls-6" d="M235.56,161.53c-2.57-1-3.4-4.19-5.42-5.91a4.58,4.58,0,0,0-5.15-.8c-4.12,2.43,2.27,9.15-3.06,10.23-2.7.55-4.81-1.4-6.7-3-1.72-1.48-3.53-2.84-5.84-3.15a5,5,0,0,0-5.09,2.31c-.74,1.11-1.28,2.44-2.78,2.64s-2.92-.67-4.09-1.44A62.18,62.18,0,0,1,183.26,149c-.63-.78-2,0-1.36.82a68.83,68.83,0,0,0,12.23,12.07c1.93,1.47,4.05,3.21,6.56,3.47s3.69-1.54,5-3.43c1.85-2.69,5.21-1.4,7.32.25,1.93,1.51,3.68,3.5,6.1,4.23a6,6,0,0,0,5.27-.8c1.67-1.3,1.64-3.3,1.17-5.18-.28-1.15-1-2.76-.22-3.84,1-1.4,3.05-.52,4,.41,2.12,2,2.91,4.85,5.81,6,.94.38,1.33-1.15.4-1.53Z"/><path class="cls-2" d="M193.84,117.73s-4.12-4.29-3.35-7.57,18.33-4.83,22.22-2.16-1.88,9.53-1.88,9.53l-3.13,0s5.11-5.22,2.25-5.73-16-.31-16.31.41,2.79,5.45,2.79,5.45Z"/><path class="cls-2" d="M173.69,239c-31.73,0-36.39,4,0,3.26S205.41,239,173.69,239Z"/><path class="cls-2" d="M97.6,265a11.75,11.75,0,0,1-9.19-10,.51.51,0,0,0-.55-.45.5.5,0,0,0-.44.52,13.3,13.3,0,0,0,9.71,12h0a1.07,1.07,0,1,0,.55-2.06Z"/><path class="cls-2" d="M54.21,252.65a11.73,11.73,0,0,1-9.19-10,.5.5,0,0,0-1,.07,13.3,13.3,0,0,0,9.72,12h0a1.07,1.07,0,1,0,.56-2.06Z"/><path class="cls-2" d="M55.2,254.73a13.3,13.3,0,0,0,9.72-12,.5.5,0,0,0-.48-.52.49.49,0,0,0-.51.45,11.76,11.76,0,0,1-9.2,10,1.07,1.07,0,0,0,.38,2.1l.09,0Z"/><path class="cls-2" d="M55.94,262.8a13.31,13.31,0,0,0,9.72-12,.5.5,0,0,0-.48-.51.49.49,0,0,0-.51.44,11.77,11.77,0,0,1-9.2,10,1.07,1.07,0,0,0,.38,2.1l.09,0Z"/><path class="cls-2" d="M39.17,253.36a13.27,13.27,0,0,0,9.71-12,.49.49,0,0,0-.47-.52.5.5,0,0,0-.52.45,11.74,11.74,0,0,1-9.19,10,1.07,1.07,0,0,0,.38,2.1l.08,0Z"/><path class="cls-2" d="M110.85,272.61l-1.77-5a.48.48,0,0,0-.62-.3.47.47,0,0,0-.32.52l.63,5.3a1.07,1.07,0,1,0,2.13-.25A1.55,1.55,0,0,0,110.85,272.61Z"/><path class="cls-2" d="M95.3,270.67a13.45,13.45,0,0,1-2.09-13.31.34.34,0,0,0-.18-.44.35.35,0,0,0-.43.16,14.83,14.83,0,0,0,1,14.88h0a1.07,1.07,0,0,0,1.77-1.2Z"/><path class="cls-2" d="M88.45,271.28a39.15,39.15,0,0,0-2.82-11.93.55.55,0,0,0-1,.38,37.42,37.42,0,0,1,1.73,11.62,1.07,1.07,0,1,0,2.13,0Z"/><path class="cls-2" d="M87.83,276.57a58.26,58.26,0,0,0,11-25.81.51.51,0,0,0-.43-.59.51.51,0,0,0-.58.4,56.63,56.63,0,0,1-11.64,24.68,1.07,1.07,0,1,0,1.65,1.36Z"/><path class="cls-2" d="M54.17,253.51c-.36-2.42-.53-4.91-.8-7.42a36,36,0,0,0-1.45-7.46.45.45,0,0,0-.57-.29.44.44,0,0,0-.29.53c1.15,4.8.65,9.77,1,14.87a1.07,1.07,0,0,0,1.14,1,1.05,1.05,0,0,0,1-1.13A.28.28,0,0,0,54.17,253.51Z"/><path class="cls-2" d="M65.2,258.8a26.79,26.79,0,0,1-6.61-12.66,81.8,81.8,0,0,1-1.78-14.72.37.37,0,0,0-.38-.35.38.38,0,0,0-.35.37,83.44,83.44,0,0,0,1.11,15,34.08,34.08,0,0,0,2.27,7.3,24.27,24.27,0,0,0,4.19,6.52,1.07,1.07,0,1,0,1.58-1.43Z"/><path class="cls-2" d="M116.59,273.61c-1-.36-10-2-13.93-5-2.21-1.67-4.06-3.94-6.66-4.91-3.61-1.35-7.58.16-11.24,1.39s-8,2.07-11.09-.28a16.78,16.78,0,0,1-3.44-4.46,27.6,27.6,0,0,0-27.71-11.7c-6.53,1.28-12.32,4.91-18,8.47-1.65,1-3.52,2.52-3.26,4.46s2.29,2.82,4.11,2.83,3.57-.65,5.39-.76,3.92.61,4.5,2.33c.7,2.08-1.19,4.07-2.94,5.41a14,14,0,0,0-3.19,3,4.37,4.37,0,0,0-.63,4.15c1.13,2.47,4.58,2.48,7.26,2.1L61,277.07a24.92,24.92,0,0,1,6.5-.35c5.62.69,10,5,14.91,7.78A31,31,0,0,0,116.13,282c1.62-1.28,3.11-3.37,2.79-5.15A4.12,4.12,0,0,0,116.59,273.61Z"/><path class="cls-5" d="M42.69,256.2c1.91-.08,5.25.61,5.44,3a2.11,2.11,0,0,1-1.65,2.14c-.37.12-.75.16-1.13.25l6.7,2.57a.82.82,0,0,1,.56,1,.8.8,0,0,1-1,.55l-8.11-3.11a.8.8,0,0,1-.56-1,2.35,2.35,0,0,1,1.67-1.48c.52-.17,1.44-.11,1.83-.55s-.67-1.12-1-1.28a6,6,0,0,0-2.75-.47C41.66,257.85,41.67,256.25,42.69,256.2Z"/><path class="cls-5" d="M86.33,274.15a2,2,0,0,0-1.27-1.76,5.72,5.72,0,0,0-3.07-.31c-2,.15-4.09.29-5.71-1.12-.77-.68.36-1.81,1.14-1.13,1.65,1.45,4.34.47,6.29.61s4.27,1.43,4.22,3.71a.8.8,0,0,1-1.6,0Z"/><path class="cls-6" d="M70.41,258.7l0-.15s-.08-.19,0,0,0,0,0,0a.91.91,0,0,0-.07-.14,4.07,4.07,0,0,0-.31-.49c-.1-.14.12.14,0,.05l-.09-.1c-.06-.08-.13-.15-.19-.22l-.22-.2-.1-.08c-.17-.14.12.08,0,0A3.76,3.76,0,0,0,69,257l-.26-.14-.12-.05c.26.13.12.05,0,0a3.62,3.62,0,0,0-.56-.17l-.26,0c.34.07,0,0-.11,0a1,1,0,0,1,0-2,5.22,5.22,0,0,1,4.66,3.52,1,1,0,0,1-.7,1.23,1,1,0,0,1-1.23-.7Z"/><path class="cls-2" d="M115.49,211.32s-1.06,7,.1,8.77,6.93,2.28,8.08-.09-.11-9.82-.11-9.82Z"/><path class="cls-2" d="M183.35,210.53s1.23,6.93.1,8.78-6.87,2.43-8.08.09-.11-9.82-.11-9.82Z"/><path class="cls-6" d="M103.52,211.59c-7.07-6.9-6.71-96.64-2.31-108.56s83.13-12.67,92.64-5.44S204.72,206.23,196,210.87,110.58,218.49,103.52,211.59Z"/><path class="cls-5" d="M109.09,117.23a516.36,516.36,0,0,0-.44,54.09q.34,7.73.91,15.43c.07.87,1.42.86,1.36,0a516.3,516.3,0,0,1-1.19-54.08q.24-7.74.71-15.45c0-.87-1.3-.85-1.35,0Z"/><path class="cls-5" d="M122.89,107.16l41.1-.78,11.79-.22a.68.68,0,0,0,0-1.35l-41.1.77-11.79.23a.68.68,0,0,0,0,1.35Z"/><path class="cls-2" d="M134.44,99.69l27.41-.48a.68.68,0,0,0,0-1.36l-27.4.49a.68.68,0,0,0,0,1.35Z"/><polygon class="cls-2" points="158.39 98.58 156.36 98.58 156.4 51.55 138.97 51.75 139.71 98.78 137.68 98.81 136.91 49.74 158.43 49.5 158.39 98.58"/><path class="cls-2" d="M132.4,53.2c-1.05-.86-1.65-3.67-.89-4.77s30.68-1.73,32.09-.37,1.73,3.8.05,4.78S133.46,54.07,132.4,53.2Z"/><path class="cls-5" d="M141.2,51.18h4.63a.68.68,0,0,0,0-1.35h-4.63a.68.68,0,1,0,0,1.35Z"/><path class="cls-3" d="M168.18,129.59l-11.81,3.33c-2.76.77-6.16,1.43-8.05,3.81s-1.11,5.84,1.17,7.81a11.41,11.41,0,0,0,4.53,2.21,25.47,25.47,0,0,1,4.57,1.23c1.22.6,1.95,1.72,1.23,3a6.48,6.48,0,0,1-3.44,2.59c-2.48.93-5.52,1.87-6.5,4.63-1.23,3.45,1.76,6.36,4.14,8.37a11.6,11.6,0,0,1,3,3.3,4.06,4.06,0,0,1-.47,4.24,10.75,10.75,0,0,1-4.74,3.28c-2.08.91-4.18,1.78-6.27,2.67l-12.73,5.42c-1.19.51-.64,2.47.56,2l11.34-4.83,5.74-2.45a36.1,36.1,0,0,0,4.88-2.28c2.67-1.64,4.9-4.66,3.9-7.93s-4.19-4.67-6.21-7.07c-1-1.17-1.87-2.8-1.12-4.32a5.54,5.54,0,0,1,3.05-2.29c2.63-1.1,5.78-2,6.91-4.93a3.9,3.9,0,0,0-.73-4,7.3,7.3,0,0,0-3.81-1.92c-2.89-.7-6.93-1.23-8-4.57-1.12-3.59,3.6-4.89,6.11-5.59l13.26-3.74a1,1,0,0,0-.56-1.95Z"/><path class="cls-2" d="M181.87,207.64a13,13,0,0,0,14-12.66c.05-1.3-2-1.28-2,0a11,11,0,0,1-12,10.6c-1.3-.09-1.27,1.94,0,2Z"/><path class="cls-4" d="M227.37,212.54c-14.05,20.07-.8,57.21,23.29,60.22S385.15,251.48,394,234.62s2.81-49.59-21.28-51.69S241.43,192.47,227.37,212.54Z"/><path class="cls-6" d="M290.46,216.88,339.84,207c1.47-.3.85-2.55-.62-2.25l-49.38,9.92c-1.47.3-.85,2.55.62,2.25Z"/><path class="cls-5" d="M234.34,233c1.2-.83,11.74-.07,12.87.45a1.59,1.59,0,0,1,.37,2.71c-.9.91-12.64-.22-13.24-.67S234.34,233,234.34,233Z"/><path class="cls-6" d="M249,216.88c7.42,2.22,11.91,9.49,13.18,16.81,1.52,8.69,0,17.42-3.33,25.51-.57,1.39,1.69,2,2.25.62,3.61-8.75,5.17-18.51,3.12-27.86-1.7-7.72-6.79-15-14.6-17.33a1.17,1.17,0,0,0-.62,2.25Z"/><path class="cls-2" d="M297.72,199.2a214.56,214.56,0,0,1,30.09-5.38c1.48-.16,1.49-2.49,0-2.33A219,219,0,0,0,297.1,197a1.17,1.17,0,0,0,.62,2.25Z"/><path class="cls-2" d="M301,196.93s-6.24-2.31-7.46-7.35,7-10.46,15.86-12.14,16.27,1.16,17.16,4.67-1.43,10.81-1.43,10.81l-3,.55s3.54-7.65,1.78-9.1c-4.16-3.41-26.54.6-27.4,5.72-.3,1.8,7.59,5.86,7.59,5.86Z"/><path class="cls-2" d="M235.6,233.82s17.88,33.61,49.69,36.57,102.55-24.53,112.55-53.83c.74-2.18,1.4-4.08,1.88-5.76,1.22-4.32-4.36-8.51-4.36-8.51l1,3.31s-4.2,16-21.26,27.62-45,23.58-54.4,25.39-29.7,6.72-42.75.9-31.32-24.71-31.32-24.71Z"/><path class="cls-3" d="M356.65,216.47a10.49,10.49,0,0,0-10.53,5.5c-1.13,2.24-1,5.22-4,5.79-2.18.42-4.3.11-6.09,1.69a3.42,3.42,0,0,0-.67,4.58c.9,1.39,2.34,2.46.78,4.05-1,1.07-2.66,1.36-4.06,1.74q-9.12,2.49-18.37,4.47-10.74,2.29-21.59,3.91c-1.48.22-.85,2.47.62,2.25q12-1.78,23.8-4.39,5.91-1.31,11.78-2.82c2.91-.76,7-1.17,9.29-3.27s1.89-4.36.26-6.53c-.83-1.11-1.06-1.78.18-2.59a5.51,5.51,0,0,1,2.55-.61,9.79,9.79,0,0,0,4.07-.9c2.57-1.49,2.4-4.62,3.83-6.88a8.26,8.26,0,0,1,8.13-3.65c1.48.19,1.47-2.14,0-2.34Z"/><path class="cls-5" d="M252.35,205l16.08-5.14c1.42-.46.82-2.71-.62-2.25l-16.08,5.14c-1.43.46-.82,2.71.62,2.25Z"/><path class="cls-5" d="M305.29,266.94l12.2-2.39a1.17,1.17,0,0,0,.81-1.44,1.19,1.19,0,0,0-1.43-.81l-12.2,2.39a1.17,1.17,0,0,0,.62,2.25Z"/><path class="cls-6" d="M405.18,227.19a17.68,17.68,0,0,1,8.61-11.07c7.18-3.9,28-.11,27.68,6.25S405.18,227.19,405.18,227.19Z"/><path class="cls-6" d="M453.88,223.71a13.76,13.76,0,0,1,8.29-7.14c6.09-1.87,21.42,4.23,20.2,9S453.88,223.71,453.88,223.71Z"/><path class="cls-2" d="M395.85,255c-8.61-1.85-8.16-16.3-1-24.55s34.23-9.28,51.86-9.48,53.91,4.51,60.06,8,6.77,15,.21,20.09S404.46,256.82,395.85,255Z"/><path class="cls-5" d="M503.77,244.14a28.51,28.51,0,0,0-.27-9.75c-.15-.75-1.3-.44-1.14.31a27.12,27.12,0,0,1,.27,9.12.59.59,0,0,0,1.14.32Z"/><path class="cls-5" d="M412.17,251a390.32,390.32,0,0,0,57.52-1q8.19-.75,16.35-1.85c.74-.1.75-1.29,0-1.19a391.17,391.17,0,0,1-57.43,3.45q-8.24-.12-16.44-.58c-.77-.05-.77,1.15,0,1.19Z"/><path class="cls-3" d="M413.41,221.84a17.82,17.82,0,0,1,9.25-3.86c.75-.08.76-1.28,0-1.19a19.25,19.25,0,0,0-10.09,4.2c-.6.49.25,1.33.84.85Z"/><path class="cls-3" d="M462,219a6.11,6.11,0,0,1,3.46-.2.6.6,0,0,0,.73-.41.61.61,0,0,0-.42-.74,7.3,7.3,0,0,0-4.09.2.6.6,0,0,0-.41.73.61.61,0,0,0,.73.42Z"/><path class="cls-6" d="M477,246.11l5.23-.29a.62.62,0,0,0,.6-.6.61.61,0,0,0-.6-.6l-5.23.3a.6.6,0,1,0,0,1.19Z"/><path class="cls-6" d="M509,242.15a7.41,7.41,0,0,0-1-8c-.49-.59-1.33.25-.84.84a6.18,6.18,0,0,1,.76,6.58c-.34.68.69,1.29,1,.6Z"/><path class="cls-6" d="M508.39,235.94l6.35-.2a3.72,3.72,0,0,1,1.67.2,2.54,2.54,0,0,1,1.11,2.51,2,2,0,0,1-.9,2.07,3.14,3.14,0,0,1-1.47.11l-5.71-.51"/><path class="cls-4" d="M406.09,224.72c-5,1.36-12.83.74-15.36,6.17s-4.61,22.35,4,24.19c1.69.36,7.92.45,15,.48C405.55,241.54,405.35,231.25,406.09,224.72Z"/><path class="cls-3" d="M361.92,192.88s-15.69,10.31-12.73,36.94c2.9,26,5.09,35.91,11.32,37.62s.4,2.87.4,2.87-12.37-.17-15.79-30,5-48.86,20.77-51.08S361.92,192.88,361.92,192.88Z"/><path class="cls-2" d="M378.44,274.79s-14,2.28-19.95-9-7.92-63.35-2.42-70.69,27.15-9.65,27.15-9.65Z"/><path class="cls-4" d="M399.44,272.69c-19,2.63-29,4-33.94-3.41s-8.05-56.23-4.32-69.77S399,179,406.25,190.4s5.05,19.94,7.09,29.56,9.19,26.07,10.44,34.9C425,263.51,418.47,270.06,399.44,272.69Z"/><path class="cls-2" d="M410.39,233.76c-4.08-1.91-37.91,1.65-43.11,6.19s1.24,26.34,3.06,27.88,45.74-4.53,46.93-9c.53-1.95,2.19-7.24,1.14-12.07C417.08,240.62,412.68,234.83,410.39,233.76Z"/><path class="cls-6" d="M412.55,248.87c1.21,5.08-3,9.34-7.37,11.05-.81.31-1.35-.93-.53-1.25,3.85-1.5,7.63-5.11,6.56-9.62-.2-.85,1.14-1,1.34-.18Z"/><path class="cls-3" d="M409.91,241l-38.74,5.36A.68.68,0,0,1,371,245l38.73-5.36a.68.68,0,0,1,.19,1.34Z"/><path class="cls-3" d="M405.76,219.1c1.13-1.78-2.41-8.6-5.06-10.06s-27.45,2.19-29.64,3.55-4.39,9.32-2.65,11.11S404.62,220.89,405.76,219.1Z"/><path class="cls-2" d="M398,212.91l-25.48,3.6a.68.68,0,0,1-.19-1.34l25.49-3.6a.68.68,0,0,1,.18,1.34Z"/><path class="cls-2" d="M392,187.42a5.89,5.89,0,0,0,1.43-4.49c-.36-2.59-7.07-1.43-10.18-.94s-7.72,1.54-8.14,2.77,1.32,4.41,1.6,4.78,1.62-.22,1.62-.22-1.92-3.27-1.26-3.59,13.77-2.85,14.3-2.39-1.08,3.62-.62,4A1.65,1.65,0,0,0,392,187.42Z"/><path class="cls-2" d="M393.12,188.1a27.51,27.51,0,0,0-17.44,3.65c-.75.44-1.27-.81-.53-1.25a28.71,28.71,0,0,1,18.15-3.74.68.68,0,0,1-.18,1.34Z"/><path class="cls-6" d="M399.15,193.7a54,54,0,0,0-29.22,5.42c-.78.39-1.31-.86-.54-1.24a55.4,55.4,0,0,1,29.94-5.52c.86.08.69,1.42-.18,1.34Z"/><path class="cls-2" d="M412.23,225.26a12.42,12.42,0,0,1-2.21-7.1.67.67,0,0,1,.76-.58.69.69,0,0,1,.58.76,10.93,10.93,0,0,0,1.93,6.08c.49.71-.57,1.55-1.06.84Z"/><path class="cls-1" d="M1547.88,218.78c-8.25-16.2-27-23.66-44.31-29.19a833,833,0,0,0-189-37c-13.35-1-27.34-1.93-38.73-8.95-10.36-6.37-109,38-122.26,37.38-38.66,21.11-83.86,32.28-128.07,35.71-74.69,5.81-149.42-7-224.24-10.66-19.94-1-41-1.09-58.5,8.51S713.31,246.75,722,264.7c5.66,11.63,18.32,18.38,31,21.08s25.73,2.13,38.61,3.32c49.12,4.51,91.92,33.92,138.19,51,51.71,19.1,107.65,22.7,162.68,26.1l209.82,13c17.67,1.09,37.8,1.29,50.08-11.47,9-9.34,11.16-23.19,17.53-34.48,13.17-23.32,42-32.53,68.64-35.6s54.51-2.25,78.71-13.73S1560,242.65,1547.88,218.78Z"/><polygon class="cls-3" points="1469.9 237.28 841.39 237.28 832.04 227.94 924.86 150.74 1402.57 156.47 1469.9 237.28"/><path class="cls-6" d="M1472.86,245.15c5.48,0,14.63-6.84,8.9-36.71s-32.73-68.13-81-86.75-125.22-18-125.22-18-17.18-16.26-24.65-27.92c-8-12.53-17.9-32.64-25.27-37.55s-65.47-22.5-138.71-20.45S965,34.12,927.32,58.67s-68.74,54-76.11,62.61-33.55,40.1-51.56,79.38-25.78,47.47-22.09,48.69,35.19-.81,63.42-13.09,36.83-27,46.24-45.42,54.83-23.73,76.11-13.5,37.23,38,36.82,63,23.74,4.91,23.74,4.91l275.79,3.68s8.59.82,11.86-11.86,17.19-68.34,62.61-67.11,58.72,33.67,68.54,54.42S1467.39,245.15,1472.86,245.15Z"/><path class="cls-3" d="M1402.28,153.38l1.43-2.83c-.52-.26-53.35-26.16-197.52-26.76q-30.43-.14-57.42-.37c-113.13-.85-181.41-1.36-231.12,14l.93,3c49.25-15.2,117.35-14.69,230.16-13.85,18,.14,37.14.28,57.43.37C1349.42,127.56,1401.77,153.12,1402.28,153.38Z"/><path class="cls-2" d="M849.22,177.45c.46-.49,45.84-49.49,54.63-58.59,8.65-8.94,40.71-36.12,60.95-50.23C984.58,54.85,1039.24,43,1065,42.08c23.94-.88,101.4,1.36,127.81,5.82,25.63,4.32,31.77,12.11,44,27.63,5,6.31,9.58,14.57,13.64,21.87,6.61,11.85,11.82,21.2,16.7,19.51,7.43-2.58,9-12.68,9.12-13.11l-1.57-.24c0,.1-1.55,9.59-8.07,11.85-3.63,1.27-9-8.47-14.79-18.78-4.1-7.35-8.74-15.68-13.79-22.08-12.09-15.34-18.76-23.79-45-28.22C1166.63,41.86,1089,39.61,1065,40.49c-26,.95-81.09,12.91-101.08,26.84-20.68,14.41-52.29,41.23-61.19,50.43s-54.19,58.12-54.65,58.61Z"/><rect class="cls-3" x="1087.75" y="41.15" width="1.59" height="201.36"/><path class="cls-2" d="M1376.77,287.53c41.2,0,54-32.29,54-54s-21.54-50.59-50.58-50.59-54.14,23.77-54.14,52.3S1342.7,287.53,1376.77,287.53Z"/><path class="cls-5" d="M1378.14,244c6.91,0,9-5.41,9-9s-3.61-8.48-8.47-8.48a9,9,0,0,0-9.07,8.76C1369.65,240,1372.43,244,1378.14,244Z"/><path class="cls-2" d="M935.09,286.71c40.55,0,53.16-31.78,53.16-53.16s-21.2-49.8-49.79-49.8-53.29,23.4-53.29,51.48S901.55,286.71,935.09,286.71Z"/><rect class="cls-3" x="1267.18" y="126.85" width="3.17" height="112.17" transform="translate(-2.7 19.84) rotate(-0.9)"/><path class="cls-4" d="M879,95a478.91,478.91,0,0,1,48.33-36.37q6.42-4.19,13.3-8c.06.07,5.32,6.36,5.32,10.22s-47.06,43.79-53.81,44.4S879,95.06,879,95Z"/><path class="cls-4" d="M1232.37,83.63S1221.52,66,1211.29,60.72s-46.23-9.21-61-10.43-48.69-4.51-52,.81-5.12,57.09.61,60.77,138.1,5.52,143.42-1.64S1232.37,83.63,1232.37,83.63Z"/><path class="cls-4" d="M1076.26,111.87c-3.27,2.25-113.34,2-118-2.25s-7.16-11.26-3.48-19.44,36.63-28.44,58.72-32.73,60-9.21,63.43-5.32S1079.54,109.62,1076.26,111.87Z"/><path class="cls-4" d="M1266.72,107.57c-5.51,0-29-44.19-36-50.33-3-2.61-1.33-7.87.41-13.71,6.1,8.29,13.5,19.51,20.25,29.26,6.08,8.79,14.08,20.79,20.19,27C1271,103.2,1269.68,107.57,1266.72,107.57Z"/><path class="cls-5" d="M1378.72,213.93a.79.79,0,0,0,.79-.79V194a.8.8,0,0,0-1.59,0v19.13A.79.79,0,0,0,1378.72,213.93Z"/><path class="cls-5" d="M1394.14,220.32a.82.82,0,0,0,.56-.23l13.52-13.53a.79.79,0,0,0-1.12-1.12L1393.58,219a.79.79,0,0,0,.56,1.35Z"/><path class="cls-5" d="M1400.52,235.74h19.13a.8.8,0,1,0,0-1.59h-19.13a.8.8,0,0,0,0,1.59Z"/><path class="cls-5" d="M1407.66,264.69a.76.76,0,0,0,.56-.24.79.79,0,0,0,0-1.12l-13.52-13.52a.79.79,0,1,0-1.12,1.12l13.52,13.52A.79.79,0,0,0,1407.66,264.69Z"/><path class="cls-5" d="M1378.72,276.68a.8.8,0,0,0,.79-.8V256.75a.8.8,0,0,0-1.59,0v19.13A.8.8,0,0,0,1378.72,276.68Z"/><path class="cls-5" d="M1349.77,264.69a.77.77,0,0,0,.56-.24l13.53-13.52a.79.79,0,0,0-1.12-1.12l-13.53,13.52a.79.79,0,0,0,0,1.12A.77.77,0,0,0,1349.77,264.69Z"/><path class="cls-5" d="M1337.78,235.74h19.13a.8.8,0,0,0,0-1.59h-19.13a.8.8,0,0,0,0,1.59Z"/><path class="cls-5" d="M1363.3,220.32a.82.82,0,0,0,.56-.23.79.79,0,0,0,0-1.12l-13.53-13.53a.79.79,0,0,0-1.12,1.12l13.53,13.53A.79.79,0,0,0,1363.3,220.32Z"/><path class="cls-5" d="M936.14,244c6.9,0,9.05-5.41,9.05-9s-3.61-8.48-8.48-8.48a9.05,9.05,0,0,0-9.07,8.76C927.64,240,930.43,244,936.14,244Z"/><path class="cls-5" d="M936.71,213.93a.79.79,0,0,0,.79-.79V194a.79.79,0,1,0-1.58,0v19.13A.79.79,0,0,0,936.71,213.93Z"/><path class="cls-5" d="M952.13,220.32a.79.79,0,0,0,.56-.23l13.53-13.53a.79.79,0,1,0-1.12-1.12L951.57,219a.79.79,0,0,0,0,1.12A.82.82,0,0,0,952.13,220.32Z"/><path class="cls-5" d="M958.52,235.74h19.13a.8.8,0,0,0,0-1.59H958.52a.8.8,0,0,0,0,1.59Z"/><path class="cls-5" d="M965.66,264.69a.77.77,0,0,0,.56-.24.79.79,0,0,0,0-1.12l-13.53-13.52a.79.79,0,0,0-1.12,1.12l13.53,13.52A.77.77,0,0,0,965.66,264.69Z"/><path class="cls-5" d="M936.71,276.68a.79.79,0,0,0,.79-.8V256.75a.79.79,0,1,0-1.58,0v19.13A.79.79,0,0,0,936.71,276.68Z"/><path class="cls-5" d="M907.77,264.69a.79.79,0,0,0,.56-.24l13.52-13.52a.79.79,0,0,0-1.12-1.12l-13.52,13.52a.79.79,0,0,0,0,1.12A.76.76,0,0,0,907.77,264.69Z"/><path class="cls-5" d="M895.78,235.74h19.13a.8.8,0,0,0,0-1.59H895.78a.8.8,0,1,0,0,1.59Z"/><path class="cls-5" d="M921.29,220.32a.79.79,0,0,0,.56-1.35l-13.52-13.53a.79.79,0,1,0-1.12,1.12l13.52,13.53A.82.82,0,0,0,921.29,220.32Z"/><path class="cls-3" d="M1020.92,240.57s5.53-34.26-19.33-68S947,132.13,916,136.38s-57.7,28.5-63.84,36.47,26.34-26.1,68.26-31.16,67.39,19.81,76.29,33.62,20,40.51,20.87,67.52Z"/><path class="cls-7" d="M849.57,186.75c-3.56,5-11.66,17.8-16.26,16.88s-4.76-8.13-5.07-12.58,2.61-17.65,7.37-18.57,24.86-6,26.24-5.22S853,181.93,849.57,186.75Z"/><path class="cls-3" d="M1450,167.57s-58.35-17.18-96.1-12.89-65.06,41.43-68.44,51.25-11.35,40.21-11.35,40.21-5.22-1.23-5.53-9.82,12-55.55,43-72.74,61.37-18.1,93.6-12.89,42.08,10.43,42.08,10.43Z"/><path class="cls-7" d="M1446.37,160.77s9.63-.85,12.34,3.67,3,23.71.82,27.69-7.64-2.62-7.64-2.62Z"/><path class="cls-2" d="M1313.76,218.15a63.26,63.26,0,0,1,12.59-26.61A66.65,66.65,0,0,1,1349.42,173a60.43,60.43,0,0,1,29-6,66.31,66.31,0,0,1,28.92,8.24,64.08,64.08,0,0,1,22.16,20c.7,1,1.36,2.09,2,3.16a.79.79,0,0,1-1.37.8,61.7,61.7,0,0,0-20.49-20.81,65.17,65.17,0,0,0-27.64-9.58,59,59,0,0,0-28.59,4.11,64.71,64.71,0,0,0-23.44,16.76A62.32,62.32,0,0,0,1316.13,215c-.32,1.19-.6,2.39-.84,3.59-.2,1-1.73.58-1.53-.42Z"/><path class="cls-2" d="M997.27,215a60.42,60.42,0,0,0-41.87-42,69.55,69.55,0,0,0-21.88-2.25,97.39,97.39,0,0,0-25.44,4.52c-1,.31-1.39-1.22-.42-1.53a99.9,99.9,0,0,1,23.12-4.42,74.16,74.16,0,0,1,22.63,1.53,62.19,62.19,0,0,1,45.39,43.76.79.79,0,0,1-1.53.42Z"/><path class="cls-6" d="M833.68,196.31a25.83,25.83,0,0,0,2.91-18c-.2-1,1.33-1.42,1.53-.42a27.56,27.56,0,0,1-3.07,19.21.79.79,0,0,1-1.37-.8Z"/><path class="cls-6" d="M851.6,173,845,175a.79.79,0,0,1-.42-1.53l6.61-2a.79.79,0,0,1,.42,1.53Z"/><path class="cls-6" d="M1455,186a26.44,26.44,0,0,0-.49-16c-.33-1,1.2-1.38,1.53-.42a27.93,27.93,0,0,1,.49,16.8A.79.79,0,0,1,1455,186Z"/><path class="cls-2" d="M1462.57,217.91a53.17,53.17,0,0,1-12.83-23,.79.79,0,0,1,1.53-.42,51.47,51.47,0,0,0,12.42,22.35c.71.74-.41,1.86-1.12,1.12Z"/><path class="cls-3" d="M887.63,129.36c-1.84,1.32-17-7.88-26.6-17.9s-37-61.3-37.24-67.52,13.34-6.55,19.85-3.52,10,6.71,23.12,31.09C880.56,97.11,889.47,128,887.63,129.36Z"/><path class="cls-2" d="M840.37,139.28c6.54-8.49,15-20.26,20.89-21.17s19.32,7.62,17,17.12-16.06,23.44-23.16,27.12c-9.48,4.92-27.53,7-28.66,2.92S833.82,147.77,840.37,139.28Z"/><path class="cls-5" d="M869.26,127.06a61.63,61.63,0,0,1-1,15.69c-.09.5-.86.29-.76-.21a60.88,60.88,0,0,0,1-15.48c0-.51.76-.51.8,0Z"/><path class="cls-5" d="M858.5,155.68a158.13,158.13,0,0,1-23.35,3c-.51,0-.51-.77,0-.8a156.6,156.6,0,0,0,23.14-2.94c.5-.1.72.66.21.76Z"/><path class="cls-2" d="M878.43,116.87a165.15,165.15,0,0,0-16.06-34q-2.79-4.52-5.89-8.85c-.59-.83.78-1.62,1.37-.8a167.12,167.12,0,0,1,18.32,33.14q2.05,5,3.79,10.11c.33,1-1.2,1.39-1.53.43Z"/><path class="cls-5" d="M837.69,47.06a7.22,7.22,0,0,0-.82-.84l-.13-.1c-.06,0,0,0,0,0l-.25-.18a4.33,4.33,0,0,0-.51-.31c-.17-.09-.34-.18-.51-.25s.06,0,0,0l-.13,0-.28-.1a4.94,4.94,0,0,0-.55-.15l-.29-.06s-.21,0-.1,0H834a.8.8,0,0,1-.79-.79.79.79,0,0,1,.79-.79,7.16,7.16,0,0,1,4.79,2.54.79.79,0,0,1-1.12,1.12Z"/><path class="cls-5" d="M1152.49,63.72a38.23,38.23,0,0,1,9.59,15.08c1.73,5.08,2.88,13.13-3.35,15.73-6.44,2.68-11.28-4-16.56-6.23a6.23,6.23,0,0,0-4.84-.3,3.69,3.69,0,0,0-2.34,3.18c0,1.46,1.32,2.57,2.11,3.68a4.81,4.81,0,0,1,1,3.54,2.85,2.85,0,0,1-2.74,2.3c-1.51.08-2.78-.7-4.08-1.34a3.14,3.14,0,0,0-2.72-.38,2.7,2.7,0,0,0-1.3,1.72c-.56,1.84.51,3.73,1.35,5.3.48.9-.89,1.71-1.37.8-1.28-2.4-2.6-5.35-.88-7.89a3.71,3.71,0,0,1,2.84-1.7c1.51-.07,2.77.78,4.07,1.4,1.09.53,3.27,1,3.31-.83,0-1.4-1.16-2.52-1.93-3.56a4.69,4.69,0,0,1,.54-6.68c5.29-4.61,11.51,2.13,16,4.58,2.67,1.47,6.28,2.19,8.67-.18s2.43-6,1.77-9.09a35.84,35.84,0,0,0-10.2-18c-.74-.71.38-1.83,1.12-1.12Z"/><path class="cls-5" d="M1068.92,72.6a38.27,38.27,0,0,1-17.09,28.79c-.86.56-1.65-.82-.8-1.37a36.56,36.56,0,0,0,16.3-27.42c.08-1,1.67-1,1.59,0Z"/><path class="cls-2" d="M1200.73,105.72a113.34,113.34,0,0,0-3.33-39.11.79.79,0,0,1,1.53-.42,114.5,114.5,0,0,1,3.38,39.53c-.09,1-1.67,1-1.58,0Z"/><path class="cls-6" d="M1061.84,68.5a7.82,7.82,0,0,1-3.38,8.26c-.87.55-1.66-.83-.8-1.37a6.2,6.2,0,0,0,2.65-6.47c-.23-1,1.3-1.42,1.53-.42Z"/><path class="cls-2" d="M929.38,69.52A4.06,4.06,0,0,1,928,65.63a.78.78,0,0,1,1-.55.79.79,0,0,1,.55,1s0,.06,0,.09,0-.14,0,0a1.49,1.49,0,0,0,0,.21c0,.13,0,.27,0,.4a.37.37,0,0,1,0,.11s0-.18,0-.07a1.18,1.18,0,0,0,0,.2,3.17,3.17,0,0,0,.12.41l0,.08c0,.1-.07-.15,0-.06l.09.19a3.48,3.48,0,0,0,.22.36.18.18,0,0,1,.05.07s-.1-.13,0,0l.12.14.33.3a.83.83,0,0,1,.23.56.85.85,0,0,1-.23.56.79.79,0,0,1-.56.23.88.88,0,0,1-.56-.23Z"/><path class="cls-2" d="M924.45,74.31a7.47,7.47,0,0,1-3.39-7.66.79.79,0,0,1,1-.55.81.81,0,0,1,.56,1,5.86,5.86,0,0,0,2.66,5.87c.87.53.08,1.91-.8,1.37Z"/><path class="cls-2" d="M919.36,82.18a14.49,14.49,0,0,1-4.59-12.86.79.79,0,1,1,1.52.42,12.9,12.9,0,0,0,4.19,11.32c.77.68-.36,1.8-1.12,1.12Z"/><path class="cls-2" d="M914.45,88.12a23.67,23.67,0,0,1-7.55-14.51c-.13-1,1.45-1,1.58,0A22,22,0,0,0,915.57,87c.76.68-.36,1.8-1.12,1.12Z"/><path class="cls-5" d="M1027.27,27.82a280.45,280.45,0,0,1,81.33-5.49q11.52.9,22.92,2.75c1,.16.58,1.69-.42,1.53a279.52,279.52,0,0,0-80.71-1.2c-7.62,1-15.19,2.32-22.7,3.94-1,.21-1.42-1.32-.42-1.53Z"/><path class="cls-2" d="M1140.06,148l-2.15,2.61a1.25,1.25,0,0,1-.51.33,1.14,1.14,0,0,1-.61.13,1.62,1.62,0,0,1-1.12-.46,1.57,1.57,0,0,1-.46-1.12l0-.42a1.65,1.65,0,0,1,.41-.7l2.15-2.61a1.08,1.08,0,0,1,.51-.33,1.17,1.17,0,0,1,.61-.14,1.59,1.59,0,0,1,1.58,1.59l0,.42a1.61,1.61,0,0,1-.41.7Z"/><path class="cls-2" d="M1136.59,151.28l-20.33.05a1.59,1.59,0,0,1,0-3.17l20.33,0a1.59,1.59,0,0,1,0,3.17Z"/><path class="cls-2" d="M1115.84,151.28a26,26,0,0,1-5.42-1.77c-1.63-.66-3.24-1.38-4.86-2.09a1.6,1.6,0,0,1-.57-2.17,1.63,1.63,0,0,1,2.17-.57l1.85.82,1.28.55,0,0,.3.13.75.31a26.13,26.13,0,0,0,5.29,1.71,1.59,1.59,0,0,1,1.11,1.95,1.64,1.64,0,0,1-2,1.11Z"/><path class="cls-4" d="M1011.45,252.28c2.49-5.4,5.85-11.85,8.16-12.92,4.07-1.87,250.05-2.08,250.05-2.08s8.42,5.23,7.9,11.37C1274.72,253,1025.52,253.86,1011.45,252.28Z"/><path class="cls-5" d="M1388.22,131a51.63,51.63,0,0,0-23.7-6.42.8.8,0,0,1,0-1.59,53.46,53.46,0,0,1,24.5,6.64.79.79,0,0,1-.8,1.37Z"/><path class="cls-5" d="M1220.43,48.12a4.34,4.34,0,0,0,2.87-1.95,4.45,4.45,0,0,0,.69-1.67,4.23,4.23,0,0,0,0-1.73.79.79,0,0,1,1.53-.42,6.11,6.11,0,0,1-4.62,7.3.81.81,0,0,1-1-.55.8.8,0,0,1,.55-1Z"/><path class="cls-5" d="M1257.16,89.22a43.43,43.43,0,0,1-5.32-6.32.79.79,0,0,1,1.37-.8,39.83,39.83,0,0,0,5.08,6c.73.71-.39,1.83-1.13,1.12Z"/><path class="cls-6" d="M1376.17,241.7a6.89,6.89,0,0,1-3.2-5.64.8.8,0,0,1,.79-.8.82.82,0,0,1,.8.8c0,.12,0,.25,0,.37s0,.1,0,.15,0,0,0,0,.09.44.15.66a4.19,4.19,0,0,0,.23.68c0-.11,0,0,0,.05l.06.14.18.33a6.12,6.12,0,0,0,.37.57s.1.13,0,.05l.09.11.25.29c.16.16.32.32.49.46l.1.08.1.07c.1.08.21.14.31.21a.82.82,0,0,1,.29,1.09.81.81,0,0,1-1.09.28Z"/><path class="cls-6" d="M1341,271.61a39.37,39.37,0,0,1-7.33-12.44c-.35-1,1.19-1.37,1.53-.42a37.22,37.22,0,0,0,6.92,11.74c.67.77-.44,1.9-1.12,1.12Z"/><path class="cls-6" d="M942.13,258.41l.15,4.14a.8.8,0,0,1-.79.79.81.81,0,0,1-.8-.79l-.15-4.14a.8.8,0,1,1,1.59,0Z"/><path class="cls-6" d="M930.31,223a11.94,11.94,0,0,1,8.1-2,.83.83,0,0,1,.8.8.8.8,0,0,1-.8.79,10.56,10.56,0,0,0-7.3,1.79.79.79,0,1,1-.8-1.37Z"/><path class="cls-4" d="M1477.57,251.07s17.18,2.15,16.57-16.57-3.05-21.48-8.28-21.48S1472.66,240,1477.57,251.07Z"/><path class="cls-4" d="M789.48,243.3s-17.08-2.87-11.13-20.63,9.07-19.71,14.08-18.21S797.35,234.11,789.48,243.3Z"/><path class="cls-5" d="M1485.42,242a6.8,6.8,0,0,0,3.64-8.12c-.32-1,1.21-1.39,1.52-.42a8.4,8.4,0,0,1-4.73,10.07.8.8,0,0,1-1-.55.83.83,0,0,1,.55-1Z"/><path class="cls-5" d="M789.9,211.13A75.36,75.36,0,0,0,786,227.05c-.13,1-1.72,1-1.58,0a77.22,77.22,0,0,1,4-16.34c.35-1,1.89-.54,1.53.42Z"/><path class="cls-4" d="M1127.26,156.13l-11.36-.59c-1,0-1-1.64,0-1.59l11.36.59c1,.05,1,1.64,0,1.59Z"/><path class="cls-3" d="M1132.78,145.8h-4a.79.79,0,1,1,0-1.58h4a.79.79,0,1,1,0,1.58Z"/><path class="cls-3" d="M1279.44,105.88a13.89,13.89,0,0,1-6.06,12.13c-.85.57-1.64-.8-.8-1.37a12.27,12.27,0,0,0,5.27-10.76c0-1,1.53-1,1.59,0Z"/><path class="cls-3" d="M1249.72,106.7a80.82,80.82,0,0,0-13-22.19c-.65-.78.47-1.91,1.12-1.12a83.15,83.15,0,0,1,13.43,22.89c.37,1-1.16,1.36-1.53.42Z"/><path class="cls-3" d="M831.81,172.63A17.24,17.24,0,0,1,821.27,167c-.67-.76.45-1.89,1.12-1.12a16,16,0,0,0,9.85,5.26.8.8,0,0,1,.55,1,.83.83,0,0,1-1,.56Z"/><path class="cls-3" d="M891,122.77a19.7,19.7,0,0,0-4.3-13.09c-.64-.79.48-1.92,1.12-1.12a21.35,21.35,0,0,1,4.76,14.21c0,1-1.62,1-1.58,0Z"/><path class="cls-3" d="M796,237.77A22.22,22.22,0,0,0,798,219c-.33-1,1.2-1.38,1.53-.42a23.75,23.75,0,0,1-2.19,20,.79.79,0,0,1-1.37-.8Z"/><path class="cls-3" d="M1476.45,221.61a38.42,38.42,0,0,0-4.58,15.76c-.07,1-1.66,1-1.59,0a40.34,40.34,0,0,1,4.8-16.56c.49-.89,1.86-.09,1.37.8Z"/><path class="cls-3" d="M1458.25,205a8.79,8.79,0,0,1-2.3-4.68.79.79,0,1,1,1.53-.42,7.64,7.64,0,0,0,.26,1.15,5.05,5.05,0,0,0,.18.55l.06.13c0,.12,0-.1,0,0s.09.2.13.29a7.65,7.65,0,0,0,.58,1l.16.23s.13.17.07.1l0,.06c.13.16.26.31.4.46a.79.79,0,0,1-1.12,1.12Z"/><path class="cls-3" d="M1295.27,231.91a9.23,9.23,0,0,1-4.56,5.89c-2.61,1.53-5.65,2-8.59,2.43a.83.83,0,0,1-1-.56.8.8,0,0,1,.56-1c4.57-.67,10.92-1.79,12-7.21.21-1,1.74-.58,1.53.42Z"/><path class="cls-2" d="M1176.15,247.66l-48.28-.22a.8.8,0,0,1,0-1.59l48.28.23a.79.79,0,0,1,0,1.58Z"/><path class="cls-3" d="M896.14,134.32A205.66,205.66,0,0,1,938,120.52c1-.21,1.42,1.32.42,1.53a203.27,203.27,0,0,0-41.49,13.64c-.92.41-1.73-.95-.8-1.37Z"/><path class="cls-3" d="M959,55.1a10.6,10.6,0,0,0-1.6-9.3.79.79,0,0,1,1.37-.8,12.12,12.12,0,0,1,1.76,10.52c-.3,1-1.83.56-1.53-.42Z"/><path class="cls-3" d="M1150.18,192.37a17.75,17.75,0,0,1,33.32-6.7c2.23,4,2.34,8.66,2.72,13.13s1.28,8.86,4.83,11.89a6.89,6.89,0,0,0,5.33,1.81c1.87-.26,3.43-1.49,4.88-2.61a14.83,14.83,0,0,1,4.45-2.7,6.19,6.19,0,0,1,5.11.74c1.92,1.19,3.31,3,5.1,4.38a15.88,15.88,0,0,0,6,2.79,16.67,16.67,0,0,0,13-2.26c.85-.57,1.64.8.8,1.36a18.31,18.31,0,0,1-21.33-1.06c-1.53-1.26-2.8-2.9-4.53-3.92a4.88,4.88,0,0,0-5.16.14c-3,1.76-5.42,4.83-9.21,4.78s-6.89-3-8.63-6.12c-2.19-3.94-2.16-8.57-2.55-13s-1.43-8.43-4.45-11.7a17.19,17.19,0,0,0-9.78-5.3c-8.77-1.44-17.4,5.57-18.35,14.3-.11,1-1.69,1-1.58,0Z"/><path class="cls-3" d="M970.47,163c-5.6-3.26-12.1-4.28-18.48-4.73a131.18,131.18,0,0,0-21.62.23q-6.17.57-12.24,1.72c-1,.19-1.42-1.34-.42-1.53a134.73,134.73,0,0,1,22.12-2.31,95.84,95.84,0,0,1,21.06,1.44,33.7,33.7,0,0,1,10.38,3.82.79.79,0,0,1-.8,1.36Z"/><path class="cls-5" d="M1080,131.36l-37.44.49a.8.8,0,0,1,0-1.59l37.44-.48a.79.79,0,0,1,0,1.58Z"/><path class="cls-5" d="M1410.08,172.59a22.21,22.21,0,0,0-13.23-4.39.8.8,0,0,1,0-1.59,23.67,23.67,0,0,1,14,4.61c.81.61,0,2-.8,1.37Z"/><path class="cls-4" d="M994.18,196.36A39.6,39.6,0,0,0,985.76,184a.79.79,0,0,1,1.12-1.12,40.82,40.82,0,0,1,8.67,12.68.83.83,0,0,1-.29,1.09.79.79,0,0,1-1.08-.29Z"/><path class="cls-4" d="M1109.76,30.27,1097,30a.8.8,0,0,1,0-1.59l12.78.29a.79.79,0,0,1,0,1.58Z"/><path class="cls-2" d="M1117.36,275.29c23.55,0,27,5.89,0,4.85S1093.81,275.3,1117.36,275.29Z"/><path class="cls-2" d="M1190.8,286.07c13.85,0,15.89,3.47,0,2.85S1176.94,286.08,1190.8,286.07Z"/></g></svg>