<svg xmlns="http://www.w3.org/2000/svg" viewBox="0 0 300 300"><defs><style>.cls-1{fill:#f4b89a;}.cls-2{fill:#262322;}.cls-3{fill:#e6681f;}.cls-4{fill:#ffe8de;}.cls-5{fill:#bf541f;}.cls-6{fill:#ebebeb;}</style></defs><title>Artboard 3</title><g id="Layer_3" data-name="Layer 3"><polygon class="cls-1" points="174.76 252.52 172.19 238.09 160.61 238.71 161.39 252.52 174.76 252.52"/><polygon class="cls-1" points="100.87 238.06 99.92 245.96 90.07 243.76 92.18 231.33 100.87 238.06"/><path class="cls-2" d="M135.51,167.15s15.42,30.76,18.88,38.9,3.31,39,3.31,39,6.47,1.34,9.92,1.59,9.46-1.83,9.46-1.83-.46-36.31-2.8-46.18-14.14-55.57-14.14-55.57l-44.43-5.18s-3.08,26.64-5.06,33.17-7.39,25.16-10.23,30.83-2.6,12.58-6.55,17.9-8,13.1-6.35,14.83,18.93,6.81,18.93,6.81,2.15-14.59,7.27-22.4c5-7.65,8.52-22.81,8.52-22.81Z"/><path class="cls-1" d="M176.71,96.14l-7.11-6-9.38,7.65s7.91,7.24,11.46,9.93,9.84,7.66,12.22,8.31,29.67-1.68,29.67-1.68l.75-8.59-10.57.44S189,106,188,105.59,176.71,96.14,176.71,96.14Z"/><path class="cls-1" d="M211.79,111.16s.47,5,6.94,5c5.74,0,8.19-3.76,8.17-7.54s-5.15-7.5-9.15-6.58S211.79,111.16,211.79,111.16Z"/><path class="cls-3" d="M113.11,156.41s-3.5,12.9-9.93,22.18-9.09,13.13-10.63,12.68-9.19-4.61-10.92-7-10.85-14.33-8-19.4S85.08,142,97,142.48,112.78,154,113.11,156.41Z"/><path class="cls-2" d="M98.4,185.42c-3.12,4.34-4.77,6.16-5.85,5.85-1.54-.45-9.19-4.61-10.92-7s-10.85-14.33-8-19.4c.69-1.21,1.71-3.16,3-5.41-.53,3.83,12.13,20.46,12.13,20.46Z"/><path class="cls-2" d="M96.13,165.53s-3,5.94-5.74,6.46-10.22-9.76-10.5-12.51,4-7.48,5.73-6.9C88,153.36,96.59,163.19,96.13,165.53Z"/><path class="cls-2" d="M110.57,156.94l-4.49-1a.57.57,0,1,1,.3-1.1l4.49,1a.57.57,0,0,1,.4.69.58.58,0,0,1-.7.4Z"/><path class="cls-2" d="M104.47,158.88a56.59,56.59,0,0,1-12.34,20c-.5.53-1.31-.28-.8-.81a55.13,55.13,0,0,0,12-19.5c.25-.68,1.34-.39,1.1.3Z"/><path class="cls-4" d="M84,163.68a5.2,5.2,0,0,1-.71-4.25.58.58,0,0,1,.7-.4.58.58,0,0,1,.39.7,4.32,4.32,0,0,0-.08,1.71,4.43,4.43,0,0,0,.25.88c0,.07,0,.08,0,0a.37.37,0,0,1,0,.11l.12.22a2.57,2.57,0,0,0,.26.41.58.58,0,0,1-.21.78.59.59,0,0,1-.78-.2Z"/><path class="cls-2" d="M102,153.26a14.27,14.27,0,0,1-7.56-7.87.57.57,0,0,1,.39-.7.58.58,0,0,1,.7.4,13.21,13.21,0,0,0,7,7.19.56.56,0,0,1,.2.77.58.58,0,0,1-.78.21Z"/><path class="cls-2" d="M107.25,152.18s2.94-1.63,2.56-4.33a6.53,6.53,0,0,0-2.91-4.91c-1.4-1-4-1.57-4.87-.43a11.71,11.71,0,0,0-1.31,3.72l1.61.47s.21-3,1.67-3.21,3.61,1.86,3.83,2.83.78,2.84-.88,3.93S107.25,152.18,107.25,152.18Z"/><path class="cls-2" d="M92.64,159.74a11.78,11.78,0,0,1,5.4-6l2.14,1.81a10.25,10.25,0,0,0-5.3,7.15Z"/><path class="cls-2" d="M87.16,154.44a13.14,13.14,0,0,1,5.2-6.4l2.32,1.79a11.81,11.81,0,0,0-5.17,6Z"/><path class="cls-4" d="M93.63,157.22a16.07,16.07,0,0,1,2.16-2.64,3.87,3.87,0,0,0,2.87,2.54h0a13.65,13.65,0,0,0-2,2.82A14.85,14.85,0,0,1,93.63,157.22Z"/><path class="cls-4" d="M88.27,152a12.21,12.21,0,0,1,1.66-2.46A4.28,4.28,0,0,0,93,151.6h0a14.81,14.81,0,0,0-2.17,2.82A11.13,11.13,0,0,1,88.27,152Z"/><path class="cls-1" d="M212.13,109.5s-.25-12.4.49-13.32,6.72,10.11,6.72,10.11Z"/><path class="cls-2" d="M136.89,42.42s-.83-2.71.06-4.53-2.62,1.14-1.07,5.21S136.89,42.42,136.89,42.42Z"/><path class="cls-2" d="M138.38,42.86A11.72,11.72,0,0,0,136.24,41c-1.07-.63-2.85-.8-2.92-.47s3,1,3.72,2.36S138.38,42.86,138.38,42.86Z"/><path class="cls-1" d="M148.13,64.84a55.35,55.35,0,0,0-1,10.82c.23,6.14-16-3-16-3s7-6.59,5.25-20c-1-8,7.05-3.46,7.05-3.46Z"/><path class="cls-1" d="M113.88,135.71l-5.54-2.32,1.82-20.07,1.41-12.58S120.79,80,126,75.41s-.83,11-.83,11l-7.58,35.39Z"/><path class="cls-1" d="M114.26,138.93a53.84,53.84,0,0,1,.14,5.7c-.07,1.32-.45,3.53-1,3.56s-.94-.81-1.27-1.81a20.19,20.19,0,0,0-.6-2.24c-.17,0-.68,3.31-2.1,4.78s-5.09,0-6.17-1.07-1.76-4.37.24-8.63c1.87-4,5.41-8,8.7-6C114.77,134.72,114.14,137.68,114.26,138.93Z"/><path class="cls-5" d="M129.4,70.08l-2.91,18.74s-.36,1.51-.94,4l-.18,7s-11-4.35-13.07-5.75C116.68,86.11,120.52,72.61,129.4,70.08Z"/><path class="cls-3" d="M158.52,99.2c.25.49,4,4,4,4s3.62-5.82,6.71-7.54a27.91,27.91,0,0,1,7.67-2.35.4.4,0,0,0,.19-.71c-2-1.5-8-5.27-9.84-7-2.34-2.22-6.41-8.14-8.63-9.62s-9.86-2.72-15.54-3.46-11.71-3-12.82-3-6.37,3.6-9.71,12.75-2.87,18.2-2.5,32.62-2.34,23.06-2.34,23.06a171.29,171.29,0,0,0,19.36,5.92c10,2.34,24.56-.24,25.07-.74s-.18-19.46-.59-26.26S158.52,99.2,158.52,99.2Z"/><path class="cls-2" d="M190.51,255.88S179,251,177.07,250.33s-6.42,1.23-10.11,1a40,40,0,0,1-6.91-1.12s-2.22,4-2.47,6.54a43.49,43.49,0,0,0,0,5.92h42.55a2.49,2.49,0,0,0,1-1.6C201.11,260.19,190.51,255.88,190.51,255.88Z"/><path class="cls-2" d="M112.74,246.14s-8.91-3.33-10.43-3.72-4.31.69-7.14.64a20.37,20.37,0,0,1-5.87-1.21A32,32,0,0,0,87.73,248a32.4,32.4,0,0,0,.22,4.5l32.35-1.58s.73-.6.69-1.25S112.74,246.14,112.74,246.14Z"/><path class="cls-3" d="M160.62,207.33a18.32,18.32,0,0,1-7.65-6.46c-.41-.61.58-1.18,1-.57a17.32,17.32,0,0,0,7.24,6,.56.56,0,0,1,.21.77.59.59,0,0,1-.78.21Z"/><path class="cls-3" d="M106.4,226.49a14.34,14.34,0,0,0-3.07,10.14c.06.73-1.07.73-1.13,0a15.4,15.4,0,0,1,3.4-10.95c.46-.57,1.26.24.8.81Z"/><path class="cls-3" d="M117.16,178.83a2.86,2.86,0,0,1,.86,3.32c-.51,1.24-1.58,1.57-2.74,2-.55.19-1,.49-1,1.13a8,8,0,0,0,.54,1.85c.28,1,.2,2.34-.86,2.83-.66.31-1.23-.67-.57-1,.89-.42.25-1.78,0-2.42a2.55,2.55,0,0,1,.45-2.95c.74-.62,1.79-.58,2.53-1.16a1.76,1.76,0,0,0-.08-2.8c-.57-.46.23-1.26.8-.8Z"/><path class="cls-1" d="M151.25,47.5c.82,0,2.21.37,4.26.43a23.88,23.88,0,0,0,.46,4.44,18.37,18.37,0,0,0,1.8,4.21.94.94,0,0,1-1,1.36,2.64,2.64,0,0,0-1.6,0c-1,.68.09,2.5.09,2.5-2-.48-5.61-1.63-7.77-4.79C144.13,50.73,149.86,47.42,151.25,47.5Z"/><path class="cls-2" d="M155.64,49c.43,0,.86.05,1.28.05a6.24,6.24,0,0,0,6-5.52c0-1.65-2-2-4.05-1.44s-5.52-.5-3.76-1.06-3.46-4.13-4.4-2.72-3.42,1.31-7.2.66-7.78-1.1-11.2,7.32-.61,12.43.23,15.19,3.06,4.19,5.67,2.9,2-7.93,2-7.93.17-5.76,2.61-4.81.84,4.69,1.73,9.73,3.37,6.41,6.33,6.41,4.44-1.66,4.91-4.27-.53-4.76-1.09-5-4.7.08-6.6-3.24c-2.75-4.8,2.06-6.28,3.45-6.2C152.43,49.06,153.6,48.92,155.64,49Z"/><path class="cls-3" d="M161.05,210.14l-3.21-1a.59.59,0,0,1-.4-.7.58.58,0,0,1,.7-.39l3.21,1a.57.57,0,0,1-.3,1.1Z"/><path class="cls-5" d="M156.42,80.53a4.36,4.36,0,0,0-4.34-2.13.59.59,0,0,1-.7-.4.58.58,0,0,1,.4-.7A5.53,5.53,0,0,1,157.4,80a.57.57,0,0,1-1,.57Z"/><path class="cls-2" d="M154.2,98a19.51,19.51,0,0,1-7-9.33c-.25-.69.85-1,1.09-.3a18.27,18.27,0,0,0,6.53,8.65c.59.42,0,1.4-.57,1Z"/><path class="cls-2" d="M130.56,104.64a11.62,11.62,0,0,1,8.23,7.33c.42,1.2.72,2.66-.12,3.76a3.54,3.54,0,0,1-2.91,1.14,30.76,30.76,0,0,1-4.47-.6l-2.46-.38c-.79-.12-1.88-.15-1.65,1a4.91,4.91,0,0,0,1.24,1.86,5,5,0,0,1,1,1.85,2.55,2.55,0,0,1-1.49,3.12c-.59.23-1.68.24-1.94,1s.38,1.62.76,2.18-.57,1.17-1,.57c-.62-.91-1.29-2.18-.78-3.3a2.09,2.09,0,0,1,1-1,11.07,11.07,0,0,0,1.79-.6c1.46-1-.14-2.87-.84-3.74s-1.37-2.15-.65-3.26,2.34-.78,3.49-.6c1.61.25,3.21.54,4.83.75,1,.14,2.63.29,3.23-.77s-.27-3-.86-4.06a10.54,10.54,0,0,0-6.76-5.09c-.71-.16-.41-1.26.3-1.09Z"/><path class="cls-2" d="M224.76,109.36a5.25,5.25,0,0,1-1.64,3.3,5.13,5.13,0,0,1-3.58,1.32.57.57,0,0,1,0-1.13,4,4,0,0,0,4.08-3.49.59.59,0,0,1,.57-.57.58.58,0,0,1,.57.57Z"/><path class="cls-3" d="M185.54,114.54a8.77,8.77,0,0,1-4.23-1.38.58.58,0,0,1-.2-.78.56.56,0,0,1,.77-.2,7.64,7.64,0,0,0,3.66,1.23.58.58,0,0,1,.57.57.57.57,0,0,1-.57.56Z"/><path class="cls-2" d="M218.59,105.84l-1-1.56a.56.56,0,0,1,.2-.77.58.58,0,0,1,.78.2l1,1.56a.58.58,0,0,1-.21.78.57.57,0,0,1-.77-.21Z"/><path class="cls-2" d="M114,104.27l-.57,5.43a.59.59,0,0,1-.57.57.58.58,0,0,1-.57-.57l.57-5.43a.58.58,0,0,1,.57-.56.57.57,0,0,1,.57.56Z"/><path class="cls-3" d="M188.59,258.52A15.43,15.43,0,0,0,183.4,257a.59.59,0,0,1-.57-.57.58.58,0,0,1,.57-.57,16.82,16.82,0,0,1,5.76,1.67.57.57,0,1,1-.57,1Z"/><path class="cls-3" d="M110.78,250.16l-5.8,0a.57.57,0,0,1,0-1.14l5.8.05a.57.57,0,0,1,0,1.14Z"/><path class="cls-2" d="M108.18,145.87a5.85,5.85,0,0,0-3.94-2.43.58.58,0,0,1-.57-.57.57.57,0,0,1,.57-.56,7,7,0,0,1,4.92,3,.58.58,0,0,1-.2.78.59.59,0,0,1-.78-.2Z"/><path class="cls-6" d="M160.34,191.93l-7-19.69c-.26-.74.91-1.06,1.17-.32l7,19.69c.27.74-.91,1.06-1.17.32Z"/><path class="cls-6" d="M166.23,236.32l-.44-15.1c0-.79,1.19-.79,1.22,0l.44,15.1c0,.78-1.19.78-1.22,0Z"/><path class="cls-6" d="M97,235.64l-4.87-1.88a.63.63,0,0,1-.43-.75.61.61,0,0,1,.75-.43l4.87,1.89a.63.63,0,0,1,.43.75.61.61,0,0,1-.75.42Z"/></g></svg>