<svg xmlns="http://www.w3.org/2000/svg" viewBox="0 0 300 300"><defs><style>.cls-1{fill:#262322;}.cls-2{fill:#e6681f;}.cls-3{fill:#bf541f;}.cls-4{fill:#f4b89a;}.cls-5{fill:#fff;}.cls-6{fill:#ffe8de;}.cls-7{fill:#ebebeb;}</style></defs><title>Artboard 3</title><g id="Layer_3" data-name="Layer 3"><path class="cls-1" d="M81.67,197.53S80.23,216,82.81,217.82s19.49,2.12,22-.44.64-19.85.64-19.85Z"/><path class="cls-1" d="M193.63,197.53s-1.44,18.51,1.14,20.29,19.49,2.12,22-.44.63-19.85.63-19.85Z"/><path class="cls-2" d="M205.67,145.08s-.67-8.91-1.12-28.36-16.34-31.65-27.09-34-21.88-2.39-45-.86-37,15.63-37,36.5l-.45,26.75c-11.58,1-19.93,7.73-21.3,18a93.49,93.49,0,0,0,1.06,27.35c1,4.53,4.21,8.84,10,8.84l65.66,4.93L216,199.29c5.75,0,9.26-5.12,10-9.08a91,91,0,0,0,2.43-27.11C227.51,149.07,217.26,146.06,205.67,145.08Z"/><path class="cls-3" d="M174.27,194c4.45-5.08,5.7-28.79,14.49-37.69,4.65-4.7,11.81-8.72,16.9-11.4,0-.31-.07-1-.13-2C198,145.31,186.4,150.2,182.29,158c-6.28,11.94-8,33.31-17,33.91s-33.74,2.53-36.64-3.08-5.5-25.94-16.26-36.9c-4.58-4.67-11.26-7.66-17.43-9.56l0,2.69-.27,0c5.35,1.92,17.2,7.48,21.48,20.1,5.6,16.52,5.21,25.87,11.27,29.49S169.83,199.05,174.27,194Z"/><path class="cls-4" d="M202.46,139.21v-4.52l3.77-3.76a1.92,1.92,0,0,1-.32-1v-2.31c0-2,2.08-4.83,6.55-4.83,4.26,0,6.9,2.28,6.9,4.4,0,.26-.36,4.8-3.3,6.12a11,11,0,0,1-6.09.47,3.92,3.92,0,0,1-1.64-.43Zm6.11-8.19.31.28a1.8,1.8,0,0,0,1.2.47l.22,0a9.24,9.24,0,0,0,4.94-.31c1.53-.69,2.06-3.46,2.12-4.37s-1.63-2.33-4.9-2.33-4.55,1.87-4.55,2.83v2.24l.17.25a3.55,3.55,0,0,1,.34.57Zm-.67-1.2Z"/><path class="cls-4" d="M98.14,139.21l-5.88-5.87a3.84,3.84,0,0,1-1.64.43,11,11,0,0,1-6.08-.47c-2.94-1.32-3.29-5.86-3.3-6.05,0-2.19,2.63-4.47,6.89-4.47,4.47,0,6.55,2.88,6.55,4.83v2.31a1.91,1.91,0,0,1-.31,1l3.77,3.76Zm-10-14.43c-3.26,0-4.9,1.54-4.9,2.4s.6,3.61,2.13,4.3a9,9,0,0,0,4.93.31l.22,0a1.83,1.83,0,0,0,1.21-.47L92,131l.15-.35a3.55,3.55,0,0,1,.34-.57,2.56,2.56,0,0,0,.16-.25v-2.24C92.68,126.65,91.31,124.78,88.13,124.78Zm4.57,5Z"/><path class="cls-5" d="M89.19,144.27h1.67a4.31,4.31,0,0,1,4.31,4.31v1.7a1.41,1.41,0,0,1-1.41,1.41H86.29a1.41,1.41,0,0,1-1.41-1.41v-1.7A4.31,4.31,0,0,1,89.19,144.27Z"/><path class="cls-4" d="M93.76,152.68H86.29a2.41,2.41,0,0,1-2.4-2.4v-1.71a5.31,5.31,0,0,1,5.3-5.3h1.67a5.31,5.31,0,0,1,5.31,5.3v1.71A2.41,2.41,0,0,1,93.76,152.68Zm-4.57-7.41a3.3,3.3,0,0,0-3.3,3.3v1.71a.4.4,0,0,0,.4.4h7.47a.41.41,0,0,0,.41-.4v-1.71a3.31,3.31,0,0,0-3.31-3.3Z"/><circle class="cls-6" cx="90.03" cy="175.38" r="9.53"/><path class="cls-5" d="M209.73,144.27h1.67a4.31,4.31,0,0,1,4.31,4.31v1.7a1.41,1.41,0,0,1-1.41,1.41h-7.46a1.41,1.41,0,0,1-1.41-1.41v-1.7A4.31,4.31,0,0,1,209.73,144.27Z"/><path class="cls-4" d="M214.3,152.68h-7.46a2.41,2.41,0,0,1-2.41-2.4v-1.71a5.31,5.31,0,0,1,5.3-5.3h1.68a5.31,5.31,0,0,1,5.3,5.3v1.71A2.41,2.41,0,0,1,214.3,152.68Zm-4.57-7.41a3.3,3.3,0,0,0-3.3,3.3v1.71a.4.4,0,0,0,.41.4h7.46a.4.4,0,0,0,.41-.4v-1.71a3.3,3.3,0,0,0-3.3-3.3Z"/><circle class="cls-6" cx="210.57" cy="175.38" r="9.53"/><path class="cls-4" d="M150.3,201.54c18.76,0,74.84-7.51,76.07-6.8s2.38,7.9,1.22,8.78-54.22,7-77.94,7S75.53,205,73,203.38s-1.64-8.2-.51-8.64S131.54,201.54,150.3,201.54Z"/><rect class="cls-6" x="130.8" y="194.74" width="39" height="14.35" rx="1.77"/><circle class="cls-1" cx="133.46" cy="197.61" r="0.72"/><circle class="cls-1" cx="167.19" cy="197.61" r="0.72"/><circle class="cls-1" cx="133.46" cy="206.28" r="0.72"/><circle class="cls-1" cx="167.19" cy="206.28" r="0.72"/><rect class="cls-1" x="138.28" y="199.35" width="1.85" height="5.14"/><rect class="cls-1" x="142.17" y="199.35" width="1.85" height="5.14"/><rect class="cls-1" x="146.06" y="199.35" width="1.85" height="5.14"/><rect class="cls-1" x="152.69" y="199.35" width="1.85" height="5.14"/><rect class="cls-1" x="156.58" y="199.35" width="1.85" height="5.14"/><rect class="cls-1" x="160.46" y="199.35" width="1.85" height="5.14"/><path class="cls-4" d="M180.42,95.87c12.94,7,19,25.9,14.52,31.45s-84.72,5.16-88.78,1.69-.19-24.65,12.22-32.42S167.47,88.85,180.42,95.87Z"/><path class="cls-1" d="M144.07,103.77a12.74,12.74,0,0,0-4.76,3.77,5.24,5.24,0,0,0-.55,4.82c1.84,4.28,7.17,1.56,10,.15l3.27-1.62,1.71-.86a4.66,4.66,0,0,1,1.85-.71c1.22,0,.51,1.69.18,2.25-.58,1-1.33,1.8-1.87,2.79a5,5,0,0,0-.24,4.88c1,1.66,2.78,1.69,4.46,1.3,1-.23,2.24-.72,3.13,0s1,1.73,1.51,2.52c.9,1.35,3.05,2.19,4.13.6.51-.74-.7-1.44-1.2-.7s-1.45-.22-1.73-.6c-.47-.66-.7-1.47-1.16-2.14a3.48,3.48,0,0,0-3.86-1.31c-1.5.3-3.59,1.17-4.27-.82-.63-1.82.7-3.53,1.7-4.93.78-1.11,1.72-2.61,1.13-4-.7-1.67-2.56-1.24-3.84-.63-2.09,1-4.16,2.07-6.23,3.11-1.6.79-3.42,1.83-5.28,1.65-2.12-.2-2.73-2.39-2.07-4.15.75-2,2.92-3.16,4.7-4.14a.7.7,0,0,0-.7-1.21Z"/><path class="cls-3" d="M100.94,110.58a13.88,13.88,0,0,1,2.22-5.85c.5-.76-.71-1.46-1.21-.71a15.34,15.34,0,0,0-2.41,6.56.7.7,0,0,0,.7.7.72.72,0,0,0,.7-.7Z"/><path class="cls-2" d="M89.62,171.83H90l.29,0a7,7,0,0,1,.79.19,3.75,3.75,0,0,1,.65.28,6,6,0,0,1,.69.42,4.68,4.68,0,0,1,1.69,2.34.72.72,0,0,0,.86.49.71.71,0,0,0,.49-.86,6.18,6.18,0,0,0-5.86-4.3.7.7,0,0,0,0,1.4Z"/><path class="cls-2" d="M207.44,175.42a3.56,3.56,0,0,1,7-.87.7.7,0,0,0,1.35-.37,5,5,0,0,0-9.74,1.24c0,.9,1.36.89,1.4,0Z"/><path class="cls-3" d="M107.34,141.21c-.42,1.89,13.93,7.47,17.79,17.11,4.06,10.14,4.15,22.5,7.44,25.16s12.35,2.6,13.31-1.69-2.62-36.18-6.84-40.85S107.75,139.33,107.34,141.21Z"/><path class="cls-3" d="M194.34,141.21c.42,1.89-13.93,7.47-17.79,17.11-4.06,10.14-4.15,22.5-7.44,25.16s-12.35,2.6-13.31-1.69,2.62-36.18,6.85-40.85S193.93,139.33,194.34,141.21Z"/><path class="cls-7" d="M151.21,142a211.39,211.39,0,0,0-.89,39.37c.06.89,1.46.9,1.39,0a212.25,212.25,0,0,1,.9-39.37c.11-.9-1.29-.89-1.4,0Z"/><path class="cls-2" d="M117,120.07a21.67,21.67,0,0,1,9.28-17.95c.74-.51,0-1.72-.71-1.21a23.16,23.16,0,0,0-10,19.16.7.7,0,0,0,1.4,0Z"/><path class="cls-3" d="M86.8,156.28c.14,1.76.32,3.87,2,4.92a2.6,2.6,0,0,0,2.2.32c.88-.29,1.32-1.08,2-1.66.16-.14.5-.43.71-.25s.16.62.18.82a3.29,3.29,0,0,0,.57,1.93,1.85,1.85,0,0,0,2.12.45,4.5,4.5,0,0,0,2-2l-1.28-.16c.19,1.21.4,2.42.63,3.62.16.88,1.51.51,1.35-.37-.23-1.21-.44-2.41-.63-3.63-.1-.63-1-.62-1.28-.16s-.84,1.46-1.53,1.43c-.5,0-.48-.77-.51-1.14a3.32,3.32,0,0,0-.44-1.61,1.56,1.56,0,0,0-1.67-.62,3.51,3.51,0,0,0-1.7,1.24c-.43.47-.89,1-1.59.74-1.47-.52-1.53-2.62-1.63-3.9-.08-.89-1.47-.9-1.4,0Z"/><path class="cls-3" d="M196.58,167.07a13,13,0,0,0-5.65-.51c-1.47.2-3.55.82-3.37,2.72a2.28,2.28,0,0,0,1.22,1.67c.33.21,1.66.68,1.47,1.25s-1.47.46-1.9.51a2.57,2.57,0,0,0-1.89,1c-1.14,1.67,0,3.51,1.07,4.86l.31-1.17-3.51.78c-.88.2-.51,1.55.37,1.35l3.51-.78a.71.71,0,0,0,.31-1.17,3.69,3.69,0,0,1-1.11-2.49c.11-.95.88-1,1.67-1.09a3.15,3.15,0,0,0,2.12-.79,1.72,1.72,0,0,0,.14-2.16c-.48-.71-1.25-.94-1.93-1.4-.9-.61-.17-1.33.62-1.55a10.94,10.94,0,0,1,6.18.27c.86.28,1.23-1.07.37-1.35Z"/><path class="cls-7" d="M109.2,132.91q28.68,1.86,57.44,1,8.18-.24,16.35-.71c.89,0,.9-1.45,0-1.39q-28.69,1.62-57.44.54-8.17-.3-16.35-.84c-.9,0-.89,1.35,0,1.4Z"/><path class="cls-1" d="M82.42,185.5a26.07,26.07,0,0,0,18.31.56c.84-.29.48-1.64-.38-1.35a24.88,24.88,0,0,1-17.56-.56c-.83-.35-1.2,1-.37,1.35Z"/><path class="cls-1" d="M201.93,186.84c3.38.85,6.89,1.7,10.39,1.11a9.94,9.94,0,0,0,6.94-4.36c.48-.77-.73-1.48-1.21-.71-3.33,5.41-10.68,3.88-15.74,2.61a.7.7,0,0,0-.38,1.35Z"/><path class="cls-7" d="M125.79,91.34A55.92,55.92,0,0,1,144.16,89c.9,0,.89-1.36,0-1.39A56.62,56.62,0,0,0,125.41,90a.7.7,0,0,0,.38,1.35Z"/><path class="cls-7" d="M211.52,216.4a9,9,0,0,0,4.27-7.74,1,1,0,1,0-2.09,0,7,7,0,0,1-3.24,5.93,1.07,1.07,0,0,0-.37,1.43,1,1,0,0,0,1.43.38Z"/><path class="cls-7" d="M95.65,216.91l4.06-.25a1,1,0,0,0,0-2.1l-4.06.25a1.07,1.07,0,0,0-1.05,1.05,1.06,1.06,0,0,0,1.05,1Z"/><path class="cls-7" d="M220.77,203.07a6.35,6.35,0,0,0,4.3-.65,1,1,0,1,0-1.06-1.81,2.73,2.73,0,0,1-.48.25l.25-.1a5.1,5.1,0,0,1-1.22.32l.28,0a6.6,6.6,0,0,1-1.72,0l.27,0h-.06a1.15,1.15,0,0,0-.81.11,1,1,0,0,0-.48.62,1,1,0,0,0,.11.81.93.93,0,0,0,.62.48Z"/></g></svg>