<svg xmlns="http://www.w3.org/2000/svg" viewBox="0 0 300 300"><defs><style>.cls-1{fill:#bf541f;}.cls-2{fill:#e6681f;}.cls-3{fill:#262322;}.cls-4{fill:#f4b89a;}.cls-5{fill:#ebebeb;}.cls-6{fill:#ffe8de;}.cls-7{fill:#fee7de;}</style></defs><title>Artboard 3</title><g id="Layer_3" data-name="Layer 3"><path class="cls-1" d="M290.6,179.63c1.09-9.44-4.22-18.46-10.42-25.67-1.08-1.26-2.2-2.49-3.34-3.72l-90.52-1.09-51.23,36,3.41,4.37H286.92A23.47,23.47,0,0,0,290.6,179.63Z"/><path class="cls-2" d="M290.6,179.63c1.09-9.44-4.22-18.46-10.42-25.67s-13.57-13.6-18.05-22a39.2,39.2,0,0,1,.3-36.84,37.09,37.09,0,0,1,5.77-7.76c-30.54,1.66-52.69,8.17-71.31,18.8C176.8,117.64,159.27,131.39,155,135.4s-19.76,18.72-32.19,37-16.89,22.16-15.29,22.73,16.51-.38,30.94-6.11,20-12.61,26.23-21.2,28-11.08,36.91-6.3S215,179.33,212.29,191s10.57,2.29,10.57,2.29l60.45.81A25.32,25.32,0,0,0,290.6,179.63Z"/><path class="cls-3" d="M177.17,212.62c18.93,0,28.07-14.84,30.26-24.82s-4.8-23.24-18.14-23.24-27.27,10.92-30.15,24S161.52,212.62,177.17,212.62Z"/><path class="cls-4" d="M170.61,123.15a304.59,304.59,0,0,1,26.28-17c2.28-1.31,4.62-2.54,7-3.72,0,0,1.83,3,1.44,4.77S178.9,127.66,175.69,128,170.61,123.16,170.61,123.15Z"/><path class="cls-5" d="M182,192.68a5.26,5.26,0,0,0,5.14-4.22,3.26,3.26,0,0,0-3.08-4,5.56,5.56,0,0,0-5.13,4.09C178.48,190.82,179.37,192.68,182,192.68Z"/><path class="cls-5" d="M185.38,178.65a.49.49,0,0,0,.45-.37l2-8.93a.29.29,0,0,0-.29-.37.48.48,0,0,0-.45.37l-2,8.93A.29.29,0,0,0,185.38,178.65Z"/><path class="cls-5" d="M191.92,181.63a.48.48,0,0,0,.29-.11l7.7-6.31a.4.4,0,0,0,.11-.53.37.37,0,0,0-.52,0L191.8,181a.37.37,0,0,0-.11.52A.28.28,0,0,0,191.92,181.63Z"/><path class="cls-5" d="M193.33,188.82h8.93a.49.49,0,0,0,.45-.37.29.29,0,0,0-.29-.37h-8.93a.48.48,0,0,0-.45.37A.28.28,0,0,0,193.33,188.82Z"/><path class="cls-5" d="M193.7,202.34a.47.47,0,0,0,.28-.11.4.4,0,0,0,.12-.53l-4.93-6.31a.39.39,0,0,0-.53,0,.39.39,0,0,0-.11.52l4.93,6.32A.3.3,0,0,0,193.7,202.34Z"/><path class="cls-5" d="M179,207.93a.49.49,0,0,0,.45-.37l2-8.93a.29.29,0,0,0-.29-.37.48.48,0,0,0-.45.37l-2,8.93A.28.28,0,0,0,179,207.93Z"/><path class="cls-5" d="M166.67,202.34a.48.48,0,0,0,.29-.11l7.7-6.32a.38.38,0,0,0,.11-.52.37.37,0,0,0-.52,0l-7.7,6.31a.39.39,0,0,0-.11.53A.28.28,0,0,0,166.67,202.34Z"/><path class="cls-5" d="M164,188.82H173a.48.48,0,0,0,.45-.37.29.29,0,0,0-.29-.37H164.2a.5.5,0,0,0-.45.37A.29.29,0,0,0,164,188.82Z"/><path class="cls-5" d="M177.53,181.63a.45.45,0,0,0,.28-.11.39.39,0,0,0,.12-.52L173,174.68a.37.37,0,0,0-.52,0,.4.4,0,0,0-.12.53l4.93,6.31A.3.3,0,0,0,177.53,181.63Z"/><path class="cls-1" d="M222,191.08s6.08-16-2.06-31.75-21.36-18.87-36.27-16.88-29.84,13.3-33.52,17,15-12.18,35-14.54,29.43,9.24,32.17,15.69,5.17,18.91,2.83,31.51Z"/><path class="cls-6" d="M147.49,166c-2.17,2.33-7.27,8.31-9.32,7.88s-1.39-3.8-1.08-5.88,3-8.23,5.34-8.66,12.22-2.8,12.78-2.44S149.59,163.71,147.49,166Z"/><path class="cls-3" d="M213.53,179.16a21.64,21.64,0,0,0-7.35-15.38,22,22,0,0,0-7.89-4.24,30.13,30.13,0,0,0-10-1A51.07,51.07,0,0,0,176,160.6c-.48.15-.52-.57,0-.71a51.94,51.94,0,0,1,11.25-2.07,33.16,33.16,0,0,1,10.4.72,21.62,21.62,0,0,1,14,10.68,23.42,23.42,0,0,1,2.7,9.74c0,.46-.73.66-.76.2Z"/><path class="cls-2" d="M139.09,170.42a14.08,14.08,0,0,0,3.2-8.39c0-.47.77-.67.76-.2a15,15,0,0,1-3.4,9c-.33.41-.89,0-.56-.38Z"/><path class="cls-2" d="M149.84,159.54l-3.28.92c-.49.13-.53-.58,0-.72l3.28-.92c.49-.13.53.58,0,.72Z"/><path class="cls-3" d="M196.74,111.24a1.66,1.66,0,0,1-.24-1.82.46.46,0,0,1,.51-.25c.19.06.24.25.16.45l0,0c0,.08,0-.06,0,0l0,.1,0,.18a.13.13,0,0,1,0,.06s0-.09,0,0a.34.34,0,0,0,0,.1,1.28,1.28,0,0,0,0,.19v0s0-.07,0,0l0,.09a1,1,0,0,0,.06.16s0,0,0,0,0-.06,0,0a.25.25,0,0,1,0,.07l.13.14a.32.32,0,0,1,.05.26.5.5,0,0,1-.17.26.52.52,0,0,1-.28.11.36.36,0,0,1-.24-.11Z"/><path class="cls-3" d="M194,113.48a2.93,2.93,0,0,1-.8-3.58.46.46,0,0,1,.51-.26c.19.06.24.26.16.46a2.29,2.29,0,0,0,.64,2.74c.35.25-.16.89-.51.64Z"/><path class="cls-3" d="M190.77,117.15a5.87,5.87,0,0,1-.83-6,.46.46,0,0,1,.51-.26c.2,0,.23.26.16.45a5.19,5.19,0,0,0,.8,5.29c.28.31-.36.84-.64.52Z"/><path class="cls-3" d="M187.87,119.92a8.85,8.85,0,0,1-2-6.77c0-.47.78-.47.74,0a8.19,8.19,0,0,0,1.94,6.25c.28.32-.36.84-.64.52Z"/><path class="cls-2" d="M183.35,199.41l-.35,1.93a.49.49,0,0,1-.45.37.29.29,0,0,1-.29-.37l.35-1.93a.49.49,0,0,1,.46-.37.29.29,0,0,1,.28.37Z"/><path class="cls-2" d="M181.46,182.87a6.44,6.44,0,0,1,4-.93.29.29,0,0,1,.29.37.5.5,0,0,1-.45.37,5.65,5.65,0,0,0-3.59.83.33.33,0,0,1-.48-.13.45.45,0,0,1,.24-.51Z"/><path class="cls-4" d="M113.65,192.35s-7.68-1.33-3.08-9.62,6.25-9.2,8.43-8.5S118.27,188.07,113.65,192.35Z"/><path class="cls-5" d="M117.14,177.34a43.09,43.09,0,0,0-3.47,7.43c-.16.47-.9.47-.74,0a44.89,44.89,0,0,1,3.54-7.63c.26-.44.93-.25.67.2Z"/><path class="cls-1" d="M173.37,136.09a8.11,8.11,0,0,0-.67-6.11c-.21-.36.42-.89.64-.52a8.71,8.71,0,0,1,.77,6.63c-.12.48-.86.48-.74,0Z"/><path class="cls-1" d="M117.26,189.78a11.8,11.8,0,0,0,2.87-8.79c-.06-.45.7-.64.76-.2a12.6,12.6,0,0,1-3.08,9.36c-.33.4-.89,0-.55-.37Z"/><path class="cls-1" d="M174.59,141.49a115.39,115.39,0,0,1,21-6.44c.48-.1.53.61,0,.71a114.8,114.8,0,0,0-20.77,6.36c-.47.2-.71-.44-.23-.63Z"/><path class="cls-1" d="M212,104.51a4.75,4.75,0,0,0,.2-4.34c-.08-.16.07-.41.25-.51a.32.32,0,0,1,.47.14,5.41,5.41,0,0,1-.25,4.9c-.24.46-.91.26-.67-.19Z"/><path class="cls-1" d="M206.35,154.88c-2.28-1.52-5.21-2-8.14-2.21a62.31,62.31,0,0,0-10.12.11c-2,.18-3.92.45-5.89.8-.48.09-.52-.62,0-.71a67.3,67.3,0,0,1,10.57-1.08,43,43,0,0,1,9.68.67,12.66,12.66,0,0,1,4.45,1.79c.36.24-.15.88-.51.63Z"/><path class="cls-5" d="M260.71,140.11l-17.53.22c-.48,0-.31-.73.16-.74l17.53-.22c.48,0,.32.73-.16.74Z"/><path class="cls-4" d="M214,170.45a14,14,0,0,0-2.66-5.77c-.27-.34.37-.86.64-.53a14.45,14.45,0,0,1,2.74,5.92.46.46,0,0,1-.24.51c-.18.09-.44,0-.48-.13Z"/><path class="cls-5" d="M140.92,154.29A113.64,113.64,0,0,1,158,137.23c.51-.41-.21-1.11-.7-.71a112.72,112.72,0,0,0-17.12,17.06c-.41.5.3,1.21.7.71Z"/><path class="cls-5" d="M135,186.94a25.06,25.06,0,0,0,15.8-8.58c.42-.48-.28-1.19-.71-.7A24.12,24.12,0,0,1,135,185.94c-.63.08-.64,1.08,0,1Z"/><path class="cls-4" d="M261.38,130.46a39.42,39.42,0,0,1-2.07-27.82,222.67,222.67,0,0,0-22.09,3c-10.76,2-28.2,11.46-30.76,15.28s-2.12,7.07-.37,9.08,53.12,2.1,54.87,1A1.6,1.6,0,0,0,261.38,130.46Z"/><path class="cls-1" d="M265.64,137.49c-.19-.26-.38-.52-.56-.79L253,192h.74Z"/><path class="cls-3" d="M261.11,97.79c-12.92.89-37.8,6.24-48,12.43C202,117,184.45,129.46,179.35,133.76s-31.24,27.12-31.51,27.36l.44.5c.26-.23,26.46-23.1,31.49-27.35s22.7-16.86,33.59-23.44c10.08-6.09,34.54-11.36,47.42-12.28Z"/><path class="cls-1" d="M265.81,137.72c-.36-.49-.71-1-1.06-1.48-36.12,0-60.55.94-80.43,6.69l.12,1.41C204.38,138.58,229.07,137.65,265.81,137.72Z"/><path class="cls-4" d="M286.83,189.68c-30.82.12-64.24.37-65.36.84s-3.42,3.5-5.13,6c3.21.36,33.95.45,64.1.19A31.71,31.71,0,0,0,286.83,189.68Z"/><path class="cls-5" d="M12.92,122.83c1-3.94,5.24-5.15,8.82-5.46a63.73,63.73,0,0,1,10.79.11,164.47,164.47,0,0,1,21.8,3.87,220.89,220.89,0,0,0,21.79,4,159.61,159.61,0,0,0,22.18,1.11A160.37,160.37,0,0,0,123.42,124c.63-.11.36-1.08-.27-1a159.48,159.48,0,0,1-47,1.33c-15.14-1.84-29.76-7-45-8a43.87,43.87,0,0,0-12.22.4c-3.12.68-6.11,2.54-6.95,5.8a.5.5,0,0,0,1,.26Z"/><path class="cls-5" d="M34.37,151.53c14-5.81,29,.66,43.35.82a.5.5,0,0,0,0-1c-14.46-.16-29.52-6.63-43.62-.79-.58.25-.32,1.21.27,1Z"/><path class="cls-5" d="M87,185.32a70,70,0,0,0-29.13-5.19C47.28,180.5,37,183,26.42,183.45a51.46,51.46,0,0,1-17-1.79.5.5,0,0,0-.26,1c9.6,2.89,19.78,1.94,29.57.61,10.65-1.44,21.18-3,31.92-1.4a67.84,67.84,0,0,1,16.07,4.44c.59.25.85-.72.27-1Z"/><path class="cls-2" d="M112.49,129.17a38.42,38.42,0,0,0,10.29-1.3.5.5,0,0,0-.27-1,37.22,37.22,0,0,1-10,1.27.5.5,0,0,0,0,1Z"/><path class="cls-2" d="M41.11,153.14a8.92,8.92,0,0,1,4.19-.53.5.5,0,0,0,.5-.5.51.51,0,0,0-.5-.5,9.55,9.55,0,0,0-4.46.57.51.51,0,0,0-.35.61.5.5,0,0,0,.62.35Z"/><path class="cls-7" d="M47.79,126.68a42.27,42.27,0,0,0,16.12,3.55.5.5,0,0,0,0-1,40.84,40.84,0,0,1-15.62-3.41c-.58-.25-1.09.61-.5.86Z"/><path class="cls-7" d="M77.28,168.21a37.88,37.88,0,0,1,19.09-.29c.63.15.89-.82.27-1a39.2,39.2,0,0,0-19.63.29.5.5,0,0,0,.27,1Z"/></g></svg>